<svg width="333" height="243" viewBox="0 0 333 243" fill="none" xmlns="http://www.w3.org/2000/svg">
  <path d="M170.047 240.597c39.226 0 71.026-1.24 71.026-2.769s-31.8-2.77-71.026-2.77-71.026 1.24-71.026 2.77c0 1.529 31.799 2.769 71.026 2.769" fill="#f9f0e3"/>
  <path opacity=".5" d="M45.087 235.93c24.9 0 45.086-1.534 45.086-3.425s-20.186-3.424-45.086-3.424C20.186 229.081 0 230.614 0 232.505s20.186 3.425 45.087 3.425" fill="#f9ead4"/>
  <path d="M328.464 240.604c0 1.156-15.349 2.087-34.286 2.087-18.936 0-34.285-.931-34.285-2.087s15.349-2.086 34.285-2.086c18.93 0 34.286.93 34.286 2.086" fill="#f9f0e3"/>
  <path d="m245.373 74.824-1.583 2.734h3.159zm0 5.016-1.583 2.734h3.159zm3.276-2.958-1.467 2.959h2.927zM7.424 91.13 5.84 93.873H9zm0 5.018L5.84 98.88H9zm3.276-2.959-1.468 2.958h2.928zM242.213 195.9l-1.576 2.734h3.152zm0 5.009-1.576 2.741h3.152zm3.276-2.958-1.46 2.959h2.92z" fill="#e7cca8"/>
  <path d="M179.948 55.508a3.477 3.477 0 0 1-3.48 3.482 3.476 3.476 0 0 1-3.479-3.482 3.476 3.476 0 0 1 3.479-3.483 3.486 3.486 0 0 1 3.48 3.483Z" stroke="#fff" stroke-miterlimit="10"/>
  <path d="M330.287 203.635h-72.108a1.93 1.93 0 0 1-1.932-1.934c0-1.068.864-1.933 1.932-1.933h72.108c1.068 0 1.932.865 1.932 1.933a1.93 1.93 0 0 1-1.932 1.934" fill="#fee6c6"/>
  <path d="M268.138 237.827c-1.083 0-1.976-.662-2.02-1.505l-1.874-33.879h7.787l-1.874 33.879c-.051.843-.937 1.505-2.019 1.505m52.888 0c-1.083 0-1.976-.662-2.02-1.505l-1.874-33.879h7.787l-1.874 33.879c-.051.843-.937 1.505-2.019 1.505m-26.789 0c-1.083 0-1.976-.662-2.02-1.505l-1.874-33.879h7.787l-1.874 33.879c-.044.843-.937 1.505-2.019 1.505" fill="#fee6c6"/>
  <path d="M310.414 192.997c1.037-4.631-1.873-9.227-6.5-10.265s-9.219 1.874-10.257 6.505c-1.037 4.631 1.873 9.227 6.5 10.265s9.219-1.874 10.257-6.505" fill="#f9d8ac"/>
  <path d="M306.36 184.057h-8.854a.894.894 0 1 1 0-1.788h8.854a.893.893 0 1 1 0 1.788m-8.244-16.067c.312.146.683.698.806 1.462.124.763-.036 1.417-.298 1.643-.305-.139-.682-.698-.806-1.462-.123-.763.058-1.41.298-1.643" fill="#f9d8ac"/>
  <path d="m298.697 171.019-.179.03.805 4.899.179-.029z" fill="#f9d8ac"/>
  <path d="M300.695 170.884c-.334-.022-.886.291-1.293.909-.407.625-.516 1.286-.378 1.621.327.029.886-.291 1.293-.909.414-.618.501-1.287.378-1.621" fill="#f9d8ac"/>
  <path d="M296.598 171.56c.312-.131.93-.014 1.518.444s.901 1.054.879 1.417c-.298.138-.93.015-1.518-.443-.589-.458-.886-1.062-.879-1.418m.392 2.399c.312-.13.93-.007 1.518.444.588.458.901 1.054.879 1.418-.298.138-.93.014-1.518-.444-.589-.458-.886-1.061-.879-1.418" fill="#f9d8ac"/>
  <path d="M301.094 173.29c-.334-.022-.886.291-1.293.909s-.516 1.287-.378 1.621c.327.029.887-.291 1.293-.909.407-.625.502-1.294.378-1.621" fill="#f9d8ac"/>
  <path d="m299.481 175.81-.179.03.805 4.899.18-.029z" fill="#f9d8ac"/>
  <path d="M301.487 175.675c-.334-.022-.886.291-1.293.909-.407.625-.516 1.286-.378 1.621.327.029.886-.284 1.293-.909.407-.618.501-1.287.378-1.621" fill="#f9d8ac"/>
  <path d="M297.382 176.351c.313-.131.93-.014 1.519.444s.9 1.054.879 1.417c-.298.138-.93.015-1.519-.443s-.886-1.062-.879-1.418m.4 2.406c.312-.131.93-.007 1.518.444.588.458.901 1.054.879 1.417-.298.139-.93.015-1.518-.443-.589-.458-.894-1.069-.879-1.418" fill="#f9d8ac"/>
  <path d="M301.878 178.081c-.334-.022-.886.291-1.293.909s-.515 1.287-.377 1.621c.327.029.886-.291 1.293-.909.414-.618.501-1.294.377-1.621" fill="#f9d8ac"/>
  <path d="m300.273 180.601-.179.03.805 4.899.179-.029zm5.528-9.07c.247.218.421.785.297 1.447-.123.662-.479 1.141-.799 1.243-.247-.211-.421-.785-.305-1.447.131-.654.502-1.126.807-1.243" fill="#f9d8ac"/>
  <path d="m305.224 174.176-.781 4.247.179.033.78-4.247z" fill="#f9d8ac"/>
  <path d="M307.326 174.715c-.312-.123-.922-.043-1.511.327-.581.378-.893.887-.864 1.2.298.131.923.044 1.511-.327.581-.378.872-.894.864-1.2" fill="#f9d8ac"/>
  <path d="M303.237 173.959c.334-.007.879.284 1.293.843.414.56.523 1.149.385 1.433-.327.014-.879-.284-1.293-.844-.414-.559-.502-1.148-.385-1.432m-.378 2.086c.334-.007.879.284 1.293.843.414.56.523 1.149.385 1.433-.327.014-.879-.284-1.293-.844s-.509-1.148-.385-1.432" fill="#f9d8ac"/>
  <path d="M306.941 176.794c-.312-.123-.922-.043-1.511.327-.581.378-.893.887-.864 1.2.298.131.922.044 1.511-.327.581-.371.879-.894.864-1.2m-2.476 1.538-.781 4.247.179.033.78-4.247z" fill="#f9d8ac"/>
  <path d="M306.564 178.867c-.313-.124-.923-.044-1.511.327-.581.378-.894.887-.865 1.199.298.131.923.044 1.511-.327.581-.371.872-.887.865-1.199" fill="#f9d8ac"/>
  <path d="M302.474 178.118c.334-.007.879.284 1.293.844.414.559.523 1.148.385 1.432-.327.014-.879-.284-1.293-.843-.414-.56-.501-1.149-.385-1.433m1.223 4.366-.781 4.247.179.033.78-4.247z" fill="#f9d8ac"/>
  <path d="M311.888 130.338c.377.24.777 1.003.821 2.014.05 1.003-.262 1.825-.625 2.079-.378-.218-.777-1.003-.828-2.014-.044-1.003.29-1.81.632-2.079" fill="#fee6c6"/>
  <path d="m312.199 134.335-.239.012.312 6.455.239-.012z" fill="#fee6c6"/>
  <path d="M314.793 134.467c-.428-.08-1.184.24-1.808.982-.625.741-.857 1.592-.727 2.042.422.095 1.184-.24 1.809-.981.617-.742.835-1.592.726-2.043" fill="#fee6c6"/>
  <path d="M309.396 134.728c.422-.116 1.206.124 1.896.8s1.01 1.498.923 1.963c-.407.131-1.206-.124-1.896-.8-.697-.676-.995-1.505-.923-1.963m.153 3.162c.421-.116 1.206.124 1.896.8s1.01 1.498.922 1.963c-.406.131-1.205-.124-1.896-.8-.697-.676-.987-1.505-.922-1.963" fill="#fee6c6"/>
  <path d="M314.946 137.629c-.428-.08-1.184.24-1.809.982-.624.741-.857 1.592-.726 2.043.421.094 1.184-.24 1.809-.982.617-.741.835-1.592.726-2.043m-2.454 3.053-.239.011.311 6.456.24-.012z" fill="#fee6c6"/>
  <path d="M315.099 140.785c-.429-.08-1.184.24-1.809.982-.625.741-.857 1.592-.727 2.043.422.094 1.184-.24 1.809-.982.618-.741.835-1.599.727-2.043" fill="#fee6c6"/>
  <path d="M309.702 141.047c.421-.117 1.205.123 1.895.799.691.677 1.01 1.498.923 1.963-.407.131-1.206-.123-1.896-.799-.697-.684-.995-1.513-.922-1.963m.152 3.162c.421-.117 1.206.123 1.896.8.69.676 1.009 1.497.922 1.962-.406.131-1.206-.123-1.896-.799-.697-.676-.995-1.505-.922-1.963" fill="#fee6c6"/>
  <path d="M315.251 143.948c-.429-.08-1.184.239-1.809.981s-.857 1.592-.726 2.043c.421.094 1.184-.24 1.809-.982.617-.741.835-1.592.726-2.042" fill="#fee6c6"/>
  <path d="m312.81 146.971-.239.011.312 6.456.239-.012z" fill="#fee6c6"/>
  <path d="M317.307 199.68h-6.756a4.624 4.624 0 0 1-4.605-4.995l3.508-43.148h8.942l3.509 43.148a4.614 4.614 0 0 1-4.598 4.995" fill="#fee6c6"/>
  <path d="M319.319 151.669h-10.78c-.632 0-1.14-.509-1.14-1.142s.508-1.141 1.14-1.141h10.78c.632 0 1.14.509 1.14 1.141 0 .625-.508 1.142-1.14 1.142" fill="#fee6c6"/>
  <path d="M315.28 160.225c.102-3.62.284-7.241.472-10.854.189-3.613.444-7.227.669-10.84.276-3.613.523-7.226.835-10.832l.479-5.409c.189-1.803.349-3.606.553-5.409-.044 1.81-.131 3.62-.197 5.431l-.276 5.423c-.188 3.613-.443 7.227-.668 10.84-.283 3.613-.523 7.226-.835 10.832-.313 3.606-.632 7.212-1.032 10.818" fill="#fee6c6"/>
  <path d="M315.622 156.081c-.545-7.234-.756-14.475-.886-21.716-.102-7.241-.117-14.482.203-21.73.545 7.234.755 14.475.886 21.716.095 7.241.109 14.482-.203 21.73" fill="#fee6c6"/>
  <path d="M314.699 162.871c.45-3.598.973-7.182 1.518-10.759.537-3.585 1.14-7.154 1.707-10.731.625-3.57 1.22-7.139 1.874-10.702l.995-5.343c.356-1.774.69-3.555 1.068-5.329-.218 1.796-.48 3.591-.719 5.387l-.792 5.373c-.538 3.584-1.14 7.153-1.707 10.73-.625 3.57-1.22 7.14-1.874 10.702-.661 3.569-1.322 7.125-2.07 10.672" fill="#fee6c6"/>
  <path d="M313.362 112.745a.763.763 0 1 1-1.525 0 .763.763 0 0 1 1.525 0Zm4.09-1.869a1.832 1.832 0 1 0-.001-3.663 1.832 1.832 0 0 0 .001 3.663Zm3.683 7.604a.603.603 0 1 0 0-1.206.603.603 0 0 0 0 1.206Zm2.063 12.425a.568.568 0 1 1-1.136-.002.568.568 0 0 1 1.136.002Zm-14.499-4.791a.988.988 0 1 0 0-1.977.988.988 0 0 0 0 1.977Z" stroke="#fee6c6" stroke-miterlimit="10"/>
  <path d="M284.968 171.095h-25.176v27.452h25.176z" fill="#f9d8ac"/>
  <path d="M282.15 174.17h-19.533v21.301h19.533zM31.35 45.83h-4.053v179.383h4.054z" fill="#fee6c6"/>
  <path d="M50.005 231.764H8.65c0-4.428 9.262-8.012 20.68-8.012 11.42 0 20.674 3.584 20.674 8.012M57.77 48.295H.878l1.053-3.693.21-.727 1.911-6.688.21-.727L14.68 0h30.74l9.32 36.46.19.727 1.706 6.688.19.727z" fill="#fee6c6"/>
  <path d="m4.612 38.822-1.94 3.36h3.872zM9 42.181l-1.94-3.359h3.88zm3.872-3.359-1.932 3.36h3.871zm4.394 3.359-1.94-3.359h3.872zm3.872-3.359-1.94 3.36h3.872zm4.387 3.359-1.94-3.359h3.88zm3.872-3.359-1.933 3.36h3.872zm4.387 3.359-1.932-3.359h3.872zm3.879-3.359-1.94 3.36h3.872zm4.387 3.359-1.94-3.359h3.873zm3.872-3.359-1.94 3.36h3.88zm4.388 3.359-1.933-3.359h3.872zm3.871-3.359-1.932 3.36h3.872zm.749-1.635H4.052l.21-.727H54.74zm1.895 7.416H1.932l.21-.727h54.494z" fill="#e5caa6"/>
  <path d="M64.19 154.706c1.482-5.743 4.67-10.876 7.947-15.819 2.905-4.391 5.949-8.761 9.784-12.367 3.836-3.613 8.564-6.456 13.765-7.255l-3.813 12.301c-1.271 4.1-2.586 8.288-5.092 11.77-2.622 3.635-6.421 6.296-10.475 8.201-4.06 1.904-8.404 3.104-12.726 4.296" fill="#66a986"/>
  <path d="M64.46 154.78c2.186-7.771 6.937-14.838 11.73-21.257 2.478-3.323 5.202-6.449 8.5-8.972 1.561-1.199 9.53-6.485 10.321-3.991.349 1.105-1.583 5.096-1.91 6.151-.61 1.97-1.206 3.94-1.83 5.903-1.17 3.686-2.441 7.415-4.715 10.585-5.346 7.423-14.673 10.062-23.04 12.374-.335.094-.197.618.145.523 8.179-2.261 17.055-4.805 22.641-11.683 5.513-6.783 7.133-16.946 9.654-25.074.065-.211-.146-.371-.335-.335-7.866 1.44-13.96 6.609-18.777 12.767-5.31 6.79-10.554 14.496-12.907 22.871-.102.327.42.473.523.138" fill="#66a986"/>
  <path d="M55.474 174.01c5.739-12.272 11.47-24.552 17.208-36.823.298-.633-.646-1.185-.944-.553-5.739 12.272-11.47 24.551-17.208 36.823-.29.633.646 1.185.944.553m.828-26.412c.334-12.861 5.186-25.86 8.419-38.227.087-.341-.436-.487-.523-.145-3.247 12.432-8.1 25.438-8.434 38.372-.014.349.53.349.538 0" fill="#80b996"/>
  <path d="M47.644 150.288c-5.477-4.871-10.997-9.793-15.29-15.74-4.286-5.947-7.3-13.079-7.06-20.407 3.493 5.547 10.873 7.619 14.512 13.071 1.199 1.796 1.918 3.868 2.623 5.911 1.975 5.721 3.958 11.45 5.934 17.172" fill="#66a986"/>
  <path d="M47.833 150.099c-5.746-5.111-11.586-10.287-15.952-16.685-2.172-3.184-3.951-6.667-5.07-10.36a30 30 0 0 1-1.162-5.874c-.16-1.716-.668-2.334.603-1.28 1.801 1.498 3.348 3.112 5.28 4.479 2.652 1.868 5.456 3.62 7.453 6.23 2.579 3.366 3.625 7.903 4.998 11.872 1.373 3.962 2.738 7.925 4.111 11.887.116.327.64.189.523-.146-1.525-4.405-3.043-8.804-4.569-13.209-1.198-3.476-2.135-7.307-4.307-10.339-3.777-5.278-10.533-7.284-14.223-12.679-.145-.218-.508-.145-.508.139-.117 15.601 11.63 26.724 22.43 36.343.27.24.661-.146.393-.378" fill="#66a986"/>
  <path d="M36.995 123.556a185.2 185.2 0 0 1 17.433 57.993c.087.684 1.177.698 1.09 0a186.7 186.7 0 0 0-17.586-58.546c-.305-.632-1.25-.08-.937.553" fill="#80b996"/>
  <path d="M53.156 107.197c-4.481-15.725-4.35-32.737.378-48.397a54 54 0 0 1 7.438 15.529c1.816 6.158 2.52 12.708 1.453 19.04-1.068 6.332-3.988 12.432-8.673 16.816" fill="#66a986"/>
  <path d="M53.418 107.125c-2.295-8.303-3.428-16.86-3.232-25.475a87 87 0 0 1 1.416-13.762 89 89 0 0 1 1.293-5.823c.85-3.28 1.446-1.658 2.71.523 8.404 14.453 10.867 34.759-2.056 47.408-.254.248.13.633.385.386 14.325-14.024 10.039-36.642-.174-51.72-.13-.189-.429-.167-.501.066-4.657 15.87-4.78 32.599-.378 48.542.109.335.632.189.537-.145" fill="#66a986"/>
  <path d="M65.833 150.288c-1.192-7.91 1.35-16.024 5.47-22.879 4.118-6.856 9.747-12.658 15.326-18.387 1.358 10.92-.959 22.269-6.487 31.778-1.518 2.617-3.32 5.14-5.73 6.965-2.412 1.825-5.521 2.901-8.492 2.363" fill="#80b996"/>
  <path d="M66.108 150.287c-1.038-8.266 1.446-16.263 5.76-23.278 2.194-3.563 4.81-6.842 7.577-9.975a161 161 0 0 1 3.857-4.188c.56-.588 1.111-1.33 1.75-1.824.981-.756.858-1.287 1.482-.182.596 1.04.197 3.7.182 4.885a53 53 0 0 1-.349 5.489 50.7 50.7 0 0 1-2.854 11.785c-2.812 7.496-8.092 17.943-17.608 16.86-.349-.037-.341.508 0 .545 8.717.996 13.888-7.445 16.947-14.366 3.762-8.499 5.063-17.804 4.031-27.016-.022-.218-.283-.378-.465-.196-10.94 11.254-23.005 24.493-20.869 41.461.058.342.603.349.56 0m-8.747-14.14c-.675-9.67 1.271-19.383 4.453-28.543s7.583-17.833 11.97-26.485c2.913 9.895 3.843 20.531 1.388 30.549s-8.52 19.339-17.39 24.588" fill="#80b996"/>
  <path d="M57.639 136.148c-.574-9.968 1.358-19.76 4.677-29.124 1.766-4.98 3.887-9.83 6.16-14.599a332 332 0 0 1 3.363-6.84c.131-.263 1.286-3.105 1.562-3.09.915.036.974 1.81 1.162 2.602 4.395 18.604.37 40.284-16.917 50.927-.298.182-.022.654.276.473 18.973-11.676 21.777-35.602 16.133-55.45-.058-.218-.392-.283-.501-.065-8.739 17.238-17.608 35.304-16.46 55.166.022.349.566.356.545 0m-6.153-34.817a275.4 275.4 0 0 1 2.303 76.722c-.08.698 1.017.69 1.09 0a277 277 0 0 0-2.34-77.013c-.123-.69-1.17-.399-1.053.291" fill="#80b996"/>
  <path d="M53.302 109.596c-4.177-3.489-7.816-9.414-8.797-14.765-.98-5.351-.69-10.855-.356-16.285.342-5.431.727-10.913-.058-16.3A88 88 0 0 1 54.29 79.992c2.04 4.762 3.675 9.786 3.857 14.962.181 5.177-1.213 10.557-4.634 14.446" fill="#80b996"/>
  <path d="M53.499 109.408c-6.756-5.961-9.35-13.85-9.385-22.683-.015-4.093.355-8.171.559-12.25.102-2.043.174-4.085.145-6.128-.007-.59-.566-4.704-.203-4.922 1.307-.785 10.554 19.39 11.07 20.872 2.89 8.28 3.516 17.754-2.36 24.915-.219.269.159.654.384.385 11.644-14.191-.421-35.216-9.385-47.48-.138-.19-.545-.16-.508.137 1.213 9.517-.85 19.019-.102 28.543.581 7.422 3.785 14.053 9.392 18.996.269.233.654-.152.392-.385m-6.334 37.52c2.106-7.408.864-17.506-2.666-24.355-3.53-6.841-9.03-12.504-15.13-17.201.333 7.895.944 15.9 3.573 23.352 2.637 7.459 7.17 14.649 14.223 18.204" fill="#80b996"/>
  <path d="M47.426 147.001c4.402-16.874-5.012-31.756-17.862-41.817-.167-.131-.48-.066-.465.196.668 15.085 3.11 33.85 17.927 41.788.313.168.581-.305.276-.472-6.733-3.606-11.055-10.011-13.721-17.027-1.373-3.613-2.252-7.401-2.833-11.217-.392-2.589-.64-5.191-.82-7.801-.059-.851-.226-1.789-.16-2.639.094-1.236-.378-1.592.842-1.309 1.228.284 3.232 2.763 4.126 3.613a56 56 0 0 1 3.777 3.963c2.659 3.082 5.005 6.514 6.596 10.272 2.934 6.907 3.697 15.027 1.794 22.305-.087.342.436.487.523.145" fill="#80b996"/>
  <path d="M77.948 204.836c0 12.301-4.772 23.017-11.825 28.593H43.88c-7.053-5.576-11.826-16.292-11.826-28.593 0-11.494 4.17-21.607 10.467-27.438h24.952c6.305 5.831 10.474 15.937 10.474 27.438" fill="#fee6c6"/>
  <path d="m44.658 189.271-5.971 10.359h11.949z" stroke="#e6caa6" stroke-miterlimit="10"/>
  <path d="m44.658 191.801-3.792 6.572h7.584z" stroke="#e6caa6" stroke-width=".5" stroke-miterlimit="10"/>
  <path d="m53.288 223.287-7.22 4.173v-8.339z" stroke="#e6caa6" stroke-width=".75" stroke-miterlimit="10"/>
  <path d="m50.89 223.287-3.624 2.094v-4.188z" stroke="#e6caa6" stroke-width=".5" stroke-miterlimit="10"/>
  <path d="m63.413 180.444-5.782 10.026h11.572z" stroke="#e6caa6" stroke-miterlimit="10"/>
  <path d="m63.413 184.247-2.491 4.319h4.99z" stroke="#e6caa6" stroke-width=".5" stroke-miterlimit="10"/>
  <path d="m63.413 224.473-6.64-15.275H70.06z" stroke="#e6caa6" stroke-miterlimit="10"/>
  <path d="M63.413 220.751 59.2 211.06h8.433z" stroke="#e6caa6" stroke-width=".5" stroke-miterlimit="10"/>
  <path d="M41.397 211.56c0-1.017.828-1.846 1.845-1.846s1.845.829 1.845 1.846a1.85 1.85 0 0 1-1.846 1.847 1.85 1.85 0 0 1-1.844-1.847Zm22.016-9.305a2.965 2.965 0 0 0 2.964-2.967 2.965 2.965 0 1 0-5.927 0 2.965 2.965 0 0 0 2.963 2.967Zm-11.942-17.361a1.156 1.156 0 1 0-.001-2.312 1.156 1.156 0 0 0 .001 2.312Z" stroke="#e6caa6" stroke-miterlimit="10"/>
  <path opacity=".25" d="M69.145 179.114c-3.981 19.68-13.104 38.306-26.267 53.457.327.291.661.589 1.003.858h22.242c7.053-5.576 11.825-16.292 11.825-28.593 0-10.447-3.443-19.738-8.803-25.722" fill="#fee6c6"/>
  <path d="M67.437 177.398H42.566a1.365 1.365 0 0 1-1.366-1.367v-.283c0-.756.61-1.367 1.366-1.367h24.871c.756 0 1.366.611 1.366 1.367v.283a1.36 1.36 0 0 1-1.366 1.367" fill="#f9d8ac"/>
  <path d="M69.021 144.849c.697-2.37 1.576-4.689 2.557-6.965.973-2.275 2.092-4.492 3.29-6.659a70 70 0 0 1 3.967-6.274c.726-1.003 1.46-1.999 2.222-2.974.785-.959 1.562-1.912 2.397-2.828a57 57 0 0 1-1.067 1.513l-1.046 1.526a118 118 0 0 0-2.042 3.076 130 130 0 0 0-3.799 6.317c-1.213 2.138-2.331 4.326-3.42 6.536-1.083 2.218-2.078 4.471-3.059 6.732m-17.448-41.504c-.4-2.232-.719-4.471-1.024-6.71-.312-2.24-.574-4.486-.835-6.725-.24-2.247-.48-4.493-.669-6.747l-.276-3.38c-.065-1.127-.152-2.262-.196-3.389.204 1.113.363 2.232.552 3.352l.472 3.359c.313 2.239.574 4.486.836 6.732.24 2.246.48 4.493.668 6.754.196 2.24.37 4.493.472 6.754m-17.048 12.686c1.235 1.927 2.332 3.933 3.363 5.976 1.039 2.043 1.954 4.137 2.811 6.267a81 81 0 0 1 2.26 6.485c.319 1.098.631 2.203.914 3.308.262 1.112.53 2.225.741 3.351l-1.082-3.249a169 169 0 0 0-1.104-3.235 192 192 0 0 0-2.397-6.391c-.828-2.116-1.729-4.209-2.637-6.296a343 343 0 0 0-2.87-6.216m26.115 10.855c1.14-2.77 2.273-5.533 3.341-8.325s2.121-5.583 3.065-8.411c1.003-2.814 1.896-5.664 2.768-8.513a269 269 0 0 0 1.271-4.297l1.228-4.318c-.255 1.475-.574 2.937-.886 4.405a212 212 0 0 1-1.076 4.362c-.77 2.901-1.67 5.758-2.622 8.601-1.002 2.821-2.055 5.634-3.24 8.389-1.176 2.741-2.44 5.46-3.85 8.107" fill="#66a986"/>
  <path d="M196.741 97.652h-55.009c-13.322 0-24.123 10.811-24.123 24.144v59.026h103.263v-59.026c0-13.333-10.802-24.144-24.131-24.144" fill="#5c6193"/>
  <path d="M208.647 167.83h-78.82v12.992h78.82z" fill="#4e5567"/>
  <path d="M208.647 180.822h-84.929v33.021h84.929z" fill="#8e97fd"/>
  <path d="M215.373 218.736h-92.265a4.89 4.89 0 0 1-4.889-4.893h102.043a4.893 4.893 0 0 1-4.889 4.893" fill="#3f414e"/>
  <path d="M120.667 234.024h-3.058l5.499-15.289h4.278zm97.147 0h3.058l-5.499-15.289h-4.278z" fill="#3f414e"/>
  <path d="M108.849 107.125c-2.957-1.97-5.441-4.776-6.61-8.135s-.908-7.285 1.075-10.237 5.767-4.71 9.232-3.918c.145-4.682 4.446-8.092 8.608-10.236 4.583-2.363 9.37-3.73 14.055-1.585 2.608 1.2 5.354 3.148 6.734 5.67 1.38 2.516 2.201 5.293 3 8.056 3.276-1.949 7.736-1.65 10.729.712s4.307 6.638 3.174 10.28c3.704-1.57 8.193-2.268 11.6-.124 3.581 2.254 4.816 6.885 5.063 11.116.211 3.635-.152 7.489-2.215 10.484-2.441 3.548-6.763 5.22-10.853 6.565-7.075 2.319-14.36 4.26-21.806 4.478-7.445.218-15.116-1.396-21.217-5.663-6.109-4.268-10.417-11.422-10.199-18.873" fill="#4e5567"/>
  <path d="M104.948 112.417c-3.704.196-7.22 2.545-8.825 5.896-1.606 3.352-1.243 7.561.915 10.578-3.08.044-6.065 1.876-7.504 4.602s-1.256 6.223.443 8.79c1.439 2.166 3.785 3.577 6.218 4.493 6.748 2.537 14.419 1.679 21.116-.989 3.85-1.534 7.547-3.708 10.141-6.936 2.593-3.228 3.944-7.641 2.825-11.632-.784-2.784-2.68-5.147-4.917-6.965-2.245-1.817-4.838-3.148-7.417-4.434-4.445-2.218-9.101-4.413-14.07-4.501" fill="#3f4553"/>
  <path d="M126.776 161.251h-21.385c-6.748 0-12.218-5.475-12.218-12.229s5.47-12.228 12.218-12.228h16.947a4.447 4.447 0 0 1 4.445 4.449v20.008z" fill="#8e97fd"/>
  <path d="M129.827 213.843h-14.23c-4.962 0-8.986-4.028-8.986-8.993v-68.063h14.23c4.961 0 8.986 4.028 8.986 8.993z" fill="#8e97fd"/>
  <path d="M132.34 75.878c1.932-.458 4.111-.109 5.825 1.069.843.589 1.584 1.352 2.056 2.26.283.43.429.924.61 1.39.138.48.233.98.313 1.46-.24-.443-.393-.908-.64-1.33-.254-.414-.457-.85-.762-1.221-.531-.785-1.221-1.44-1.991-1.97-.762-.538-1.634-.924-2.542-1.193a13.2 13.2 0 0 0-2.869-.465m32.339 23.941c2.034-.037 4.14.719 5.68 2.181.392.356.705.792 1.017 1.214.247.472.538.916.676 1.425.203.487.268 1.01.348 1.519.051.516.029 1.033.015 1.534-.225-.996-.451-1.97-.886-2.842a7.25 7.25 0 0 0-1.671-2.334c-.69-.669-1.504-1.214-2.375-1.658-.894-.421-1.824-.792-2.804-1.04m-12.24-10.671c.45.065.879.225 1.293.428.414.204.792.473 1.126.786.334.32.61.712.799 1.134.196.421.269.894.254 1.345-.145-.43-.269-.85-.508-1.214a5 5 0 0 0-.807-1.004c-.617-.596-1.358-1.068-2.157-1.475" fill="#fff"/>
  <path d="M163.495 120.692c.915-3.33.617-7.096-1.315-9.96s-5.637-4.595-8.978-3.723c1.024-2.406-.458-5.278-2.622-6.754-2.158-1.475-4.831-1.933-7.388-2.515a63.8 63.8 0 0 1-21.123-9.066c-3.247-2.16-3.785-1.672-5.317-5.155-.915 1.346-2.71 3.534-2.76 5.199-2.899-2.647-8.71-2.923-10.686.029-1.983 2.951-2.244 6.877-1.075 10.236s3.654 6.165 6.61 8.135l.364-1.41c-.218 7.452 4.089 14.606 10.198 18.873s13.78 5.882 21.218 5.664c6.864-.204 13.59-1.869 20.142-3.948 1.214-1.723 2.18-3.592 2.732-5.605" fill="#3f4553"/>
  <path d="M123.224 145.781v59.629h-11.622v-50.295h-3.189a6.09 6.09 0 0 1-6.087-6.092 6.09 6.09 0 0 1 6.087-6.092h11.963a2.844 2.844 0 0 1 2.848 2.85Z" stroke="#8c96ff" stroke-miterlimit="10"/>
  <path d="M135.398 96.438c-.486-3.81 1.925-7.256 5.383-7.7 3.465-.443 6.668 2.276 7.162 6.086.487 3.81-1.925 7.255-5.382 7.699-3.465.443-6.669-2.283-7.163-6.085" fill="#8e97fd"/>
  <path d="M135.398 96.44c.487 3.809 3.698 6.535 7.163 6.084 1.438-.182 2.687-.894 3.631-1.919-4.3-2.763-5.055-9.618-5.193-11.88-.073.008-.138.008-.211.015-3.465.444-5.876 3.89-5.39 7.7" fill="#8e97fd"/>
  <path d="m126.166 112.178 2.441 11.007 8.556 2.442s3.059-3.06 3.059-3.671-4.279-12.228-4.279-12.228z" fill="#fdbca0"/>
  <path d="m135.936 109.735-9.777 2.443.835 3.759c1.751.756 3.726 1.316 5.978 1.592a5.7 5.7 0 0 0 3.567-.705c.552-.32 1.068-.713 1.561-1.127-1.075-3.003-2.164-5.962-2.164-5.962" fill="#df8370"/>
  <path d="M112.72 90.163s-1.22 23.854 20.165 25.075c6.719-2.443 10.997-11.618 9.777-18.96-1.22-7.336-9.167-19.572-20.775-15.9-6.109 2.45-9.167 9.785-9.167 9.785m67.823 27.525 15.537-19.011a4.24 4.24 0 0 0 .959-2.683v-5.162c0-.392.254-.748.625-.872a.918.918 0 0 1 1.206.872v3.62l5.498-9.785 7.33-.61-9.778 17.121-14.665 25.685zm68.433-17.128 25.663 8.565 7.896-6.66c2.956-2.493 7.292-2.733 10.365-.385 1.78 1.359 2.717 3.271.676 5.823-4.889 6.114-18.945 12.839-18.945 12.839l-28.721-6.114z" fill="#fdbca0"/>
  <path opacity=".5" d="m245.925 114.628 14.259 3.039c.915-5.14.203-10.331-.458-13.515l-10.743-3.585z" fill="#df8370"/>
  <path d="M170.156 144.595s32.171-35.776 46.561-47.99a11.86 11.86 0 0 1 8.644-2.77c10.62.858 32.782 4.893 32.782 4.893s4.278 15.9-3.668 25.075c-4.889-.611-26.884-4.893-26.884-4.893l-44.607 48.92z" fill="#739be0"/>
  <path d="m255.695 131.749 20.774 23.235 17.325 2.974c3.217.552 5.237 3.955 3.958 6.965-.828 1.941-2.811 4.558-7.227 3.518-10.388-2.442-20.165-5.503-20.165-5.503l-24.443-19.571z" fill="#fdbca0"/>
  <path opacity=".5" d="m268.494 146.064-12.799-14.315-9.778 11.618 17.085 13.682c2.818-2.915 5.208-6.63 5.492-10.985" fill="#df8370"/>
  <path opacity=".2" d="m216.579 103.679-44.912 43.643 11.324 20.509 44.607-48.921s21.995 4.282 26.884 4.893c.508-.582.958-1.2 1.372-1.832-7.99-6.536-17.527-14.039-24.631-19.281-4.475-3.293-10.664-2.879-14.644.989" fill="#739be0"/>
  <path d="M152.439 164.159s10.997 15.9 26.883 14.068c14.833-1.716 31.257-23.148 42.821-41.411 1.184-1.876 3.835-2.086 5.31-.436 9.094 10.2 25.191 25.336 25.191 25.336s15.276-7.335 15.276-18.96c-4.213-5.06-21.792-23.206-32.303-33.988-4.532-4.653-11.869-5.053-16.888-.931l-49.191 40.422z" fill="#97b8ff"/>
  <path opacity=".5" d="M179.322 178.227c14.833-1.716 31.257-23.148 42.821-41.411 1.184-1.875 3.835-2.086 5.31-.436 9.094 10.2 25.191 25.336 25.191 25.336s3.559-1.715 7.242-4.791a286 286 0 0 0-25.968-22.922c-2.95-2.298-6.451-4.668-10.119-3.941-3.189.64-5.433 3.425-7.387 6.027-4.228 5.627-8.448 11.254-12.676 16.881-4.612 6.144-9.486 12.505-16.394 15.857-5.891 2.849-12.959 3.169-19.082.865-4.751-1.789-8.877-5.148-11.673-9.379l-4.148 3.853c0-.007 10.997 15.893 26.883 14.061" fill="#97b8ff"/>
  <path d="M211.705 161.251h21.385c6.748 0 12.218-5.475 12.218-12.229s-5.47-12.228-12.218-12.228h-16.947a4.447 4.447 0 0 0-4.445 4.449v20.008z" fill="#8e97fd"/>
  <path d="M208.647 213.843h14.23c4.961 0 8.985-4.028 8.985-8.993v-68.063h-14.23c-4.961 0-8.985 4.028-8.985 8.993z" fill="#8e97fd"/>
  <path d="M214.727 145.781v59.629h11.622v-50.295h3.189a6.09 6.09 0 0 0 6.087-6.092 6.09 6.09 0 0 0-6.087-6.092h-11.964a2.844 2.844 0 0 0-2.847 2.85Z" stroke="#8c96ff" stroke-miterlimit="10"/>
  <path d="m118.219 101.171-10.387 3.061s3.058 10.396 18.334 17.121l1.83-.611s8.55 4.791 10.692-3.417c3.458-1.207 7.809-2.21 11.216-2.901a15.2 15.2 0 0 1 10.322 1.571l12.218 6.71a2.77 2.77 0 0 0 3.45-.647l8.317-9.88 8.484 6.39-11.76 18.735a2.766 2.766 0 0 1-3.617.989l-11.434-5.932 6.719 10.396s-.61 18.96-20.164 21.403c-6.719-6.725-15.276-15.289-20.164-18.96s-20.775-14.068-25.054-18.35c-4.278-4.282-15.275-19.571-15.886-27.517 0-4.282 24.443-7.336 24.443-7.336z" fill="#fffffe"/>
  <path d="M114.311 125.031c-12.77-8.76-18.181-20.203-20.47-28.077-1.54.734-2.506 1.534-2.506 2.385.61 7.953 11.608 23.235 15.886 27.517 4.279 4.282 20.165 14.678 25.054 18.35a53 53 0 0 1 2.934 2.399c-2.608-5.54-8.346-13.959-20.898-22.574" fill="#f2f2f2"/>
  <path d="M154.219 124.464a8 8 0 0 1 1.561-.269 8.4 8.4 0 0 1 1.599.007c1.06.102 2.135.371 3.101.894a6.8 6.8 0 0 1 2.455 2.145c.349.429.574.931.828 1.41.24.488.371 1.018.56 1.527l-.051-.102c.596.807 1.148 1.651 1.721 2.472a65 65 0 0 1 1.649 2.53 65 65 0 0 1-1.975-2.275c-.632-.778-1.293-1.542-1.904-2.334l-.021-.022-.037-.08c-.196-.465-.348-.952-.574-1.41-.246-.436-.45-.902-.777-1.287-.268-.422-.632-.763-.98-1.127-.393-.305-.763-.64-1.213-.872a8.6 8.6 0 0 0-2.841-1.04c-1.009-.174-2.055-.254-3.101-.167" fill="#97b8ff"/>
  <path d="M130.197 97.994c.538.85 1.002 2.566 2.361 2.297.465-.094.683-.45 1.039-.727 1.249-.974 1.903.524 1.017 1.345-.458.422-1.097.524-1.686.589-.341.036-.348.582 0 .545.857-.094 1.758-.29 2.31-1.017.443-.582.53-1.382.044-1.963-.451-.524-1.119-.611-1.685-.233-.531.349-.829 1.178-1.693.807-.617-.262-.908-1.403-1.235-1.92-.189-.29-.661-.021-.472.277m-2.884 8.018c2.841 2.385 6.792 1.869 8.891-1.199.196-.291-.276-.567-.472-.276-1.881 2.755-5.47 3.242-8.034 1.09-.268-.225-.653.16-.385.385m-6.588-9.632c.661-1.701 2.332-2.64 4.133-2.32.342.059.487-.465.146-.523-2.107-.37-4.032.706-4.802 2.705-.131.32.4.458.523.138m1.736 4.834-1.445-.836 1.663.145z" fill="#444359"/>
  <path d="M122.81 101.418c.77-2.079 2.891-3.039 4.983-2.334.334.11.479-.414.145-.523-2.382-.8-4.787.37-5.651 2.719-.124.32.399.465.523.138" fill="#444359"/>
  <path d="m123.754 99.215-.647-1.898 1.279 1.542zm2.986-.589.443-1.309.283 1.36zm10.997-4.463 1.017-1.331-.356 1.636z" fill="#444359"/>
  <path d="M138.514 94.351c-2.302-.901-4.765.11-5.745 2.378-.138.32.334.596.472.276.893-2.065 3.029-2.952 5.135-2.13.32.13.458-.4.138-.524" fill="#444359"/>
  <path d="m135.362 94.315-.283-1.985.973 1.752zm-2.201 2.159-.821-1.12 1.272.553z" fill="#444359"/>
  <path d="m197.925 100.568 7.228-22.683a1.45 1.45 0 0 1 1.351-1.01l12.966-.342c.995-.03 1.721.93 1.431 1.883l-7.206 23.562a1.47 1.47 0 0 1-1.453 1.033l-12.988-.531c-.959-.058-1.62-.996-1.329-1.912" fill="#3f4553"/>
  <path d="m196.705 100.568 7.227-22.683a1.45 1.45 0 0 1 1.351-1.01l12.966-.342c.996-.03 1.722.93 1.431 1.883l-7.205 23.562a1.47 1.47 0 0 1-1.453 1.033l-12.988-.531a1.473 1.473 0 0 1-1.329-1.912" fill="#4e5567"/>
  <path d="m217.327 80.226-4.831 15.784-.69 2.268-.327 1.069a1.19 1.19 0 0 1-.755.778 1.2 1.2 0 0 1-.421.058l-2.71-.109-7.83-.32a1.187 1.187 0 0 1-1.082-1.541l3.74-11.749 1.417-4.442.712-2.225a.9.9 0 0 1 .131-.269c.203-.327.559-.538.958-.552l.378-.007 10.148-.27a1.184 1.184 0 0 1 1.162 1.527" fill="#f2ede4"/>
  <path opacity=".35" d="m212.497 96.01-.69 2.268-7.126-18.75c.203-.327.559-.537.958-.552l.378-.007zm-1.773 4.114a1.2 1.2 0 0 1-.421.058l-2.71-.109-5.172-13.61 1.417-4.441z" fill="#fff"/>
  <path d="M115.554 104.69c2.52-5.729 3.189-12.257 1.888-18.386.908 2.915 4.083 4.565 7.112 4.95 3.029.386 6.101-.152 9.152 0 3.051.153 6.349 1.23 7.889 3.868.283.48.595 1.076 1.147 1.12.69.058 1.097-.756 1.242-1.432 1.126-5.067-.951-10.63-4.91-13.988-3.959-3.359-9.566-4.53-14.629-3.388s-9.523 4.471-12.385 8.797c-1.794 2.712-3.007 5.845-3.189 9.095-.182 3.243.719 6.594 2.746 9.131.501.625 1.118 1.229 1.903 1.403.784.175 1.743-.269 1.867-1.068" fill="#3f4553"/>
  <path d="M115.485 111.998c3.757-.767 6.136-4.667 5.312-8.711s-4.539-6.701-8.296-5.934c-3.758.767-6.136 4.667-5.312 8.711s4.538 6.701 8.296 5.934" fill="#8e97fd"/>
  <path d="M111.246 101.673c-4.126-12.592 1.039-17.339 1.272-17.644l.152-.015h.036l.153-.007c-.174.24-2.252 5.947 1.14 16.299zm8.709 7.037c-10.678 2.835-12.435-2.886-12.414-7.016a7.86 7.86 0 0 0-.341 4.377c.828 4.049 4.54 6.703 8.295 5.94 1.94-.408 3.509-1.643 4.46-3.301" fill="#8e97fd"/>
</svg>
