<svg width="238" height="373" viewBox="0 0 238 373" fill="none" xmlns="http://www.w3.org/2000/svg">
<path d="M49.2836 376.77C51.0136 383 55.8036 406.83 59.6036 436.14C62.7236 460.3 43.9636 481.72 19.6136 481.72L5.71361 481.72C-16.6264 481.72 -34.7164 463.56 -34.6164 441.22C-34.1164 327.54 -30.8564 154.63 -20.4264 139.98C-11.7064 127.74 -2.07635 102.71 4.46364 83.2797C12.2436 60.1897 25.8436 39.4297 44.2236 23.4397C44.7736 22.9597 45.3236 22.4897 45.8636 22.0397C57.5036 12.2397 71.6236 5.81972 86.6136 3.21971C206.674 -17.5803 237.274 67.3597 237.374 115.59C237.374 116.45 237.404 117.31 237.454 118.17C238.864 145.79 219.464 205.6 129.834 234.2C38.7736 263.24 38.1836 341.35 49.2836 376.77Z" fill="url(#paint0_linear_1_3981)"/>
<defs>
<linearGradient id="paint0_linear_1_3981" x1="199.254" y1="17.0303" x2="-531.058" y2="1073.96" gradientUnits="userSpaceOnUse">
<stop stop-color="#F2EDE4"/>
<stop offset="1" stop-color="#FAF7F2" stop-opacity="0"/>
</linearGradient>
</defs>
</svg>
