<svg width="260" height="452" viewBox="0 0 260 452" fill="none" xmlns="http://www.w3.org/2000/svg">
<path d="M188.24 75.2205C186.51 68.9905 181.72 45.1605 177.92 15.8505C174.8 -8.30949 193.56 -29.7295 217.91 -29.7295H231.81C254.15 -29.7295 272.24 -11.5695 272.14 10.7705C271.64 124.451 268.38 297.361 257.95 312.01C249.23 324.25 239.6 349.281 233.06 368.711C225.28 391.801 211.68 412.561 193.3 428.551C192.75 429.031 192.2 429.5 191.66 429.951C180.02 439.75 165.9 446.171 150.91 448.771C30.8498 469.57 0.249838 384.631 0.149838 336.401C0.149838 335.541 0.119838 334.68 0.0698377 333.82C-1.34016 306.201 18.0598 246.391 107.69 217.791C198.75 188.751 199.34 110.641 188.24 75.2205Z" fill="url(#paint0_linear_1_3982)"/>
<defs>
<linearGradient id="paint0_linear_1_3982" x1="26.659" y1="399.834" x2="424.503" y2="-124.8" gradientUnits="userSpaceOnUse">
<stop stop-color="#F2EDE4"/>
<stop offset="1" stop-color="#F2EDE4" stop-opacity="0"/>
</linearGradient>
</defs>
</svg>
