<svg width="176" height="86" viewBox="0 0 176 86" fill="none" xmlns="http://www.w3.org/2000/svg">
<path d="M119.325 33.5822C120.197 38.9182 73.651 37.5303 65.4993 35.4814C60.861 34.5109 66.292 11.9317 63.3774 4.56763C61.6986 -2.32684 114.022 -0.511042 117.885 4.05628C120.858 7.56961 118.096 26.0685 119.325 33.5822Z" fill="#FBF5EB"/>
<path d="M71.8719 20.6006C72.0554 19.6788 71.82 18.6178 71.9515 18.1065C72.2492 16.9586 72.3981 16.3846 72.2215 16.2211C71.505 15.5532 71.0066 18.5935 70.3316 18.5691C70.0616 18.4196 69.8331 17.5012 69.7431 16.8403C69.6358 16.0507 69.937 13.7131 69.4662 13.7548C69.0682 13.7896 68.8016 15.4906 68.812 16.0611C68.7982 15.4663 69.037 12.8574 68.407 13.0765C67.9466 13.2365 67.9397 16.2176 67.9501 16.6142C67.9363 16.4229 68.0436 13.5635 67.5867 13.7618C67.0605 13.9879 67.1678 16.562 67.1782 16.9551C67.1574 16.7151 67.3236 14.2627 66.7663 14.5305C66.4202 14.6975 66.2782 17.0734 66.2886 17.4699C66.3302 19.2161 67.9605 23.4287 68.2547 23.9157L70.9616 23.9713C70.9616 23.9713 71.3423 22.8477 71.4531 22.2981C71.595 21.6059 71.8027 20.945 71.8719 20.6006Z" fill="#FDBCA0"/>
<path d="M86.3338 41.4299C86.6627 43.9553 83.1424 52.7213 83.8935 57.0729C91.1729 58.6104 108.342 55.8519 109.678 50.0671C109.785 46.1503 109.647 41.7673 109.723 39.1584C109.917 32.3405 108.664 20.6561 97.3689 24.2737C96.7908 24.152 96.8116 23.2963 91.1175 23.6859C85.6104 24.0546 85.3439 33.8815 86.3338 41.4299Z" fill="#8E97FD"/>
<path d="M67.1953 24.0962C64.9073 35.8154 71.9929 44.5952 81.8822 44.1256C95.9322 43.4612 104.392 32.3682 100.55 24.6702L96.7664 24.7258C85.5548 22.757 82.8722 31.1855 79.4973 30.8793C77.0708 30.6602 73.0659 28.5244 72.2421 23.5814C72.0621 22.503 67.3788 23.1605 67.1953 24.0962Z" fill="#8E97FD"/>
<path d="M93.6925 24.8375C91.8164 29.3457 84.4539 31.4781 85.6342 24.8201C85.9977 22.7643 83.3116 21.1364 83.0693 19.6754C82.5189 16.3499 85.8246 15.282 86.5515 12.2522C87.6453 7.68831 89.4557 0.112046 101.726 7.26393C105.458 9.43454 93.6925 24.8375 93.6925 24.8375Z" fill="#3F414E"/>
<path d="M99.719 16.583L99.7397 25.022C99.3071 27.45 93.3811 27.8083 93.6926 25.0428L93.6753 21.4182L99.719 16.583Z" fill="#F0A38B"/>
<path d="M89.8054 16.458C89.7674 16.9728 89.7016 17.4424 89.7293 17.9468C89.7674 18.6043 89.9093 19.2722 90.1585 19.8983C90.8231 21.561 92.2077 23.923 93.9418 23.9647C97.0017 24.0343 100.969 20.5627 100.477 16.0789C100.048 12.1655 96.756 6.16501 95.5653 8.47476C93.7168 12.0611 91.6434 10.6802 90.3212 12.896C90.0443 13.3586 89.7881 13.943 89.8089 15.2892C89.8158 15.7275 89.8297 16.1032 89.8054 16.458Z" fill="#FDBCA0"/>
<path d="M96.1052 18.6666C96.0706 19.6232 96.8113 20.4268 97.7632 20.4651C98.7151 20.4998 99.5147 19.7554 99.5528 18.7988C99.5874 17.8422 98.8466 17.0387 97.8947 17.0004C96.9428 16.9622 96.1432 17.7101 96.1052 18.6666Z" fill="#F4A07B"/>
<path d="M89.7293 17.9464C89.7674 18.6038 89.9162 19.2682 90.1585 19.8979C90.9442 19.7587 91.5569 19.0874 91.5881 18.2525C91.6227 17.2959 90.8819 16.4924 89.93 16.4541C89.8885 16.4541 89.847 16.4541 89.8054 16.4541C89.7674 16.9724 89.7016 17.442 89.7293 17.9464Z" fill="#F4A07B"/>
<path d="M94.9249 16.4507C94.9249 16.4507 95.6172 17.6056 97.746 16.2976C98.0125 16.1341 96.8321 16.4994 96.1018 16.5585C95.3541 16.6142 94.738 16.2002 94.9249 16.4507Z" fill="#002869"/>
<path d="M90.1721 15.7062C90.3452 15.9914 91.8786 17.1776 92.4428 16.1271C92.5916 15.8523 91.9997 16.4297 91.3109 16.1758C90.6048 15.9184 90.0613 15.5253 90.1721 15.7062Z" fill="#002869"/>
<path d="M93.9595 19.2336C93.5061 19.2544 92.8069 19.1431 92.6892 18.6074C92.6372 18.3709 92.7584 18.1691 92.8657 17.9674C93.1426 17.4491 93.3884 16.976 93.3711 16.3673C93.3676 16.2872 93.4922 16.2699 93.4957 16.3499C93.513 16.9308 93.3122 17.4039 93.0422 17.9082C92.883 18.2039 92.6926 18.4648 92.9349 18.7883C93.1565 19.0805 93.5995 19.1292 93.9422 19.1118C94.0218 19.1083 94.0391 19.2301 93.9595 19.2336Z" fill="#F27979"/>
<path d="M95.2609 20.4655C95.3959 20.1941 93.9664 21.1507 92.4087 20.302C91.7407 19.9367 93.3433 21.9056 95.2609 20.4655Z" fill="#F27979"/>
<path fill-rule="evenodd" clip-rule="evenodd" d="M0 74.7719V53.2872C0.828978 48.8906 2.16844 45.1852 3.99518 43.4876C4.16441 43.3292 4.34133 43.1811 4.52594 43.0605C12.2102 35.0497 19.9507 31.0001 37.9064 37.4982C51.4356 34.5647 60.0379 35.9111 68.9732 37.3097C76.7848 38.5323 84.8508 39.7948 96.6859 38.2722L96.7076 38.2729C96.8071 38.2761 96.9003 38.2791 96.9936 38.2791C101.197 38.3643 104.024 37.7105 106.609 37.1126C111.237 36.0419 115.091 35.1504 124.692 39.0002C124.88 39.0087 125.285 38.8689 125.888 38.661C128.45 37.7778 134.572 35.6669 142.648 38.5002C160.926 35.0191 167.087 39.0002 171.576 42.0002C173.427 43.4435 174.891 45.929 176 48.9844V81.7476C175.651 82.204 175.271 82.5228 174.861 82.6825C167.068 85.7291 135.384 85.5079 105.701 85.3008C90.6447 85.1957 76.103 85.0942 65.4557 85.4246C64.7249 85.4487 63.9942 85.4694 63.2634 85.49C49.9944 85.8862 37.21 86.1032 26.7948 85.9516C25.5564 85.9344 24.3487 85.9103 23.1795 85.8793C11.7412 85.5968 3.81057 84.7838 2.33367 83.1407C1.7538 82.4949 0.739148 78.7139 0 74.7719Z" fill="#3F414E"/>
<path d="M82.658 40.0335C84.0184 39.9848 85.3787 39.9396 86.7391 39.8909C87.3067 39.87 87.3102 38.9795 86.7391 39.0004C85.3787 39.0491 84.0184 39.0943 82.658 39.143C82.0903 39.1638 82.0869 40.0543 82.658 40.0335Z" fill="#656B7B"/>
<path d="M77.4003 74.6171C76.2857 75.3997 75.1676 76.1824 74.053 76.9651C73.5857 77.2921 74.0669 78.04 74.5342 77.713C75.6488 76.9303 76.7668 76.1476 77.8814 75.365C78.3487 75.038 77.8675 74.2901 77.4003 74.6171Z" fill="#656B7B"/>
<path d="M85.0087 45.3765C84.0222 47.0601 83.0322 48.7402 82.0457 50.4238C81.7584 50.9143 82.4749 51.4396 82.7622 50.9456C83.7487 49.262 84.7387 47.5819 85.7252 45.8983C86.016 45.4113 85.2994 44.8825 85.0087 45.3765Z" fill="#656B7B"/>
<path d="M86.4693 69.9525C87.3935 71.2396 88.4216 72.4397 89.5569 73.5459C89.9654 73.9459 90.5919 73.3163 90.1834 72.9163C89.1035 71.8623 88.117 70.7282 87.2343 69.5038C86.902 69.0412 86.1336 69.4864 86.4693 69.9525Z" fill="#656B7B"/>
<path d="M89.3804 55.1896C89.3804 55.1896 89.3804 58.1081 89.3804 59.6387C89.3804 60.2126 90.2665 60.2126 90.2665 59.6387C90.2665 58.1046 90.2665 56.6715 90.2665 55.1896C90.2665 54.5983 89.3804 54.5983 89.3804 55.1896C89.3804 55.1896 89.3804 54.5983 89.3804 55.1896Z" fill="#656B7B"/>
<path d="M68.2035 63.7183C67.0646 63.3948 65.9293 63.0713 64.7905 62.7478C64.2436 62.5913 63.9528 63.4331 64.5032 63.5896C65.642 63.9131 66.7773 64.2366 67.9162 64.5601C68.4631 64.7132 68.7538 63.8749 68.2035 63.7183Z" fill="#656B7B"/>
<path d="M71.7308 43.4353C73.0773 44.2527 74.3476 45.178 75.5418 46.2077C75.9745 46.5799 76.4626 45.8355 76.0334 45.4668C74.8392 44.4371 73.5688 43.5153 72.2223 42.6944C71.7343 42.3987 71.2393 43.1396 71.7308 43.4353Z" fill="#656B7B"/>
<path d="M14.4784 63.9515C13.6615 63.9028 12.8446 63.8576 12.0277 63.8124C12.0138 63.5202 12.0069 63.2245 12 62.9219C12.8169 62.9706 13.6303 63.0158 14.4472 63.061C15.0115 63.0958 15.0495 63.9863 14.4784 63.9515Z" fill="#656B7B"/>
<path d="M53.0802 73.4271C54.4406 73.4758 55.8009 73.521 57.1612 73.5697C57.7289 73.5906 57.7324 74.4811 57.1612 74.4603C55.8009 74.4116 54.4406 74.3663 53.0802 74.3176C52.5091 74.2968 52.5091 73.4062 53.0802 73.4271Z" fill="#656B7B"/>
<path d="M54.1083 51.7148C53.1218 50.0312 52.1318 48.351 51.1453 46.6674C50.858 46.1769 51.5745 45.6517 51.8618 46.1456C52.8483 47.8293 53.8383 49.5094 54.8248 51.193C55.1156 51.6835 54.3991 52.2087 54.1083 51.7148Z" fill="#656B7B"/>
<path d="M41.8481 80.2771C41.5192 80.3014 41.1904 80.3223 40.8615 80.3432C40.28 79.3518 39.6985 78.3639 39.117 77.3725C38.8297 76.882 39.5462 76.3568 39.8335 76.8507C40.505 77.9952 41.1765 79.1361 41.8481 80.2771Z" fill="#656B7B"/>
<path d="M63.7656 52.1285C63.7656 52.1285 63.7656 49.21 63.7656 47.6795C63.7656 47.1055 64.6518 47.1055 64.6518 47.6795C64.6518 49.2135 64.6518 50.6467 64.6518 52.1285C64.6518 52.7234 63.7656 52.7234 63.7656 52.1285C63.7656 52.7234 63.7656 52.1285 63.7656 52.1285Z" fill="#656B7B"/>
<path d="M48.411 55.8572C47.2722 56.1807 46.1368 56.5042 44.998 56.8277C44.4511 56.9843 44.1603 56.1425 44.7107 55.9859C45.8495 55.6624 46.9849 55.3389 48.1237 55.0154C48.6671 54.8589 48.9579 55.7007 48.411 55.8572Z" fill="#656B7B"/>
<path d="M45.0252 68.0877C46.3717 67.2703 47.6421 66.345 48.8363 65.3153C49.269 64.9431 49.757 65.6875 49.3278 66.0563C48.1336 67.0859 46.8633 68.0077 45.5168 68.8287C45.0287 69.1243 44.5337 68.3869 45.0252 68.0877Z" fill="#656B7B"/>
<path d="M24.4509 80.8086C23.8936 80.7912 23.3501 80.7669 22.824 80.7355C22.2182 80.2799 21.6333 79.7998 21.0656 79.2954C20.6398 78.9163 21.1937 78.224 21.6194 78.6032C22.5194 79.3963 23.4609 80.1338 24.4509 80.8086Z" fill="#656B7B"/>
<path d="M34.3332 65.9063C33.6513 67.7361 32.9694 69.5658 32.2875 71.392C32.0902 71.9242 31.2318 71.6946 31.4325 71.1589C32.1145 69.3292 32.7964 67.4995 33.4783 65.6733C33.679 65.1411 34.534 65.3706 34.3332 65.9063Z" fill="#656B7B"/>
<path d="M20.3488 43.6619C19.0508 43.2584 17.7493 42.8514 16.4513 42.4479C15.9078 42.2774 16.1397 41.4182 16.6832 41.5887C17.9812 41.9922 19.2827 42.3992 20.5808 42.8027C21.1242 42.9731 20.8923 43.8323 20.3488 43.6619Z" fill="#656B7B"/>
<path d="M29.5876 47.7559C30.0999 49.6413 30.6157 51.5232 31.1279 53.4085C31.2768 53.9547 30.4495 54.2747 30.3007 53.7216C29.7884 51.8362 29.2726 49.9543 28.7603 48.069C28.608 47.5228 29.4353 47.2028 29.5876 47.7559Z" fill="#656B7B"/>
<path d="M23.0939 67.73C21.8651 68.7283 20.5602 69.6154 19.1756 70.3841C18.6771 70.6624 18.2341 69.8902 18.736 69.6119C20.0548 68.8814 21.3009 68.0465 22.4743 67.0969C22.9105 66.7386 23.537 67.3682 23.0939 67.73Z" fill="#656B7B"/>
<path d="M20.7189 52.9735C20.7189 52.9735 19.9574 55.7876 19.5559 57.2695C19.4071 57.8226 18.5521 57.5895 18.7009 57.0364C19.1024 55.558 19.4763 54.1736 19.864 52.7404C20.0197 52.1664 20.8712 52.3995 20.7189 52.9735C20.8712 52.3995 20.7189 52.9735 20.7189 52.9735Z" fill="#656B7B"/>
<path d="M35.7109 61.2214C36.8912 61.2109 38.075 61.197 39.2554 61.1866C39.823 61.1796 39.8854 62.0701 39.3142 62.0736C38.1339 62.084 36.95 62.0979 35.7697 62.1084C35.202 62.1153 35.1397 61.2283 35.7109 61.2214Z" fill="#656B7B"/>
<path d="M44.6656 49.0257C43.1529 49.4605 41.6853 50.0171 40.2661 50.6954C39.7504 50.9423 39.4769 50.0936 39.9857 49.8501C41.4049 49.1718 42.8726 48.6152 44.3852 48.1804C44.9321 48.0238 45.216 48.8691 44.6656 49.0257Z" fill="#656B7B"/>
<path d="M160.658 40.0335C162.018 39.9848 163.379 39.9396 164.739 39.8909C165.307 39.87 165.31 38.9795 164.739 39.0004C163.379 39.0491 162.018 39.0943 160.658 39.143C160.09 39.1638 160.087 40.0543 160.658 40.0335Z" fill="#656B7B"/>
<path d="M155.4 74.6171C154.286 75.3997 153.168 76.1824 152.053 76.9651C151.586 77.2921 152.067 78.04 152.534 77.713C153.649 76.9303 154.767 76.1476 155.881 75.365C156.349 75.038 155.868 74.2901 155.4 74.6171Z" fill="#656B7B"/>
<path d="M163.009 45.3765C162.022 47.0601 161.032 48.7402 160.046 50.4238C159.758 50.9143 160.475 51.4396 160.762 50.9456C161.749 49.262 162.739 47.5819 163.725 45.8983C164.016 45.4113 163.299 44.8825 163.009 45.3765Z" fill="#656B7B"/>
<path d="M164.469 69.9525C165.394 71.2396 166.422 72.4397 167.557 73.5459C167.965 73.9459 168.592 73.3163 168.183 72.9163C167.103 71.8623 166.117 70.7282 165.234 69.5038C164.902 69.0412 164.134 69.4864 164.469 69.9525Z" fill="#656B7B"/>
<path d="M167.38 55.1896C167.38 55.1896 167.38 58.1081 167.38 59.6387C167.38 60.2126 168.267 60.2126 168.267 59.6387C168.267 58.1046 168.267 56.6715 168.267 55.1896C168.267 54.5983 167.38 54.5983 167.38 55.1896C167.38 55.1896 167.38 54.5983 167.38 55.1896Z" fill="#656B7B"/>
<path d="M146.203 63.7183C145.065 63.3948 143.929 63.0713 142.79 62.7478C142.244 62.5913 141.953 63.4331 142.503 63.5896C143.642 63.9131 144.777 64.2366 145.916 64.5601C146.463 64.7132 146.754 63.8749 146.203 63.7183Z" fill="#656B7B"/>
<path d="M149.731 43.4353C151.077 44.2527 152.348 45.178 153.542 46.2077C153.975 46.5799 154.463 45.8355 154.033 45.4668C152.839 44.4371 151.569 43.5153 150.222 42.6944C149.734 42.3987 149.239 43.1396 149.731 43.4353Z" fill="#656B7B"/>
<path d="M92.4784 63.9515C91.6615 63.9028 90.8446 63.8576 90.0277 63.8124C90.0138 63.5202 90.0069 63.2245 90 62.9219C90.8169 62.9706 91.6303 63.0158 92.4472 63.061C93.0115 63.0958 93.0495 63.9863 92.4784 63.9515Z" fill="#656B7B"/>
<path d="M131.08 73.4271C132.441 73.4758 133.801 73.521 135.161 73.5697C135.729 73.5906 135.732 74.4811 135.161 74.4603C133.801 74.4116 132.441 74.3663 131.08 74.3176C130.509 74.2968 130.509 73.4062 131.08 73.4271Z" fill="#656B7B"/>
<path d="M132.108 51.7148C131.122 50.0312 130.132 48.351 129.145 46.6674C128.858 46.1769 129.575 45.6517 129.862 46.1456C130.848 47.8293 131.838 49.5094 132.825 51.193C133.116 51.6835 132.399 52.2087 132.108 51.7148Z" fill="#656B7B"/>
<path d="M119.848 80.2771C119.519 80.3014 119.19 80.3223 118.862 80.3432C118.28 79.3518 117.699 78.3639 117.117 77.3725C116.83 76.882 117.546 76.3568 117.833 76.8507C118.505 77.9952 119.177 79.1361 119.848 80.2771Z" fill="#656B7B"/>
<path d="M141.766 52.1285C141.766 52.1285 141.766 49.21 141.766 47.6795C141.766 47.1055 142.652 47.1055 142.652 47.6795C142.652 49.2135 142.652 50.6467 142.652 52.1285C142.652 52.7234 141.766 52.7234 141.766 52.1285C141.766 52.7234 141.766 52.1285 141.766 52.1285Z" fill="#656B7B"/>
<path d="M126.411 55.8572C125.272 56.1807 124.137 56.5042 122.998 56.8277C122.451 56.9843 122.16 56.1425 122.711 55.9859C123.85 55.6624 124.985 55.3389 126.124 55.0154C126.667 54.8589 126.958 55.7007 126.411 55.8572Z" fill="#656B7B"/>
<path d="M123.025 68.0877C124.372 67.2703 125.642 66.345 126.836 65.3153C127.269 64.9431 127.757 65.6875 127.328 66.0563C126.134 67.0859 124.863 68.0077 123.517 68.8287C123.029 69.1243 122.534 68.3869 123.025 68.0877Z" fill="#656B7B"/>
<path d="M102.451 80.8086C101.894 80.7912 101.35 80.7669 100.824 80.7355C100.218 80.2799 99.6333 79.7998 99.0656 79.2954C98.6398 78.9163 99.1937 78.224 99.6194 78.6032C100.519 79.3963 101.461 80.1338 102.451 80.8086Z" fill="#656B7B"/>
<path d="M112.333 65.9063C111.651 67.7361 110.969 69.5658 110.288 71.392C110.09 71.9242 109.232 71.6946 109.433 71.1589C110.114 69.3292 110.796 67.4995 111.478 65.6733C111.679 65.1411 112.534 65.3706 112.333 65.9063Z" fill="#656B7B"/>
<path d="M98.3488 43.6619C97.0508 43.2584 95.7493 42.8514 94.4513 42.4479C93.9078 42.2774 94.1397 41.4182 94.6832 41.5887C95.9812 41.9922 97.2827 42.3992 98.5808 42.8027C99.1242 42.9731 98.8923 43.8323 98.3488 43.6619Z" fill="#656B7B"/>
<path d="M107.588 47.7559C108.1 49.6413 108.616 51.5232 109.128 53.4085C109.277 53.9547 108.45 54.2747 108.301 53.7216C107.788 51.8362 107.273 49.9543 106.76 48.069C106.608 47.5228 107.435 47.2028 107.588 47.7559Z" fill="#656B7B"/>
<path d="M101.094 67.73C99.8651 68.7283 98.5602 69.6154 97.1756 70.3841C96.6771 70.6624 96.2341 69.8902 96.736 69.6119C98.0548 68.8814 99.3009 68.0465 100.474 67.0969C100.91 66.7386 101.537 67.3682 101.094 67.73Z" fill="#656B7B"/>
<path d="M98.7189 52.9735C98.7189 52.9735 97.9574 55.7876 97.5559 57.2695C97.4071 57.8226 96.5521 57.5895 96.7009 57.0364C97.1024 55.558 97.4763 54.1736 97.864 52.7404C98.0197 52.1664 98.8712 52.3995 98.7189 52.9735C98.8712 52.3995 98.7189 52.9735 98.7189 52.9735Z" fill="#656B7B"/>
<path d="M113.711 61.2214C114.891 61.2109 116.075 61.197 117.255 61.1866C117.823 61.1796 117.885 62.0701 117.314 62.0736C116.134 62.084 114.95 62.0979 113.77 62.1084C113.202 62.1153 113.14 61.2283 113.711 61.2214Z" fill="#656B7B"/>
<path d="M122.666 49.0257C121.153 49.4605 119.685 50.0171 118.266 50.6954C117.75 50.9423 117.477 50.0936 117.986 49.8501C119.405 49.1718 120.873 48.6152 122.385 48.1804C122.932 48.0238 123.216 48.8691 122.666 49.0257Z" fill="#656B7B"/>
<path d="M113.911 73.4392C112.807 76.0898 105.918 80.2293 104.783 79.6205C102.924 78.6187 96.043 68.7466 96.6141 66.3951C97.1576 64.1584 103.7 60.1164 103.7 60.1164C103.7 60.1164 110.408 57.4031 114.16 57.337C116.223 57.2987 124.482 69.8632 123.478 72.4652C122.987 73.7279 117.033 74.521 113.911 73.4392Z" fill="white"/>
<path d="M113.741 72.6879C113.416 75.5577 105.424 80.1181 103.856 79.4954C102.935 79.1302 95.1812 68.1936 95.7489 65.8456C96.2924 63.6089 106.5 58.652 106.5 58.652C106.5 58.652 112.052 57.598 115.808 57.5284C117.871 57.4901 124.209 69.4981 123.205 72.1035C122.717 73.3662 115.493 74.7855 113.741 72.6879Z" fill="white"/>
<path d="M113.582 72.2462C112.454 75.8848 104.035 79.6694 103.059 79.012C101.477 77.9406 95.4926 68.479 96.0603 66.1275C96.6037 63.8908 106.704 59.0556 106.704 59.0556C109.799 58.8678 112.305 57.8381 116.317 57.7268C118.387 57.6677 124.911 68.7573 124.126 71.3662C123.662 72.9106 114.87 73.7698 113.582 72.2462Z" fill="white"/>
<path d="M111.924 73.1638C111.924 73.1638 112.61 74.6143 114.23 73.9847C115.985 73.3029 115.794 71.5254 115.794 71.5254C114.216 71.675 112.862 72.1341 111.924 73.1638Z" fill="#E8E2E3"/>
<path d="M113.233 71.3935C112.637 71.8387 112.353 72.531 112.395 73.4876C112.613 74.3989 104.371 78.2636 102.267 78.4514C100.855 78.5767 94.6966 66.4783 94.9458 65.0417C95.1397 63.932 104.887 59.6047 105.344 58.7246C105.344 58.7246 106.801 57.6219 107.798 57.8689C108.781 58.1124 117.13 56.0879 118.113 56.0636C119.654 56.0288 125.517 67.7062 125.496 70.0612C125.486 71.0352 115.798 73.1432 115.465 72.3431C115.109 71.477 113.233 71.3935 113.233 71.3935Z" fill="#8E97FD"/>
<path d="M104.932 58.7843L112.395 73.4846C113.146 72.5454 114.469 71.6828 115.465 72.3437L108.276 57.699C107.909 56.9685 104.687 58.2973 104.932 58.7843Z" fill="#4E5567"/>
<path d="M103.121 75.1754C105.098 74.4031 106.967 73.4326 108.642 72.1212C108.881 71.9368 109.148 72.3195 108.912 72.5073C107.202 73.8431 105.295 74.831 103.284 75.6171C103.004 75.7285 102.841 75.2867 103.121 75.1754Z" fill="#4E5567"/>
<path d="M102.526 73.2965C103.783 72.7086 105.157 72.166 106.268 71.3172C106.507 71.1328 106.777 71.5189 106.538 71.7033C105.399 72.5729 103.976 73.1365 102.689 73.7383C102.415 73.8635 102.256 73.4217 102.526 73.2965Z" fill="#4E5567"/>
<path d="M91.1659 46.4212C90.2763 46.1394 89.1964 46.2611 88.7049 46.0733C87.6041 45.6524 87.0503 45.4402 86.8668 45.6002C86.1295 46.2437 89.0856 47.0682 88.9852 47.7395C88.8087 47.9935 87.8741 48.1256 87.213 48.143C86.4203 48.1639 84.1427 47.6143 84.1323 48.0909C84.1254 48.4909 85.7765 48.9396 86.3442 48.9918C85.7522 48.9396 83.2012 48.4248 83.35 49.0753C83.4608 49.5518 86.4065 49.8788 86.8011 49.9101C86.6107 49.9032 83.7931 49.4892 83.9384 49.9658C84.1046 50.5154 86.6626 50.6858 87.0537 50.7172C86.8114 50.7102 84.4057 50.2823 84.61 50.8667C84.738 51.2285 87.0745 51.6251 87.4657 51.6598C89.1964 51.8059 93.5405 50.6302 94.0528 50.3867L94.3989 47.6873C94.3989 47.6873 93.3293 47.1864 92.7963 47.016C92.1351 46.8073 91.5017 46.5255 91.1659 46.4212Z" fill="#FDBCA0"/>
<path d="M93.9727 51.3016C96.8146 51.6738 109.92 58.5091 113.869 49.2144C119.394 36.2186 109.276 22.6697 100.785 23.8315L104.039 35.9821C102.744 38.1283 103.488 41.7877 103.173 42.713C102.384 45.0297 103.277 46.3203 93.81 46.1846C92.7266 46.1742 93.0312 51.1798 93.9727 51.3016Z" fill="#8E97FD"/>
<path d="M94.0526 5.58329C93.8276 4.29623 105.181 0.901169 108.56 11.7716C109.764 15.6537 118.715 15.5424 114.575 23.0212C113.267 25.3831 122.558 27.4911 114.496 33.5821C106.953 39.2799 95.4303 34.2882 96.4687 30.3192C97.6179 25.9258 101.564 28.2669 98.9817 22.6734C97.6698 19.8279 99.2136 18.1339 99.5321 17.1807C99.5944 16.9825 99.6567 16.7842 99.719 16.5824C99.9094 15.9041 99.989 15.271 99.719 14.6518C98.909 12.8013 93.3846 13.9248 94.5649 9.57665C95.6795 5.46849 94.0526 5.58329 94.0526 5.58329Z" fill="#3F414E"/>
<path d="M101.27 45.8203C104.835 44.9611 102.405 37.9484 104.254 35.6699C104.358 35.5412 104.174 35.3534 104.07 35.4855C102.198 37.7918 104.399 44.7976 101.201 45.5698C101.038 45.6081 101.107 45.862 101.27 45.8203Z" fill="#5863E3"/>
<path d="M97.9536 52.6516C101.581 53.8795 106.406 55.0379 110.062 53.4273C110.214 53.3612 110.082 53.1351 109.93 53.2012C106.351 54.7805 101.585 53.6047 98.0228 52.3976C97.8636 52.3455 97.7943 52.5994 97.9536 52.6516Z" fill="#5863E3"/>
<path d="M106.971 8.97525C107.587 10.1301 108.345 11.0972 109.394 11.8798C110.488 12.6973 111.491 13.2956 112.128 14.5722C112.204 14.7218 112.433 14.6 112.36 14.4505C111.886 13.5008 111.228 12.8538 110.377 12.2451C109.016 11.278 108.006 10.3597 107.203 8.85002C107.12 8.70392 106.891 8.82567 106.971 8.97525Z" fill="#002869"/>
<path d="M85.3299 22.2011C85.6725 23.4777 84.6549 24.8761 84.6272 26.1701C84.596 27.5233 85.5652 28.1007 86.7837 28.3233C86.9464 28.3547 87.019 28.1007 86.8529 28.0694C83.073 27.3772 86.171 24.3265 85.5826 22.1281C85.5376 21.9715 85.2849 22.0411 85.3299 22.2011Z" fill="#002869"/>
</svg>
