<svg width="118" height="85" viewBox="0 0 118 85" fill="none" xmlns="http://www.w3.org/2000/svg">
<g clip-path="url(#clip0_1_2564)">
<path d="M28.5652 77.7204C28.5652 78.1252 26.1936 78.4515 23.2697 78.4515C20.3457 78.4515 17.9741 78.1252 17.9741 77.7204C17.9741 77.3156 20.3457 76.9893 23.2697 76.9893C26.1936 76.9893 28.5652 77.3156 28.5652 77.7204Z" fill="#FDF9E7"/>
<path d="M40.4232 84.9997C50.7878 84.9997 59.1901 83.8378 59.1901 82.4046C59.1901 80.9714 50.7878 79.8096 40.4232 79.8096C30.0585 79.8096 21.6562 80.9714 21.6562 82.4046C21.6562 83.8378 30.0585 84.9997 40.4232 84.9997Z" fill="#F05D48"/>
<path d="M88.9852 84.112C101.322 84.112 111.322 82.7295 111.322 81.0242C111.322 79.3189 101.322 77.9365 88.9852 77.9365C76.649 77.9365 66.6484 79.3189 66.6484 81.0242C66.6484 82.7295 76.649 84.112 88.9852 84.112Z" fill="#F05D48"/>
<path d="M60.3325 78.909C74.0888 78.909 85.2406 77.3678 85.2406 75.4667C85.2406 73.5656 74.0888 72.0244 60.3325 72.0244C46.5761 72.0244 35.4243 73.5656 35.4243 75.4667C35.4243 77.3678 46.5761 78.909 60.3325 78.909Z" fill="#F05D48"/>
<path d="M117.07 74.7083C117.07 75.5869 111.912 76.3024 105.546 76.3024C99.1829 76.3024 94.0215 75.5901 94.0215 74.7083C94.0215 73.8297 99.1797 73.1143 105.546 73.1143C111.908 73.1143 117.07 73.8266 117.07 74.7083Z" fill="#F05D48"/>
<path d="M17.5779 69.8876C11.6458 68.5257 6.08186 63.8722 3.14856 58.4373C0.21837 53.0024 -0.917506 46.4473 0.820634 40.5167C2.55565 34.586 7.39873 29.4837 13.412 28.2003C20.7297 26.6376 28.1097 30.6918 33.6986 35.6905C35.9829 37.7333 38.136 39.9801 40.7791 41.5239C43.4253 43.0647 46.7362 43.824 49.5572 42.6379C52.943 41.2133 54.6811 37.5294 56.3288 34.2345C60.3855 26.1199 65.7091 18.5198 72.7241 12.7994C79.739 7.07585 88.5483 3.32917 97.5792 3.36055C103.205 3.37937 109.078 5.01423 112.998 9.07156C117.966 14.2146 118.833 22.2414 117.351 29.2547C115.869 36.2679 112.402 42.6661 109.646 49.2777C106.891 55.8893 104.8 63.1662 106.276 70.1794L17.5779 69.8876Z" fill="#F05D48"/>
<path d="M55.2053 26.6318C56.9216 23.7982 58.4101 20.7764 59.0685 17.5287C59.9298 13.2799 59.1934 8.79583 56.2663 5.48219C52.1409 0.816101 43.65 -1.39613 37.8333 0.932204C35.4367 1.89241 33.3553 3.90695 32.8061 6.43925C31.8731 10.7257 35.1247 14.4347 37.1405 17.855C38.2233 19.6938 39.0316 21.8339 39.1096 23.9896C39.1814 26.0481 37.8988 27.9497 38.2109 30.027C38.3856 31.1943 39.0846 32.2392 39.9896 32.9955C41.968 34.6492 44.764 35.2516 47.2448 34.6146C51.08 33.6325 53.2831 29.8074 55.2053 26.6318Z" fill="#F05D48"/>
<path d="M46.418 13.8066H3.83826C3.75713 13.8066 3.68848 13.8725 3.68848 13.9573V47.5675C3.68848 47.6491 3.75401 47.7182 3.83826 47.7182H46.418C46.4991 47.7182 46.5678 47.6523 46.5678 47.5675V13.9573C46.5678 13.8757 46.4991 13.8066 46.418 13.8066ZM33.5083 30.6133H29.5421V26.738H33.5083V30.6133ZM33.8079 26.738H37.7741V30.6133H33.8079V26.738ZM24.9799 30.9146V34.7899H21.0137V30.9146H24.9799ZM21.0137 30.6133V26.738H24.9799V30.6133H21.0137ZM25.2795 30.9146H29.2457V34.7899H25.2795V30.9146ZM25.2795 30.6133V26.738H29.2457V30.6133H25.2795ZM29.5421 26.4399V22.5646H33.5083V26.4399H29.5421ZM29.2457 26.4399H25.2795V22.5646H29.2457V26.4399ZM24.9799 26.4399H21.0137V22.5646H24.9799V26.4399ZM20.7141 26.4399H16.7479V22.5646H20.7141V26.4399ZM20.7141 26.738V30.6133H16.7479V26.738H20.7141ZM16.4515 30.6133H12.4853V26.738H16.4515V30.6133ZM12.1857 30.6133H8.2195V26.738H12.1857V30.6133ZM12.1857 30.9146V34.7899H8.2195V30.9146H12.1857ZM12.4853 30.9146H16.4515V34.7899H12.4853V30.9146ZM16.7479 30.9146H20.7141V34.7899H16.7479V30.9146ZM20.7141 35.088V38.9634H16.7479V35.088H20.7141ZM21.0137 35.088H24.9799V38.9634H21.0137V35.088ZM25.2795 35.088H29.2457V38.9634H25.2795V35.088ZM29.5421 35.088H33.5083V38.9634H29.5421V35.088ZM29.5421 34.7868V30.9146H33.5083V34.7899H29.5421V34.7868ZM33.8079 30.9146H37.7741V34.7899H33.8079V30.9146ZM38.0706 30.9146H42.0368V34.7899H38.0706V30.9146ZM38.0706 30.6133V26.738H42.0368V30.6133H38.0706ZM38.0706 26.4399V22.5646H42.0368V26.4399H38.0706ZM37.7741 26.4399H33.8079V22.5646H37.7741V26.4399ZM33.8079 22.2633V18.3911H37.7741V22.2665H33.8079V22.2633ZM33.5083 22.2633H29.5421V18.3911H33.5083V22.2633ZM29.2457 22.2633H25.2795V18.3911H29.2457V22.2633ZM24.9799 22.2633H21.0137V18.3911H24.9799V22.2633ZM20.7141 22.2633H16.7479V18.3911H20.7141V22.2633ZM16.4515 22.2633H12.4853V18.3911H16.4515V22.2633ZM16.4515 22.5646V26.4399H12.4853V22.5646H16.4515ZM12.1857 26.4399H8.2195V22.5646H12.1857V26.4399ZM7.91992 26.4399H3.98805V22.5646H7.91992V26.4399ZM7.91992 26.738V30.6133H3.98805V26.738H7.91992ZM7.91992 30.9146V34.7899H3.98805V30.9146H7.91992ZM7.91992 35.088V38.9634H3.98805V35.088H7.91992ZM8.2195 35.088H12.1857V38.9634H8.2195V35.088ZM12.4853 35.088H16.4515V38.9634H12.4853V35.088ZM16.4515 39.2615V43.1368H12.4853V39.2615H16.4515ZM16.7479 39.2615H20.7141V43.1368H16.7479V39.2615ZM21.0137 39.2615H24.9799V43.1368H21.0137V39.2615ZM25.2795 39.2615H29.2457V43.1368H25.2795V39.2615ZM29.5421 39.2615H33.5083V43.1368H29.5421V39.2615ZM33.8079 39.2615H37.7741V43.1368H33.8079V39.2615ZM33.8079 38.9634V35.088H37.7741V38.9634H33.8079ZM38.0706 35.088H42.0368V38.9634H38.0706V35.088ZM42.3363 35.088H46.2682V38.9634H42.3363V35.088ZM42.3363 34.7868V30.9146H46.2682V34.7899H42.3363V34.7868ZM42.3363 30.6133V26.738H46.2682V30.6133H42.3363ZM42.3363 26.4399V22.5646H46.2682V26.4399H42.3363ZM42.3363 22.2633V18.3911H46.2682V22.2665H42.3363V22.2633ZM42.0368 22.2633H38.0706V18.3911H42.0368V22.2633ZM38.0706 18.0899V14.1079H42.0368V18.0899H38.0706ZM37.7741 18.0899H33.8079V14.1079H37.7741V18.0899ZM33.5083 18.0899H29.5421V14.1079H33.5083V18.0899ZM29.2457 18.0899H25.2795V14.1079H29.2457V18.0899ZM24.9799 18.0899H21.0137V14.1079H24.9799V18.0899ZM20.7141 18.0899H16.7479V14.1079H20.7141V18.0899ZM16.4515 18.0899H12.4853V14.1079H16.4515V18.0899ZM12.1857 18.0899H8.2195V14.1079H12.1857V18.0899ZM12.1857 18.3911V22.2665H8.2195V18.3911H12.1857ZM7.91992 22.2633H3.98805V18.3911H7.91992V22.2633ZM3.98805 39.2615H7.91992V43.1368H3.98805V39.2615ZM8.2195 39.2615H12.1857V43.1368H8.2195V39.2615ZM12.1857 43.438V47.4201H8.2195V43.438H12.1857ZM12.4853 43.438H16.4515V47.4201H12.4853V43.438ZM16.7479 43.438H20.7141V47.4201H16.7479V43.438ZM21.0137 43.438H24.9799V47.4201H21.0137V43.438ZM25.2795 43.438H29.2457V47.4201H25.2795V43.438ZM29.5421 43.438H33.5083V47.4201H29.5421V43.438ZM33.8079 43.438H37.7741V47.4201H33.8079V43.438ZM38.0706 43.438H42.0368V47.4201H38.0706V43.438ZM38.0706 43.1368V39.2615H42.0368V43.1368H38.0706ZM42.3363 39.2615H46.2682V43.1368H42.3363V39.2615ZM46.2682 18.0899H42.3363V14.1079H46.2682V18.0899ZM7.91992 14.1079V18.0899H3.98805V14.1079H7.91992ZM3.98805 43.438H7.91992V47.4201H3.98805V43.438ZM42.3363 47.4201V43.438H46.2682V47.4201H42.3363Z" fill="#E7DFC2"/>
<path d="M21.251 23.418C21.251 23.418 22.2027 31.9625 26.9241 33.4499L35.6117 30.9992C35.6117 30.9992 30.4254 28.5987 29.8949 23.418H21.251Z" fill="#FEDEA6"/>
<path d="M16.7483 31.3164C16.7483 31.3164 16.0244 41.044 12.4295 42.7353L5.81396 39.9457C5.81396 39.9457 9.76457 37.2157 10.1671 31.3164H16.7483Z" fill="#F7F4E3"/>
<path d="M39.0887 16.6168L33.3027 18.3086L35.3049 25.2325L41.0908 23.5408L39.0887 16.6168Z" fill="#F7F4E3"/>
<path d="M38.7879 17.3037L33.9248 18.7256L35.2177 23.1969L40.0808 21.775L38.7879 17.3037Z" fill="#FDFDFD"/>
<path d="M22.6468 37.6211L18.1958 36.3945L16.7451 41.7176L21.196 42.9443L22.6468 37.6211Z" fill="#D2CDB8"/>
<path d="M22.1787 37.9469L18.438 36.916L17.5002 40.3568L21.241 41.3877L22.1787 37.9469Z" fill="#E7DFC2"/>
<path d="M92.5114 34.9348C91.8779 34.9348 91.2413 34.9316 90.6078 34.9316C90.2958 34.9316 89.9962 35.2078 90.0118 35.531C90.0274 35.8573 90.2739 36.1303 90.6078 36.1303C91.2413 36.1303 91.8779 36.1335 92.5114 36.1335C92.8234 36.1335 93.123 35.8573 93.1074 35.5341C93.0918 35.2109 92.8453 34.9379 92.5114 34.9348Z" fill="#CCC6AD"/>
<path d="M111.144 50.8594C105.302 45.6379 99.4607 40.4195 93.619 35.198C92.7609 34.4324 91.4908 35.7001 92.3552 36.4689L109.88 52.1302C110.735 52.899 112.005 51.6313 111.144 50.8594Z" fill="#CCC6AD"/>
<path d="M113.772 73.0163H112.086C110.542 72.5707 108.077 72.2852 105.296 72.2852C102.516 72.2852 100.054 72.5738 98.5059 73.0163H96.8208C96.7428 73.4713 96.8208 74.1083 96.8208 74.1083C96.8208 75.1156 100.615 75.9314 105.293 75.9314C109.974 75.9314 113.765 75.1156 113.765 74.1083C113.924 73.4336 113.772 73.0163 113.772 73.0163Z" fill="#CCC6AD"/>
<path d="M113.772 73.0165C113.772 74.0238 109.981 74.8427 105.303 74.8427C100.622 74.8427 96.8306 74.0238 96.8306 73.0165C96.8306 72.0124 100.625 71.1934 105.303 71.1934C105.643 71.1934 105.977 71.1965 106.305 71.2059C106.607 71.2153 106.904 71.2247 107.197 71.2404C110.963 71.4224 113.772 72.1536 113.772 73.0165Z" fill="#E7DFC2"/>
<path d="M107.197 71.2374L106.32 72.7562L106.304 72.7813V71.2061C106.604 71.2155 106.903 71.2217 107.197 71.2374Z" fill="#E7DFC2"/>
<path d="M109.871 51.2611L104.579 72.3008C104.295 73.4242 106.02 73.9043 106.304 72.7778C108.068 65.7645 109.834 58.7513 111.597 51.738C111.881 50.6147 110.155 50.1377 109.871 51.2611Z" fill="#E7DFC2"/>
<path d="M111.537 50.4638C105.695 45.2423 99.8537 40.024 94.0121 34.8025C93.154 34.0368 91.8839 35.3045 92.7483 36.0765L110.273 51.7378C111.128 52.5035 112.398 51.2358 111.537 50.4638Z" fill="#E7DFC2"/>
<path d="M75.917 34.9315C75.917 34.9315 81.0284 26.5627 87.644 30.551C94.2595 34.5393 89.3291 43.0148 89.3291 43.0148L75.917 34.9315Z" fill="#E7DFC2"/>
<path d="M89.3285 43.0181C88.9603 43.6363 86.6168 42.9302 83.7365 41.4177C83.1155 41.0914 82.4696 40.7274 81.8143 40.332C81.1589 39.9366 80.5348 39.535 79.9575 39.1396C77.2739 37.2977 75.5513 35.553 75.9196 34.9348C76.2628 34.3606 78.3193 34.9317 80.9311 36.237C81.7238 36.6324 82.5725 37.0968 83.4369 37.6209C84.3013 38.1418 85.1064 38.6721 85.8304 39.193C88.1957 40.8874 89.6686 42.4407 89.3285 43.0181Z" fill="#C1B894"/>
<path d="M85.8237 39.1864C85.5835 40.2564 84.7784 41.1131 83.7361 41.4143C83.4709 41.4928 83.1869 41.5336 82.8936 41.5336C81.4456 41.5336 80.238 40.5043 79.954 39.133C79.9134 38.9322 79.8916 38.722 79.8916 38.5086C79.8916 37.5955 80.291 36.7827 80.9276 36.2305C81.7202 36.6258 82.569 37.0903 83.4334 37.6143C84.2947 38.1383 85.0998 38.6686 85.8237 39.1864Z" fill="#FAC978"/>
<path d="M93.023 33.9834C91.1039 33.9834 91.1008 36.9833 93.023 36.9833C94.9422 36.9833 94.9453 33.9834 93.023 33.9834Z" fill="#E7DFC2"/>
<path d="M93.023 34.8652C92.2335 34.8652 92.2304 36.1016 93.023 36.1016C93.8156 36.1016 93.8156 34.8652 93.023 34.8652Z" fill="#E7DFC2"/>
<path d="M110.57 49.4727C108.102 49.4727 108.099 53.3292 110.57 53.3292C113.039 53.3292 113.042 49.4727 110.57 49.4727Z" fill="#E7DFC2"/>
<path d="M110.57 50.6211C109.571 50.6211 109.568 52.1838 110.57 52.1838C111.569 52.1838 111.572 50.6211 110.57 50.6211Z" fill="#E7DFC2"/>
<path d="M28.559 68.9307H17.9804C17.9804 68.9307 17.6933 75.2881 20.8669 77.5411C21.129 77.7263 21.4567 77.8235 21.7905 77.8235H23.2697H24.7488C25.0827 77.8235 25.4104 77.7263 25.6725 77.5411C28.8461 75.2912 28.559 68.9307 28.559 68.9307Z" fill="#536969"/>
<path d="M28.5652 68.9341C28.5652 69.1224 26.8364 69.2855 24.5085 69.3263C24.1122 69.3357 23.6941 69.3389 23.2666 69.3389C22.9014 69.3389 22.5488 69.3357 22.2025 69.3295C19.7903 69.295 17.9741 69.1286 17.9741 68.9341C17.9741 68.7552 19.5125 68.6015 21.6376 68.5481C22.1494 68.5356 22.6986 68.5293 23.2697 68.5293C23.719 68.5293 24.1559 68.5324 24.5709 68.5418C26.8645 68.5858 28.5652 68.7458 28.5652 68.9341Z" fill="#405050"/>
<path d="M30.0754 70.7944C29.5137 70.1134 28.6026 69.9911 27.7756 70.0193C27.0111 70.0444 27.008 71.2431 27.7756 71.218C28.3779 71.1992 29.0238 71.2149 29.3328 71.8173C29.6198 72.3696 29.5699 73.0882 29.2891 73.6342C28.6182 74.9521 27.086 75.3161 25.7254 75.131C25.4071 75.0871 25.1294 75.4385 25.1294 75.7303C25.1294 76.0912 25.404 76.2857 25.7254 76.3297C27.1921 76.5274 28.8054 76.1226 29.8102 74.971C30.8025 73.8319 31.0865 72.0213 30.0754 70.7944Z" fill="#536969"/>
<path opacity="0.5" d="M26.2529 65.3474C25.451 66.157 24.5866 67.0827 24.5616 68.228C24.5585 68.3567 24.5679 68.4853 24.5741 68.6171C24.5897 68.8901 24.6053 69.1631 24.5148 69.4016C24.1185 69.411 23.7003 69.4142 23.2728 69.4142C22.9077 69.4142 22.5551 69.411 22.2087 69.4047C21.9809 69.1945 21.7875 68.9184 21.6408 68.6234C21.4879 68.341 21.3755 68.0429 21.3069 67.7762C21.1758 67.271 21.1665 66.7312 21.2975 66.226C21.6377 64.905 22.8235 63.8255 22.7985 62.4637C22.7829 61.5819 22.2524 60.7974 21.6626 60.1479C21.0697 59.5015 20.3863 58.921 19.9432 58.1616C19.1849 56.8688 19.2723 55.1147 20.1929 53.9348C21.1103 52.7549 22.8235 52.256 24.209 52.802C25.5976 53.3511 26.5213 54.9264 26.2779 56.4043C26.1188 57.3677 25.529 58.353 25.9034 59.2567C26.1094 59.7494 26.5588 60.0851 26.9363 60.4648C27.4606 60.9983 27.8663 61.698 27.8819 62.448C27.9068 63.5902 27.0549 64.5378 26.2529 65.3474Z" fill="#54C1BB"/>
<path d="M33.8423 70.3215C33.8423 70.3215 27.1113 43.4986 30.1288 40.2571C33.1464 37.0156 58.2355 35.5157 60.9847 38.026C63.7339 40.5364 63.5123 70.287 63.5123 70.287L33.8423 70.3215Z" fill="#54C1BB"/>
<path d="M60.9876 38.0261C60.9034 37.9508 60.7973 37.8755 60.6725 37.8065C52.3469 37.2887 37.4682 38.7416 35.1871 41.1923C32.5096 44.0729 37.515 65.5426 38.6696 70.3153L63.5122 70.2871C63.5122 70.2871 63.7368 40.5365 60.9876 38.0261Z" fill="#8DD1CD"/>
<path d="M68.5862 47.9941C68.5862 47.9941 73.7632 63.6335 75.1549 64.0226C76.5467 64.4117 90.8075 67.1135 90.8075 67.1135L90.1116 70.6123C90.1116 70.6123 72.7365 71.1583 68.5862 68.2024C64.4328 65.2464 68.5862 47.9941 68.5862 47.9941Z" fill="#DDBB8F"/>
<path d="M68.5862 47.9941C68.5862 47.9941 64.4328 65.2464 68.5862 68.2023C70.1777 69.3351 73.707 69.9533 77.4579 70.2859L78.4627 65.2464L78.3192 65.1586L78.2131 64.6722C76.6684 64.3615 75.5076 64.1168 75.1581 64.0195C73.7632 63.6335 68.5862 47.9941 68.5862 47.9941Z" fill="#405050"/>
<path d="M79.9388 65.0178C79.2679 65.7302 78.8154 66.615 78.5626 67.5407C78.3099 68.4664 78.2474 69.4298 78.2942 70.3837C78.3005 70.4872 78.1944 70.6002 78.0883 70.6253C77.9822 70.6504 77.8699 70.6284 77.7606 70.6128C77.6514 70.5971 77.5328 70.5908 77.4392 70.6473C77.3456 70.7038 77.2926 70.8136 77.1927 70.8544C77.0648 70.9046 76.9275 70.8324 76.7995 70.7853C76.5218 70.6818 76.2129 70.7038 75.9164 70.6818C75.62 70.663 75.2954 70.5845 75.1238 70.3523C74.999 70.186 74.9802 69.9695 74.9646 69.7655C74.8929 68.8179 74.8305 67.8137 75.2767 66.9634C75.5607 66.4236 76.0287 65.9812 76.2721 65.4258C76.3907 65.1559 76.45 64.8641 76.6123 64.6162C76.7714 64.3683 77.0741 64.1675 77.3737 64.2334C77.6233 64.2898 77.7981 64.5126 78.0415 64.5817C78.263 64.6413 78.494 64.566 78.7218 64.5409C79.2023 64.4875 79.633 64.6538 79.9388 65.0178Z" fill="#536969"/>
<path d="M42.7759 70.3203H69.1007C68.3643 65.1804 67.6809 59.4913 67.7589 56.5417C67.8244 54.1255 68.5827 48.0316 68.5827 48.0316C68.2925 47.6865 61.7924 42.625 56.5 42.7819C47.5222 43.0518 42.96 49.428 42.96 49.428C42.96 49.428 43.2627 54.1569 43.4842 56.6139C43.7495 59.5384 43.2596 65.1992 42.7759 70.3203Z" fill="#F7F4E3"/>
<path d="M67.7555 57.0977C67.7555 56.8906 67.7555 56.6929 67.7618 56.5046C67.8242 54.1826 68.5263 48.4747 68.5825 48.026C68.3079 47.7122 63.6302 44.0628 59.0024 43.043L59.043 47.5082C59.043 47.5082 60.7655 58.1332 61.527 70.2832H69.0974C68.4077 65.4603 67.7649 60.1603 67.7555 57.0977Z" fill="#405050"/>
<path d="M59.608 42.4023L63.7646 47.3759L60.6815 46.444L59.0401 47.5077L57.1709 42.8134L59.608 42.4023Z" fill="#536969"/>
<path d="M42.7759 70.2863H54.8336C53.5979 59.4166 53.1954 49.1085 53.1954 49.1085L51.841 43.4854C45.9495 45.2238 42.96 49.3941 42.96 49.3941C42.96 49.3941 43.2627 54.1229 43.4842 56.5799C43.7495 59.5044 43.2596 65.1621 42.7759 70.2863Z" fill="#405050"/>
<path d="M67.5469 31.1688C69.5971 29.7316 71.1043 27.3907 71.6535 24.7831C71.8282 23.9579 71.9094 23.0949 71.7471 22.2634C71.588 21.4318 71.1604 20.6348 70.4989 20.1923C69.8373 19.7499 68.9261 19.7279 68.3239 20.2488C67.912 19.524 67.032 19.1976 66.2706 19.3357C65.5091 19.4738 64.8351 19.9413 64.2016 20.4214C61.7083 19.32 58.7033 19.957 56.7592 21.9559C55.1084 22.2414 53.623 23.5217 52.9583 25.2005C52.2937 26.8793 52.2843 28.8122 52.6588 30.6071C52.9271 31.8874 53.4139 33.1708 54.3189 34.0337C55.408 35.0692 56.9339 35.3422 58.3662 35.3203C61.7052 35.2669 64.7446 33.1331 67.5469 31.1688Z" fill="#405050"/>
<path d="M54.4781 29.107C53.8696 34.9843 52.353 45.3865 52.353 45.3865C53.6761 47.7399 58.6659 47.4418 58.5504 46.6542C58.4849 46.2086 58.591 45.4336 58.85 44.737C59.0497 44.1972 59.343 43.7014 59.7175 43.4379C59.8735 43.328 60.1513 43.2935 60.5101 43.2904C60.5694 43.2935 60.6006 43.2904 60.6006 43.2904C62.2514 43.3029 65.4499 43.9368 66.8448 41.9285C68.5798 39.4307 68.7702 32.4771 68.5829 29.1258C68.4737 27.2085 66.8354 24.5193 63.537 23.9357C59.5053 23.2202 55.0897 23.192 54.4781 29.107Z" fill="#FDBCA0"/>
<path d="M55.0522 41.6523C55.0522 41.6523 56.3005 43.4629 58.8499 44.7338C59.0496 44.1941 59.343 43.6983 59.7174 43.4347C59.8735 43.3249 60.1512 43.2903 60.5101 43.2872C60.017 43.2746 57.5643 43.124 55.0522 41.6523Z" fill="#F0A38B"/>
<path d="M64.5073 35.6841C64.732 35.681 64.966 35.6873 65.1532 35.8285C65.2999 35.9383 65.3686 36.1203 65.3561 36.3023C65.3218 36.7165 64.9504 36.9487 64.5822 37.0366C64.4636 37.0648 64.4074 36.8828 64.526 36.8546C64.8069 36.7887 65.122 36.6349 65.1657 36.3148C65.1845 36.1862 65.1408 36.0544 65.0347 35.976C64.888 35.8693 64.6914 35.8755 64.5167 35.8755C64.3918 35.8787 64.3856 35.6873 64.5073 35.6841Z" fill="#3F4553"/>
<path d="M62.1607 33.3997C62.1482 33.7511 62.3697 34.0429 62.6568 34.0523C62.9439 34.0618 63.1842 33.7856 63.1967 33.4342C63.2092 33.0827 62.9876 32.7909 62.7005 32.7815C62.4134 32.7721 62.1731 33.0482 62.1607 33.3997Z" fill="#3F4553"/>
<path d="M65.6182 33.7356C65.6057 34.087 65.8273 34.3789 66.1143 34.3883C66.4014 34.3977 66.6417 34.1216 66.6542 33.7701C66.6667 33.4187 66.4451 33.1268 66.158 33.1174C65.8741 33.108 65.6307 33.3841 65.6182 33.7356Z" fill="#3F4553"/>
<path d="M61.2771 30.425C61.8949 30.039 62.6782 29.9637 63.3522 30.2618C63.4458 30.3026 63.502 30.4093 63.4646 30.5097C63.4302 30.6038 63.3148 30.6634 63.218 30.6226C62.6782 30.3842 62.0229 30.4093 61.5174 30.7262C61.43 30.7795 61.3208 30.7858 61.249 30.698C61.1897 30.6227 61.1897 30.4814 61.2771 30.425Z" fill="#3F4553"/>
<path d="M67.8588 31.0434C67.3657 30.5037 66.6324 30.2213 65.9053 30.3249C65.8023 30.3406 65.7243 30.4253 65.7337 30.532C65.743 30.6324 65.8367 30.7202 65.9396 30.7046C66.5232 30.6198 67.1473 30.8238 67.5498 31.2631C67.6185 31.3384 67.7246 31.3729 67.8151 31.307C67.89 31.2568 67.9274 31.1219 67.8588 31.0434Z" fill="#3F4553"/>
<path d="M60.538 34.7865C60.5161 35.0564 60.9093 35.3106 61.4148 35.3545C61.9235 35.3984 62.3541 35.2164 62.376 34.9466C62.3978 34.6767 62.0046 34.4225 61.4991 34.3786C60.9905 34.3347 60.5598 34.5167 60.538 34.7865Z" fill="#FBAD8B"/>
<path d="M66.1391 35.2856C66.1172 35.5554 66.5104 35.8096 67.0159 35.8535C67.5246 35.8975 67.9552 35.7155 67.9771 35.4456C67.9989 35.1757 67.6057 34.9216 67.1002 34.8776C66.5915 34.8337 66.1609 35.0157 66.1391 35.2856Z" fill="#FBAD8B"/>
<path d="M65.4587 38.9224C65.3994 39.255 65.2153 39.5562 64.9625 39.779C64.9157 39.823 64.872 39.8575 64.8221 39.892C64.5007 40.1242 64.1012 40.2372 63.7049 40.2497C63.1245 40.2717 62.5316 40.0709 62.1135 39.6661C61.9512 39.5092 61.817 39.324 61.7234 39.1201C61.5674 38.7969 61.505 38.4297 61.5674 38.0783C61.6017 37.8806 61.6984 37.6704 61.8857 37.6202C62.0074 37.5888 62.1259 37.6296 62.2383 37.6955C62.2976 37.73 62.3537 37.7708 62.4068 37.8084C62.8406 38.1316 63.3086 38.4266 63.8329 38.5521C64.2011 38.64 64.6037 38.6337 64.9594 38.4988C65.078 38.4517 65.2558 38.2948 65.3869 38.3764C65.39 38.3795 65.39 38.3795 65.3932 38.3795C65.5305 38.4862 65.4868 38.7812 65.4587 38.9224Z" fill="#4E5567"/>
<path d="M65.3835 38.3821C65.3585 38.4731 65.3117 38.5641 65.2524 38.6394C65.1214 38.8026 64.9248 38.9093 64.725 38.9752C64.051 39.198 63.2865 39.0222 62.7029 38.6174C62.5157 38.4857 62.3378 38.3256 62.2536 38.1091C62.2037 37.9804 62.1943 37.833 62.2349 37.7012C62.2942 37.7357 62.3503 37.7765 62.4034 37.8141C62.8371 38.1373 63.3052 38.4323 63.8295 38.5578C64.1977 38.6457 64.6002 38.6394 64.956 38.5045C65.0746 38.4574 65.2524 38.3005 65.3835 38.3821Z" fill="white"/>
<path d="M64.9627 39.7827C64.9159 39.8266 64.8722 39.8612 64.8223 39.8957C64.5009 40.1279 64.1015 40.2408 63.7052 40.2534C63.1247 40.2754 62.5319 40.0745 62.1137 39.6697C61.9514 39.5128 61.8172 39.3277 61.7236 39.1237C62.173 39.0767 62.6317 39.0704 63.0842 39.1049C63.624 39.1457 64.1733 39.2493 64.6351 39.5285C64.7474 39.6038 64.8598 39.6854 64.9627 39.7827Z" fill="#3F4553"/>
<path d="M65.328 27.8273C63.9113 28.1191 62.3479 27.4946 61.5178 26.3022C61.4148 26.6631 61.1153 26.9612 60.7533 27.0647C60.3944 27.1683 59.9825 27.071 59.7048 26.8169C59.6486 27.9779 59.3459 29.1483 58.6813 30.096C58.0166 31.0468 56.9618 31.7528 55.8104 31.8438C55.1675 31.894 54.4841 31.7403 54.0036 31.3041C53.5573 30.8961 53.3358 30.2968 53.2016 29.7069C52.8802 28.2854 52.9769 26.7541 53.5604 25.4173C54.1409 24.0806 55.2175 22.9509 56.5562 22.3861C57.8356 21.8432 59.271 21.8307 60.6597 21.8778C62.0889 21.928 63.5306 22.0409 64.888 22.4959C65.9895 22.8631 67.0349 23.4718 67.8057 24.3536C67.9555 24.5262 68.2176 24.7678 68.2145 25.0094C68.2114 25.2448 68.046 25.5523 67.943 25.7594C67.7027 26.2457 67.3595 26.6756 66.9475 27.024C66.4857 27.4225 65.924 27.7049 65.328 27.8273Z" fill="#405050"/>
<path d="M55.0772 31.9191C54.5935 31.348 53.8914 30.915 53.1238 30.9777C52.3655 31.0405 51.7695 31.5582 51.576 32.2957C51.448 32.7914 51.4886 33.3155 51.5822 33.8207C51.679 34.351 51.8288 34.875 52.0815 35.3489C52.559 36.2432 53.5544 37.059 54.6248 36.7044C56.0508 36.2306 56.1476 34.464 55.7918 33.2308C55.6545 32.7726 55.4049 32.3082 55.0772 31.9191Z" fill="#FDBCA0"/>
<path d="M53.1923 32.2546C53.0612 32.1856 52.9489 32.3833 53.0768 32.4523C53.988 32.9262 54.4967 33.946 54.3126 34.9658C54.2876 35.1102 54.506 35.1698 54.531 35.0254C54.7338 33.9115 54.2002 32.7787 53.1923 32.2546Z" fill="#F0A38B"/>
<path d="M54.2345 33.4379C53.8476 33.2779 53.4201 33.2434 53.0144 33.3281C52.9551 33.3406 52.9208 33.4128 52.9364 33.4693C52.9551 33.532 53.0144 33.5603 53.0768 33.5477C53.445 33.4724 53.8289 33.5132 54.1784 33.6576C54.2345 33.6795 54.3032 33.6325 54.3188 33.5791C54.3313 33.5132 54.2907 33.463 54.2345 33.4379Z" fill="#F0A38B"/>
<path d="M52.8367 42.4023L50.2966 43.4818L48.0342 49.9334L51.8912 47.8466L53.1987 49.1081L52.8367 42.4023Z" fill="#536969"/>
<path d="M42.9633 49.3955C42.9633 49.3955 32.9526 67.1153 35.1183 70.1497C37.2839 73.1841 56.6219 76.14 56.6219 76.14L57.4177 72.2051C57.4177 72.2051 43.3378 68.3391 43.0476 67.2314L43.4033 62.7913C43.4002 62.7913 44.561 50.9802 42.9633 49.3955Z" fill="#FDBCA0"/>
<path d="M43.0445 67.2297L43.4002 62.7896C43.4002 62.7896 44.561 50.9784 42.9633 49.3906C42.9633 49.3906 32.9526 67.1105 35.1183 70.1448C35.8173 71.1239 38.3137 72.0966 41.3687 72.9658L42.3142 72.6363L44.1741 67.964C43.5094 67.6659 43.0913 67.4117 43.0445 67.2297Z" fill="#405050"/>
<path d="M46.4363 68.4812C44.8854 69.8651 43.8556 71.8294 43.5935 73.8973C43.1847 73.9036 42.8071 73.7341 42.4701 73.5019C42.0738 73.7718 41.5495 73.7121 41.0783 73.64C40.8911 73.6117 40.682 73.5709 40.5728 73.4172C40.501 73.3168 40.4885 73.1881 40.4761 73.0657C40.4293 72.5825 40.3824 72.0898 40.4979 71.6192C40.6102 71.161 40.8692 70.7531 41.1251 70.3546C41.5682 69.6674 42.0114 68.977 42.4545 68.2898C42.6074 68.0545 42.7603 67.8129 42.9819 67.6434C43.2034 67.4708 43.503 67.3767 43.7651 67.4708C43.9274 67.5305 44.0584 67.6528 44.2113 67.7344C44.4672 67.8693 44.7668 67.8788 45.0539 67.8693C45.341 67.8599 45.6343 67.8317 45.912 67.907C46.1898 67.9823 46.377 68.1957 46.4363 68.4812Z" fill="#536969"/>
<path d="M43.4343 52.3252C43.3937 56.1629 43.2471 60.0005 42.9912 63.8319C42.9194 64.9208 42.8351 66.0097 42.7446 67.0985C42.7197 67.3903 43.1753 67.3809 43.2002 67.0891C43.5185 63.264 43.7276 59.4294 43.8306 55.5918C43.8587 54.4998 43.8774 53.4078 43.8899 52.3189C43.893 52.0208 43.4374 52.0302 43.4343 52.3252Z" fill="#A1B8B8"/>
<path d="M56.6187 76.1352C56.6187 76.1352 64.3139 79.2856 64.6634 78.6423C65.0129 78.0022 61.365 76.7847 61.365 76.7847C61.365 76.7847 66.4796 77.8265 66.6137 77.2993C66.7479 76.7753 61.8268 75.4636 61.8268 75.4636C61.8268 75.4636 67.7028 76.5431 67.7746 75.928C67.8464 75.313 62.5914 74.1583 62.5914 74.1583C62.5914 74.1583 67.5281 74.4407 67.5624 73.992C67.6217 73.1855 57.4144 72.2002 57.4144 72.2002L56.6187 76.1352Z" fill="#FDBCA0"/>
<path d="M58.1475 72.2786C58.1475 72.2786 62.0731 70.8477 62.4694 71.1584C62.8657 71.4691 60.7375 73.0349 60.7375 73.0349L58.1475 72.2786Z" fill="#FDBCA0"/>
<path d="M46.5676 68.0713H26.2467C26.0314 68.0713 25.9035 68.247 25.9627 68.4635L29.4983 81.3823C29.5576 81.5989 29.7792 81.7746 29.9945 81.7746H50.3154C50.5307 81.7746 50.6587 81.5989 50.5994 81.3823L47.0638 68.4635C47.0077 68.247 46.783 68.0713 46.5676 68.0713Z" fill="#E7DFC2"/>
<path d="M49.0732 81.6178L46.0713 70.6539C46.0214 70.4688 45.831 70.3213 45.65 70.3213H28.4059C28.2218 70.3213 28.1157 70.4688 28.1656 70.6539L31.1676 81.6178C31.1645 81.6115 31.1863 81.69 31.2113 81.7716H49.1201L49.0732 81.6178Z" fill="#F7F4E3"/>
<path d="M27.7225 69.0406C27.7225 69.3074 27.5071 69.5208 27.245 69.5208C26.9798 69.5208 26.7676 69.3042 26.7676 69.0406C26.7676 68.7771 26.9829 68.5605 27.245 68.5605C27.5071 68.5605 27.7225 68.7771 27.7225 69.0406Z" fill="#405050"/>
<path d="M27.467 69.0412C27.467 69.1635 27.3672 69.2639 27.2455 69.2639C27.1238 69.2639 27.0239 69.1635 27.0239 69.0412C27.0239 68.9188 27.1238 68.8184 27.2455 68.8184C27.3672 68.8184 27.467 68.9188 27.467 69.0412Z" fill="#576E6E"/>
<path d="M45.2696 70.4717H28.0256C27.8414 70.4717 27.7353 70.6192 27.7853 70.8043L30.7872 81.7682C30.7841 81.7556 30.8808 82.1008 30.8808 82.1008H48.7865L48.696 81.7682L45.694 70.8043C45.641 70.6192 45.4538 70.4717 45.2696 70.4717Z" fill="#EBB254"/>
<path d="M48.6929 81.7683L46.7613 74.708H28.8525L30.7842 81.7683C30.781 81.7558 30.8778 82.1009 30.8778 82.1009H48.7834L48.6929 81.7683Z" fill="#FEDEA6"/>
<path d="M45.3035 83.7982H27.4072L30.8866 82.1006H48.7829L45.3035 83.7982Z" fill="#EBB254"/>
<path d="M68.1244 49.5949L104.607 43.4979C105.203 43.3975 105.746 43.8682 105.742 44.4832L105.586 67.7603C105.583 68.231 105.259 68.6327 104.806 68.7268L69.2166 76.1323C68.3429 76.3394 67.3037 75.7808 67.3037 74.4912V50.5739C67.3068 50.0907 67.6532 49.6765 68.1244 49.5949Z" fill="#FEDEA6"/>
<path d="M69.7751 49.5289L104.607 43.7207C105.203 43.6202 105.746 44.0878 105.742 44.6965L105.593 67.7979C105.59 68.2623 105.265 68.6608 104.813 68.755L70.1308 75.9189C69.5255 76.0444 68.9575 75.58 68.9575 74.9555V50.5017C68.9606 50.0153 69.3039 49.6074 69.7751 49.5289Z" fill="#FAC978"/>
<path d="M85.518 61.6416L83.499 73.1515L94.4708 70.8859L85.518 61.6416Z" fill="#EBB254"/>
<path d="M85.0624 82.7066L80.2474 81.0623C79.4767 80.7987 79.5235 79.6879 80.313 79.4902L88.4763 77.4349C88.6198 77.4003 88.7665 77.4035 88.9069 77.4443L93.647 78.8689C94.4303 79.1042 94.4209 80.2213 93.6345 80.4441L85.5461 82.7191C85.3869 82.763 85.2184 82.7599 85.0624 82.7066Z" fill="#EBB254"/>
<path d="M92.2649 60.5435C92.1712 60.1105 91.7562 59.8312 91.3224 59.9097L86.186 60.8448C85.8022 60.9138 85.5214 61.2496 85.5151 61.6418L85.2998 82.7883L96.3465 79.6786L92.2649 60.5435ZM90.9511 76.9862C89.4033 77.1463 87.9647 75.4612 87.7369 73.2207C87.5091 70.9834 88.5795 69.0379 90.1273 68.881C91.6751 68.721 93.1136 70.406 93.3414 72.6465C93.5692 74.8838 92.4989 76.8262 90.9511 76.9862Z" fill="#FEDEA6"/>
<path d="M89.3752 22.5748C84.1483 22.5748 79.895 18.2978 79.895 13.0418C79.895 7.78578 84.1483 3.50879 89.3752 3.50879C94.6021 3.50879 98.8554 7.78578 98.8554 13.0418C98.8554 18.2978 94.6021 22.5748 89.3752 22.5748ZM89.3752 6.21054C85.6275 6.21054 82.5787 9.27629 82.5787 13.0449C82.5787 16.8136 85.6275 19.8793 89.3752 19.8793C93.123 19.8793 96.1717 16.8136 96.1717 13.0449C96.1717 9.27629 93.123 6.21054 89.3752 6.21054Z" fill="#F5E2D5"/>
<path d="M85.8236 15.4483L85.4023 14.6544L88.9941 12.7372L90.5107 7.0293L91.375 7.2615L89.7586 13.3491L85.8236 15.4483Z" fill="#F5E2D5"/>
</g>
<defs>
<clipPath id="clip0_1_2564">
<rect width="118" height="85" fill="white"/>
</clipPath>
</defs>
</svg>
