<svg width="177" height="167" viewBox="0 0 177 167" fill="none" xmlns="http://www.w3.org/2000/svg">
<mask id="mask0_1_3212" style="mask-type:alpha" maskUnits="userSpaceOnUse" x="0" y="0" width="177" height="167">
<rect width="176.435" height="167" rx="10" fill="#FEB18F"/>
</mask>
<g mask="url(#mask0_1_3212)">
<path fill-rule="evenodd" clip-rule="evenodd" d="M0.595169 48.7975C5.09644 57.4862 12.1005 71.0062 36.5 66.8153C56.1432 63.4414 61.9405 73.9288 67.3765 83.7626C68.2514 85.3453 69.117 86.9112 70.0294 88.3995C71.4713 90.7514 74.1102 91.9997 76.8689 91.9997H88H99.1311C101.89 91.9997 104.529 90.7514 105.971 88.3995C106.883 86.9112 107.749 85.3453 108.624 83.7626C114.06 73.9288 119.857 63.4414 139.5 66.8153C163.899 71.0062 170.904 57.4862 175.405 48.7975C175.794 48.0453 176 47.2108 176 46.3636V7.47609C176 1.06011 169.478 -3.29529 163.552 -0.837172L91.4481 29.0695C89.2406 29.9851 86.7594 29.9851 84.5519 29.0695L12.4481 -0.837172C6.5217 -3.29529 0 1.06011 0 7.47609V46.3636C0 47.2108 0.205497 48.0453 0.595169 48.7975Z" fill="#F4A17C"/>
<path d="M104.252 10.293C104.252 10.293 105.314 10.4111 106.223 11.2244C107.132 12.0378 107.971 9.96459 106.467 9.54122C104.965 9.11785 104.252 10.293 104.252 10.293Z" fill="#F5E2D5"/>
<path d="M103.242 10.1976C103.242 10.1976 103.936 9.3919 105.125 9.10195C106.313 8.81201 105.05 6.962 103.853 7.95756C102.66 8.9557 103.242 10.1976 103.242 10.1976Z" fill="#F5E2D5"/>
<path d="M89.3799 15.0128C89.3799 15.0128 88.6419 15.7775 88.471 16.9809C88.3001 18.1817 86.3139 17.1246 87.1943 15.8442C88.0722 14.5638 89.3799 15.0128 89.3799 15.0128Z" fill="#F5E2D5"/>
<path d="M90.095 14.2998C90.095 14.2998 89.0411 14.1228 87.9405 14.6565C86.8399 15.1902 86.6121 12.9681 88.1762 12.9707C89.7377 12.9733 90.095 14.2998 90.095 14.2998Z" fill="#F5E2D5"/>
<path d="M105.404 21.3175C107.708 17.5575 106.499 12.6588 102.705 10.3758C98.9099 8.09292 93.9659 9.29033 91.662 13.0503C89.358 16.8103 90.5664 21.7091 94.3611 23.992C98.1558 26.2749 103.1 25.0775 105.404 21.3175Z" fill="#F5E2D5"/>
<path d="M92.3038 15.8265C92.1665 15.8624 92.0189 15.8034 91.949 15.6751C91.8687 15.5263 91.9231 15.339 92.0759 15.2595L94.0776 14.1895L92.7362 14.1433C92.5653 14.1382 92.4307 13.9945 92.4359 13.8251C92.441 13.6558 92.5861 13.5224 92.757 13.5275L95.2429 13.6122C95.3828 13.6173 95.5019 13.7148 95.5356 13.8508C95.5666 13.9868 95.5045 14.1253 95.3802 14.1921L92.3685 15.8009C92.3478 15.8111 92.3271 15.8188 92.3038 15.8265Z" fill="#3F4553"/>
<path d="M103.02 12.9066C102.996 12.9117 102.973 12.9168 102.947 12.9168L99.6764 13.0195C99.5366 13.0246 99.4097 12.9348 99.3683 12.8014C99.3268 12.6679 99.3812 12.5242 99.5003 12.4498L101.709 11.0848C101.854 10.995 102.046 11.0386 102.136 11.1823C102.227 11.326 102.183 11.5158 102.038 11.6057L100.808 12.3652L102.926 12.2984C103.097 12.2933 103.242 12.4267 103.247 12.5961C103.25 12.7449 103.154 12.8681 103.02 12.9066Z" fill="#3F4553"/>
<path d="M92.1689 17.2123C93.8729 20.3247 96.8975 22.0977 99.6839 21.3382C102.468 20.5787 104.153 17.5202 104.011 13.9844L102.936 14.0947C99.4948 14.4462 96.1465 15.3674 93.0157 16.8197L92.1689 17.2123Z" fill="#3F4553"/>
<path d="M103.092 17.9799C101.885 17.5873 100.36 17.554 98.8038 17.9799C97.2164 18.4136 95.9035 19.2372 95.0723 20.2122C96.4836 21.118 98.0788 21.467 99.604 21.0513C101.147 20.6279 102.349 19.5015 103.092 17.9799Z" fill="#4E5567"/>
<path d="M49.6748 48.2882C50.9058 44.062 48.4461 39.6471 44.1808 38.4274C39.9156 37.2076 35.46 39.6449 34.2289 43.8711C32.9979 48.0974 35.4577 52.5122 39.7229 53.732C43.9882 54.9518 48.4438 52.5145 49.6748 48.2882Z" fill="#F5E2D5"/>
<path d="M37.8449 41.2445C37.7128 41.1906 37.6326 41.0546 37.6559 40.9109C37.6844 40.7442 37.8423 40.6287 38.0132 40.6569L40.2584 41.0161L39.2226 40.172C39.0905 40.0642 39.0724 39.8692 39.1811 39.7383C39.2899 39.6075 39.4867 39.5895 39.6188 39.6973L41.5402 41.265C41.649 41.3523 41.6826 41.5037 41.6257 41.6294C41.5687 41.7551 41.4315 41.8295 41.2942 41.8064L37.9148 41.2676C37.8889 41.2599 37.8656 41.2548 37.8449 41.2445Z" fill="#3F4553"/>
<path d="M48.1408 45.3885C48.1175 45.3782 48.0968 45.3679 48.0761 45.3525L45.4192 43.4615C45.3053 43.3794 45.2613 43.2331 45.3105 43.1022C45.3597 42.9714 45.4917 42.8918 45.6316 42.9047L48.2211 43.1536C48.392 43.169 48.5163 43.3203 48.5008 43.4897C48.4853 43.659 48.3325 43.7822 48.1616 43.7668L46.7192 43.6283L48.4412 44.8522C48.5811 44.9523 48.6121 45.1421 48.5112 45.2807C48.4231 45.4013 48.2703 45.4423 48.1408 45.3885Z" fill="#3F4553"/>
<path d="M42.9643 49.4267C41.7912 49.4267 40.7451 49.165 39.8335 48.6441C37.433 47.2713 36.8788 44.6079 36.8555 44.495C36.8141 44.2872 36.9513 44.0845 37.1611 44.0434C37.3708 44.0024 37.5754 44.1384 37.6169 44.3462C37.622 44.3693 38.1322 46.7864 40.2297 47.9821C41.7576 48.8545 43.7567 48.8827 46.1728 48.0668C46.3774 47.9975 46.5975 48.1053 46.6648 48.308C46.7347 48.5081 46.626 48.7288 46.4214 48.7955C45.1706 49.2137 44.0157 49.4267 42.9643 49.4267Z" fill="#3F4553"/>
<path d="M90.4472 70.8076C93.8987 67.3876 93.8987 61.8428 90.4472 58.4229C86.9957 55.003 81.3997 55.003 77.9482 58.4229C74.4967 61.8428 74.4967 67.3876 77.9482 70.8076C81.3997 74.2275 86.9957 74.2275 90.4472 70.8076Z" fill="#F5E2D5"/>
<path d="M79.2188 67.4808C79.2188 67.4808 84.9028 64.2657 90.3798 63.4883C90.3798 63.4883 91.9516 68.6201 86.7155 70.6061C82.176 72.3278 79.2188 67.4808 79.2188 67.4808Z" fill="#3F4553"/>
<path d="M80.3404 65.0066C80.1539 65.0066 79.9727 64.9065 79.8794 64.7295L78.5898 62.2611C78.4578 62.0096 78.5588 61.6992 78.8125 61.5683C79.0663 61.4375 79.3797 61.5375 79.5117 61.789L80.8013 64.2574C80.9334 64.5088 80.8324 64.8193 80.5786 64.9502C80.5009 64.9886 80.4207 65.0066 80.3404 65.0066Z" fill="#3F4553"/>
<path d="M87.2129 62.5357C86.9747 62.5357 86.7597 62.3715 86.7079 62.1303L86.1072 59.3206C86.0476 59.0435 86.2263 58.7715 86.5059 58.7125C86.7856 58.6535 87.0601 58.8305 87.1197 59.1077L87.7205 61.9173C87.78 62.1944 87.6013 62.4664 87.3217 62.5254C87.2828 62.5331 87.2466 62.5357 87.2129 62.5357Z" fill="#3F4553"/>
<path d="M88.1062 69.5819C87.6298 68.4195 85.9647 67.9448 84.3384 68.5247C83.4373 68.848 82.7381 69.4279 82.3574 70.0822C83.5357 70.6698 85.0014 70.9341 86.6846 70.2952C87.231 70.0899 87.6971 69.8487 88.1062 69.5819Z" fill="#4E5567"/>
<path d="M135.328 41.9163C139.813 40.0073 141.887 34.8573 139.96 30.4135C138.034 25.9696 132.836 23.9147 128.351 25.8237C123.867 27.7327 121.793 32.8827 123.719 37.3266C125.646 41.7704 130.844 43.8253 135.328 41.9163Z" fill="#F5E2D5"/>
<path d="M132.967 35.8201C129.914 35.8201 127.596 34.0599 127.563 34.0342C127.451 33.947 127.431 33.7853 127.519 33.675C127.607 33.5647 127.77 33.5441 127.881 33.6314C128.068 33.7751 132.498 37.1287 137.113 33.9983C137.232 33.9188 137.393 33.9495 137.473 34.065C137.553 34.183 137.525 34.3421 137.406 34.4217C135.873 35.4608 134.345 35.8201 132.967 35.8201Z" fill="#3F4553"/>
<path d="M135.487 31.171C135.487 31.7098 135.274 32.1486 135.01 32.1486C134.746 32.1486 134.534 31.7124 134.534 31.171C134.534 30.6296 134.746 30.1934 135.01 30.1934C135.274 30.1934 135.487 30.6321 135.487 31.171Z" fill="#3F4553"/>
<path d="M130.911 30.9835C130.911 31.5223 130.699 31.9611 130.434 31.9611C130.17 31.9611 129.958 31.5249 129.958 30.9835C129.958 30.4446 130.17 30.0059 130.434 30.0059C130.699 30.0059 130.911 30.4421 130.911 30.9835Z" fill="#3F4553"/>
<path d="M109.489 94.8768C121.4 94.8768 131.056 92.7147 131.056 90.0478C131.056 87.3808 121.4 85.2188 109.489 85.2188C97.5778 85.2188 87.9219 87.3808 87.9219 90.0478C87.9219 92.7147 97.5778 94.8768 109.489 94.8768Z" fill="#F4A17C"/>
<path opacity="0.5" d="M109.489 94.8768C121.4 94.8768 131.056 92.7147 131.056 90.0478C131.056 87.3808 121.4 85.2188 109.489 85.2188C97.5778 85.2188 87.9219 87.3808 87.9219 90.0478C87.9219 92.7147 97.5778 94.8768 109.489 94.8768Z" fill="#F4A17C"/>
<path d="M107.82 26.2115C107.82 26.2115 106.168 26.0627 106.018 24.5744C105.867 23.0862 109.775 21.2234 112.253 21.149C114.734 21.0746 117.137 23.7559 117.137 25.9138C117.137 28.0717 117.513 31.1252 119.39 31.7204C121.268 32.3157 122.547 35.9644 121.418 37.3038C120.291 38.6432 120.366 38.6432 121.493 39.8364C122.619 41.0269 121.643 43.113 120.892 43.5595C120.141 44.0059 117.886 44.6756 112.851 44.2292C107.817 43.7827 104.811 39.2411 104.586 37.3782C104.36 35.518 106.088 34.2504 106.688 33.4319C107.289 32.6134 106.238 31.9437 106.313 31.0482C106.388 30.1553 107.514 29.4111 107.815 28.6645C108.12 27.9229 107.82 26.2115 107.82 26.2115Z" fill="#3F4553"/>
<path d="M115.928 44.5035C115.044 44.5035 114.024 44.4599 112.843 44.3547C107.566 43.8851 104.671 39.1228 104.461 37.3934C104.277 35.8846 105.313 34.7711 106.066 33.9577C106.279 33.7293 106.46 33.5317 106.59 33.3572C106.893 32.9416 106.709 32.5695 106.496 32.1359C106.328 31.7972 106.157 31.4482 106.191 31.0402C106.237 30.4732 106.657 29.9857 107.063 29.5161C107.333 29.2031 107.587 28.908 107.703 28.6206C107.949 28.0125 107.765 26.6859 107.711 26.3241C107.333 26.26 106.028 25.9393 105.89 24.5845C105.854 24.2329 106.012 23.8583 106.354 23.4709C107.439 22.2469 110.249 21.0769 112.25 21.0179C113.382 20.9871 114.591 21.5131 115.586 22.4702C116.624 23.4683 117.269 24.7872 117.269 25.9136C117.269 27.7816 117.551 31.0018 119.434 31.5996C120.42 31.9127 121.335 33.0596 121.764 34.5196C122.117 35.7179 122.026 36.7904 121.524 37.3883C120.503 38.5994 120.503 38.5994 121.495 39.6437L121.596 39.7489C122.158 40.3416 122.186 41.0857 122.114 41.604C121.982 42.5483 121.425 43.395 120.967 43.6696C120.578 43.8954 119.242 44.5035 115.928 44.5035ZM112.351 21.2745C112.32 21.2745 112.289 21.2745 112.256 21.277C110.347 21.3335 107.571 22.483 106.546 23.6428C106.25 23.9738 106.116 24.2843 106.144 24.5614C106.281 25.929 107.814 26.0829 107.83 26.0855C107.89 26.0906 107.936 26.1343 107.946 26.1907C107.959 26.2626 108.249 27.9484 107.939 28.7181C107.807 29.044 107.54 29.3545 107.258 29.6829C106.88 30.1242 106.486 30.5784 106.447 31.0633C106.419 31.402 106.577 31.7176 106.727 32.0255C106.957 32.49 107.193 32.9698 106.799 33.5112C106.662 33.6985 106.476 33.9012 106.258 34.1347C105.538 34.9122 104.552 35.977 104.72 37.3677C104.922 39.0433 107.737 43.649 112.869 44.1058C118.411 44.5984 120.363 43.7311 120.832 43.454C121.231 43.218 121.736 42.4302 121.858 41.5732C121.922 41.1088 121.896 40.4468 121.407 39.9285L121.309 39.8233C120.242 38.6994 120.19 38.5814 121.329 37.2266C121.777 36.6929 121.85 35.7102 121.521 34.594C121.19 33.4624 120.392 32.1744 119.361 31.8485C117.321 31.2019 117.018 27.856 117.018 25.9187C117.018 24.859 116.404 23.612 115.415 22.66C114.488 21.7748 113.379 21.2745 112.351 21.2745Z" fill="#3F4553"/>
<path d="M119.804 38.1782C119.757 38.1782 119.729 38.1731 119.721 38.1705C119.651 38.1551 119.607 38.0858 119.623 38.0165C119.638 37.9473 119.708 37.9036 119.778 37.919C119.781 37.919 119.905 37.9396 120.06 37.8267C120.26 37.683 120.524 37.3212 120.656 36.4C120.827 35.2146 118.931 33.6597 116.927 32.0149C116.036 31.2836 115.114 30.5267 114.306 29.7518C111.629 27.1833 111.251 24.1453 111.245 24.1145C111.238 24.0453 111.289 23.9811 111.359 23.9734C111.424 23.9657 111.494 24.017 111.502 24.0863C111.504 24.1145 111.875 27.0679 114.485 29.5671C115.285 30.3343 116.202 31.0886 117.09 31.8148C119.242 33.5801 121.101 35.1068 120.91 36.4334C120.791 37.257 120.55 37.7984 120.192 38.0422C120.034 38.1577 119.889 38.1782 119.804 38.1782Z" fill="#AC9B8F"/>
<path d="M107.032 24.9925C106.193 24.9925 105.926 24.6692 105.913 24.6512C105.869 24.5948 105.88 24.5152 105.937 24.4716C105.991 24.428 106.074 24.4382 106.118 24.4947C106.121 24.4972 106.553 24.9771 108.151 24.5794C109.829 24.1637 111.538 22.8217 111.554 22.8063C111.611 22.7627 111.691 22.7704 111.735 22.8269C111.779 22.8833 111.771 22.9628 111.714 23.0065C111.642 23.0629 109.945 24.3972 108.213 24.8257C107.731 24.9488 107.343 24.9925 107.032 24.9925Z" fill="#AC9B8F"/>
<path d="M99.9288 87.4394C99.9288 87.4394 101.047 88.8942 102.298 89.5793C103.549 90.2644 105.794 89.7923 105.147 88.1681C104.499 86.5439 103.464 85.6869 102.687 85.3892C101.91 85.089 99.8899 85.8562 99.9288 87.4394Z" fill="#E49621"/>
<path d="M103.57 90.0125C103.109 90.0125 102.632 89.9073 102.236 89.6918C100.975 89.0015 99.8719 87.5775 99.8252 87.5185C99.8097 87.4979 99.7993 87.4697 99.7993 87.4441C99.7838 86.7692 100.12 86.156 100.752 85.7146C101.389 85.2707 102.241 85.0783 102.733 85.2682C103.122 85.417 104.448 86.0636 105.266 88.1214C105.496 88.6988 105.401 89.212 104.997 89.5635C104.657 89.8611 104.124 90.0125 103.57 90.0125ZM100.058 87.3953C100.232 87.6134 101.252 88.8604 102.36 89.4685C103.132 89.8893 104.284 89.8432 104.828 89.371C105.149 89.0914 105.217 88.6936 105.028 88.2164C104.248 86.256 103.003 85.6479 102.64 85.5094C102.28 85.3708 101.532 85.4889 100.902 85.9276C100.584 86.1457 100.058 86.6281 100.058 87.3953Z" fill="#3F4553"/>
<path d="M101.521 89.0222L101.534 89.0607C101.778 89.2532 102.034 89.4328 102.298 89.5765C103.549 90.2616 105.794 89.7894 105.147 88.1652C103.119 86.9285 101.521 89.0222 101.521 89.0222Z" fill="#F1BD54"/>
<path d="M103.57 90.0124C103.109 90.0124 102.632 89.9072 102.236 89.6917C101.988 89.5557 101.726 89.3786 101.454 89.1631C101.434 89.1477 101.418 89.1246 101.41 89.0989L101.397 89.0579C101.384 89.0194 101.392 88.9758 101.418 88.9424C101.436 88.9219 103.109 86.7691 105.214 88.0546C105.238 88.07 105.256 88.0905 105.266 88.1162C105.497 88.6935 105.401 89.2067 104.997 89.5582C104.658 89.861 104.124 90.0124 103.57 90.0124ZM101.69 89.022C101.923 89.2016 102.148 89.3504 102.361 89.4684C103.132 89.8892 104.285 89.843 104.828 89.3709C105.139 89.0989 105.214 88.7166 105.043 88.2573C103.352 87.2541 101.998 88.6576 101.69 89.022Z" fill="#3F4553"/>
<path d="M102.298 89.5786C103.472 90.22 105.517 89.848 105.235 88.4599C104.815 88.9038 103.979 89.4477 102.816 89.0218C101.568 88.5676 100.499 87.3232 100.056 86.751C99.973 86.9588 99.9212 87.1872 99.929 87.4386C99.929 87.4386 101.048 88.8935 102.298 89.5786Z" fill="#F1BD54"/>
<path d="M103.57 90.0097C103.106 90.0097 102.627 89.9045 102.236 89.6889C100.975 88.9987 99.8717 87.5746 99.8251 87.5156C99.8096 87.4951 99.7992 87.4669 99.7992 87.4412C99.7941 87.1923 99.8381 86.9434 99.9365 86.7022C99.9546 86.6586 99.9935 86.6278 100.04 86.6227C100.084 86.615 100.131 86.6355 100.159 86.6715C100.563 87.1923 101.633 88.4522 102.86 88.9012C104.054 89.3374 104.851 88.6754 105.139 88.3701C105.173 88.3341 105.222 88.3213 105.268 88.3341C105.315 88.347 105.351 88.3855 105.359 88.4317C105.457 88.9192 105.294 89.3477 104.898 89.635C104.561 89.8865 104.075 90.0097 103.57 90.0097ZM100.058 87.395C100.232 87.6131 101.252 88.8601 102.36 89.4683C103.083 89.8634 104.178 89.848 104.748 89.4323C104.997 89.2527 105.126 89.0192 105.131 88.737C104.709 89.0962 103.896 89.5555 102.769 89.145C101.612 88.7216 100.599 87.6311 100.102 87.0204C100.074 87.1436 100.058 87.2667 100.058 87.395Z" fill="#3F4553"/>
<path d="M118.688 87.3847C118.688 87.3847 117.569 88.8395 116.318 89.5246C115.068 90.2097 112.822 89.7376 113.47 88.1134C114.117 86.4892 115.153 85.6322 115.93 85.3346C116.707 85.0343 118.727 85.8015 118.688 87.3847Z" fill="#E49621"/>
<path d="M115.047 89.9584C114.493 89.9584 113.96 89.8045 113.618 89.5068C113.214 89.1553 113.118 88.6447 113.348 88.0648C114.167 86.0095 115.495 85.3629 115.881 85.2115C116.373 85.0217 117.225 85.2141 117.862 85.658C118.494 86.0968 118.833 86.7126 118.815 87.3874C118.815 87.4131 118.805 87.4413 118.789 87.4618C118.743 87.5234 117.639 88.9475 116.378 89.6351C115.985 89.8507 115.508 89.9584 115.047 89.9584ZM116.329 85.3963C116.189 85.3963 116.07 85.4142 115.974 85.4502C115.612 85.5887 114.369 86.1994 113.587 88.1572C113.398 88.6344 113.465 89.0322 113.786 89.3118C114.33 89.7865 115.482 89.8301 116.254 89.4093C117.362 88.8038 118.383 87.5568 118.556 87.3387C118.556 86.5715 118.03 86.0891 117.712 85.8684C117.248 85.5451 116.72 85.3963 116.329 85.3963Z" fill="#3F4553"/>
<path d="M117.095 88.9676L117.082 89.0061C116.839 89.1986 116.582 89.3782 116.318 89.5219C115.068 90.207 112.822 89.7348 113.47 88.1106C115.497 86.8713 117.095 88.9676 117.095 88.9676Z" fill="#F1BD54"/>
<path d="M115.047 89.9584C114.493 89.9584 113.96 89.8045 113.618 89.5068C113.214 89.1553 113.118 88.6447 113.348 88.0648C113.359 88.0391 113.377 88.016 113.4 88.0032C115.506 86.7177 117.181 88.8679 117.197 88.891C117.223 88.9243 117.23 88.968 117.217 89.0065L117.204 89.0449C117.197 89.0706 117.181 89.0911 117.16 89.1065C116.888 89.3221 116.624 89.4991 116.378 89.6351C115.985 89.8506 115.508 89.9584 115.047 89.9584ZM113.574 88.1982C113.403 88.6575 113.478 89.0424 113.789 89.3118C114.333 89.7865 115.485 89.8301 116.257 89.4093C116.469 89.2938 116.694 89.145 116.927 88.9628C116.617 88.601 115.262 87.2001 113.574 88.1982Z" fill="#3F4553"/>
<path d="M116.318 89.5239C115.145 90.1654 113.1 89.7933 113.382 88.4052C113.801 88.8491 114.638 89.393 115.801 88.9671C117.049 88.5129 118.118 87.2685 118.561 86.6963C118.644 86.9041 118.696 87.1325 118.688 87.3839C118.688 87.3839 117.569 88.8388 116.318 89.5239Z" fill="#F1BD54"/>
<path d="M115.047 89.9556C114.542 89.9556 114.055 89.8299 113.714 89.5835C113.317 89.2962 113.154 88.8677 113.253 88.3801C113.263 88.3339 113.297 88.2955 113.343 88.2826C113.39 88.2698 113.442 88.2826 113.473 88.3186C113.76 88.6239 114.558 89.2833 115.752 88.8497C116.979 88.4007 118.051 87.1408 118.452 86.6199C118.481 86.584 118.528 86.566 118.572 86.5712C118.618 86.5763 118.657 86.6071 118.675 86.6507C118.771 86.8919 118.818 87.1408 118.812 87.3897C118.812 87.4179 118.802 87.4436 118.786 87.4641C118.74 87.5257 117.637 88.9498 116.376 89.6374C115.99 89.8504 115.511 89.9556 115.047 89.9556ZM113.483 88.6803C113.491 88.9626 113.618 89.1961 113.866 89.3757C114.436 89.7914 115.531 89.8068 116.254 89.4116C117.362 88.8061 118.383 87.559 118.556 87.3409C118.556 87.2152 118.54 87.0895 118.509 86.9663C118.012 87.5744 117 88.6675 115.842 89.0909C114.718 89.4989 113.905 89.0396 113.483 88.6803Z" fill="#3F4553"/>
<path d="M109.922 31.6177C109.922 31.6177 109.622 34.0758 109.397 34.5967C109.171 35.1175 106.39 35.2664 105.189 35.7128C103.987 36.1593 101.431 38.3198 99.8541 39.808C98.2771 41.2962 96.8477 45.2426 96.8477 45.7634C96.8477 46.2843 98.4247 44.2752 99.8541 42.8588C101.281 41.445 104.438 39.6566 104.438 39.6566C104.438 39.6566 105.567 45.1964 105.717 45.7942C105.867 46.3895 105.714 47.3825 105.714 47.6057C105.714 47.829 102.558 53.2635 102.032 57.8052C101.506 62.3468 102.483 70.9836 102.483 70.9836C102.483 70.9836 100.755 74.3346 100.605 78.0577C100.455 81.7808 99.6288 86.1737 99.7039 86.4713C99.779 86.7689 99.5537 87.3642 99.9292 87.4386C100.305 87.513 100.605 86.4713 101.506 86.2481C102.407 86.0248 103.609 86.6201 103.762 86.0248C103.912 85.4295 103.762 84.239 103.912 82.6738C104.062 81.1112 106.543 74.7067 106.693 72.5488C106.843 70.3909 108.646 59.8168 109.024 59.2959C109.399 58.7751 109.399 58.7751 109.399 58.7751C109.399 58.7751 109.775 57.8821 110 58.8495C110.225 59.8168 110 69.421 110.451 70.8373C110.901 72.2511 114.452 81.7501 114.902 82.8662C115.353 83.9824 114.376 85.3243 114.677 85.9196C114.977 86.5149 115.803 86.2917 116.554 86.2917C117.305 86.2917 118.087 87.3848 118.688 87.3848C119.289 87.3848 119.486 86.5149 119.486 85.5476C119.486 84.5802 116.837 75.1557 116.686 72.8464C116.536 70.5371 116.01 68.7513 116.01 68.7513C116.01 68.7513 116.987 58.1054 116.761 55.7961C116.536 53.4868 114.584 47.6057 114.584 47.6057L115.935 40.2545C115.935 40.2545 120.068 42.5638 121.495 44.424C122.922 46.2843 123.901 46.2099 123.748 44.7217C123.598 43.2335 120.066 38.8407 118.188 36.9034C116.311 34.9687 113.755 35.3408 113.004 34.8199C112.253 34.299 112.704 29.1621 112.704 29.1621L109.922 31.6177Z" fill="#FED9CE"/>
<path d="M99.9708 87.5724C99.95 87.5724 99.9267 87.5698 99.906 87.5647C99.5435 87.4928 99.5668 87.1079 99.5849 86.8283C99.5927 86.7077 99.6004 86.5819 99.5797 86.5024C99.5487 86.3818 99.6004 85.9815 99.7714 84.7704C100.015 83.0436 100.382 80.4341 100.478 78.0529C100.621 74.5479 102.169 71.3303 102.353 70.9608C102.283 70.3321 101.403 62.1418 101.905 57.7926C102.327 54.1465 104.458 49.8794 105.261 48.2732C105.43 47.937 105.575 47.6471 105.588 47.5906C105.585 47.5522 105.595 47.4521 105.606 47.3212C105.642 46.9235 105.701 46.2615 105.593 45.8279C105.458 45.289 104.544 40.8244 104.347 39.8622C103.697 40.2419 101.165 41.7455 99.9449 42.9541C99.4477 43.4467 98.9298 44.0164 98.4714 44.5193C97.3346 45.7663 97.0471 46.0485 96.8374 45.969C96.7934 45.951 96.7183 45.9049 96.7183 45.7689C96.7183 45.1838 98.1606 41.2324 99.7636 39.7185C101.048 38.5074 103.824 36.0852 105.142 35.5977C105.65 35.4104 106.419 35.2744 107.165 35.1435C108.058 34.987 109.171 34.792 109.275 34.5508C109.49 34.053 109.788 31.6334 109.79 31.6077C109.793 31.5769 109.809 31.5487 109.832 31.5282L112.613 29.07C112.652 29.0341 112.711 29.029 112.758 29.0521C112.805 29.0752 112.833 29.1265 112.828 29.1778C112.657 31.1356 112.572 34.3712 113.074 34.7201C113.299 34.8767 113.747 34.9511 114.268 35.0383C115.418 35.2308 116.989 35.495 118.276 36.8216C120.146 38.7486 123.714 43.1568 123.872 44.7143C123.96 45.5944 123.655 45.851 123.463 45.9254C122.974 46.1178 122.236 45.6123 121.386 44.5064C120.149 42.8925 116.793 40.9039 116.023 40.4626L114.711 47.6035C114.881 48.1167 116.668 53.5563 116.886 55.7912C117.106 58.0518 116.2 68.0511 116.137 68.7464C116.2 68.9671 116.671 70.6914 116.811 72.8442C116.896 74.1476 117.81 77.8476 118.546 80.8215C119.139 83.2232 119.61 85.1219 119.61 85.553C119.61 86.8206 119.281 87.5185 118.683 87.5185C118.357 87.5185 118.015 87.2619 117.655 86.9925C117.285 86.7154 116.901 86.4254 116.549 86.4254C116.389 86.4254 116.223 86.4357 116.062 86.4459C115.456 86.4844 114.83 86.5229 114.555 85.9815C114.4 85.6762 114.522 85.2502 114.661 84.7576C114.827 84.17 115.014 83.5054 114.778 82.9204C114.322 81.7914 110.782 72.3181 110.324 70.8812C110.055 70.0319 110.023 66.4499 109.995 63.2888C109.977 61.2207 109.961 59.2706 109.871 58.8831C109.796 58.565 109.723 58.5316 109.723 58.5316C109.682 58.5393 109.575 58.6881 109.516 58.8292C109.513 58.8395 109.508 58.8472 109.503 58.8549L109.127 59.3758C108.796 59.8351 106.988 70.1859 106.823 72.5619C106.737 73.773 105.929 76.3081 105.215 78.5456C104.645 80.3263 104.109 82.0095 104.042 82.692C103.966 83.4669 103.966 84.1597 103.966 84.7191C103.966 85.2938 103.966 85.7506 103.889 86.0636C103.775 86.5178 103.252 86.4536 102.698 86.3869C102.322 86.3407 101.897 86.2894 101.54 86.3792C101.076 86.4947 100.779 86.8539 100.538 87.1439C100.346 87.3697 100.181 87.5724 99.9708 87.5724ZM104.438 39.5312C104.456 39.5312 104.474 39.5338 104.492 39.5414C104.531 39.5594 104.557 39.5928 104.565 39.6338C104.575 39.6903 105.696 45.1787 105.844 45.7637C105.963 46.2384 105.901 46.9286 105.865 47.3418C105.854 47.4624 105.844 47.5547 105.844 47.606C105.844 47.6753 105.795 47.778 105.492 48.3861C104.694 49.9821 102.578 54.2183 102.162 57.8209C101.644 62.2958 102.602 70.8838 102.612 70.971C102.615 70.9967 102.61 71.0224 102.599 71.0429C102.581 71.0762 100.882 74.4119 100.735 78.0632C100.639 80.4571 100.271 83.0744 100.028 84.8063C99.9112 85.6274 99.8128 86.3356 99.8309 86.4434C99.8594 86.5588 99.8516 86.7051 99.8413 86.8437C99.8231 87.1541 99.8335 87.2901 99.9552 87.3132C100.046 87.3286 100.193 87.149 100.338 86.9745C100.587 86.6717 100.929 86.2586 101.478 86.1226C101.884 86.0226 102.332 86.0764 102.729 86.1252C103.257 86.1893 103.581 86.215 103.638 85.9943C103.71 85.7121 103.71 85.2708 103.71 84.714C103.71 84.152 103.71 83.4515 103.785 82.6638C103.853 81.9531 104.37 80.3365 104.969 78.4634C105.678 76.2414 106.484 73.7217 106.566 72.5414C106.696 70.6734 108.485 59.8248 108.92 59.2218L109.288 58.7112C109.342 58.5855 109.508 58.2545 109.752 58.2699C109.979 58.2878 110.075 58.5932 110.127 58.819C110.223 59.2321 110.238 61.018 110.259 63.2785C110.285 66.2652 110.316 69.9832 110.575 70.794C111.033 72.2283 114.568 81.6888 115.024 82.8152C115.293 83.4823 115.083 84.2213 114.918 84.8166C114.799 85.24 114.685 85.6402 114.796 85.8583C114.993 86.2484 115.485 86.2176 116.055 86.1816C116.223 86.1714 116.391 86.1611 116.56 86.1611C117 86.1611 117.417 86.4767 117.821 86.7795C118.144 87.0233 118.452 87.2542 118.691 87.2542C119.294 87.2542 119.359 86.0585 119.359 85.5453C119.359 85.145 118.846 83.0692 118.302 80.8754C117.525 77.7373 116.648 74.181 116.56 72.8544C116.412 70.5887 115.894 68.8054 115.889 68.7875C115.884 68.7721 115.884 68.7567 115.884 68.7413C115.894 68.6335 116.857 58.08 116.635 55.8092C116.414 53.5409 114.48 47.7061 114.462 47.6471C114.454 47.6266 114.454 47.606 114.457 47.5829L115.809 40.2317C115.816 40.1906 115.842 40.1573 115.881 40.1393C115.92 40.1213 115.964 40.1239 116 40.1444C116.171 40.2394 120.172 42.4871 121.601 44.3474C122.484 45.4994 123.109 45.7868 123.375 45.6816C123.585 45.5995 123.676 45.2557 123.624 44.7348C123.474 43.2569 119.895 38.8461 118.1 36.9935C116.873 35.7285 115.348 35.4719 114.234 35.2846C113.659 35.1871 113.206 35.1127 112.934 34.9228C112.232 34.4353 112.46 30.6737 112.553 29.4678L110.052 31.6796C110.008 32.0362 109.739 34.1479 109.524 34.6457C109.371 34.9973 108.547 35.1589 107.219 35.3898C106.486 35.5181 105.725 35.6516 105.241 35.8312C104.13 36.2443 101.719 38.2303 99.95 39.8981C98.4455 41.317 97.1248 44.9221 96.9953 45.6662C97.2388 45.4866 97.7903 44.8836 98.2849 44.3397C98.7459 43.8342 99.2664 43.262 99.7688 42.7668C101.193 41.3555 104.251 39.6184 104.381 39.544C104.394 39.5363 104.417 39.5312 104.438 39.5312Z" fill="#3F4553"/>
<path d="M114.674 85.9195C114.974 86.5147 115.8 86.2915 116.551 86.2915C117.302 86.2915 118.084 87.3846 118.685 87.3846C119.286 87.3846 119.483 86.5147 119.483 85.5474C119.483 84.5801 116.834 75.1556 116.683 72.8463C116.533 70.537 116.007 68.7511 116.007 68.7511C116.007 68.7511 116.984 58.1052 116.758 55.7959C116.722 55.429 116.642 54.9697 116.533 54.4617L103.225 53.1787C102.676 54.6695 102.208 56.2886 102.032 57.8076C101.506 62.3492 102.482 70.986 102.482 70.986C102.482 70.986 100.755 74.337 100.605 78.0601C100.455 81.7832 99.6284 86.1761 99.7035 86.4737C99.7786 86.7713 99.5533 87.3666 99.9288 87.441C100.304 87.5154 100.605 86.4737 101.506 86.2505C102.407 86.0272 103.609 86.6225 103.761 86.0272C103.912 85.4319 103.761 84.2414 103.912 82.6762C104.062 81.1136 106.543 74.7091 106.693 72.5512C106.843 70.3933 108.645 59.8192 109.023 59.2984C109.399 58.7775 109.399 58.7775 109.399 58.7775C109.399 58.7775 109.774 57.8846 110 58.8519C110.225 59.8192 110 69.4234 110.45 70.8397C110.901 72.2535 114.451 81.7525 114.902 82.8686C115.352 83.9822 114.373 85.3242 114.674 85.9195Z" fill="#3F4553"/>
<path d="M99.9703 87.5721C99.9496 87.5721 99.9263 87.5695 99.9056 87.5644C99.5431 87.4925 99.5664 87.1076 99.5845 86.8279C99.5923 86.7073 99.6 86.5816 99.5793 86.5021C99.5482 86.3815 99.6 85.9812 99.7709 84.7701C100.014 83.0433 100.382 80.4337 100.478 78.0526C100.62 74.5476 102.169 71.33 102.353 70.9605C102.283 70.3318 101.402 62.1415 101.905 57.7923C102.06 56.4452 102.464 54.8775 103.106 53.1327C103.127 53.0788 103.179 53.0454 103.241 53.048L116.549 54.3309C116.606 54.3361 116.652 54.3771 116.663 54.431C116.779 54.975 116.854 55.4291 116.891 55.7807C117.111 58.0412 116.204 68.0405 116.142 68.7358C116.204 68.9565 116.676 70.6808 116.815 72.8336C116.901 74.137 117.815 77.8371 118.55 80.8109C119.143 83.2126 119.615 85.1114 119.615 85.5424C119.615 86.81 119.286 87.5079 118.688 87.5079C118.361 87.5079 118.02 87.2513 117.66 86.9819C117.289 86.7048 116.906 86.4148 116.554 86.4148C116.393 86.4148 116.228 86.4251 116.067 86.4354C115.461 86.4738 114.834 86.5123 114.56 85.9709C114.405 85.6656 114.526 85.2397 114.666 84.747C114.832 84.1594 115.018 83.4948 114.783 82.9098C114.327 81.7808 110.787 72.3076 110.329 70.8707C110.059 70.0214 110.028 66.4394 110 63.2782C109.982 61.2101 109.966 59.26 109.875 58.8726C109.8 58.5544 109.728 58.521 109.728 58.521C109.686 58.5287 109.58 58.6776 109.521 58.8187C109.518 58.8289 109.513 58.8366 109.508 58.8443L109.132 59.3652C108.801 59.8245 106.993 70.1753 106.827 72.5513C106.742 73.7624 105.934 76.2975 105.219 78.535C104.65 80.3157 104.114 81.9989 104.046 82.6815C103.971 83.4564 103.971 84.1492 103.971 84.7085C103.971 85.2833 103.971 85.7374 103.894 86.053C103.78 86.5072 103.256 86.4431 102.702 86.3763C102.327 86.3302 101.902 86.2788 101.545 86.3686C101.081 86.4841 100.783 86.8433 100.543 87.1333C100.346 87.3693 100.18 87.5721 99.9703 87.5721ZM103.316 53.3148C102.702 55.0032 102.314 56.5196 102.161 57.8205C101.643 62.2955 102.601 70.8835 102.612 70.9707C102.614 70.9964 102.609 71.0221 102.599 71.0426C102.581 71.0759 100.882 74.4116 100.734 78.0629C100.638 80.4568 100.271 83.074 100.027 84.806C99.9108 85.6271 99.8124 86.3353 99.8305 86.4431C99.859 86.5585 99.8512 86.7048 99.8409 86.8433C99.8227 87.1538 99.8331 87.2898 99.9548 87.3129C100.045 87.3283 100.193 87.1487 100.338 86.9742C100.587 86.6714 100.928 86.2583 101.477 86.1223C101.884 86.0223 102.332 86.0761 102.728 86.1249C103.256 86.189 103.58 86.2147 103.637 85.994C103.71 85.7118 103.71 85.2704 103.71 84.7136C103.71 84.1517 103.71 83.4512 103.785 82.6635C103.852 81.9528 104.37 80.3362 104.968 78.4631C105.678 76.2411 106.483 73.7214 106.566 72.5411C106.695 70.6731 108.485 59.8245 108.92 59.2215L109.288 58.7109C109.342 58.5852 109.508 58.2542 109.751 58.2696C109.979 58.2875 110.075 58.5929 110.127 58.8187C110.222 59.2318 110.238 61.0176 110.259 63.2782C110.285 66.2649 110.316 69.9829 110.575 70.7937C111.033 72.228 114.568 81.6885 115.023 82.8149C115.293 83.482 115.083 84.221 114.917 84.8163C114.798 85.2397 114.684 85.6399 114.796 85.858C114.992 86.248 115.484 86.2173 116.054 86.1813C116.222 86.1711 116.391 86.1608 116.559 86.1608C116.999 86.1608 117.416 86.4764 117.82 86.7792C118.144 87.0229 118.452 87.2539 118.69 87.2539C119.294 87.2539 119.358 86.0582 119.358 85.545C119.358 85.1447 118.846 83.0689 118.302 80.8751C117.525 77.737 116.647 74.1807 116.559 72.8541C116.411 70.5858 115.894 68.8051 115.888 68.7872C115.883 68.7718 115.883 68.7564 115.883 68.741C115.894 68.6332 116.857 58.0797 116.634 55.8089C116.603 55.4856 116.536 55.0725 116.432 54.5798L103.316 53.3148Z" fill="#3F4553"/>
<path d="M118.188 36.9058C116.311 34.9711 113.755 35.3431 113.004 34.8223C112.455 34.4425 112.548 31.6072 112.636 30.101L112.152 29.6494L109.923 31.62C109.923 31.62 109.622 34.0781 109.397 34.599C109.172 35.1199 106.39 35.2687 105.189 35.7152C104.005 36.1539 101.517 38.2503 99.9346 39.7334L101.491 41.5346C102.902 40.5288 104.438 39.6615 104.438 39.6615C104.438 39.6615 105.567 45.2013 105.717 45.7991C105.867 46.3944 105.714 47.3874 105.714 47.6106C105.714 47.7749 103.992 50.7847 102.881 54.1742C105.036 55.1569 109.278 56.2731 116.707 55.3853C116.324 52.8605 114.581 47.6081 114.581 47.6081L115.933 40.2568C115.933 40.2568 117.233 40.983 118.626 41.9477L120.775 39.8899C119.859 38.7352 118.903 37.6422 118.188 36.9058Z" fill="#9776A5"/>
<path d="M111.587 55.8369C107.289 55.8369 104.52 55.0595 102.829 54.2871C102.77 54.2589 102.741 54.1922 102.76 54.1306C103.57 51.6597 104.712 49.3709 105.261 48.2727C105.429 47.9365 105.574 47.644 105.587 47.5876C105.585 47.5491 105.595 47.449 105.605 47.3182C105.642 46.9205 105.701 46.2585 105.593 45.8248C105.458 45.286 104.544 40.8213 104.347 39.8591C103.922 40.1054 102.7 40.8316 101.568 41.6347C101.514 41.6732 101.439 41.6655 101.395 41.6142L99.8385 39.8155C99.7945 39.7642 99.7971 39.6872 99.8489 39.6385C101.211 38.3606 103.858 36.0693 105.147 35.592C105.655 35.4047 106.424 35.2687 107.17 35.1379C108.063 34.9814 109.177 34.7864 109.28 34.5452C109.495 34.0474 109.793 31.6252 109.795 31.6021C109.798 31.5713 109.814 31.5431 109.837 31.5225L112.066 29.5519C112.116 29.5083 112.193 29.5083 112.243 29.5545L112.727 30.0061C112.755 30.0318 112.771 30.0702 112.768 30.1062C112.582 33.216 112.807 34.5272 113.082 34.7145C113.307 34.871 113.755 34.9454 114.275 35.0327C115.425 35.2251 116.997 35.4894 118.284 36.816C119.032 37.5857 120.001 38.7045 120.879 39.8104C120.92 39.8617 120.915 39.9361 120.868 39.9823L118.719 42.0401C118.675 42.0837 118.605 42.0889 118.556 42.053C117.463 41.296 116.42 40.6828 116.031 40.4595L114.718 47.6004C114.863 48.0392 116.476 52.9606 116.839 55.3674C116.844 55.4007 116.836 55.4366 116.813 55.4649C116.79 55.4931 116.761 55.5111 116.725 55.5136C114.809 55.7394 113.102 55.8369 111.587 55.8369ZM103.042 54.1024C105.308 55.1082 109.469 56.1012 116.559 55.2724C116.145 52.7399 114.477 47.6979 114.459 47.6466C114.451 47.6261 114.451 47.6055 114.454 47.5825L115.806 40.2312C115.814 40.1901 115.839 40.1568 115.878 40.1388C115.917 40.1208 115.961 40.1234 115.997 40.1439C116.01 40.1516 117.264 40.8521 118.613 41.781L120.602 39.8771C119.75 38.8097 118.817 37.7371 118.095 36.993C116.868 35.728 115.342 35.4714 114.229 35.2841C113.654 35.1866 113.201 35.1122 112.929 34.9223C112.481 34.6119 112.336 33.0056 112.504 30.1472L112.152 29.8162L110.047 31.6765C110.003 32.0331 109.733 34.1449 109.518 34.6427C109.366 34.9942 108.542 35.1558 107.214 35.3868C106.481 35.5151 105.719 35.6485 105.235 35.8281C104.166 36.2258 101.853 38.1143 100.113 39.736L101.514 41.355C102.889 40.3851 104.36 39.5512 104.373 39.5435C104.409 39.523 104.453 39.5204 104.492 39.5384C104.531 39.5563 104.557 39.5897 104.564 39.6308C104.575 39.6872 105.696 45.1756 105.844 45.7607C105.963 46.2354 105.901 46.9256 105.864 47.3387C105.854 47.4593 105.844 47.5517 105.844 47.603C105.844 47.6723 105.795 47.7749 105.492 48.383C104.956 49.4658 103.845 51.6904 103.042 54.1024Z" fill="#3F4553"/>
<path d="M114.529 35.2068C113.848 35.0887 113.294 35.0195 113.004 34.8193C112.455 34.4396 112.548 31.6043 112.636 30.0981L112.152 29.6465L109.922 31.6171C109.922 31.6171 109.622 34.0752 109.397 34.5961C109.309 34.7962 108.84 34.9425 108.231 35.0708C108.731 36.559 109.829 39.2224 111.272 39.2224C112.675 39.225 113.913 36.7155 114.529 35.2068Z" fill="#FED9CE"/>
<path d="M111.272 39.3536C109.757 39.3536 108.641 36.6979 108.107 35.1122C108.097 35.0763 108.099 35.0404 108.117 35.007C108.136 34.9762 108.167 34.9531 108.203 34.9454C109.024 34.7735 109.239 34.6324 109.278 34.5452C109.493 34.0474 109.79 31.6252 109.793 31.6021C109.796 31.5713 109.811 31.5431 109.834 31.5225L112.064 29.5519C112.113 29.5083 112.191 29.5083 112.24 29.5545L112.724 30.0061C112.753 30.0318 112.768 30.0702 112.766 30.1062C112.579 33.216 112.805 34.5272 113.079 34.7145C113.304 34.871 113.755 34.9454 114.275 35.0327L114.55 35.0789C114.589 35.0866 114.622 35.1096 114.641 35.143C114.659 35.1764 114.661 35.2174 114.648 35.2533C113.884 37.1239 112.678 39.3536 111.272 39.3536ZM108.4 35.1661C108.843 36.449 109.92 39.0945 111.272 39.0945C112.553 39.0945 113.726 36.7852 114.348 35.3047L114.234 35.2841C113.659 35.1866 113.203 35.1122 112.931 34.9223C112.483 34.6119 112.338 33.0056 112.507 30.1472L112.155 29.8162L110.049 31.6765C110.005 32.0331 109.736 34.1449 109.521 34.6427C109.425 34.8556 109.099 35.0096 108.4 35.1661Z" fill="#3F4553"/>
<path d="M112.62 30.3701C112.343 30.3881 112.038 30.4574 111.823 30.5112C111.512 30.5882 110.911 30.9141 110.339 31.2502L109.925 31.6171C109.925 31.6171 109.803 32.6178 109.655 33.4774C110.173 33.2927 111.678 32.7102 112.574 31.8635C112.576 31.3349 112.597 30.814 112.62 30.3701Z" fill="#C6FF00"/>
<path d="M112.62 30.3701C112.343 30.3881 112.038 30.4574 111.823 30.5112C111.512 30.5882 110.911 30.9141 110.339 31.2502L109.925 31.6171C109.925 31.6171 109.803 32.6178 109.655 33.4774C110.173 33.2927 111.678 32.7102 112.574 31.8635C112.576 31.3349 112.597 30.814 112.62 30.3701Z" fill="#BFB2AA"/>
<path d="M109.694 68.5715C117.919 68.5715 124.587 61.9648 124.587 53.815C124.587 45.6653 117.919 39.0586 109.694 39.0586C101.469 39.0586 94.8018 45.6653 94.8018 53.815C94.8018 61.9648 101.469 68.5715 109.694 68.5715Z" fill="#FA6E5A"/>
<path d="M114.591 66.0825C106.367 66.0825 99.6986 59.4753 99.6986 51.326C99.6986 46.5817 101.962 42.3634 105.473 39.6641C99.305 41.4679 94.8018 47.118 94.8018 53.8149C94.8018 61.9642 101.47 68.5714 109.694 68.5714C113.131 68.5714 116.293 67.4142 118.812 65.4795C117.473 65.8695 116.057 66.0825 114.591 66.0825Z" fill="#E3604D"/>
<path d="M99.2454 48.3549C98.9839 48.3549 98.7456 48.1753 98.6861 47.9136C98.6136 47.6057 98.8078 47.3003 99.1185 47.2311L103.226 46.2945L100.854 45.5607C100.551 45.4657 100.382 45.1475 100.475 44.8473C100.569 44.5471 100.892 44.3803 101.195 44.4727L105.595 45.8352C105.844 45.9122 106.009 46.1431 105.999 46.4023C105.989 46.6589 105.807 46.877 105.554 46.936L99.3749 48.3446C99.3309 48.3523 99.2869 48.3549 99.2454 48.3549Z" fill="#3F4553"/>
<path d="M119.833 48.3555C119.789 48.3555 119.742 48.3504 119.698 48.3401L113.807 46.9314C113.553 46.8698 113.374 46.6492 113.366 46.3926C113.359 46.136 113.527 45.9051 113.778 45.8306L118.401 44.4682C118.706 44.3783 119.025 44.5503 119.115 44.853C119.206 45.1558 119.032 45.4714 118.729 45.5612L116.155 46.3207L119.97 47.2316C120.278 47.306 120.47 47.6139 120.395 47.9193C120.327 48.181 120.092 48.3555 119.833 48.3555Z" fill="#3F4553"/>
<path d="M98.3184 50.7666C99.8203 57.1556 104.344 61.7973 109.694 61.7973C115.044 61.7973 119.571 57.1556 121.07 50.7666L119.094 50.4407C112.773 49.3938 106.336 49.4066 100.02 50.4792L98.3184 50.7666Z" fill="#3F4553"/>
<path d="M117.45 57.4529C115.487 56.1622 112.781 55.3643 109.788 55.3643C106.737 55.3643 103.984 56.1982 102.014 57.5324C104.088 59.8392 106.766 61.2376 109.694 61.2376C112.659 61.2376 115.365 59.8084 117.45 57.4529Z" fill="#4E5567"/>
<path d="M107.745 25.3907C107.745 25.3907 107.219 26.9533 106.768 27.8488C106.318 28.7417 106.994 31.4975 107.519 32.316C108.045 33.1346 109.021 32.9857 109.397 32.9113C109.772 32.8369 111.424 31.7952 112.028 31.1999C112.628 30.6046 112.929 30.3069 112.929 30.3069C112.929 30.3069 113.229 30.3069 113.53 29.7117C113.83 29.1164 112.628 27.777 111.577 26.1374C110.526 24.5003 110.075 24.5747 110.075 24.5747L107.745 25.3907Z" fill="#FED9CE"/>
<path d="M108.832 33.0984C108.053 33.0984 107.633 32.7289 107.411 32.3825C106.869 31.5383 106.173 28.7415 106.652 27.7895C107.095 26.9146 107.618 25.3648 107.623 25.3494C107.636 25.3109 107.664 25.2827 107.703 25.2698L110.034 24.4513C110.143 24.4333 110.645 24.441 111.689 26.0678C111.968 26.504 112.256 26.912 112.533 27.3071C113.33 28.4438 113.905 29.2649 113.649 29.7678C113.39 30.281 113.115 30.399 112.994 30.4273L112.121 31.292C111.505 31.9027 109.827 32.9598 109.425 33.0394C109.205 33.0804 109.008 33.0984 108.832 33.0984ZM107.848 25.4905C107.747 25.7881 107.289 27.1019 106.885 27.905C106.455 28.7543 107.139 31.4844 107.631 32.2465C107.965 32.7674 108.553 32.947 109.376 32.7853C109.7 32.7212 111.336 31.7051 111.94 31.1072L112.841 30.2143C112.864 30.1912 112.898 30.1758 112.932 30.1758C112.929 30.1758 113.165 30.1502 113.416 29.6524C113.602 29.2854 113.007 28.4361 112.318 27.4534C112.041 27.0557 111.753 26.6451 111.469 26.2064C110.598 24.8516 110.166 24.7156 110.096 24.7028L107.848 25.4905Z" fill="#3F4553"/>
<path d="M108.273 29.1032C108.257 29.1032 108.242 29.1007 108.226 29.0955C107.442 28.7953 107.511 28.5926 107.532 28.5285C107.584 28.3719 108.187 27.4893 108.371 27.2224C108.413 27.1634 108.493 27.148 108.55 27.1891C108.609 27.2301 108.625 27.3097 108.584 27.3661C108.239 27.8665 107.869 28.4258 107.789 28.5798C107.853 28.6465 108.084 28.7671 108.317 28.8569C108.384 28.8826 108.418 28.957 108.392 29.0237C108.374 29.0699 108.325 29.1032 108.273 29.1032Z" fill="#3F4553"/>
<path d="M110.896 27.9306C110.847 27.9306 110.8 27.9024 110.779 27.8562C110.66 27.6048 110.505 27.4457 110.316 27.3815C110.062 27.2969 109.826 27.4072 109.824 27.4072C109.759 27.438 109.681 27.4123 109.65 27.3508C109.619 27.2866 109.645 27.2096 109.707 27.1788C109.72 27.1711 110.041 27.0172 110.401 27.1404C110.658 27.2276 110.865 27.4329 111.015 27.7485C111.046 27.8126 111.018 27.8896 110.953 27.9204C110.932 27.9255 110.914 27.9306 110.896 27.9306Z" fill="#3F4553"/>
<path d="M108.117 27.217C108.076 27.217 108.037 27.199 108.011 27.1631C108.009 27.158 107.887 26.9963 107.706 26.9758C107.589 26.963 107.46 27.0169 107.328 27.1323C107.273 27.1785 107.193 27.176 107.144 27.1221C107.097 27.0682 107.1 26.9886 107.154 26.9399C107.343 26.7706 107.537 26.6987 107.737 26.7192C108.034 26.7526 108.216 27.0015 108.221 27.0117C108.262 27.0708 108.247 27.1503 108.19 27.1914C108.169 27.2093 108.143 27.217 108.117 27.217Z" fill="#3F4553"/>
<path d="M111.308 27.1151C111.254 27.1151 111.204 27.0817 111.186 27.0278C110.824 25.9912 110.184 26.1349 110.158 26.1426C110.088 26.158 110.018 26.1195 110 26.0502C109.982 25.9809 110.024 25.9117 110.091 25.8937C110.099 25.8911 110.984 25.673 111.43 26.9431C111.453 27.0099 111.417 27.0843 111.349 27.1074C111.337 27.1125 111.321 27.1151 111.308 27.1151Z" fill="#3F4553"/>
<path d="M107.501 26.6044C107.48 26.6044 107.462 26.5992 107.444 26.5915C107.379 26.5607 107.353 26.4838 107.387 26.4196C107.532 26.1297 107.726 25.9578 107.964 25.9039C108.327 25.8218 108.648 26.0604 108.661 26.0707C108.718 26.1143 108.728 26.1938 108.684 26.2503C108.64 26.3067 108.56 26.317 108.503 26.2734C108.5 26.2708 108.262 26.0963 108.019 26.1528C107.861 26.1887 107.726 26.317 107.617 26.5325C107.594 26.5787 107.547 26.6044 107.501 26.6044Z" fill="#3F4553"/>
<path d="M107.809 29.6882C107.809 29.6882 108.734 30.0448 109.917 29.3828C109.917 29.3828 109.301 30.2988 108.581 30.4015C107.861 30.5015 107.809 29.6882 107.809 29.6882Z" fill="#3F4553"/>
<path d="M99.4425 40.2832C99.4425 40.2832 96.1874 42.9902 95.6669 44.7325C95.1464 46.4747 95.5374 50.4724 95.4727 51.6963C95.4079 52.9202 96.2547 54.275 96.6431 54.5342C97.0342 54.7933 97.0989 54.3417 97.0342 53.8901C96.9694 53.4385 96.9694 51.1164 96.9694 51.1164C96.9694 51.1164 97.5547 52.7919 97.6194 52.4712C97.6842 52.1479 97.6842 51.568 97.4252 50.6648C97.1662 49.7616 96.5137 48.4735 96.5784 48.2144C96.6431 47.9552 98.7252 44.0884 99.0514 42.8619" fill="#FED9CE"/>
<path d="M96.8424 54.7368C96.7699 54.7368 96.6792 54.7111 96.5705 54.6393C96.1613 54.3698 95.2731 52.974 95.3404 51.6885C95.3586 51.3241 95.3378 50.7006 95.3119 49.977C95.2524 48.2707 95.1695 45.9332 95.5398 44.6964C96.0655 42.9388 99.2196 40.2959 99.3543 40.1856C99.4087 40.1394 99.4915 40.1471 99.5355 40.201C99.5822 40.2549 99.5744 40.337 99.52 40.3806C99.4889 40.4063 96.2908 43.0851 95.7858 44.7683C95.4285 45.9665 95.5088 48.2784 95.5683 49.9693C95.5942 50.6981 95.6149 51.3293 95.5968 51.7039C95.5347 52.8791 96.3504 54.1902 96.7103 54.4289C96.7854 54.4776 96.8372 54.4879 96.8527 54.4802C96.9019 54.4494 96.9511 54.2518 96.9019 53.9105C96.8372 53.4564 96.8346 51.2164 96.8346 51.1189C96.8346 51.0573 96.8812 51.0034 96.9434 50.9931C97.0055 50.9829 97.0677 51.0188 97.0884 51.0778C97.2256 51.4729 97.3991 51.9168 97.5209 52.1786C97.5338 51.8784 97.4975 51.4011 97.2981 50.7032C97.1868 50.3132 96.9952 49.841 96.8268 49.4254C96.5472 48.7326 96.4047 48.3631 96.4488 48.186C96.4721 48.0937 96.6404 47.7575 97.0185 47.0083C97.6503 45.7536 98.7043 43.6547 98.9244 42.8336C98.9425 42.7643 99.015 42.7233 99.0824 42.7412C99.1523 42.7592 99.1937 42.8285 99.1756 42.8977C98.9503 43.7445 97.9274 45.7767 97.2515 47.1212C96.9796 47.6626 96.7233 48.1706 96.7026 48.2476C96.6792 48.3605 96.8968 48.8968 97.0703 49.3279C97.2412 49.7512 97.4328 50.2285 97.5493 50.6313C97.842 51.65 97.8005 52.2376 97.7461 52.4967C97.7203 52.6225 97.6296 52.6379 97.6011 52.6404C97.5234 52.6456 97.4173 52.6533 97.1013 51.8501C97.1065 52.5686 97.1221 53.5924 97.1609 53.8695C97.1972 54.1158 97.2231 54.552 96.9926 54.6931C96.9589 54.7188 96.9071 54.7368 96.8424 54.7368Z" fill="#3F4553"/>
<path d="M96.8189 54.6391C96.7672 54.6391 96.7154 54.6058 96.6972 54.5545C96.6921 54.5442 96.2777 53.4024 96.0732 51.9757C96.0628 51.9065 96.112 51.8398 96.1819 51.8295C96.2518 51.8192 96.3192 51.868 96.3295 51.9373C96.5315 53.3357 96.9381 54.4518 96.9407 54.4647C96.964 54.5314 96.9303 54.6058 96.863 54.6289C96.8474 54.6366 96.8319 54.6391 96.8189 54.6391Z" fill="#3F4553"/>
<path d="M96.3554 54.3316C96.3088 54.3316 96.2622 54.306 96.2389 54.2598C96.2207 54.2264 95.8168 53.413 95.5578 52.0814C95.5449 52.0121 95.5915 51.9454 95.6614 51.93C95.7313 51.9171 95.7986 51.9608 95.8142 52.0326C96.0654 53.3284 96.4693 54.1366 96.4719 54.1443C96.503 54.2085 96.4771 54.2854 96.415 54.3162C96.3942 54.3291 96.3735 54.3316 96.3554 54.3316Z" fill="#3F4553"/>
<path d="M120.902 40.2832C120.902 40.2832 124.157 42.9902 124.678 44.7325C125.198 46.4747 124.807 50.4724 124.872 51.6963C124.937 52.9202 124.09 54.275 123.702 54.5342C123.313 54.7933 123.246 54.3417 123.311 53.8901C123.375 53.4385 123.375 51.1164 123.375 51.1164C123.375 51.1164 122.79 52.7919 122.725 52.4712C122.661 52.1505 122.661 51.568 122.92 50.6648C123.181 49.7616 123.831 48.4735 123.766 48.2144C123.702 47.9552 121.62 44.0884 121.293 42.8619" fill="#FED9CE"/>
<path d="M123.502 54.7368C123.438 54.7368 123.388 54.7162 123.35 54.6931C123.122 54.552 123.148 54.1158 123.181 53.8695C123.22 53.5924 123.236 52.566 123.241 51.8501C122.925 52.6507 122.824 52.6456 122.741 52.6404C122.713 52.6379 122.622 52.6225 122.596 52.4967C122.544 52.2376 122.5 51.65 122.793 50.6313C122.909 50.2285 123.101 49.7512 123.272 49.3279C123.445 48.8968 123.66 48.3605 123.637 48.2476C123.616 48.1732 123.36 47.66 123.088 47.1186C122.412 45.7741 121.389 43.7419 121.167 42.8977C121.148 42.8285 121.19 42.7592 121.26 42.7412C121.327 42.7233 121.4 42.7643 121.418 42.8336C121.635 43.6521 122.692 45.7536 123.321 47.0057C123.699 47.7575 123.867 48.0937 123.891 48.186C123.935 48.3631 123.792 48.7326 123.513 49.4254C123.344 49.841 123.155 50.3132 123.041 50.7032C122.839 51.4011 122.803 51.8784 122.819 52.1786C122.94 51.9143 123.111 51.4729 123.251 51.0778C123.272 51.0188 123.331 50.9829 123.396 50.9931C123.458 51.0034 123.505 51.0573 123.505 51.1189C123.505 51.2138 123.505 53.4538 123.438 53.9105C123.388 54.2518 123.438 54.4494 123.487 54.4802C123.502 54.4904 123.554 54.4802 123.629 54.4289C123.989 54.1902 124.805 52.8791 124.743 51.7039C124.722 51.3293 124.745 50.6981 124.771 49.9693C124.831 48.281 124.911 45.9665 124.554 44.7683C124.049 43.0851 120.853 40.4088 120.82 40.3806C120.765 40.3344 120.757 40.2549 120.804 40.201C120.851 40.1471 120.931 40.1394 120.985 40.1856C121.12 40.2959 124.274 42.9388 124.8 44.6964C125.17 45.9332 125.087 48.2707 125.028 49.977C125.002 50.7006 124.981 51.3267 124.999 51.6885C125.066 52.974 124.178 54.3698 123.769 54.6393C123.663 54.7137 123.575 54.7368 123.502 54.7368Z" fill="#3F4553"/>
<path d="M123.507 54.5363C123.497 54.5363 123.486 54.5363 123.473 54.5312C123.404 54.5132 123.362 54.4439 123.38 54.3746C123.385 54.3592 123.789 52.7941 123.789 51.7523C123.789 51.6805 123.846 51.624 123.919 51.624C123.991 51.624 124.048 51.6805 124.048 51.7523C124.048 52.8274 123.65 54.3746 123.631 54.4388C123.618 54.4978 123.564 54.5363 123.507 54.5363Z" fill="#3F4553"/>
<path d="M123.971 54.4852C123.955 54.4852 123.942 54.4827 123.927 54.4775C123.86 54.4544 123.826 54.38 123.849 54.3133C123.854 54.2979 124.46 52.6429 124.46 52.0092C124.46 51.9373 124.517 51.8809 124.59 51.8809C124.662 51.8809 124.719 51.9373 124.719 52.0092C124.719 52.6865 124.118 54.3313 124.093 54.4006C124.074 54.4544 124.023 54.4852 123.971 54.4852Z" fill="#3F4553"/>
<path d="M64.2188 94.9979C75.9463 94.9979 85.4532 92.7818 85.4532 90.0482C85.4532 87.3147 75.9463 85.0986 64.2188 85.0986C52.4914 85.0986 42.9844 87.3147 42.9844 90.0482C42.9844 92.7818 52.4914 94.9979 64.2188 94.9979Z" fill="#F4A17C"/>
<path d="M65.4433 94.9995C77.8578 94.9995 87.9218 92.7903 87.9218 90.0652C87.9218 87.34 77.8578 85.1309 65.4433 85.1309C53.0288 85.1309 42.9648 87.34 42.9648 90.0652C42.9648 92.7903 53.0288 94.9995 65.4433 94.9995Z" fill="#F4A17C"/>
<path d="M55.2963 86.6078C55.2963 86.6078 52.1474 88.2474 51.5544 89.0967C50.9613 89.946 51.7512 90.6208 52.9346 90.7029C54.118 90.785 58.989 89.1608 59.4292 88.9504C59.872 88.74 59.5509 87.4648 59.2298 86.8079C58.9113 86.1485 55.2963 86.6078 55.2963 86.6078Z" fill="#E49621"/>
<path d="M53.0251 90.8336C52.9889 90.8336 52.9552 90.8336 52.9241 90.831C52.1395 90.7771 51.5206 90.4667 51.3056 90.0253C51.2021 89.8098 51.1399 89.4609 51.4455 89.0247C52.0514 88.16 55.1045 86.564 55.234 86.4947C55.247 86.487 55.2625 86.4819 55.278 86.4819C55.8969 86.4023 59.0018 86.0482 59.3436 86.7513C59.5223 87.1182 59.6777 87.6185 59.7398 88.0265C59.8253 88.5936 59.7398 88.9425 59.4809 89.0657C59.0458 89.2735 54.395 90.8336 53.0251 90.8336ZM55.335 86.7308C55.0631 86.8744 52.2042 88.3883 51.6578 89.1683C51.4688 89.4378 51.4299 89.6892 51.5387 89.9124C51.7122 90.2717 52.2508 90.5257 52.9422 90.5744C54.1075 90.6591 58.9345 89.0426 59.3721 88.8348C59.5068 88.7706 59.5508 88.4832 59.4861 88.065C59.4291 87.6801 59.2815 87.208 59.1132 86.8616C58.9215 86.4665 56.7981 86.5486 55.335 86.7308Z" fill="#3F4553"/>
<path d="M59.5915 87.9072C58.3434 88.4486 54.8992 89.9086 53.7106 90.06C52.7421 90.1832 51.8513 89.8214 51.3593 89.5622C51.279 90.1806 51.9782 90.6348 52.9338 90.7015C54.1172 90.7836 58.9882 89.1594 59.4284 88.949C59.6718 88.8309 59.6822 88.3896 59.5915 87.9072Z" fill="#F1BD54"/>
<path d="M53.0245 90.8328C52.9883 90.8328 52.9546 90.8328 52.9236 90.8302C52.2606 90.784 51.7168 90.5608 51.432 90.217C51.2688 90.0194 51.1989 89.7885 51.2274 89.5473C51.2326 89.5062 51.2585 89.4677 51.2973 89.4498C51.3336 89.4293 51.3802 89.4293 51.4164 89.4498C51.8592 89.6833 52.7449 90.0553 53.6927 89.9347C54.8787 89.7834 58.4652 88.2566 59.5373 87.7922C59.5736 87.7768 59.615 87.7768 59.6487 87.7974C59.6823 87.8153 59.7082 87.8487 59.716 87.8872C59.8377 88.5261 59.7574 88.934 59.4829 89.0649C59.0453 89.2727 54.3944 90.8328 53.0245 90.8328ZM51.4915 89.7731C51.5122 89.8732 51.5589 89.9655 51.6314 90.0553C51.867 90.3402 52.3564 90.5326 52.9391 90.5736C54.1044 90.6583 58.9313 89.0418 59.369 88.834C59.5011 88.7698 59.5425 88.4927 59.4881 88.0924C58.025 88.7236 54.8683 90.0425 53.7237 90.1888C52.8355 90.2991 52.0017 90.0117 51.4915 89.7731Z" fill="#3F4553"/>
<path d="M70.5462 86.6078C70.5462 86.6078 73.6951 88.2474 74.2881 89.0967C74.8811 89.946 74.0913 90.6208 72.9079 90.7029C71.7245 90.785 66.8535 89.1608 66.4133 88.9504C65.9704 88.74 66.2916 87.4648 66.6127 86.8079C66.9338 86.1485 70.5462 86.6078 70.5462 86.6078Z" fill="#E49621"/>
<path d="M72.8199 90.8336C71.4475 90.8336 66.7992 89.2736 66.359 89.0657C66.1026 88.9426 66.0145 88.5936 66.1 88.0266C66.1622 87.6186 66.3175 87.1182 66.4962 86.7513C66.838 86.0457 69.9429 86.4024 70.5618 86.4819C70.5774 86.4845 70.5929 86.4896 70.6059 86.4947C70.7353 86.5614 73.791 88.1574 74.3944 89.0247C74.7 89.4609 74.6404 89.8099 74.5342 90.0254C74.3193 90.4693 73.7004 90.7772 72.9157 90.8311C72.8873 90.8311 72.8536 90.8336 72.8199 90.8336ZM68.239 86.5794C67.4544 86.5794 66.8303 86.6564 66.7293 86.8616C66.5609 87.208 66.4133 87.6802 66.3564 88.065C66.2916 88.4833 66.3357 88.7707 66.4703 88.8348C66.8976 89.0401 71.5096 90.5796 72.8096 90.5796C72.8432 90.5796 72.8717 90.5796 72.9002 90.577C73.5916 90.5283 74.1277 90.2743 74.3038 89.9151C74.4125 89.6918 74.3711 89.4404 74.1846 89.1709C73.6408 88.3909 70.7794 86.877 70.5074 86.7334C69.8083 86.6435 68.9563 86.5794 68.239 86.5794Z" fill="#3F4553"/>
<path d="M66.2525 87.9082C67.5007 88.4496 70.9448 89.9096 72.1334 90.061C73.1019 90.1841 73.9927 89.8224 74.4847 89.5632C74.565 90.1816 73.8658 90.6357 72.9103 90.7025C71.7268 90.7846 66.8559 89.1604 66.4156 88.95C66.1696 88.8319 66.1593 88.3906 66.2525 87.9082Z" fill="#F1BD54"/>
<path d="M72.8195 90.8329C71.4471 90.8329 66.7988 89.2728 66.3586 89.065C66.0841 88.9342 66.0038 88.5262 66.1255 87.8873C66.1333 87.8488 66.1566 87.8154 66.1929 87.7975C66.2291 87.7795 66.268 87.7769 66.3042 87.7923C67.3763 88.2568 70.9654 89.7835 72.1489 89.9348C73.0966 90.0554 73.9823 89.6834 74.4251 89.4499C74.4639 89.4294 74.5079 89.4294 74.5442 89.4499C74.583 89.4704 74.6089 89.5063 74.6141 89.5474C74.6452 89.7886 74.5753 90.0195 74.4095 90.2171C74.1247 90.5609 73.5809 90.7842 72.918 90.8303C72.8869 90.8303 72.8532 90.8329 72.8195 90.8329ZM66.3534 88.0925C66.2964 88.4928 66.3405 88.7699 66.4725 88.8341C66.8998 89.0394 71.5118 90.5763 72.8118 90.5789C72.8454 90.5789 72.8739 90.5789 72.9024 90.5763C73.4851 90.5353 73.9745 90.3403 74.2101 90.058C74.2827 89.9708 74.3293 89.8758 74.35 89.7758C73.8424 90.0144 73.0112 90.3043 72.1152 90.1914C70.9706 90.0426 67.8165 88.7238 66.3534 88.0925Z" fill="#3F4553"/>
<path d="M56.8546 54.5C56.8546 54.5 53.988 66.7906 53.5892 68.5457C53.1904 70.3008 52.8978 72.2739 53.3639 73.4543C53.83 74.6346 55.3242 86.217 55.3242 86.217L59.6177 87.3768C59.6177 87.3768 59.6721 79.9357 59.5296 77.0106C59.3872 74.0855 59.2215 70.388 59.2215 70.388L63.7843 59.1212L64.5379 60.109L67.9535 70.2084L65.944 87.1356L70.0277 86.0759C70.0277 86.0759 73.5366 75.3094 74.1089 73.0694C74.6786 70.8293 74.9531 69.3232 74.5077 68.2942C74.0623 67.2653 71.1723 55.7829 71.1723 55.7829L56.8546 54.5Z" fill="#3F4553"/>
<path d="M59.6151 87.5029C59.6048 87.5029 59.5918 87.5003 59.5815 87.4978L55.288 86.338C55.2388 86.3252 55.1999 86.2815 55.1947 86.2302C55.1792 86.1148 53.6954 74.6504 53.2422 73.4983C52.8538 72.5104 52.9237 70.8811 53.4623 68.5153C53.8559 66.7808 56.6993 54.5928 56.7278 54.4696C56.7433 54.408 56.8003 54.3644 56.865 54.3696L71.1775 55.6525C71.2319 55.6576 71.2785 55.6961 71.2915 55.75C71.32 55.8655 74.184 67.2349 74.6217 68.2408C75.0697 69.2723 74.8288 70.7425 74.228 73.098C73.6635 75.3175 70.1805 86.0044 70.1469 86.1122C70.1339 86.1532 70.1003 86.1866 70.0562 86.1969L65.9725 87.2566C65.9311 87.2668 65.887 87.2566 65.8534 87.2284C65.8197 87.2001 65.8042 87.1591 65.8094 87.1155L67.8163 70.2191L64.4162 60.1659L63.8128 59.3756L59.351 70.4089C59.3665 70.7528 59.5219 74.2244 59.6591 77.0033C59.8016 79.8976 59.7472 87.3028 59.7472 87.3772C59.7472 87.4182 59.7291 87.4542 59.6954 87.4772C59.6721 87.4952 59.6436 87.5029 59.6151 87.5029ZM55.4407 86.1148L59.4882 87.2078C59.496 86.0891 59.5297 79.659 59.4002 77.0135C59.2578 74.0884 59.092 70.391 59.092 70.391C59.092 70.373 59.0946 70.3551 59.1024 70.3371L63.6652 59.0703C63.6833 59.0266 63.7222 58.9959 63.7688 58.9907C63.818 58.9856 63.862 59.0036 63.8905 59.042L64.6441 60.0299C64.6518 60.0402 64.6596 60.053 64.6622 60.0658L68.0778 70.1652C68.083 70.1831 68.0856 70.2011 68.083 70.2216L66.0942 86.9615L69.9268 85.9659C70.2246 85.0525 73.4434 75.1533 73.982 73.0338C74.5673 70.7348 74.8055 69.303 74.3886 68.3408C73.9587 67.353 71.3588 57.0483 71.0688 55.8988L56.9582 54.6338C56.6734 55.8578 54.0916 66.9245 53.7187 68.5692C53.193 70.8836 53.1179 72.4642 53.4882 73.4033C53.9336 74.5477 55.2931 84.9781 55.4407 86.1148Z" fill="#3F4553"/>
<path d="M67.3188 84.5644C67.3136 84.5644 67.3085 84.5644 67.3033 84.5644C67.2334 84.5567 67.1816 84.4926 67.1893 84.4207C67.2049 84.2976 68.6835 72.0788 68.7612 71.3963C68.8026 71.0473 68.813 70.9421 69.0538 70.9293C69.1678 70.9242 69.4086 70.9113 69.9369 70.5598C70.0638 70.4751 70.1466 70.4135 70.1984 70.3725C70.1285 70.3725 70.0405 70.3751 69.9654 70.3776C69.6442 70.3879 69.204 70.4033 68.8907 70.2673C68.163 69.9517 66.2416 63.5883 65.8635 62.313C65.8428 62.2463 65.8816 62.1745 65.9515 62.154C66.0188 62.1334 66.0914 62.1719 66.1121 62.2412C67.1919 65.8796 68.5696 69.8465 68.9943 70.0312C69.2558 70.1441 69.6624 70.1313 69.9576 70.121C70.2968 70.1108 70.4859 70.1031 70.5376 70.257C70.5817 70.3905 70.4755 70.5111 70.0845 70.7728C69.4966 71.1654 69.2092 71.1807 69.0694 71.1859C69.0642 71.1859 69.059 71.1859 69.0538 71.1859C69.0435 71.2321 69.0331 71.3219 69.0228 71.4245C68.9451 72.1096 67.4638 84.3284 67.4483 84.4515C67.4405 84.5157 67.3836 84.5644 67.3188 84.5644Z" fill="#4E5567"/>
<path d="M59.3664 81.8808C59.3017 81.8808 59.2447 81.832 59.237 81.7679L59.1282 80.8519C59.1204 80.7826 59.1722 80.7184 59.2422 80.7107C59.3121 80.703 59.3768 80.7543 59.3846 80.8236L59.4933 81.7397C59.5011 81.8089 59.4493 81.8731 59.3794 81.8808C59.3768 81.8808 59.3716 81.8808 59.3664 81.8808Z" fill="#4E5567"/>
<path d="M59.0998 79.5972C59.0351 79.5972 58.9781 79.5484 58.9704 79.4843L58.0044 71.2657C57.8335 71.2298 57.4373 71.1426 56.9168 70.9989C56.8236 70.9732 56.6268 70.9193 56.619 70.7654C56.6087 70.5935 56.8132 70.5114 57.2638 70.3317C57.6134 70.1932 58.0511 70.0187 58.4498 69.7698C58.9263 69.4747 60.058 67.0217 61.5521 63.042C61.578 62.9753 61.6506 62.942 61.7179 62.9676C61.7852 62.9933 61.8189 63.0651 61.793 63.1319C60.7054 66.0262 59.2656 69.5645 58.5845 69.9879C58.165 70.2471 57.6989 70.4344 57.3571 70.5704C57.2094 70.6294 57.0489 70.6935 56.9479 70.7423C56.9583 70.7449 56.9686 70.7474 56.9816 70.7525C57.673 70.9424 58.1391 71.0322 58.1443 71.0348C58.1987 71.0451 58.2427 71.0912 58.2479 71.1451L59.2241 79.456C59.2319 79.5253 59.1801 79.5895 59.1102 79.5972C59.1102 79.5972 59.105 79.5972 59.0998 79.5972Z" fill="#4E5567"/>
<path d="M62.1681 61.8748C62.1526 61.8748 62.1397 61.8722 62.1241 61.8671C62.0568 61.844 62.0231 61.7696 62.0464 61.7029C62.2225 61.2205 62.3261 60.9254 62.3261 60.9254C62.3494 60.8587 62.4245 60.8228 62.4918 60.8459C62.5592 60.869 62.5954 60.9434 62.5721 61.0101C62.5721 61.0101 62.4685 61.3052 62.2924 61.7901C62.2717 61.8414 62.2225 61.8748 62.1681 61.8748Z" fill="#4E5567"/>
<path d="M65.5268 34.501C65.5268 34.501 58.579 33.3694 55.7797 32.8716C52.9804 32.3739 50.5747 31.9043 50.5747 31.9043L49.355 35.7762C49.355 35.7762 54.9096 37.6288 56.3727 38.0624C57.8358 38.4961 58.4133 38.7321 58.4133 38.7321C58.4133 38.7321 58.6049 48.0797 58.0041 50.0913C57.4033 52.103 56.0516 56.1468 56.0516 56.1468L63.2092 60.1188L64.6464 57.9224L64.7577 59.9982C64.7577 59.9982 67.008 59.8674 69.0357 59.2233C71.0633 58.5793 72.2908 57.8044 72.2908 57.8044L70.6826 50.8046L72.876 41.7753C72.876 41.7753 83.9283 39.5994 83.993 38.8938C84.0577 38.1882 82.4729 35.6017 82.4729 35.6017L67.4975 34.6344L65.5268 34.501Z" fill="#FFF9F1"/>
<path d="M63.2097 60.2501C63.189 60.2501 63.1657 60.245 63.1476 60.2347L55.99 56.2627C55.9356 56.2319 55.9097 56.1678 55.9305 56.1113C55.9434 56.0703 57.29 52.047 57.883 50.0584C58.4397 48.1904 58.3051 39.7666 58.287 38.8224C58.085 38.7454 57.4816 38.5247 56.337 38.186C54.8895 37.7575 49.3711 35.9178 49.3167 35.8998C49.2494 35.8767 49.2131 35.8074 49.2338 35.7407L50.4535 31.8688C50.4742 31.8072 50.5364 31.7662 50.6011 31.7816C50.6244 31.7867 53.0379 32.2563 55.8036 32.7463C58.5356 33.2313 65.3047 34.3346 65.5429 34.3757L67.5084 34.5117L82.4839 35.479C82.5253 35.4816 82.5641 35.5047 82.5874 35.5406C82.7506 35.81 84.193 38.186 84.1256 38.9122C84.1075 39.0995 84.0764 39.4459 78.4415 40.7314C75.9633 41.2959 73.4618 41.7988 72.9853 41.8937L70.8179 50.8153L72.4182 57.7843C72.4312 57.8382 72.4079 57.8921 72.3613 57.9203C72.3483 57.928 71.095 58.7132 69.0751 59.3546C67.0552 59.9961 64.7894 60.1347 64.7661 60.1347C64.7324 60.1372 64.6987 60.1244 64.6728 60.1013C64.6469 60.0782 64.6314 60.0474 64.6288 60.0115L64.5382 58.3283L63.3185 60.1937C63.2926 60.2296 63.2512 60.2501 63.2097 60.2501ZM56.2075 56.0908L63.1657 59.9525L64.5356 57.8587C64.5667 57.8125 64.6236 57.792 64.678 57.8048C64.7324 57.8202 64.7712 57.8664 64.7738 57.9229L64.88 59.8678C65.3876 59.8293 67.2831 59.6523 68.9948 59.1083C70.6987 58.5669 71.8433 57.9254 72.1437 57.7484L70.5563 50.841C70.5511 50.8205 70.5511 50.8025 70.5563 50.782L72.7497 41.7526C72.7626 41.7039 72.8015 41.6679 72.8507 41.6577C78.0091 40.6416 83.6233 39.3227 83.8693 38.8763C83.9133 38.3605 82.8542 36.4848 82.3984 35.733L67.4903 34.7708L65.517 34.6348C65.5118 34.6348 65.5093 34.6348 65.5041 34.6323C65.4342 34.622 58.5252 33.493 55.757 33.0029C53.3279 32.5719 51.1734 32.1562 50.6633 32.0587L49.5161 35.7022C50.3344 35.9742 55.0837 37.5523 56.4095 37.9474C57.8623 38.3785 58.4397 38.612 58.4631 38.6222C58.5097 38.6428 58.5407 38.6864 58.5433 38.7377C58.5511 39.12 58.7272 48.1289 58.129 50.1354C57.5878 51.9443 56.4225 55.4519 56.2075 56.0908Z" fill="#3F4553"/>
<path d="M63.095 34.0195L62.792 38.4508L66.4614 37.0268L70.3613 40.0083L70.237 34.1837L63.095 34.0195Z" fill="white"/>
<path d="M70.3616 40.1364C70.3331 40.1364 70.3046 40.1261 70.2813 40.1107L66.441 37.1753L62.8389 38.5737C62.7975 38.5891 62.7509 38.584 62.7146 38.5583C62.6784 38.5327 62.6603 38.4891 62.6628 38.4454L62.9658 34.0142C62.971 33.9449 63.0357 33.8961 63.0979 33.8936L70.2373 34.0578C70.3072 34.0603 70.3616 34.1142 70.3642 34.1835L70.4885 40.0081C70.4885 40.0568 70.4626 40.103 70.4186 40.1261C70.4005 40.1312 70.3823 40.1364 70.3616 40.1364ZM66.4617 36.8982C66.4902 36.8982 66.5187 36.9085 66.542 36.9239L70.227 39.7412L70.1104 34.3092L63.217 34.1501L62.9347 38.2581L66.4151 36.9085C66.4307 36.9008 66.4462 36.8982 66.4617 36.8982Z" fill="#3F4553"/>
<path d="M64.789 57.6298C64.7864 57.6298 64.7812 57.6298 64.7787 57.6298C64.7061 57.6247 64.6544 57.5631 64.6595 57.4913L66.0993 40.5205C66.1045 40.4486 66.1692 40.3999 66.2392 40.4024C66.3117 40.4076 66.3635 40.4692 66.3583 40.541L64.9185 57.5118C64.9107 57.5811 64.8538 57.6298 64.789 57.6298Z" fill="#3F4553"/>
<path d="M72.8764 41.9066C72.8506 41.9066 72.8247 41.8989 72.8039 41.8835C72.7521 41.8476 72.7314 41.7809 72.7599 41.7219L74.4923 38.0988C74.5234 38.0347 74.6011 38.009 74.6658 38.0372C74.7306 38.068 74.7591 38.145 74.728 38.2092L73.3503 41.0881L76.4941 37.755C76.5433 37.7037 76.6236 37.7011 76.6779 37.7499C76.7297 37.7986 76.7323 37.8782 76.6831 37.932L72.9723 41.8681C72.9464 41.8938 72.9101 41.9066 72.8764 41.9066Z" fill="#3F4553"/>
<path d="M58.4136 38.8632C58.3748 38.8632 58.336 38.8453 58.3101 38.8119L55.4667 35.1119C55.4227 35.0555 55.4331 34.9759 55.49 34.9323C55.547 34.8887 55.6273 34.8989 55.6713 34.9554L57.919 37.8779L57.1344 35.9843C57.1085 35.9202 57.1396 35.8432 57.2043 35.8175C57.2691 35.7919 57.3467 35.8227 57.3726 35.8868L58.5302 38.6836C58.5535 38.7426 58.5302 38.8119 58.4758 38.8427C58.4577 38.8555 58.4344 38.8632 58.4136 38.8632Z" fill="#3F4553"/>
<path d="M64.7788 34.3789L66.2264 40.5319L68.8211 34.7253L67.4953 34.6406L65.5246 34.5046C65.5272 34.5021 65.2449 34.4559 64.7788 34.3789Z" fill="white"/>
<path d="M66.2264 40.6602C66.2213 40.6602 66.2187 40.6602 66.2135 40.6602C66.1591 40.655 66.1125 40.6166 66.0995 40.5627L64.652 34.4097C64.6416 34.3686 64.6546 34.325 64.6831 34.2916C64.7115 34.2583 64.7556 34.2454 64.7996 34.2531L65.548 34.3763L68.8315 34.597C68.873 34.5995 68.9118 34.6226 68.9351 34.6586C68.9558 34.6945 68.961 34.7381 68.9429 34.7766L66.3481 40.5832C66.3248 40.6294 66.2782 40.6602 66.2264 40.6602ZM64.9498 34.538L66.2653 40.129L68.6295 34.8407L65.5169 34.6303L64.9498 34.538Z" fill="#3F4553"/>
<path d="M64.7788 34.3789L66.2264 40.5319L68.8211 34.7253L67.4953 34.6406L65.5246 34.5046C65.5272 34.5021 65.2449 34.4559 64.7788 34.3789Z" fill="#C6FF00"/>
<path d="M64.7788 34.3789L66.2264 40.5319L68.8211 34.7253L67.4953 34.6406L65.5246 34.5046C65.5272 34.5021 65.2449 34.4559 64.7788 34.3789Z" fill="#FED9CE"/>
<path d="M86.7336 37.4906C86.7336 37.4906 86.8605 38.5144 86.2856 38.9634C85.7134 39.4124 83.2921 40.1899 82.6137 39.787C81.9352 39.3842 80.9745 37.2519 81.3499 35.7509C81.7254 34.2524 83.9939 34.8092 83.9939 34.8092C83.9939 34.8092 86.2106 35.5123 86.7336 37.4906Z" fill="white"/>
<path d="M83.1806 40.0258C82.919 40.0258 82.6989 39.9873 82.5487 39.8975C81.7926 39.4485 80.8526 37.2136 81.2255 35.7202C81.3938 35.0479 81.9376 34.6579 82.8025 34.5887C83.4318 34.5399 84.0015 34.6759 84.0248 34.6836C84.1258 34.7144 86.3243 35.4328 86.8578 37.4548C86.8604 37.4599 86.8604 37.465 86.8604 37.4727C86.8655 37.5163 86.9872 38.5735 86.3657 39.061C85.9152 39.4177 84.2242 40.0258 83.1806 40.0258ZM83.0848 34.8375C82.4503 34.8375 81.6683 35.0043 81.4741 35.7818C81.1089 37.2392 82.0722 39.315 82.6808 39.6768C83.2945 40.0412 85.6407 39.3048 86.2052 38.8634C86.6894 38.4837 86.6143 37.6061 86.6066 37.5138C86.1042 35.6355 83.9756 34.9402 83.9549 34.9325C83.9471 34.9299 83.5561 34.8375 83.0848 34.8375Z" fill="#575C69"/>
<path d="M84.6822 38.5767C83.6205 38.6357 82.6857 37.8814 82.4164 36.8627C81.7405 34.2865 80.0935 28.2234 79.4669 27.8077C78.6693 27.2817 78.0581 27.1482 78.0685 26.6607C78.0788 26.1758 78.1203 24.2308 78.1203 24.2308C78.1203 24.2308 78.4751 23.7023 78.7107 24.1949C78.9464 24.685 78.8894 25.0724 78.8894 25.0724C78.8894 25.0724 79.2804 23.9871 79.239 23.6458C79.1975 23.3045 79.1173 22.3808 79.1224 22.1371C79.1276 21.8933 79.4513 21.6829 79.9304 22.1781C80.4095 22.6733 81.3443 23.7382 81.163 24.2437C80.9818 24.7491 80.6581 27.2457 80.6581 27.2457C80.6581 27.2457 86.6555 35.9698 86.5416 36.7447C86.4587 37.3015 85.9744 38.5049 84.6822 38.5767Z" fill="#FED9CE"/>
<path d="M84.5657 38.7075C83.517 38.7075 82.5718 37.9608 82.2921 36.8934C80.9093 31.6205 79.7983 28.1797 79.397 27.9128C79.1665 27.7614 78.9516 27.6434 78.7625 27.5382C78.2809 27.2713 77.9313 27.0789 77.9416 26.6581L77.9934 24.2282C77.9934 24.2051 78.0012 24.1794 78.0141 24.1589C78.0349 24.1255 78.2343 23.8382 78.4906 23.8561C78.6305 23.8664 78.7444 23.9613 78.8299 24.1384C78.8842 24.2513 78.9231 24.3616 78.9542 24.4617C79.05 24.1307 79.1277 23.7997 79.1121 23.6611C79.0707 23.3301 78.9904 22.3936 78.9956 22.1344C78.9982 21.9753 79.0966 21.8342 79.2442 21.7778C79.3737 21.7264 79.6507 21.7008 80.0262 22.0908C80.5856 22.6681 81.4919 23.7201 81.2873 24.2898C81.1242 24.7388 80.8419 26.8685 80.7953 27.2174C81.8622 28.7698 86.7876 35.9902 86.6736 36.7677C86.5804 37.404 86.0444 38.6305 84.6952 38.7049C84.646 38.7075 84.6046 38.7075 84.5657 38.7075ZM78.2472 24.2744L78.198 26.6632C78.1928 26.9172 78.4181 27.0532 78.8868 27.3149C79.081 27.4227 79.3012 27.5433 79.5394 27.6998C80.1479 28.1001 81.5075 32.8855 82.5433 36.8293C82.8022 37.8223 83.6982 38.5022 84.6745 38.4483C85.8579 38.3816 86.3292 37.2963 86.4121 36.7292C86.4898 36.2006 82.8566 30.6788 80.5493 27.3201C80.5312 27.2944 80.5234 27.2636 80.5286 27.2328C80.5416 27.1302 80.8549 24.7183 81.0387 24.2025C81.1475 23.8972 80.6762 23.1377 79.8346 22.2678C79.6041 22.0292 79.4255 21.9805 79.3322 22.0164C79.2727 22.0395 79.2494 22.0959 79.2494 22.1395C79.2442 22.3705 79.3193 23.2737 79.3633 23.6303C79.4073 23.9921 79.05 25.0005 79.0085 25.116C78.9852 25.1776 78.9205 25.2135 78.8557 25.1981C78.791 25.1827 78.7496 25.1211 78.7599 25.0544C78.7599 25.0518 78.8065 24.6952 78.5942 24.2487C78.5554 24.1666 78.5087 24.1153 78.4699 24.1127C78.4155 24.105 78.3094 24.1974 78.2472 24.2744Z" fill="#3F4553"/>
<path d="M80.1737 25.1621C80.1607 25.1621 80.1478 25.1596 80.1374 25.157C80.0701 25.1365 80.0286 25.0646 80.052 24.9979L80.3316 24.0716C80.2721 23.9382 80.1063 23.5482 80.0882 23.1915C80.0778 22.994 80.1581 22.9042 80.2255 22.8631C80.399 22.7579 80.6424 22.8913 80.689 22.917C80.7511 22.9529 80.7693 23.0324 80.733 23.0915C80.6968 23.153 80.6165 23.1736 80.5569 23.1376C80.4792 23.0915 80.3808 23.0684 80.3575 23.0812C80.3575 23.0812 80.3394 23.1017 80.3446 23.1787C80.3653 23.5585 80.5828 24.0024 80.5854 24.0075C80.6009 24.0357 80.6035 24.0691 80.5932 24.0999L80.298 25.0749C80.2798 25.1262 80.228 25.1621 80.1737 25.1621Z" fill="#263238"/>
<path d="M79.7307 25.0466C79.7204 25.0466 79.71 25.0466 79.6997 25.044C79.6297 25.026 79.5883 24.9567 79.6038 24.89L79.8214 24.0099C79.7566 23.8714 79.5857 23.4326 79.6867 22.9707C79.7333 22.7629 79.8265 22.6244 79.9664 22.5628C80.158 22.4755 80.347 22.5756 80.3678 22.5859C80.4299 22.6192 80.4532 22.6988 80.4196 22.7603C80.3859 22.8219 80.3082 22.845 80.2435 22.8117C80.2409 22.8091 80.1451 22.7629 80.0726 22.7963C79.9975 22.8296 79.9586 22.94 79.9405 23.0246C79.8395 23.4814 80.07 23.9304 80.0726 23.9355C80.0881 23.9637 80.0907 23.9945 80.0829 24.0253L79.855 24.9516C79.8421 25.0081 79.7877 25.0466 79.7307 25.0466Z" fill="#263238"/>
<path d="M79.3609 25.0209C79.3531 25.0209 79.3454 25.0209 79.3376 25.0183C79.2677 25.0055 79.2211 24.9388 79.2314 24.8695L79.4412 23.6969C79.4075 23.5634 79.2677 22.9836 79.247 22.5679C79.2366 22.3729 79.3169 22.2574 79.3868 22.1933C79.5836 22.0111 79.9073 22.047 79.9435 22.0521C80.0135 22.0624 80.0653 22.124 80.0549 22.1958C80.0471 22.2651 79.9824 22.3164 79.9099 22.3062C79.8426 22.2985 79.6535 22.2959 79.5603 22.3806C79.5189 22.4191 79.5007 22.4755 79.5033 22.5551C79.5266 22.9913 79.6949 23.6558 79.6975 23.661C79.7027 23.6789 79.7027 23.6969 79.7001 23.7148L79.4852 24.9131C79.4774 24.9773 79.423 25.0209 79.3609 25.0209Z" fill="#263238"/>
<path d="M68.5823 35.8232C77.4508 35.8232 84.6402 28.6995 84.6402 19.9121C84.6402 11.1246 77.4508 4.00098 68.5823 4.00098C59.7138 4.00098 52.5244 11.1246 52.5244 19.9121C52.5244 28.6995 59.7138 35.8232 68.5823 35.8232Z" fill="#FA6E5A"/>
<path opacity="0.3" d="M57.4996 19.2654C57.8207 11.5369 63.6575 5.32748 71.0922 4.19849C70.4862 4.10355 69.8699 4.03941 69.2432 4.01375C60.3817 3.65196 52.9031 10.4747 52.5354 19.2526C52.1702 28.0331 59.0559 35.4433 67.9148 35.8077C68.9765 35.8513 70.0149 35.7897 71.0274 35.6358C63.0827 34.399 57.1603 27.4249 57.4996 19.2654Z" fill="#AC3E2F"/>
<path d="M58.8516 21.3416C58.8516 21.3416 70.6367 19.8046 80.389 22.2242C80.389 22.2242 79.4748 31.9233 69.2927 31.7001C60.4649 31.5076 58.8516 21.3416 58.8516 21.3416Z" fill="#3F4553"/>
<path d="M69.7817 16.3018C69.3958 16.3018 69.0618 16.0196 69.0126 15.6296C68.7666 13.7334 67.0264 12.3042 64.9625 12.3042C63.1239 12.3042 61.5054 13.4537 61.0263 15.0959C60.9072 15.5038 60.4748 15.7399 60.063 15.6219C59.6513 15.5038 59.413 15.0779 59.5322 14.6674C60.2029 12.3683 62.4351 10.7646 64.9625 10.7646C67.8032 10.7646 70.2064 12.7712 70.5534 15.4346C70.6077 15.8554 70.3073 16.2428 69.8827 16.2967C69.849 16.2993 69.8153 16.3018 69.7817 16.3018Z" fill="#3F4553"/>
<path d="M81.0958 18.1285C80.6763 18.1285 80.3319 17.7975 80.319 17.3792C80.2723 15.6883 78.8662 14.2771 77.0483 14.0975C75.4299 13.9384 73.8994 14.8057 73.3297 16.2092C73.1692 16.6043 72.716 16.7942 72.3198 16.6377C71.921 16.4786 71.7294 16.0321 71.8873 15.637C72.7134 13.5997 74.8964 12.3373 77.2011 12.5656C79.7933 12.8222 81.8002 14.8749 81.8701 17.3356C81.883 17.7616 81.5438 18.1157 81.1139 18.1259C81.1114 18.1285 81.1036 18.1285 81.0958 18.1285Z" fill="#3F4553"/>
<path d="M60.3848 21.6391C60.4806 22.024 61.1927 24.1306 65.3516 24.3025C69.9299 24.4898 74.5031 24.8464 76.8829 24.7746C78.3072 24.731 78.9882 23.5173 79.3067 22.5474C72.0974 20.9129 63.9843 21.3286 60.3848 21.6391Z" fill="white"/>
<path d="M72.3377 30.9219C72.3403 28.6408 69.8699 26.7113 66.7339 26.583C64.9963 26.5112 63.4193 27.0115 62.3213 27.8557C63.8957 29.6441 66.1772 31.0887 69.4504 31.1605C70.5121 31.1836 71.4702 31.0938 72.3377 30.9219Z" fill="#4E5567"/>
<path d="M54.8346 86.663L59.9645 88.259L60.006 86.1627L54.6274 85.0645L54.8346 86.663Z" fill="#4E5567"/>
<path d="M59.9651 88.3876C59.9522 88.3876 59.9392 88.385 59.9263 88.3825L54.7963 86.7865C54.7471 86.7711 54.7135 86.73 54.7057 86.6813L54.4985 85.0802C54.4934 85.0391 54.5089 84.9981 54.54 84.9698C54.571 84.9416 54.6125 84.9288 54.6539 84.9391L60.0324 86.0372C60.0946 86.0501 60.136 86.104 60.136 86.1655L60.0946 88.2619C60.0946 88.3029 60.0739 88.3388 60.0402 88.3645C60.0195 88.3799 59.9936 88.3876 59.9651 88.3876ZM54.9517 86.5658L59.8382 88.0848L59.8745 86.2656L54.7782 85.2239L54.9517 86.5658Z" fill="#3F4553"/>
<path d="M65.3716 86.9741L66.0034 88.8318L71.0557 86.7945L70.675 85.0625L65.3716 86.9741Z" fill="#4E5567"/>
<path d="M66.0035 88.9572C65.9854 88.9572 65.9672 88.9521 65.9491 88.9444C65.9154 88.929 65.8921 88.9034 65.8792 88.87L65.2473 87.0149C65.224 86.9481 65.2603 86.8763 65.325 86.8532L70.6284 84.9416C70.6647 84.9288 70.7035 84.9313 70.7346 84.9493C70.7683 84.9673 70.7916 84.9981 70.7994 85.034L71.18 86.766C71.193 86.8275 71.1593 86.8891 71.1023 86.9122L66.0501 88.947C66.0371 88.9547 66.019 88.9572 66.0035 88.9572ZM65.5348 87.0508L66.0812 88.6596L70.9055 86.7172L70.5792 85.2341L65.5348 87.0508Z" fill="#3F4553"/>
<path d="M46.541 33.3469C46.541 33.3469 46.1966 34.3194 46.6602 34.8813C47.1237 35.4432 49.3196 36.7134 50.068 36.4619C50.8164 36.213 52.2148 34.3296 52.1733 32.7875C52.1293 31.2429 49.7935 31.307 49.7935 31.307C49.7935 31.307 47.4785 31.5251 46.541 33.3469Z" fill="white"/>
<path d="M49.8473 36.6207C48.8789 36.6207 46.9729 35.4609 46.5586 34.9606C46.0562 34.3525 46.4006 33.3467 46.4162 33.303C46.4188 33.2979 46.4214 33.2928 46.4239 33.2876C47.3821 31.4222 49.6842 31.1887 49.78 31.1785C50.6449 31.1605 52.2634 31.4607 52.3023 32.7822C52.3463 34.3191 50.9453 36.3026 50.1089 36.5822C50.0338 36.6079 49.9458 36.6207 49.8473 36.6207ZM46.6596 33.3954C46.6311 33.4852 46.3696 34.3243 46.7606 34.7989C47.2164 35.3506 49.3502 36.5643 50.0286 36.341C50.7019 36.1153 52.0873 34.2935 52.0459 32.7924C52.007 31.394 49.8215 31.4376 49.7981 31.4376C49.7826 31.4376 47.5556 31.6686 46.6596 33.3954Z" fill="#3F4553"/>
<path d="M47.776 34.6964C48.8014 34.9786 49.8761 34.4398 50.3578 33.5007C51.5723 31.1272 54.4881 25.5516 55.1899 25.2796C56.0833 24.9332 56.7074 24.9332 56.8032 24.4559C56.899 23.9787 57.2771 22.0722 57.2771 22.0722C57.2771 22.0722 57.044 21.4821 56.71 21.9131C56.3759 22.3416 56.3474 22.7342 56.3474 22.7342C56.3474 22.7342 56.1998 21.5924 56.3138 21.2665C56.4277 20.9432 56.7048 20.0554 56.7514 19.8168C56.798 19.5782 56.5287 19.3036 55.9538 19.6859C55.3789 20.0682 54.2369 20.9099 54.3043 21.4436C54.3742 21.9773 54.1489 24.4841 54.1489 24.4841C54.1489 24.4841 46.4087 31.7379 46.3543 32.5205C46.3154 33.0773 46.5278 34.3526 47.776 34.6964Z" fill="#FED9CE"/>
<path d="M48.3327 34.9022C48.1359 34.9022 47.9391 34.8765 47.7422 34.8226C46.4397 34.4634 46.1807 33.1548 46.2248 32.5107C46.2791 31.7256 52.6469 25.7137 54.0245 24.4231C54.0556 24.0715 54.2369 21.9316 54.1747 21.4594C54.097 20.8616 55.2106 20.0251 55.8787 19.5787C56.3318 19.2784 56.5934 19.3631 56.7099 19.4401C56.842 19.5273 56.9067 19.6839 56.8756 19.8429C56.8264 20.097 56.5442 20.995 56.4328 21.3106C56.3862 21.4441 56.3914 21.7828 56.4147 22.1266C56.4639 22.0342 56.526 21.9367 56.6037 21.8366C56.7229 21.6827 56.8549 21.6134 56.9948 21.6339C57.2459 21.6699 57.3806 21.9932 57.3936 22.0291C57.4013 22.0522 57.4039 22.0753 57.3987 22.1009L56.93 24.4795C56.8472 24.8926 56.4665 25.0055 55.9382 25.1646C55.7311 25.2262 55.4954 25.298 55.2364 25.3981C54.7859 25.5726 52.9602 28.7004 50.4742 33.5576C50.047 34.3941 49.2028 34.9022 48.3327 34.9022ZM47.8122 34.5737C48.7522 34.8329 49.7751 34.3582 50.2438 33.4422C52.1031 29.8089 54.4622 25.4212 55.1432 25.1595C55.4099 25.0568 55.6508 24.985 55.8631 24.9208C56.3784 24.7669 56.627 24.6822 56.6762 24.4307L57.1424 22.0855C57.1009 21.9983 57.0232 21.8905 56.9611 21.8828C56.9197 21.8751 56.8679 21.9162 56.8109 21.988C56.5053 22.378 56.4743 22.7373 56.4743 22.7398C56.4691 22.8065 56.4147 22.8579 56.3474 22.8579C56.2723 22.8604 56.2231 22.8117 56.2153 22.745C56.1998 22.6244 56.0677 21.5621 56.1894 21.2183C56.3085 20.8796 56.5778 20.0123 56.6219 19.7865C56.6296 19.7429 56.6219 19.6839 56.5675 19.6479C56.4846 19.594 56.3008 19.6017 56.0237 19.7865C55.0137 20.4588 54.3897 21.1002 54.4311 21.421C54.501 21.9624 54.2861 24.3846 54.2783 24.4898C54.2757 24.5206 54.2602 24.5513 54.2395 24.5719C51.2615 27.3636 46.5226 31.9924 46.4863 32.5236C46.4423 33.0983 46.6702 34.2607 47.8122 34.5737Z" fill="#3F4553"/>
<path d="M55.3479 22.6831C55.3453 22.6831 55.3428 22.6831 55.3428 22.6831C55.2702 22.6805 55.2159 22.6189 55.221 22.5496C55.221 22.5419 55.2547 21.844 55.2366 21.5028C55.2159 21.1333 55.77 19.7887 55.8348 19.6374C55.8607 19.5706 55.9384 19.5399 56.0031 19.5681C56.0678 19.5937 56.1015 19.6707 56.073 19.7349C55.8425 20.2891 55.4826 21.2539 55.4955 21.4899C55.5137 21.844 55.48 22.5342 55.48 22.5625C55.4748 22.6292 55.4179 22.6831 55.3479 22.6831Z" fill="#263238"/>
<path d="M54.9176 22.5392L54.6587 22.5341C54.6587 22.5341 54.6768 21.7849 54.6898 21.5052C54.7027 21.2204 54.9902 20.3377 55.0212 20.2402C55.0419 20.1735 55.117 20.135 55.1844 20.1581C55.2517 20.1786 55.2906 20.253 55.2672 20.3198C55.1818 20.5815 54.9565 21.3051 54.9461 21.518C54.9358 21.7951 54.9176 22.5392 54.9176 22.5392Z" fill="#263238"/>
</g>
</svg>
