<svg width="164" height="130" viewBox="0 0 164 130" fill="none" xmlns="http://www.w3.org/2000/svg" version="1.1" xmlns:xlink="http://www.w3.org/1999/xlink">
<g clip-path="url(#clip0_1_2329)">
<path d="M150.386 24.3398H147V41.3398H150.386V24.3398Z" fill="#9BA3FF" data-darkreader-inline-fill="" style="--darkreader-inline-fill: var(--darkreader-text-9ba3ff, #7fadf2);"></path>
<path d="M155.693 30.0537H152.307V41.3392H155.693V30.0537Z" fill="#9BA3FF" data-darkreader-inline-fill="" style="--darkreader-inline-fill: var(--darkreader-text-9ba3ff, #7fadf2);"></path>
<path d="M161.007 35.4395H157.621V41.3395H161.007V35.4395Z" fill="#9BA3FF" data-darkreader-inline-fill="" style="--darkreader-inline-fill: var(--darkreader-text-9ba3ff, #7fadf2);"></path>
</g>
<g clip-path="url(#clip1_1_2329)">
<path d="M85.5 129.34C104.554 129.34 120 126.654 120 123.34C120 120.026 104.554 117.34 85.5 117.34C66.4462 117.34 51 120.026 51 123.34C51 126.654 66.4462 129.34 85.5 129.34Z" fill="#808AFF" data-darkreader-inline-fill="" style="--darkreader-inline-fill: var(--darkreader-background-808aff, #000a79);"></path>
</g>
<path d="M79.6819 45.4961C79.6819 45.4961 78.3303 60.4367 83.9286 60.2116C89.9341 59.9669 88.3187 45.4961 88.3187 45.4961C87.5338 43.1637 87.2212 41.7806 87.5729 39.334H80.2811C80.6328 41.7806 80.4635 43.1637 79.6819 45.4961Z" fill="#FDBCA0" data-darkreader-inline-fill="" style="--darkreader-inline-fill: var(--darkreader-text-fdbca0, #f0a484);"></path>
<path d="M80.4275 42.2246C81.2547 42.4725 82.0884 42.7008 82.9514 42.7726C83.7689 42.8411 84.6091 42.7889 85.4233 42.7008C86.1007 42.6258 86.8237 42.5051 87.5011 42.28C87.3936 41.3927 87.4099 40.4793 87.576 39.3311H80.2842C80.4438 40.4565 80.4926 41.3568 80.4275 42.2246Z" fill="#F0A38B" data-darkreader-inline-fill="" style="--darkreader-inline-fill: var(--darkreader-text-f0a38b, #e3937b);"></path>
<path d="M83.9285 41.3732C86.0096 41.3732 88.0125 40.5511 89.478 39.0701C91.2236 37.3086 92.5914 35.3448 92.992 33.0384C93.5066 30.0764 92.5068 27.1177 90.3248 24.7363H77.5291C75.3471 27.1144 74.3472 30.0764 74.8618 33.0384C75.2624 35.3448 76.6335 37.3086 78.3758 39.0701C79.8446 40.5479 81.8475 41.3732 83.9285 41.3732Z" fill="#FDBCA0" data-darkreader-inline-fill="" style="--darkreader-inline-fill: var(--darkreader-text-fdbca0, #f0a484);"></path>
<path d="M84.5643 47.2381C84.3005 47.5285 84.0529 47.8449 83.8185 48.1613C83.5351 47.9656 83.3104 47.7274 83.0629 47.4828C83.0401 47.4599 82.9945 47.4828 83.0043 47.5154C83.1443 47.9003 83.4374 48.2135 83.737 48.481C83.8022 48.5365 83.8934 48.543 83.9585 48.481C84.2744 48.1711 84.5838 47.809 84.828 47.4371C84.9323 47.2838 84.6913 47.0979 84.5643 47.2381Z" fill="#DF8370" data-darkreader-inline-fill="" style="--darkreader-inline-fill: var(--darkreader-text-df8370, #d47d6b);"></path>
<path d="M91.6051 46.6676C89.6609 46.834 87.7427 47.1504 85.8505 47.6332C85.7365 47.6626 85.7854 47.8355 85.8994 47.8094C87.7818 47.3918 89.6837 47.108 91.6051 46.9775C91.8071 46.9645 91.8038 46.6513 91.6051 46.6676Z" fill="#DF8370" data-darkreader-inline-fill="" style="--darkreader-inline-fill: var(--darkreader-text-df8370, #d47d6b);"></path>
<path d="M76.2496 46.6676C78.1938 46.834 80.1121 47.1504 82.0042 47.6332C82.1182 47.6626 82.0694 47.8355 81.9554 47.8094C80.073 47.3918 78.1711 47.108 76.2496 46.9775C76.0509 46.9645 76.0509 46.6513 76.2496 46.6676Z" fill="#DF8370" data-darkreader-inline-fill="" style="--darkreader-inline-fill: var(--darkreader-text-df8370, #d47d6b);"></path>
<path d="M76.5846 19.8105C73.8652 21.3698 71.9502 23.8262 71.9177 27.1275C71.8851 30.8496 76.4119 36.7769 76.3501 36.6301C74.8455 33.0091 74.4514 28.0246 78.2064 25.5291C78.5809 25.2811 79.0499 25.1376 79.3853 24.8473C79.3756 22.8802 78.2911 20.9751 76.5846 19.8105Z" fill="#3F4553" data-darkreader-inline-fill="" style="--darkreader-inline-fill: var(--darkreader-text-3f4553, #b1aba2);"></path>
<path d="M91.0052 19.8105C93.7246 21.3698 95.6395 23.8262 95.6721 27.1275C95.7047 30.8496 93.4803 34.1606 91.2658 36.9726C91.8292 35.746 93.1351 28.0213 89.3801 25.5291C89.0056 25.2811 88.5366 25.1376 88.2012 24.8473C88.2142 22.8802 89.3019 20.9751 91.0052 19.8105Z" fill="#424495" data-darkreader-inline-fill="" style="--darkreader-inline-fill: var(--darkreader-text-424495, #7b94be);"></path>
<path d="M130.05 17.8402C127.973 16.8061 125.546 16.5843 123.286 17.0442C122.192 17.2661 121.156 17.6543 120.169 18.1795C119.515 18.5253 118.851 19.0211 118.088 19.0798C117.164 19.1483 116.353 18.5448 115.665 18.0098C113.529 16.3462 111.357 14.888 108.608 14.4867C107.279 14.291 105.794 14.4345 104.765 15.2501C103.71 13.8539 102.137 12.8589 100.404 12.4936C98.1116 12.0108 95.9329 12.6991 94.1319 14.0822C93.1158 13.5831 91.3377 12.8655 91.1129 12.8035C84.3389 10.9375 75.0898 15.6709 76.2883 23.6533C77.3174 30.5136 85.9901 33.6844 91.9988 32.2751C93.2949 34.7315 96.4019 35.3024 98.7956 34.0236C98.9779 34.1639 99.1603 34.3042 99.3459 34.4412C103.166 37.2466 107.612 39.0701 112.412 38.2416C114.236 37.9251 115.942 37.2662 117.512 36.3202C119.004 37.4423 120.967 37.7979 122.775 36.9302C124.12 36.2875 125.022 35.1001 125.344 33.7561C125.367 33.7561 125.39 33.7561 125.413 33.7561C129.406 33.7072 133.639 31.7206 134.659 27.5287C135.587 23.7186 133.522 19.5659 130.05 17.8402Z" fill="#4E5567" data-darkreader-inline-fill="" style="--darkreader-inline-fill: var(--darkreader-background-4e5567, #3b414e);"></path>
<path d="M111.897 16.5978C113.21 17.671 113.988 19.1422 113.171 20.7635C112.506 22.0847 111.311 23.047 110.442 24.2181C109.422 25.5882 109.246 27.3465 110.917 28.348C112.562 29.3331 114.623 28.1066 115.994 27.1769C117.688 26.0253 119.505 22.6947 120.964 21.2659C127.445 14.921 133.88 21.703 133.906 21.7258C133.066 20.0752 131.724 18.6757 130.05 17.8406C127.973 16.8065 125.546 16.5847 123.286 17.0447C122.192 17.2665 121.156 17.6547 120.169 18.1799C119.515 18.5257 118.85 19.0215 118.088 19.0802C117.163 19.1488 116.353 18.5453 115.665 18.0103C113.529 16.3466 111.357 14.8884 108.608 14.4872C107.309 14.298 105.859 14.435 104.833 15.2048C107.071 14.3338 110.103 15.1265 111.897 16.5978Z" fill="#3F4553" data-darkreader-inline-fill="" style="--darkreader-inline-fill: var(--darkreader-text-3f4553, #b1aba2);"></path>
<path d="M129.158 32.6799C127.572 32.8659 126.087 32.7778 124.628 32.1286C123.999 33.763 122.713 35.4136 120.896 35.6713C119.674 35.8442 118.232 35.4625 117.981 34.1675C109.396 41.168 99.7724 33.3585 98.8442 31.8938C96.1672 33.6423 92.7932 31.5088 91.7934 28.7784C89.7547 29.5711 87.4034 29.3265 85.4233 28.4751C81.7334 26.8929 79.6882 22.5315 80.9778 18.6822C82.0526 15.482 84.9152 13.2931 88.0873 12.4026C81.9027 12.3667 75.2623 16.8162 76.2881 23.6536C77.3173 30.5139 85.9867 33.6847 91.9986 32.2754C93.2948 34.7318 96.4017 35.3027 98.7954 34.0239C98.9778 34.1642 99.1601 34.3045 99.3458 34.4415C103.166 37.2469 107.611 39.0705 112.412 38.2419C114.236 37.9254 115.942 37.2665 117.512 36.3205C119.003 37.4427 120.967 37.7982 122.775 36.9305C124.12 36.2879 125.022 35.1004 125.344 33.7564C125.367 33.7564 125.39 33.7564 125.413 33.7564C127.318 33.7336 129.275 33.2671 130.917 32.3342C130.34 32.5071 129.741 32.6114 129.158 32.6799Z" fill="#3F4553" data-darkreader-inline-fill="" style="--darkreader-inline-fill: var(--darkreader-background-3f4553, #2f343f);"></path>
<path d="M81.6419 34.7873C80.5021 34.9765 78.649 35.0384 77.5971 33.9098C77.3886 33.6847 77.1053 33.9391 77.3658 34.1642C77.4082 34.2001 77.4505 34.2327 77.4929 34.2653C77.3691 34.3012 77.2388 34.3175 77.1021 34.3077C77.0988 34.3077 77.0988 34.311 77.1021 34.3143C77.2681 34.3697 77.4375 34.386 77.6036 34.3534C77.6068 34.3567 77.6101 34.3599 77.6134 34.3599C77.4701 34.4545 77.2975 34.4937 77.1281 34.5491C77.1248 34.5491 77.1248 34.5524 77.1281 34.5557C77.3365 34.5752 77.5547 34.5491 77.7273 34.4382C77.7469 34.4513 77.7664 34.4578 77.786 34.4708C77.6557 34.572 77.5091 34.647 77.3431 34.6861C77.3268 34.6894 77.33 34.7155 77.3463 34.7155C77.558 34.7253 77.7599 34.6731 77.9293 34.5557C77.9651 34.5752 78.0042 34.5915 78.04 34.6111C77.9195 34.6992 77.7957 34.7775 77.6557 34.8427C77.6427 34.8492 77.6492 34.8721 77.6622 34.8721C77.8478 34.8786 78.0107 34.784 78.1572 34.6731C78.2028 34.6959 78.2484 34.7122 78.2973 34.7318C78.2354 34.7938 78.1637 34.8525 78.0954 34.9112C78.0856 34.921 78.0954 34.9341 78.1084 34.9341C78.2256 34.9047 78.3331 34.8558 78.4243 34.7873C79.4697 35.2179 80.6942 35.2309 81.7429 34.8525C81.8536 34.8068 81.7689 34.7677 81.6419 34.7873Z" fill="#3F4553" data-darkreader-inline-fill="" style="--darkreader-inline-fill: var(--darkreader-text-3f4553, #b1aba2);"></path>
<path d="M86.3217 34.7873C87.4616 34.9765 89.3146 35.0384 90.3666 33.9098C90.575 33.6847 90.8583 33.9391 90.5978 34.1642C90.5555 34.2001 90.5131 34.2327 90.4708 34.2653C90.5978 34.3012 90.7248 34.3175 90.8616 34.3077C90.8648 34.3077 90.8648 34.311 90.8616 34.3143C90.6955 34.3697 90.5261 34.386 90.3601 34.3534C90.3568 34.3567 90.3535 34.3599 90.3503 34.3599C90.4936 34.4545 90.6662 34.4937 90.8355 34.5491C90.8388 34.5491 90.8388 34.5524 90.8355 34.5557C90.6271 34.5752 90.4089 34.5491 90.2363 34.4382C90.2168 34.4513 90.1972 34.4578 90.1777 34.4708C90.3079 34.572 90.4545 34.647 90.6206 34.6861C90.6369 34.6894 90.6336 34.7155 90.6173 34.7155C90.4056 34.7253 90.2037 34.6731 90.0344 34.5557C89.9986 34.5752 89.9595 34.5915 89.9236 34.6111C90.0441 34.6992 90.1679 34.7775 90.3079 34.8427C90.321 34.8492 90.3145 34.8721 90.3014 34.8721C90.1158 34.8786 89.953 34.784 89.8064 34.6731C89.7608 34.6959 89.7152 34.7122 89.6696 34.7318C89.7315 34.7938 89.8032 34.8525 89.8715 34.9112C89.8813 34.921 89.8715 34.9341 89.8585 34.9341C89.7413 34.9047 89.6338 34.8558 89.5426 34.7873C88.4972 35.2179 87.2727 35.2309 86.2207 34.8525C86.1133 34.8068 86.1947 34.7677 86.3217 34.7873Z" fill="#3F4553" data-darkreader-inline-fill="" style="--darkreader-inline-fill: var(--darkreader-text-3f4553, #b1aba2);"></path>
<path d="M84.7001 37.1657C84.166 37.443 83.6352 37.5539 83.0848 37.2212C83.0457 37.1984 83.0001 37.2538 83.0359 37.2864C83.5082 37.7073 84.3484 37.8149 84.8206 37.3223C84.8988 37.2375 84.8011 37.1135 84.7001 37.1657Z" fill="#3F4553" data-darkreader-inline-fill="" style="--darkreader-inline-fill: var(--darkreader-text-3f4553, #b1aba2);"></path>
<path d="M85.921 39.0898C85.2533 39.2888 84.5955 39.3638 83.9441 39.3345C83.2928 39.3638 82.6349 39.2888 81.9673 39.0898C81.951 39.0833 81.938 39.1126 81.9543 39.1192C82.5958 39.3932 83.27 39.54 83.9441 39.5563C84.6183 39.54 85.2924 39.3932 85.934 39.1192C85.9503 39.1126 85.9372 39.0865 85.921 39.0898Z" fill="#3F4553" data-darkreader-inline-fill="" style="--darkreader-inline-fill: var(--darkreader-text-3f4553, #b1aba2);"></path>
<path d="M80.883 36.3853C80.8277 36.3592 80.7691 36.3363 80.7104 36.32C79.9647 36.1276 79.0821 35.7622 78.3037 35.896C77.7533 35.9906 77.6263 36.6593 77.939 37.054C78.2744 37.4781 78.9323 37.5988 79.4403 37.6379C79.9516 37.6771 80.7528 37.7325 81.1338 37.3313C81.479 36.9692 81.2445 36.5614 80.883 36.3853Z" fill="#FBAD8B" data-darkreader-inline-fill="" style="--darkreader-inline-fill: var(--darkreader-text-fbad8b, #ee9b76);"></path>
<path d="M86.9794 36.3853C87.0348 36.3592 87.0934 36.3363 87.1521 36.32C87.8978 36.1276 88.7804 35.7622 89.5588 35.896C90.1092 35.9906 90.2362 36.6593 89.9235 37.054C89.5881 37.4781 88.9302 37.5988 88.4222 37.6379C87.9109 37.6771 87.1097 37.7325 86.7287 37.3313C86.3835 36.9692 86.6212 36.5614 86.9794 36.3853Z" fill="#FBAD8B" data-darkreader-inline-fill="" style="--darkreader-inline-fill: var(--darkreader-text-fbad8b, #ee9b76);"></path>
<path d="M74.0933 31.5017C73.3214 31.3875 72.4942 31.7072 72.6343 32.6238C72.745 33.3546 73.5299 34.082 74.7284 33.8634C74.4027 33.1066 74.178 32.3107 74.0933 31.5017Z" fill="#F9CDB9" data-darkreader-inline-fill="" style="--darkreader-inline-fill: var(--darkreader-text-f9cdb9, #ebb197);"></path>
<path d="M73.3476 32.2195C73.5593 32.0434 73.8882 31.9651 74.1716 32.0108C74.1553 31.9227 74.1455 31.8314 74.1325 31.7433C73.745 31.7074 73.289 31.8672 73.0676 32.1478C72.7223 32.5882 72.9829 33.0775 73.3639 33.3776C73.4193 33.4233 73.4974 33.3515 73.4453 33.296C73.1685 33.0025 72.9764 32.5294 73.3476 32.2195Z" fill="#F8C4AB" data-darkreader-inline-fill="" style="--darkreader-inline-fill: var(--darkreader-text-f8c4ab, #eaac8e);"></path>
<path d="M74.325 32.7084C74.1231 32.5257 73.8593 32.4246 73.5564 32.4376C73.488 32.4409 73.462 32.5551 73.5401 32.5649C73.8169 32.604 74.0547 32.7476 74.2012 32.9694C74.0319 33.0607 73.9081 33.2597 74.0807 33.4228C74.2175 33.5533 74.4194 33.5827 74.6116 33.5631C74.5041 33.2825 74.4032 32.9987 74.325 32.7084Z" fill="#F8C4AB" data-darkreader-inline-fill="" style="--darkreader-inline-fill: var(--darkreader-text-f8c4ab, #eaac8e);"></path>
<path d="M74.0251 33.6517C74.0218 33.6485 74.0153 33.6517 74.0186 33.655C74.1423 33.9616 74.3182 34.6793 73.8948 34.8261C73.6115 34.924 73.5854 34.5586 73.6278 34.3661C73.6669 34.19 73.7646 34.0073 73.846 33.8507C73.846 33.8507 73.6506 33.8083 73.4714 33.717C73.2272 33.9258 73.1393 34.2357 73.1816 34.5619C73.2207 34.8587 73.4096 35.1849 73.745 35.1947C74.0446 35.2045 74.2596 34.9468 74.3052 34.6728C74.3573 34.3172 74.214 33.9421 74.0251 33.6517Z" fill="#FDCA27" data-darkreader-inline-fill="" style="--darkreader-inline-fill: var(--darkreader-text-fdca27, #f0c432);"></path>
<path d="M136.345 89.8318C134.515 87.6494 130.555 87.4733 127.956 87.2025C120.143 86.387 112.132 86.5892 104.315 87.2221C100.424 87.5385 96.5514 88.0115 92.6954 88.6346C89.9044 89.088 86.7877 89.4045 84 90.2983C81.2122 89.4045 78.0955 89.0848 75.3045 88.6346C71.4518 88.0083 67.5763 87.5353 63.6845 87.2221C55.8683 86.5892 47.8535 86.387 40.0439 87.2025C37.4483 87.4733 33.4848 87.6494 31.6546 89.8318C29.8862 91.9391 32.0682 94.4934 33.7486 95.8341C36.0707 97.687 39.018 98.6004 41.8318 99.3996C45.3654 100.398 48.9804 101.076 52.6149 101.592C68.8822 103.888 77.7145 102.195 86.2178 102.091C86.5435 102.505 86.8496 102.936 87.1297 103.383C95.7502 103.438 106.823 102.75 115.382 101.592C119.02 101.099 122.631 100.401 126.165 99.3996C128.982 98.6037 131.926 97.6903 134.248 95.8341C135.928 94.4934 138.111 91.9391 136.345 89.8318Z" fill="#93BFA8" data-darkreader-inline-fill="" style="--darkreader-inline-fill: var(--darkreader-background-93bfa8, #365c4d);"></path>
<path d="M124.803 91.3424C125.074 90.9966 126.712 90.5693 127.357 90.2822C124.318 90.5269 121.267 90.8922 118.235 91.2054C112.467 91.7991 106.693 93.3291 101.228 95.2439C98.6128 96.1606 96.0042 97.1229 93.4053 98.0885C91.3471 98.8518 89.3116 99.6869 87.3804 100.728C87.6767 100.636 87.9731 100.545 88.2695 100.457C91.3503 99.5499 103.905 92.7484 127.152 91.91C126.614 91.7926 124.699 91.4762 124.803 91.3424Z" fill="#66A986" data-darkreader-inline-fill="" style="--darkreader-inline-fill: var(--darkreader-background-66a986, #437662);"></path>
<path d="M43.5381 90.8629C43.2678 90.5171 41.6297 90.0898 40.9849 89.8027C44.0234 90.0474 47.0749 90.4127 50.107 90.7259C55.8746 91.3196 61.6488 92.8496 67.1136 94.7644C69.7287 95.6811 72.3374 96.6434 74.9363 97.609C76.9945 98.3723 79.03 99.2074 80.9612 100.248C80.6648 100.157 80.3685 100.065 80.0721 99.9773C76.9912 99.0704 64.4366 92.2689 41.19 91.4305C41.7241 91.3131 43.6391 90.9967 43.5381 90.8629Z" fill="#66A986" data-darkreader-inline-fill="" style="--darkreader-inline-fill: var(--darkreader-background-66a986, #437662);"></path>
<path d="M91.8586 98.0757C90.5494 97.5505 89.1653 97.5375 87.8919 98.0822C85.7164 99.0185 83.0492 97.5831 80.789 97.8408C78.708 98.079 77.4411 100.451 79.0336 101.964C79.4179 102.33 83.2804 103.732 89.3998 100.875C90.0707 100.561 90.7253 100.382 91.4841 100.392C91.66 100.395 91.8261 100.561 92.0117 100.542C92.409 100.493 92.7347 100.421 92.9561 100.036C93.4772 99.1294 92.6077 98.3758 91.8586 98.0757Z" fill="#FDB597" data-darkreader-inline-fill="" style="--darkreader-inline-fill: var(--darkreader-text-fdb597, #f0a07d);"></path>
<path d="M76.5842 102.887C77.6882 102.01 79.0137 101.599 80.3848 101.759C82.7361 102.033 84.8823 99.8926 87.1229 99.4914C89.1845 99.1227 91.0766 101.031 89.9824 102.943C89.7186 103.403 86.4162 105.852 79.7367 104.867C79.0039 104.76 78.3265 104.776 77.6035 105.001C77.4374 105.053 77.3235 105.262 77.1378 105.295C76.7438 105.363 76.4116 105.386 76.0891 105.083C75.3336 104.362 75.9524 103.39 76.5842 102.887Z" fill="#FDBCA0" data-darkreader-inline-fill="" style="--darkreader-inline-fill: var(--darkreader-text-fdbca0, #f0a484);"></path>
<path d="M120.967 49.297C120.214 49.6852 119.423 50.1224 118.684 50.5301C119.074 50.2104 121.243 47.9987 122.087 47.4539C122.178 47.3952 121.963 46.4981 119.745 48.2727C119.084 48.8012 118.303 49.3362 117.681 49.9136C118.472 48.4097 119.133 46.8863 120.169 45.5097C120.211 45.4543 120.198 45.3923 120.162 45.3499C119.95 45.1835 119.42 45.3727 119.182 45.6272C118.758 46.0773 117.15 47.8193 116.368 49.6559C116.381 49.0263 116.326 48.0052 115.88 47.7965C115.599 47.6627 115.134 47.8389 114.834 47.8617C114.245 47.9041 113.473 47.9889 112.922 47.7541C112.841 47.7214 112.636 47.6953 112.711 47.9661C112.962 48.8534 114.199 48.9643 114.968 49.16C115.228 49.7929 114.495 50.8302 114.033 51.1434C113.281 51.6556 112.183 51.1532 112.372 50.1485C112.538 49.2644 113.066 48.8632 112.6 47.9955C112.447 47.7084 111.789 47.4474 111.936 47.9106C112.313 49.0948 111.229 50.0897 111.089 51.2347C110.978 52.1416 111.457 52.9474 111.939 53.6748C111.91 53.7498 111.887 53.8249 111.861 53.8966C111.206 55.0319 110.698 56.2291 110.33 57.4817C111.17 57.759 113.639 57.5828 113.629 57.5633C113.639 57.5828 113.926 55.8278 114.583 55.0873C115.303 54.275 116.208 53.6487 117.075 53.0093C118.895 51.6621 120.745 50.354 122.621 49.0817C122.728 49.0132 122.64 48.4326 120.967 49.297Z" fill="#FDBCA0" data-darkreader-inline-fill="" style="--darkreader-inline-fill: var(--darkreader-text-fdbca0, #f0a484);"></path>
<path d="M47.2314 49.297C47.9837 49.6852 48.775 50.1224 49.5143 50.5301C49.1235 50.2104 46.9545 47.9987 46.111 47.4539C46.0199 47.3952 46.2348 46.4981 48.4526 48.2727C49.1137 48.8012 49.8954 49.3362 50.5174 49.9136C49.726 48.4097 49.0649 46.8863 48.0293 45.5097C47.9869 45.4543 47.9999 45.3923 48.0358 45.3499C48.2475 45.1835 48.7783 45.3727 49.016 45.6272C49.4394 46.0773 51.0482 47.8193 51.8299 49.6559C51.8168 49.0263 51.8722 48.0052 52.3184 47.7965C52.5984 47.6627 53.0642 47.8389 53.3638 47.8617C53.9532 47.9041 54.7251 47.9889 55.2755 47.7541C55.3569 47.7214 55.5621 47.6953 55.4872 47.9661C55.2364 48.8534 53.9988 48.9643 53.2302 49.16C52.9697 49.7929 53.7025 50.8302 54.1649 51.1434C54.9172 51.6556 56.0148 51.1532 55.8259 50.1485C55.6598 49.2644 55.1322 48.8632 55.5979 47.9955C55.751 47.7084 56.4088 47.4474 56.2623 47.9106C55.8845 49.0948 56.969 50.0897 57.109 51.2347C57.2197 52.1416 56.741 52.9474 56.259 53.6748C56.2883 53.7498 56.3111 53.8249 56.3372 53.8966C56.9918 55.0319 57.4998 56.2291 57.8678 57.4817C57.0276 57.759 54.559 57.5828 54.5688 57.5633C54.559 57.5828 54.2724 55.8278 53.6145 55.0873C52.8948 54.275 51.9894 53.6487 51.1231 53.0093C49.3026 51.6621 47.4528 50.354 45.5769 49.0817C45.4695 49.0132 45.5574 48.4326 47.2314 49.297Z" fill="#FDBCA0" data-darkreader-inline-fill="" style="--darkreader-inline-fill: var(--darkreader-text-fdbca0, #f0a484);"></path>
<path d="M109.451 56.3267C108.23 59.4812 104.088 71.127 102.358 76.0659C101.329 73.4235 98.5479 61.9506 96.2063 48.6314C95.4768 44.4917 90.8164 45.0822 88.3217 45.4965C88.1426 48.2758 85.4493 55.9809 84.0033 55.9973C82.5573 55.9809 79.6914 48.8206 79.6849 45.4965C77.1935 45.0822 72.5299 44.4917 71.8004 48.6314C69.4555 61.9506 66.6775 73.4268 65.6484 76.0659C63.9158 71.127 59.7765 59.4812 58.5552 56.3267C56.9888 57.0672 55.2562 57.475 53.5269 57.5761C54.8654 61.1416 59.2848 86.3905 65.7982 86.3905C68.6218 86.3905 70.4097 83.3861 73.2887 72.2557C73.432 74.1151 73.4808 77.6871 73.4092 81.4419C73.3571 84.1462 71.491 87.2713 68.9931 86.6678C68.4883 86.5471 67.8304 86.9288 68.4557 87.6073C68.625 87.7932 68.8432 87.9302 69.068 88.0346C73.0575 89.9266 73.2138 92.7549 75.5684 94.4023C76.9916 95.3972 78.7437 95.7104 80.4144 96.0497C82.2251 96.415 84.0912 96.689 85.9346 96.4118C88.9991 95.9518 91.3798 93.8999 93.9168 92.295C95.3335 91.3979 96.7729 90.6802 98.4371 90.4355C102.72 89.806 102.436 86.7787 101.541 86.8407C98.5413 87.0462 94.5909 83.2165 94.5681 79.0018C94.5519 76.1964 94.6072 73.7073 94.7179 72.2557C97.5969 83.3861 99.3848 86.3905 102.208 86.3905C108.722 86.3905 113.141 61.1416 114.48 57.5761C112.75 57.475 111.018 57.064 109.451 56.3267Z" fill="#F2EDE4" data-darkreader-inline-fill="" style="--darkreader-inline-fill: var(--darkreader-background-f2ede4, #302717);"></path>
<path d="M92.2203 67.3526C92.1878 67.3755 92.1617 67.3983 92.1357 67.4211C91.6048 67.9398 91.1912 68.5629 90.6701 69.0914C90.1491 69.6166 89.4749 70.0569 88.7356 70.0537C86.9607 70.0439 86.0716 67.9105 85.0034 66.8242C83.362 65.1605 81.7695 68.9511 80.5482 69.6948C79.2944 70.4582 78.4444 69.9982 77.5195 69.0946C76.9528 68.5401 76.4708 67.917 75.9465 67.3233C75.8097 67.1667 75.497 67.3331 75.5817 67.5353C76.194 69.0098 77.5781 71.4564 79.4051 71.4955C80.5254 71.5184 81.4438 70.8757 82.1798 70.0863C82.5413 69.6981 83.5379 67.6136 84.186 67.8876C84.3065 67.9398 84.3912 68.0475 84.4726 68.1519C84.795 68.5759 85.0946 69.0228 85.4398 69.4274C85.619 69.6361 86.1368 69.9819 86.1368 70.269C86.8695 71.016 87.8759 71.6032 88.9148 71.476C89.9765 71.3455 90.8167 70.5136 91.4322 69.6361C91.8686 69.0131 92.2366 68.3411 92.5265 67.6364C92.5688 67.5353 92.6046 67.4081 92.5297 67.3265C92.4483 67.2417 92.3246 67.2809 92.2203 67.3526Z" fill="#D9C9AC" data-darkreader-inline-fill="" style="--darkreader-inline-fill: var(--darkreader-text-d9c9ac, #c9b89a);"></path>
<g clip-path="url(#clip2_1_2329)">
<path d="M151.99 84.2956L163.136 80.5599L157.548 64.1602L146.403 67.8958C145.966 68.0415 145.73 68.511 145.881 68.9441L150.933 83.7735C151.08 84.2065 151.553 84.4413 151.99 84.2956Z" fill="#3F4553" data-darkreader-inline-fill="" style="--darkreader-inline-fill: var(--darkreader-text-3f4553, #b1aba2);"></path>
<path d="M151.998 83.9712L163.421 80.1424L158.038 64.3457L146.615 68.1745C146.334 68.2676 146.183 68.5711 146.276 68.8544L151.312 83.6352C151.41 83.9145 151.717 84.0643 151.998 83.9712Z" fill="#DDDDE3" data-darkreader-inline-fill="" style="--darkreader-inline-fill: var(--darkreader-text-dddde3, #c9c7c1);"></path>
<path d="M152.239 83.8911L163.662 80.0623L158.279 64.2656L146.856 68.0944C146.574 68.1875 146.423 68.491 146.517 68.7743L151.553 83.5552C151.651 83.8344 151.957 83.9882 152.239 83.8911Z" fill="#E2E5FF" data-darkreader-inline-fill="" style="--darkreader-inline-fill: var(--darkreader-text-e2e5ff, #afc9f2);"></path>
<path d="M152.855 84.0035L164.001 80.2678L158.414 63.8721L147.268 67.6077C146.832 67.7535 146.595 68.2229 146.746 68.656L151.798 83.4854C151.945 83.9185 152.419 84.1492 152.855 84.0035Z" fill="#4E5567" data-darkreader-inline-fill="" style="--darkreader-inline-fill: var(--darkreader-text-4e5567, #a6a095);"></path>
<path d="M157.789 64.0818L157.549 64.1621L163.136 80.562L163.376 80.4817L157.789 64.0818Z" fill="#3F4553" data-darkreader-inline-fill="" style="--darkreader-inline-fill: var(--darkreader-text-3f4553, #b1aba2);"></path>
<path d="M159.381 76.8931L159.63 76.367L160.152 76.6341L156.071 64.6581C155.998 64.4476 155.814 64.4638 155.602 64.5367C155.39 64.6095 155.23 64.7066 155.304 64.9171L159.381 76.8931Z" fill="#93BFA8" data-darkreader-inline-fill="" style="--darkreader-inline-fill: var(--darkreader-text-93bfa8, #8cb5a0);"></path>
<path d="M134.339 68.4307L141.84 59.6104L140.324 58.3422L132.822 67.1626L134.339 68.4307Z" fill="#3F4553" data-darkreader-inline-fill="" style="--darkreader-inline-fill: var(--darkreader-text-3f4553, #b1aba2);"></path>
<path d="M132.821 67.1592L134.335 68.426L132.147 69.62C132.074 69.6604 131.976 69.5754 132 69.4985L132.821 67.1592Z" fill="#F2EDE4" data-darkreader-inline-fill="" style="--darkreader-inline-fill: var(--darkreader-text-f2ede4, #dad0c0);"></path>
<path d="M132.152 69.624L132.744 69.3003L132.229 68.8672L132.009 69.4986C131.98 69.5755 132.078 69.6605 132.152 69.624Z" fill="#3F4553" data-darkreader-inline-fill="" style="--darkreader-inline-fill: var(--darkreader-text-3f4553, #b1aba2);"></path>
<path d="M133.836 68.0098L141.337 59.1895L140.823 58.7589L133.321 67.5793L133.836 68.0098Z" fill="#4E5567" data-darkreader-inline-fill="" style="--darkreader-inline-fill: var(--darkreader-text-4e5567, #a6a095);"></path>
</g>
<g clip-path="url(#clip3_1_2329)">
<path d="M51.5028 -16.6602C41.8335 -16.6602 34 -8.82664 34 0.8426C34 10.5063 41.8335 18.3454 51.5028 18.3454C61.1665 18.3454 69.0055 10.5118 69.0055 0.8426C69 -8.82664 61.1665 -16.6602 51.5028 -16.6602ZM51.5028 15.385C43.4708 15.385 36.9603 8.87457 36.9603 0.8426C36.9603 -7.18937 43.4708 -13.6998 51.5028 -13.6998C59.5347 -13.6998 66.0452 -7.18937 66.0452 0.8426C66.0452 8.87457 59.5347 15.385 51.5028 15.385Z" fill="#808AFF" data-darkreader-inline-fill="" style="--darkreader-inline-fill: var(--darkreader-background-808aff, #000a79);"></path>
<path d="M64.9208 6.4496C68.0194 -0.960329 64.5243 -9.47916 57.1144 -12.5777C49.7045 -15.6763 41.1856 -12.1813 38.087 -4.77135C34.9885 2.63857 38.4835 11.1574 45.8934 14.256C53.3034 17.3546 61.8222 13.8595 64.9208 6.4496Z" fill="#AEB4FC" data-darkreader-inline-fill="" style="--darkreader-inline-fill: var(--darkreader-text-aeb4fc, #8eb4ee);"></path>
<path d="M64.738 0.869493C64.738 -0.150354 63.1504 -0.155867 63.1504 0.869493C63.1504 1.89485 64.738 1.89485 64.738 0.869493Z" fill="#808AFF" data-darkreader-inline-fill="" style="--darkreader-inline-fill: var(--darkreader-text-808aff, #6da2f2);"></path>
<path d="M51.4686 14.0779C52.4885 14.0779 52.494 12.4902 51.4686 12.4902C50.4488 12.4902 50.4433 14.0779 51.4686 14.0779Z" fill="#808AFF" data-darkreader-inline-fill="" style="--darkreader-inline-fill: var(--darkreader-text-808aff, #6da2f2);"></path>
<path d="M38.2617 0.809921C38.2617 1.82977 39.8494 1.83528 39.8494 0.809921C39.8494 -0.209924 38.2617 -0.215437 38.2617 0.809921Z" fill="#808AFF" data-darkreader-inline-fill="" style="--darkreader-inline-fill: var(--darkreader-text-808aff, #6da2f2);"></path>
<path d="M57.7544 5.09262C57.6607 5.09262 57.5669 5.07057 57.4843 5.01544L51.2274 1.29439C51.0675 1.20067 50.9683 1.02426 50.9683 0.836832V-9.16317C50.9683 -9.45534 51.2053 -9.69238 51.4975 -9.69238C51.7897 -9.69238 52.0267 -9.45534 52.0267 -9.16317V0.539149L58.0245 4.10585C58.2781 4.25469 58.3608 4.57994 58.2064 4.83353C58.1127 4.99891 57.9363 5.09262 57.7544 5.09262Z" fill="#808AFF" data-darkreader-inline-fill="" style="--darkreader-inline-fill: var(--darkreader-text-808aff, #6da2f2);"></path>
</g>
<path d="M16.6207 36.7465L16.2715 34.7655L14.2463 35.1106C13.925 34.1857 13.4013 33.3712 12.7239 32.7086L13.9111 31.0451L12.249 29.8923L11.0688 31.5489C10.2168 31.1348 9.26706 30.907 8.27541 30.9139L7.91925 28.9053L5.915 29.2504L6.26417 31.2521C5.32839 31.5696 4.50434 32.0873 3.83392 32.7569L2.15091 31.5834L0.984669 33.2262L2.6607 34.3928C2.24169 35.2349 2.01124 36.1736 2.01822 37.1538L0 37.4989L0.349173 39.4799L2.37438 39.1348C2.69562 40.0597 3.21938 40.8742 3.89677 41.5369L2.70959 43.2004L4.37165 44.3531L5.55186 42.6965C6.40384 43.1106 7.35359 43.3384 8.34524 43.3315L8.7014 45.3402L10.7057 44.995L10.3565 42.9933C11.2923 42.6758 12.1163 42.1581 12.7867 41.4886L14.4697 42.662L15.636 41.0192L13.96 39.8527C14.379 39.0105 14.6094 38.0718 14.6024 37.0917L16.6207 36.7465ZM8.63157 38.9622C7.605 39.1417 6.62731 38.4583 6.44574 37.4437C6.26417 36.429 6.95553 35.4627 7.9821 35.2832C9.00867 35.1037 9.98636 35.7871 10.1679 36.8017C10.3495 37.8164 9.66512 38.7828 8.63157 38.9622Z" fill="#9BA3FF" data-darkreader-inline-fill="" style="--darkreader-inline-fill: var(--darkreader-text-9ba3ff, #7fadf2);"></path>
<path d="M35.7278 32.7497V30.2579H33.1788C32.9903 29.0569 32.5224 27.9524 31.838 26.9999L33.6467 25.2122L31.8659 23.452L30.0642 25.2329C29.1074 24.5495 27.9971 24.0732 26.782 23.8731V21.3398H24.2609V23.8593C23.0458 24.0456 21.9215 24.5081 20.9647 25.1845L19.156 23.3968L17.3752 25.1569L19.177 26.9378C18.4856 27.8834 18.0037 28.9809 17.8012 30.182H15.2383V32.6738H17.7872C17.9758 33.8748 18.4437 34.9792 19.1281 35.9318L17.3194 37.7195L19.1001 39.4796L20.9019 37.6988C21.8586 38.3821 22.969 38.8584 24.1841 39.0586V41.5918H26.7051V39.0724C27.9203 38.886 29.0376 38.4236 30.0013 37.7471L31.81 39.5349L33.5908 37.7747L31.7891 35.9939C32.4805 35.0482 32.9623 33.9507 33.1648 32.7497H35.7278ZM25.483 33.7851C24.1911 33.7851 23.1366 32.7497 23.1366 31.4658C23.1366 30.1889 24.1841 29.1466 25.483 29.1466C26.775 29.1466 27.8295 30.182 27.8295 31.4658C27.8225 32.7428 26.775 33.7851 25.483 33.7851Z" fill="#AEB4FC" data-darkreader-inline-fill="" style="--darkreader-inline-fill: var(--darkreader-text-aeb4fc, #8eb4ee);"></path>
<g opacity="0.3">
<path d="M153.995 14.237L135.266 10.0275C135.082 9.98752 134.966 9.80407 135.009 9.62061L137.367 -0.879618C137.407 -1.06307 137.591 -1.17981 137.774 -1.13645L156.503 3.07631C156.687 3.11634 156.803 3.2998 156.76 3.48325L154.398 13.9835C154.358 14.1636 154.178 14.2803 153.995 14.237Z" fill="#ECECEC" data-darkreader-inline-fill="" style="--darkreader-inline-fill: var(--darkreader-text-ececec, #d1cec9);"></path>
<path d="M135.319 9.78037C135.269 9.77036 135.239 9.72033 135.253 9.67363L137.614 -0.826604C137.624 -0.876637 137.674 -0.906657 137.721 -0.893315L156.45 3.31945C156.5 3.32946 156.53 3.37949 156.517 3.42619L154.155 13.9264C154.145 13.9765 154.095 14.0065 154.048 13.9931L135.319 9.78037Z" fill="#F5F4F5" data-darkreader-inline-fill="" style="--darkreader-inline-fill: var(--darkreader-text-f5f4f5, #d6d4d0);"></path>
<path d="M153.867 2.4804L140.414 -0.544922L140.359 -0.300862L153.812 2.72446L153.867 2.4804Z" fill="#706F6E" data-darkreader-inline-fill="" style="--darkreader-inline-fill: var(--darkreader-text-706f6e, #9a9287);"></path>
<path d="M139.105 0.964361L138.485 0.824269C138.408 0.807592 138.358 0.730874 138.375 0.650822L138.472 0.213868C138.488 0.137151 138.565 0.0871183 138.645 0.103796L139.265 0.243887C139.342 0.260565 139.392 0.337282 139.375 0.417335L139.279 0.854289C139.259 0.931006 139.182 0.981038 139.105 0.964361Z" fill="#585857" data-darkreader-inline-fill="" style="--darkreader-inline-fill: var(--darkreader-text-585857, #a8a298);"></path>
<path d="M138.511 0.701075C138.501 0.69774 138.495 0.687733 138.498 0.677727L138.595 0.240773C138.598 0.230766 138.608 0.224095 138.618 0.22743L139.238 0.367523C139.248 0.370858 139.255 0.380865 139.252 0.390871L139.155 0.827824C139.152 0.837831 139.142 0.844502 139.132 0.841167L138.511 0.701075Z" fill="#5E5E5D" data-darkreader-inline-fill="" style="--darkreader-inline-fill: var(--darkreader-text-5e5e5d, #a49e93);"></path>
<path d="M140.242 1.21827L139.622 1.07818C139.545 1.0615 139.495 0.984781 139.512 0.904728L139.609 0.467775C139.625 0.391058 139.702 0.341025 139.782 0.357702L140.403 0.497795C140.479 0.514472 140.529 0.59119 140.513 0.671242L140.416 1.1082C140.396 1.18825 140.319 1.23495 140.242 1.21827Z" fill="#585857" data-darkreader-inline-fill="" style="--darkreader-inline-fill: var(--darkreader-text-585857, #a8a298);"></path>
<path d="M139.648 0.957911C139.638 0.954576 139.632 0.944568 139.635 0.934561L139.732 0.497608C139.735 0.487602 139.745 0.480931 139.755 0.484266L140.376 0.624359C140.386 0.627694 140.392 0.637701 140.389 0.647707L140.292 1.08466C140.289 1.09467 140.279 1.10134 140.269 1.098L139.648 0.957911Z" fill="#5E5E5D" data-darkreader-inline-fill="" style="--darkreader-inline-fill: var(--darkreader-text-5e5e5d, #a49e93);"></path>
<path d="M141.38 1.4751L140.759 1.33501C140.683 1.31833 140.633 1.24162 140.649 1.16156L140.746 0.724611C140.763 0.647894 140.839 0.59786 140.919 0.614538L141.54 0.754631C141.617 0.771308 141.667 0.848026 141.65 0.928078L141.553 1.36503C141.533 1.44175 141.456 1.49178 141.38 1.4751Z" fill="#585857" data-darkreader-inline-fill="" style="--darkreader-inline-fill: var(--darkreader-text-585857, #a8a298);"></path>
<path d="M140.786 1.21182C140.776 1.20848 140.77 1.19848 140.773 1.18847L140.87 0.751515C140.873 0.741508 140.883 0.734837 140.893 0.738172L141.513 0.878265C141.523 0.881601 141.53 0.891607 141.527 0.901614L141.43 1.33857C141.427 1.34857 141.417 1.35524 141.407 1.35191L140.786 1.21182Z" fill="#5E5E5D" data-darkreader-inline-fill="" style="--darkreader-inline-fill: var(--darkreader-text-5e5e5d, #a49e93);"></path>
<path d="M142.517 1.72901L141.897 1.58892C141.82 1.57224 141.77 1.49552 141.787 1.41547L141.884 0.978516C141.9 0.901799 141.977 0.851767 142.057 0.868444L142.677 1.00854C142.754 1.02521 142.804 1.10193 142.788 1.18198L142.691 1.61894C142.671 1.69899 142.594 1.74902 142.517 1.72901Z" fill="#585857" data-darkreader-inline-fill="" style="--darkreader-inline-fill: var(--darkreader-text-585857, #a8a298);"></path>
<path d="M141.924 1.46865C141.914 1.46532 141.907 1.45531 141.911 1.4453L142.007 1.00835C142.011 0.998344 142.021 0.991673 142.031 0.995008L142.651 1.1351C142.661 1.13844 142.668 1.14844 142.664 1.15845L142.568 1.5954C142.564 1.60541 142.554 1.61208 142.544 1.60874L141.924 1.46865Z" fill="#5E5E5D" data-darkreader-inline-fill="" style="--darkreader-inline-fill: var(--darkreader-text-5e5e5d, #a49e93);"></path>
<path d="M143.651 1.98585L143.031 1.84575C142.954 1.82908 142.904 1.75236 142.921 1.67231L143.017 1.23535C143.034 1.15863 143.111 1.1086 143.191 1.12528L143.811 1.26537C143.888 1.28205 143.938 1.35877 143.921 1.43882L143.825 1.87577C143.808 1.95583 143.731 2.00252 143.651 1.98585Z" fill="#585857" data-darkreader-inline-fill="" style="--darkreader-inline-fill: var(--darkreader-text-585857, #a8a298);"></path>
<path d="M143.061 1.72549C143.051 1.72215 143.044 1.71215 143.048 1.70214L143.144 1.26519C143.148 1.25518 143.158 1.24851 143.168 1.25184L143.788 1.39194C143.798 1.39527 143.805 1.40528 143.802 1.41529L143.705 1.85224C143.702 1.86225 143.691 1.86892 143.681 1.86558L143.061 1.72549Z" fill="#5E5E5D" data-darkreader-inline-fill="" style="--darkreader-inline-fill: var(--darkreader-text-5e5e5d, #a49e93);"></path>
<path d="M144.789 2.24268L144.168 2.10259C144.092 2.08591 144.042 2.0092 144.058 1.92914L144.155 1.49219C144.172 1.41547 144.249 1.36544 144.329 1.38212L144.949 1.52221C145.026 1.53889 145.076 1.6156 145.059 1.69566L144.962 2.13261C144.946 2.20933 144.869 2.25936 144.789 2.24268Z" fill="#585857" data-darkreader-inline-fill="" style="--darkreader-inline-fill: var(--darkreader-text-585857, #a8a298);"></path>
<path d="M144.198 1.97842C144.188 1.97508 144.182 1.96508 144.185 1.95507L144.282 1.51812C144.285 1.50811 144.295 1.50144 144.305 1.50477L144.925 1.64487C144.935 1.6482 144.942 1.65821 144.939 1.66821L144.842 2.10517C144.839 2.11517 144.829 2.12185 144.819 2.11851L144.198 1.97842Z" fill="#5E5E5D" data-darkreader-inline-fill="" style="--darkreader-inline-fill: var(--darkreader-text-5e5e5d, #a49e93);"></path>
<path d="M145.927 2.49561L145.306 2.35552C145.229 2.33884 145.179 2.26212 145.196 2.18207L145.293 1.74512C145.309 1.6684 145.386 1.61837 145.466 1.63505L146.087 1.77514C146.163 1.79182 146.213 1.86853 146.197 1.94858L146.1 2.38554C146.083 2.46559 146.003 2.51562 145.927 2.49561Z" fill="#585857" data-darkreader-inline-fill="" style="--darkreader-inline-fill: var(--darkreader-text-585857, #a8a298);"></path>
<path d="M145.336 2.23525C145.326 2.23192 145.319 2.22191 145.323 2.21191L145.419 1.77495C145.423 1.76494 145.433 1.75827 145.443 1.76161L146.063 1.9017C146.073 1.90504 146.08 1.91504 146.076 1.92505L145.98 2.362C145.976 2.37201 145.966 2.37868 145.956 2.37535L145.336 2.23525Z" fill="#5E5E5D" data-darkreader-inline-fill="" style="--darkreader-inline-fill: var(--darkreader-text-5e5e5d, #a49e93);"></path>
<path d="M147.064 2.75245L146.443 2.61236C146.367 2.59568 146.317 2.51896 146.333 2.43891L146.43 2.00195C146.447 1.92524 146.523 1.8752 146.603 1.89188L147.224 2.03197C147.301 2.04865 147.351 2.12537 147.334 2.20542L147.237 2.64237C147.217 2.72243 147.14 2.76912 147.064 2.75245Z" fill="#585857" data-darkreader-inline-fill="" style="--darkreader-inline-fill: var(--darkreader-text-585857, #a8a298);"></path>
<path d="M146.473 2.49209C146.463 2.48876 146.457 2.47875 146.46 2.46874L146.557 2.03179C146.56 2.02178 146.57 2.01511 146.58 2.01845L147.2 2.15854C147.21 2.16187 147.217 2.17188 147.214 2.18189L147.117 2.61884C147.114 2.62885 147.104 2.63552 147.094 2.63218L146.473 2.49209Z" fill="#5E5E5D" data-darkreader-inline-fill="" style="--darkreader-inline-fill: var(--darkreader-text-5e5e5d, #a49e93);"></path>
<path d="M148.201 3.00928L147.581 2.86919C147.504 2.85251 147.454 2.7758 147.471 2.69574L147.568 2.25879C147.584 2.18207 147.661 2.13204 147.741 2.14872L148.362 2.28881C148.438 2.30549 148.488 2.3822 148.472 2.46226L148.375 2.89921C148.355 2.97593 148.278 3.02596 148.201 3.00928Z" fill="#585857" data-darkreader-inline-fill="" style="--darkreader-inline-fill: var(--darkreader-text-585857, #a8a298);"></path>
<path d="M147.607 2.746C147.597 2.74266 147.591 2.73265 147.594 2.72265L147.691 2.28569C147.694 2.27569 147.704 2.26902 147.714 2.27235L148.335 2.41244C148.345 2.41578 148.351 2.42579 148.348 2.43579L148.251 2.87275C148.248 2.88275 148.238 2.88942 148.228 2.88609L147.607 2.746Z" fill="#5E5E5D" data-darkreader-inline-fill="" style="--darkreader-inline-fill: var(--darkreader-text-5e5e5d, #a49e93);"></path>
<path d="M149.339 3.26319L148.718 3.1231C148.642 3.10642 148.592 3.0297 148.608 2.94965L148.705 2.5127C148.722 2.43598 148.798 2.38595 148.878 2.40262L149.499 2.54272C149.575 2.55939 149.626 2.63611 149.609 2.71616L149.512 3.15312C149.492 3.23317 149.415 3.2832 149.339 3.26319Z" fill="#585857" data-darkreader-inline-fill="" style="--darkreader-inline-fill: var(--darkreader-text-585857, #a8a298);"></path>
<path d="M148.745 3.00283C148.735 2.9995 148.728 2.98949 148.731 2.97948L148.828 2.54253C148.831 2.53252 148.841 2.52585 148.851 2.52919L149.472 2.66928C149.482 2.67261 149.489 2.68262 149.485 2.69263L149.388 3.12958C149.385 3.13959 149.375 3.14626 149.365 3.14292L148.745 3.00283Z" fill="#5E5E5D" data-darkreader-inline-fill="" style="--darkreader-inline-fill: var(--darkreader-text-5e5e5d, #a49e93);"></path>
<path d="M150.476 3.52002L149.855 3.37993C149.779 3.36326 149.729 3.28654 149.745 3.20649L149.842 2.76953C149.859 2.69281 149.936 2.64278 150.016 2.65946L150.636 2.79955C150.713 2.81623 150.763 2.89295 150.746 2.973L150.649 3.40995C150.629 3.49001 150.553 3.5367 150.476 3.52002Z" fill="#585857" data-darkreader-inline-fill="" style="--darkreader-inline-fill: var(--darkreader-text-585857, #a8a298);"></path>
<path d="M149.882 3.25967C149.872 3.25633 149.865 3.24633 149.869 3.23632L149.965 2.79937C149.969 2.78936 149.979 2.78269 149.989 2.78602L150.609 2.92612C150.619 2.92945 150.626 2.93946 150.622 2.94946L150.526 3.38642C150.522 3.39642 150.512 3.4031 150.502 3.39976L149.882 3.25967Z" fill="#5E5E5D" data-darkreader-inline-fill="" style="--darkreader-inline-fill: var(--darkreader-text-5e5e5d, #a49e93);"></path>
<path d="M151.613 3.77686L150.993 3.63677C150.916 3.62009 150.866 3.54337 150.883 3.46332L150.979 3.02637C150.996 2.94965 151.073 2.89962 151.153 2.9163L151.773 3.05639C151.85 3.07307 151.9 3.14978 151.883 3.22983L151.787 3.66679C151.767 3.74351 151.69 3.79354 151.613 3.77686Z" fill="#585857" data-darkreader-inline-fill="" style="--darkreader-inline-fill: var(--darkreader-text-585857, #a8a298);"></path>
<path d="M151.02 3.5126C151.01 3.50926 151.003 3.49926 151.006 3.48925L151.103 3.0523C151.106 3.04229 151.116 3.03562 151.126 3.03895L151.747 3.17905C151.757 3.18238 151.763 3.19239 151.76 3.20239L151.663 3.63935C151.66 3.64935 151.65 3.65603 151.64 3.65269L151.02 3.5126Z" fill="#5E5E5D" data-darkreader-inline-fill="" style="--darkreader-inline-fill: var(--darkreader-text-5e5e5d, #a49e93);"></path>
<path d="M152.751 4.02979L152.13 3.8897C152.054 3.87302 152.004 3.7963 152.02 3.71625L152.117 3.2793C152.134 3.20258 152.21 3.15255 152.29 3.16923L152.911 3.30932C152.988 3.326 153.038 3.40271 153.021 3.48277L152.924 3.91972C152.904 3.99977 152.827 4.0498 152.751 4.02979Z" fill="#585857" data-darkreader-inline-fill="" style="--darkreader-inline-fill: var(--darkreader-text-585857, #a8a298);"></path>
<path d="M152.157 3.77041C152.147 3.76707 152.14 3.75707 152.143 3.74706L152.24 3.31011C152.244 3.3001 152.254 3.29343 152.264 3.29677L152.884 3.43686C152.894 3.44019 152.901 3.4502 152.897 3.46021L152.801 3.89716C152.797 3.90717 152.787 3.91384 152.777 3.9105L152.157 3.77041Z" fill="#5E5E5D" data-darkreader-inline-fill="" style="--darkreader-inline-fill: var(--darkreader-text-5e5e5d, #a49e93);"></path>
<path d="M153.888 4.28663L153.268 4.14653C153.191 4.12986 153.141 4.05314 153.158 3.97309L153.254 3.53613C153.271 3.45942 153.348 3.40938 153.428 3.42606L154.048 3.56615C154.125 3.58283 154.175 3.65955 154.158 3.7396L154.061 4.17655C154.041 4.25661 153.965 4.30331 153.888 4.28663Z" fill="#585857" data-darkreader-inline-fill="" style="--darkreader-inline-fill: var(--darkreader-text-585857, #a8a298);"></path>
<path d="M153.294 4.02725C153.284 4.02391 153.278 4.0139 153.281 4.0039L153.378 3.56694C153.381 3.55694 153.391 3.55027 153.401 3.5536L154.022 3.69369C154.032 3.69703 154.038 3.70704 154.035 3.71704L153.938 4.154C153.935 4.164 153.925 4.17067 153.915 4.16734L153.294 4.02725Z" fill="#5E5E5D" data-darkreader-inline-fill="" style="--darkreader-inline-fill: var(--darkreader-text-5e5e5d, #a49e93);"></path>
<path d="M155.022 4.54346L154.402 4.40337C154.325 4.38669 154.275 4.30998 154.292 4.22992L154.389 3.79297C154.405 3.71625 154.482 3.66622 154.562 3.6829L155.182 3.82299C155.259 3.83967 155.309 3.91638 155.292 3.99644L155.196 4.43339C155.179 4.51011 155.102 4.56014 155.022 4.54346Z" fill="#585857" data-darkreader-inline-fill="" style="--darkreader-inline-fill: var(--darkreader-text-585857, #a8a298);"></path>
<path d="M154.432 4.28018C154.422 4.27684 154.415 4.26683 154.418 4.25683L154.515 3.81987C154.518 3.80987 154.528 3.8032 154.538 3.80653L155.159 3.94662C155.169 3.94996 155.176 3.95997 155.172 3.96997L155.075 4.40693C155.072 4.41693 155.062 4.4236 155.052 4.42027L154.432 4.28018Z" fill="#5E5E5D" data-darkreader-inline-fill="" style="--darkreader-inline-fill: var(--darkreader-text-5e5e5d, #a49e93);"></path>
<path d="M138.471 0.974729L139.238 1.14818C139.325 1.16819 139.382 1.25491 139.362 1.34497L139.192 2.0988C139.171 2.18552 139.085 2.24223 138.995 2.22221L138.228 2.04877C138.141 2.02875 138.084 1.94203 138.104 1.85197L138.274 1.09814C138.294 1.01142 138.381 0.954716 138.471 0.974729Z" fill="#585857" data-darkreader-inline-fill="" style="--darkreader-inline-fill: var(--darkreader-text-585857, #a8a298);"></path>
<path d="M138.258 1.92578C138.238 1.92245 138.225 1.8991 138.228 1.87909L138.398 1.12526C138.401 1.10524 138.425 1.0919 138.445 1.09524L139.212 1.26868C139.232 1.27202 139.245 1.29537 139.242 1.31538L139.072 2.06921C139.069 2.08922 139.045 2.10257 139.025 2.09923L138.258 1.92578Z" fill="#5E5E5D" data-darkreader-inline-fill="" style="--darkreader-inline-fill: var(--darkreader-text-5e5e5d, #a49e93);"></path>
<path d="M139.782 1.27177L140.549 1.44522C140.636 1.46523 140.693 1.55195 140.673 1.64201L140.503 2.39584C140.483 2.48256 140.396 2.53927 140.306 2.51926L139.539 2.34581C139.452 2.3258 139.395 2.23907 139.415 2.14901L139.585 1.39518C139.605 1.30512 139.692 1.25176 139.782 1.27177Z" fill="#585857" data-darkreader-inline-fill="" style="--darkreader-inline-fill: var(--darkreader-text-585857, #a8a298);"></path>
<path d="M139.569 2.22266C139.549 2.21932 139.535 2.19597 139.539 2.17596L139.709 1.42213C139.712 1.40212 139.735 1.38878 139.755 1.39211L140.523 1.56556C140.543 1.5689 140.556 1.59224 140.553 1.61226L140.382 2.36608C140.379 2.3861 140.356 2.39944 140.336 2.3961L139.569 2.22266Z" fill="#5E5E5D" data-darkreader-inline-fill="" style="--darkreader-inline-fill: var(--darkreader-text-5e5e5d, #a49e93);"></path>
<path d="M141.093 1.56555L141.86 1.739C141.947 1.75901 142.004 1.84573 141.984 1.93579L141.814 2.68962C141.794 2.77634 141.707 2.83305 141.617 2.81304L140.85 2.63959C140.763 2.61957 140.706 2.53285 140.726 2.44279L140.896 1.68896C140.916 1.60224 141.006 1.54554 141.093 1.56555Z" fill="#585857" data-darkreader-inline-fill="" style="--darkreader-inline-fill: var(--darkreader-text-585857, #a8a298);"></path>
<path d="M140.88 2.51563C140.86 2.51229 140.846 2.48894 140.85 2.46893L141.02 1.7151C141.023 1.69509 141.046 1.68175 141.066 1.68508L141.834 1.85853C141.854 1.86186 141.867 1.88521 141.864 1.90523L141.694 2.65905C141.69 2.67907 141.667 2.69241 141.647 2.68907L140.88 2.51563Z" fill="#5E5E5D" data-darkreader-inline-fill="" style="--darkreader-inline-fill: var(--darkreader-text-5e5e5d, #a49e93);"></path>
<path d="M142.404 1.85852L143.171 2.03197C143.258 2.05198 143.315 2.1387 143.295 2.22876L143.125 2.98259C143.105 3.06931 143.018 3.12602 142.928 3.106L142.161 2.93256C142.074 2.91254 142.017 2.82582 142.037 2.73576L142.207 1.98193C142.227 1.89521 142.317 1.8385 142.404 1.85852Z" fill="#585857" data-darkreader-inline-fill="" style="--darkreader-inline-fill: var(--darkreader-text-585857, #a8a298);"></path>
<path d="M142.191 2.8125C142.171 2.80917 142.157 2.78582 142.161 2.7658L142.331 2.01198C142.334 1.99196 142.357 1.97862 142.377 1.98196L143.145 2.1554C143.165 2.15874 143.178 2.18209 143.175 2.2021L143.005 2.95593C143.001 2.97594 142.978 2.98928 142.958 2.98595L142.191 2.8125Z" fill="#5E5E5D" data-darkreader-inline-fill="" style="--darkreader-inline-fill: var(--darkreader-text-5e5e5d, #a49e93);"></path>
<path d="M143.715 2.15556L144.482 2.32901C144.569 2.34902 144.625 2.43574 144.605 2.5258L144.435 3.27963C144.415 3.36636 144.328 3.42306 144.238 3.40305L143.471 3.2296C143.384 3.20959 143.328 3.12286 143.348 3.0328L143.518 2.27897C143.541 2.18892 143.628 2.13555 143.715 2.15556Z" fill="#585857" data-darkreader-inline-fill="" style="--darkreader-inline-fill: var(--darkreader-text-585857, #a8a298);"></path>
<path d="M143.501 3.10645C143.481 3.10311 143.468 3.07976 143.471 3.05975L143.641 2.30592C143.645 2.28591 143.668 2.27257 143.688 2.2759L144.455 2.44935C144.475 2.45268 144.489 2.47603 144.485 2.49605L144.315 3.24988C144.312 3.26989 144.288 3.28323 144.268 3.2799L143.501 3.10645Z" fill="#5E5E5D" data-darkreader-inline-fill="" style="--darkreader-inline-fill: var(--darkreader-text-5e5e5d, #a49e93);"></path>
<path d="M145.026 2.44934L145.793 2.62279C145.88 2.6428 145.936 2.72952 145.916 2.81958L145.746 3.57341C145.726 3.66013 145.639 3.71684 145.549 3.69683L144.782 3.52338C144.696 3.50336 144.639 3.41664 144.659 3.32658L144.829 2.57275C144.852 2.48603 144.939 2.42933 145.026 2.44934Z" fill="#585857" data-darkreader-inline-fill="" style="--darkreader-inline-fill: var(--darkreader-text-585857, #a8a298);"></path>
<path d="M144.812 3.39942C144.792 3.39608 144.778 3.37273 144.782 3.35272L144.952 2.59889C144.955 2.57888 144.979 2.56553 144.999 2.56887L145.766 2.74232C145.786 2.74565 145.799 2.769 145.796 2.78901L145.626 3.54284C145.622 3.56286 145.599 3.5762 145.579 3.57286L144.812 3.39942Z" fill="#5E5E5D" data-darkreader-inline-fill="" style="--darkreader-inline-fill: var(--darkreader-text-5e5e5d, #a49e93);"></path>
<path d="M146.337 2.7454L147.104 2.91885C147.191 2.93886 147.247 3.02559 147.227 3.11565L147.057 3.86948C147.037 3.9562 146.95 4.0129 146.86 3.99289L146.093 3.81944C146.007 3.79943 145.95 3.71271 145.97 3.62265L146.14 2.86882C146.163 2.77876 146.25 2.72539 146.337 2.7454Z" fill="#585857" data-darkreader-inline-fill="" style="--darkreader-inline-fill: var(--darkreader-text-585857, #a8a298);"></path>
<path d="M146.123 3.69629C146.103 3.69296 146.089 3.66961 146.093 3.64959L146.263 2.89576C146.266 2.87575 146.29 2.86241 146.31 2.86575L147.077 3.03919C147.097 3.04253 147.11 3.06588 147.107 3.08589L146.937 3.83972C146.933 3.85973 146.91 3.87307 146.89 3.86974L146.123 3.69629Z" fill="#5E5E5D" data-darkreader-inline-fill="" style="--darkreader-inline-fill: var(--darkreader-text-5e5e5d, #a49e93);"></path>
<path d="M147.651 3.03918L148.418 3.21263C148.505 3.23264 148.561 3.31937 148.541 3.40943L148.371 4.16325C148.351 4.24998 148.264 4.30668 148.174 4.28667L147.407 4.11322C147.321 4.09321 147.264 4.00648 147.284 3.91643L147.454 3.1626C147.474 3.07587 147.561 3.01917 147.651 3.03918Z" fill="#585857" data-darkreader-inline-fill="" style="--darkreader-inline-fill: var(--darkreader-text-585857, #a8a298);"></path>
<path d="M147.434 3.99024C147.414 3.9869 147.4 3.96355 147.404 3.94354L147.574 3.18971C147.577 3.1697 147.601 3.15635 147.621 3.15969L148.388 3.33314C148.408 3.33647 148.421 3.35982 148.418 3.37984L148.248 4.13366C148.244 4.15368 148.221 4.16702 148.201 4.16368L147.434 3.99024Z" fill="#5E5E5D" data-darkreader-inline-fill="" style="--darkreader-inline-fill: var(--darkreader-text-5e5e5d, #a49e93);"></path>
<path d="M148.961 3.33313L149.728 3.50657C149.815 3.52659 149.872 3.61331 149.852 3.70337L149.682 4.4572C149.662 4.54392 149.575 4.60063 149.485 4.58061L148.718 4.40717C148.631 4.38715 148.574 4.30043 148.594 4.21037L148.764 3.45654C148.784 3.36982 148.871 3.31311 148.961 3.33313Z" fill="#585857" data-darkreader-inline-fill="" style="--darkreader-inline-fill: var(--darkreader-text-585857, #a8a298);"></path>
<path d="M148.748 4.28711C148.728 4.28378 148.715 4.26043 148.718 4.24041L148.888 3.48659C148.892 3.46657 148.915 3.45323 148.935 3.45657L149.702 3.63001C149.722 3.63335 149.736 3.6567 149.732 3.67671L149.562 4.43054C149.559 4.45055 149.535 4.46389 149.515 4.46056L148.748 4.28711Z" fill="#5E5E5D" data-darkreader-inline-fill="" style="--darkreader-inline-fill: var(--darkreader-text-5e5e5d, #a49e93);"></path>
<path d="M150.272 3.63017L151.039 3.80362C151.126 3.82363 151.183 3.91035 151.163 4.00041L150.993 4.75424C150.973 4.84096 150.886 4.89767 150.796 4.87766L150.029 4.70421C149.942 4.68419 149.885 4.59747 149.905 4.50741L150.076 3.75358C150.096 3.66352 150.182 3.61016 150.272 3.63017Z" fill="#585857" data-darkreader-inline-fill="" style="--darkreader-inline-fill: var(--darkreader-text-585857, #a8a298);"></path>
<path d="M150.059 4.58106C150.039 4.57772 150.025 4.55437 150.029 4.53436L150.199 3.78053C150.202 3.76052 150.226 3.74718 150.246 3.75051L151.013 3.92396C151.033 3.92729 151.046 3.95064 151.043 3.97066L150.873 4.72448C150.869 4.7445 150.846 4.75784 150.826 4.7545L150.059 4.58106Z" fill="#5E5E5D" data-darkreader-inline-fill="" style="--darkreader-inline-fill: var(--darkreader-text-5e5e5d, #a49e93);"></path>
<path d="M151.583 3.92297L152.351 4.09642C152.437 4.11643 152.494 4.20316 152.474 4.29321L152.304 5.04704C152.284 5.13377 152.197 5.19047 152.107 5.17046L151.343 4.99701C151.257 4.977 151.2 4.89027 151.22 4.80021L151.39 4.04639C151.407 3.95966 151.493 3.90296 151.583 3.92297Z" fill="#585857" data-darkreader-inline-fill="" style="--darkreader-inline-fill: var(--darkreader-text-585857, #a8a298);"></path>
<path d="M151.37 4.87402C151.35 4.87069 151.337 4.84734 151.34 4.82733L151.51 4.0735C151.513 4.05348 151.537 4.04014 151.557 4.04348L152.324 4.21693C152.344 4.22026 152.357 4.24361 152.354 4.26362L152.18 5.01745C152.177 5.03747 152.154 5.05081 152.134 5.04747L151.37 4.87402Z" fill="#5E5E5D" data-darkreader-inline-fill="" style="--darkreader-inline-fill: var(--darkreader-text-5e5e5d, #a49e93);"></path>
<path d="M152.894 4.22001L153.661 4.39346C153.748 4.41347 153.804 4.5002 153.784 4.59026L153.614 5.34408C153.594 5.43081 153.508 5.48751 153.418 5.4675L152.65 5.29405C152.564 5.27404 152.507 5.18731 152.527 5.09726L152.697 4.34343C152.717 4.25337 152.807 4.2 152.894 4.22001Z" fill="#585857" data-darkreader-inline-fill="" style="--darkreader-inline-fill: var(--darkreader-text-585857, #a8a298);"></path>
<path d="M152.681 5.1709C152.661 5.16756 152.648 5.14422 152.651 5.1242L152.821 4.37037C152.824 4.35036 152.848 4.33702 152.868 4.34035L153.635 4.5138C153.655 4.51714 153.668 4.54049 153.665 4.5605L153.495 5.31433C153.491 5.33434 153.468 5.34768 153.448 5.34435L152.681 5.1709Z" fill="#5E5E5D" data-darkreader-inline-fill="" style="--darkreader-inline-fill: var(--darkreader-text-5e5e5d, #a49e93);"></path>
<path d="M154.205 4.51379L154.972 4.68724C155.059 4.70725 155.116 4.79397 155.096 4.88403L154.925 5.63786C154.905 5.72459 154.819 5.78129 154.729 5.76128L153.961 5.58783C153.875 5.56782 153.818 5.48109 153.838 5.39103L154.011 4.63721C154.028 4.55048 154.118 4.49378 154.205 4.51379Z" fill="#585857" data-darkreader-inline-fill="" style="--darkreader-inline-fill: var(--darkreader-text-585857, #a8a298);"></path>
<path d="M153.991 5.46485C153.971 5.46151 153.958 5.43816 153.961 5.41815L154.132 4.66432C154.135 4.64431 154.158 4.63096 154.178 4.6343L154.945 4.80775C154.965 4.81108 154.979 4.83443 154.975 4.85444L154.805 5.60827C154.802 5.62829 154.779 5.64163 154.759 5.63829L153.991 5.46485Z" fill="#5E5E5D" data-darkreader-inline-fill="" style="--darkreader-inline-fill: var(--darkreader-text-5e5e5d, #a49e93);"></path>
<path d="M138.194 2.19543L138.961 2.36888C139.048 2.38889 139.105 2.47562 139.085 2.56568L138.915 3.3195C138.895 3.40623 138.808 3.46293 138.718 3.44292L137.951 3.26947C137.864 3.24946 137.807 3.16273 137.827 3.07267L138.001 2.31885C138.021 2.23212 138.107 2.17542 138.194 2.19543Z" fill="#585857" data-darkreader-inline-fill="" style="--darkreader-inline-fill: var(--darkreader-text-585857, #a8a298);"></path>
<path d="M137.981 3.14649C137.961 3.14315 137.947 3.1198 137.951 3.09979L138.121 2.34596C138.124 2.32595 138.148 2.3126 138.168 2.31594L138.935 2.48939C138.955 2.49272 138.968 2.51607 138.965 2.53609L138.795 3.28991C138.791 3.30993 138.768 3.32327 138.748 3.31993L137.981 3.14649Z" fill="#5E5E5D" data-darkreader-inline-fill="" style="--darkreader-inline-fill: var(--darkreader-text-5e5e5d, #a49e93);"></path>
<path d="M139.509 2.49247L140.276 2.66592C140.363 2.68593 140.419 2.77266 140.399 2.86272L140.229 3.61654C140.209 3.70327 140.122 3.75997 140.032 3.73996L139.265 3.56651C139.178 3.5465 139.122 3.45978 139.142 3.36972L139.312 2.61589C139.332 2.52583 139.419 2.47246 139.509 2.49247Z" fill="#585857" data-darkreader-inline-fill="" style="--darkreader-inline-fill: var(--darkreader-text-585857, #a8a298);"></path>
<path d="M139.292 3.44336C139.272 3.44002 139.258 3.41668 139.262 3.39666L139.432 2.64284C139.435 2.62282 139.459 2.60948 139.479 2.61282L140.246 2.78626C140.266 2.7896 140.279 2.81295 140.276 2.83296L140.106 3.58679C140.102 3.6068 140.079 3.62014 140.059 3.61681L139.292 3.44336Z" fill="#5E5E5D" data-darkreader-inline-fill="" style="--darkreader-inline-fill: var(--darkreader-text-5e5e5d, #a49e93);"></path>
<path d="M140.82 2.78625L141.587 2.9597C141.674 2.97971 141.73 3.06644 141.71 3.15649L141.54 3.91032C141.52 3.99705 141.433 4.05375 141.343 4.03374L140.576 3.86029C140.489 3.84028 140.433 3.75355 140.453 3.66349L140.623 2.90967C140.643 2.82294 140.73 2.76624 140.82 2.78625Z" fill="#585857" data-darkreader-inline-fill="" style="--darkreader-inline-fill: var(--darkreader-text-585857, #a8a298);"></path>
<path d="M140.606 3.73633C140.586 3.73299 140.573 3.70965 140.576 3.68963L140.746 2.9358C140.75 2.91579 140.773 2.90245 140.793 2.90578L141.56 3.07923C141.58 3.08257 141.594 3.10592 141.59 3.12593L141.42 3.87976C141.417 3.89977 141.393 3.91311 141.373 3.90978L140.606 3.73633Z" fill="#5E5E5D" data-darkreader-inline-fill="" style="--darkreader-inline-fill: var(--darkreader-text-5e5e5d, #a49e93);"></path>
<path d="M142.13 3.07922L142.897 3.25267C142.984 3.27268 143.041 3.35941 143.021 3.44946L142.851 4.20329C142.831 4.29002 142.744 4.34672 142.654 4.32671L141.887 4.15326C141.8 4.13325 141.743 4.04652 141.763 3.95646L141.933 3.20264C141.953 3.11591 142.04 3.05921 142.13 3.07922Z" fill="#585857" data-darkreader-inline-fill="" style="--darkreader-inline-fill: var(--darkreader-text-585857, #a8a298);"></path>
<path d="M141.917 4.03028C141.897 4.02694 141.883 4.00359 141.887 3.98358L142.057 3.22975C142.06 3.20974 142.084 3.19639 142.104 3.19973L142.871 3.37318C142.891 3.37651 142.904 3.39986 142.901 3.41987L142.731 4.1737C142.727 4.19372 142.704 4.20706 142.684 4.20372L141.917 4.03028Z" fill="#5E5E5D" data-darkreader-inline-fill="" style="--darkreader-inline-fill: var(--darkreader-text-5e5e5d, #a49e93);"></path>
<path d="M143.442 3.37626L144.209 3.54971C144.296 3.56972 144.352 3.65645 144.332 3.7465L144.162 4.50033C144.142 4.58706 144.055 4.64376 143.965 4.62375L143.198 4.4503C143.112 4.43029 143.055 4.34356 143.075 4.2535L143.245 3.49968C143.265 3.40962 143.355 3.35625 143.442 3.37626Z" fill="#585857" data-darkreader-inline-fill="" style="--darkreader-inline-fill: var(--darkreader-text-585857, #a8a298);"></path>
<path d="M143.228 4.32715C143.208 4.32382 143.194 4.30047 143.198 4.28045L143.368 3.52662C143.371 3.50661 143.395 3.49327 143.415 3.4966L144.182 3.67005C144.202 3.67339 144.215 3.69674 144.212 3.71675L144.042 4.47058C144.038 4.49059 144.015 4.50393 143.995 4.5006L143.228 4.32715Z" fill="#5E5E5D" data-darkreader-inline-fill="" style="--darkreader-inline-fill: var(--darkreader-text-5e5e5d, #a49e93);"></path>
<path d="M144.752 3.67004L145.519 3.84349C145.606 3.8635 145.663 3.95023 145.643 4.04029L145.473 4.79411C145.453 4.88084 145.366 4.93754 145.276 4.91753L144.509 4.74408C144.422 4.72407 144.365 4.63734 144.385 4.54728L144.555 3.79346C144.575 3.70673 144.666 3.65003 144.752 3.67004Z" fill="#585857" data-darkreader-inline-fill="" style="--darkreader-inline-fill: var(--darkreader-text-585857, #a8a298);"></path>
<path d="M144.539 4.62012C144.519 4.61678 144.505 4.59343 144.509 4.57342L144.679 3.81959C144.682 3.79958 144.706 3.78624 144.726 3.78957L145.493 3.96302C145.513 3.96636 145.526 3.9897 145.523 4.00972L145.353 4.76355C145.349 4.78356 145.326 4.7969 145.306 4.79357L144.539 4.62012Z" fill="#5E5E5D" data-darkreader-inline-fill="" style="--darkreader-inline-fill: var(--darkreader-text-5e5e5d, #a49e93);"></path>
<path d="M146.063 3.96708L146.83 4.14053C146.917 4.16054 146.973 4.24727 146.953 4.33733L146.783 5.09115C146.763 5.17788 146.677 5.23458 146.587 5.21457L145.819 5.04112C145.733 5.02111 145.676 4.93438 145.696 4.84433L145.866 4.0905C145.889 4.00044 145.976 3.94707 146.063 3.96708Z" fill="#585857" data-darkreader-inline-fill="" style="--darkreader-inline-fill: var(--darkreader-text-585857, #a8a298);"></path>
<path d="M145.849 4.91699C145.829 4.91366 145.816 4.89031 145.819 4.8703L145.989 4.11647C145.993 4.09645 146.016 4.08311 146.036 4.08645L146.803 4.2599C146.823 4.26323 146.837 4.28658 146.833 4.30659L146.663 5.06042C146.66 5.08044 146.637 5.09378 146.617 5.09044L145.849 4.91699Z" fill="#5E5E5D" data-darkreader-inline-fill="" style="--darkreader-inline-fill: var(--darkreader-text-5e5e5d, #a49e93);"></path>
<path d="M147.374 4.25989L148.141 4.43333C148.228 4.45335 148.284 4.54007 148.264 4.63013L148.094 5.38396C148.074 5.47068 147.988 5.52739 147.898 5.50737L147.13 5.33392C147.044 5.31391 146.987 5.22719 147.007 5.13713L147.177 4.3833C147.2 4.29658 147.287 4.23987 147.374 4.25989Z" fill="#585857" data-darkreader-inline-fill="" style="--darkreader-inline-fill: var(--darkreader-text-585857, #a8a298);"></path>
<path d="M147.16 5.21094C147.14 5.2076 147.127 5.18425 147.13 5.16424L147.3 4.41041C147.303 4.3904 147.327 4.37706 147.347 4.38039L148.114 4.55384C148.134 4.55718 148.147 4.58053 148.144 4.60054L147.974 5.35437C147.97 5.37438 147.947 5.38772 147.927 5.38439L147.16 5.21094Z" fill="#5E5E5D" data-darkreader-inline-fill="" style="--darkreader-inline-fill: var(--darkreader-text-5e5e5d, #a49e93);"></path>
<path d="M148.685 4.55383L149.452 4.72728C149.539 4.74729 149.595 4.83401 149.575 4.92407L149.405 5.6779C149.385 5.76463 149.299 5.82133 149.209 5.80132L148.441 5.62787C148.355 5.60786 148.298 5.52113 148.318 5.43107L148.488 4.67724C148.511 4.59052 148.598 4.53382 148.685 4.55383Z" fill="#585857" data-darkreader-inline-fill="" style="--darkreader-inline-fill: var(--darkreader-text-585857, #a8a298);"></path>
<path d="M148.471 5.50488C148.451 5.50155 148.438 5.4782 148.441 5.45819L148.611 4.70436C148.614 4.68435 148.638 4.671 148.658 4.67434L149.425 4.84779C149.445 4.85112 149.458 4.87447 149.455 4.89448L149.285 5.64831C149.281 5.66832 149.258 5.68167 149.238 5.67833L148.471 5.50488Z" fill="#5E5E5D" data-darkreader-inline-fill="" style="--darkreader-inline-fill: var(--darkreader-text-5e5e5d, #a49e93);"></path>
<path d="M149.995 4.85087L150.763 5.02432C150.849 5.04433 150.906 5.13106 150.886 5.22111L150.716 5.97494C150.696 6.06167 150.609 6.11837 150.519 6.09836L149.752 5.92491C149.665 5.9049 149.609 5.81817 149.629 5.72811L149.799 4.97429C149.822 4.88423 149.909 4.83086 149.995 4.85087Z" fill="#585857" data-darkreader-inline-fill="" style="--darkreader-inline-fill: var(--darkreader-text-585857, #a8a298);"></path>
<path d="M149.782 5.80176C149.762 5.79842 149.749 5.77507 149.752 5.75506L149.922 5.00123C149.925 4.98122 149.949 4.96788 149.969 4.97121L150.736 5.14466C150.756 5.148 150.769 5.17135 150.766 5.19136L150.596 5.94519C150.593 5.9652 150.569 5.97854 150.549 5.97521L149.782 5.80176Z" fill="#5E5E5D" data-darkreader-inline-fill="" style="--darkreader-inline-fill: var(--darkreader-text-5e5e5d, #a49e93);"></path>
<path d="M151.309 5.14465L152.077 5.3181C152.163 5.33811 152.22 5.42484 152.2 5.51489L152.03 6.26872C152.01 6.35545 151.923 6.41215 151.833 6.39214L151.066 6.21869C150.979 6.19868 150.922 6.11195 150.943 6.02189L151.113 5.26807C151.133 5.18134 151.219 5.12464 151.309 5.14465Z" fill="#585857" data-darkreader-inline-fill="" style="--darkreader-inline-fill: var(--darkreader-text-585857, #a8a298);"></path>
<path d="M151.093 6.09473C151.073 6.09139 151.059 6.06804 151.063 6.04803L151.233 5.2942C151.236 5.27419 151.259 5.26085 151.279 5.26418L152.047 5.43763C152.067 5.44096 152.08 5.46431 152.077 5.48433L151.906 6.23816C151.903 6.25817 151.88 6.27151 151.86 6.26818L151.093 6.09473Z" fill="#5E5E5D" data-darkreader-inline-fill="" style="--darkreader-inline-fill: var(--darkreader-text-5e5e5d, #a49e93);"></path>
<path d="M152.62 5.44072L153.388 5.61416C153.474 5.63418 153.531 5.7209 153.511 5.81096L153.341 6.56479C153.321 6.65151 153.234 6.70821 153.144 6.6882L152.377 6.51475C152.29 6.49474 152.234 6.40802 152.254 6.31796L152.424 5.56413C152.444 5.47407 152.53 5.4207 152.62 5.44072Z" fill="#585857" data-darkreader-inline-fill="" style="--darkreader-inline-fill: var(--darkreader-text-585857, #a8a298);"></path>
<path d="M152.407 6.3916C152.387 6.38827 152.374 6.36492 152.377 6.34491L152.548 5.59108C152.551 5.57106 152.574 5.55772 152.594 5.56106L153.361 5.73451C153.381 5.73784 153.395 5.76119 153.391 5.7812L153.221 6.53503C153.218 6.55504 153.195 6.56839 153.175 6.56505L152.407 6.3916Z" fill="#5E5E5D" data-darkreader-inline-fill="" style="--darkreader-inline-fill: var(--darkreader-text-5e5e5d, #a49e93);"></path>
<path d="M153.931 5.73449L154.699 5.90794C154.785 5.92795 154.842 6.01468 154.822 6.10474L154.652 6.85857C154.632 6.94529 154.545 7.00199 154.455 6.98198L153.688 6.80853C153.601 6.78852 153.545 6.7018 153.565 6.61174L153.735 5.85791C153.755 5.77119 153.841 5.71448 153.931 5.73449Z" fill="#585857" data-darkreader-inline-fill="" style="--darkreader-inline-fill: var(--darkreader-text-585857, #a8a298);"></path>
<path d="M153.718 6.68555C153.698 6.68221 153.685 6.65887 153.688 6.63885L153.858 5.88502C153.861 5.86501 153.885 5.85167 153.905 5.855L154.672 6.02845C154.692 6.03179 154.705 6.05513 154.702 6.07515L154.532 6.82898C154.529 6.84899 154.505 6.86233 154.485 6.859L153.718 6.68555Z" fill="#5E5E5D" data-darkreader-inline-fill="" style="--darkreader-inline-fill: var(--darkreader-text-5e5e5d, #a49e93);"></path>
<path d="M137.921 3.41614L138.688 3.58958C138.775 3.6096 138.832 3.69632 138.812 3.78638L138.642 4.54021C138.622 4.62693 138.535 4.68363 138.445 4.66362L137.678 4.49017C137.591 4.47016 137.534 4.38344 137.554 4.29338L137.724 3.53955C137.748 3.45283 137.835 3.39612 137.921 3.41614Z" fill="#585857" data-darkreader-inline-fill="" style="--darkreader-inline-fill: var(--darkreader-text-585857, #a8a298);"></path>
<path d="M137.707 4.36719C137.687 4.36385 137.674 4.3405 137.677 4.32049L137.847 3.56666C137.851 3.54665 137.874 3.53331 137.894 3.53664L138.661 3.71009C138.681 3.71343 138.695 3.73678 138.691 3.75679L138.521 4.51062C138.518 4.53063 138.494 4.54397 138.474 4.54064L137.707 4.36719Z" fill="#5E5E5D" data-darkreader-inline-fill="" style="--darkreader-inline-fill: var(--darkreader-text-5e5e5d, #a49e93);"></path>
<path d="M139.232 3.71007L139.999 3.88352C140.086 3.90353 140.142 3.99026 140.122 4.08032L139.952 4.83415C139.932 4.92087 139.846 4.97757 139.755 4.95756L138.988 4.78411C138.902 4.7641 138.845 4.67738 138.865 4.58732L139.035 3.83349C139.058 3.74676 139.145 3.6934 139.232 3.71007Z" fill="#585857" data-darkreader-inline-fill="" style="--darkreader-inline-fill: var(--darkreader-text-585857, #a8a298);"></path>
<path d="M139.018 4.66406C138.998 4.66073 138.985 4.63738 138.988 4.61737L139.158 3.86354C139.162 3.84353 139.185 3.83018 139.205 3.83352L139.972 4.00697C139.992 4.0103 140.006 4.03365 140.002 4.05366L139.832 4.80749C139.829 4.8275 139.806 4.84085 139.785 4.83751L139.018 4.66406Z" fill="#5E5E5D" data-darkreader-inline-fill="" style="--darkreader-inline-fill: var(--darkreader-text-5e5e5d, #a49e93);"></path>
<path d="M140.542 4.00696L141.309 4.1804C141.396 4.20042 141.453 4.28714 141.433 4.3772L141.263 5.13103C141.243 5.21775 141.156 5.27445 141.066 5.25444L140.299 5.08099C140.212 5.06098 140.155 4.97426 140.175 4.8842L140.346 4.13037C140.369 4.04365 140.456 3.98694 140.542 4.00696Z" fill="#585857" data-darkreader-inline-fill="" style="--darkreader-inline-fill: var(--darkreader-text-585857, #a8a298);"></path>
<path d="M140.329 4.95703C140.309 4.9537 140.296 4.93035 140.299 4.91034L140.469 4.15651C140.473 4.13649 140.496 4.12315 140.516 4.12649L141.283 4.29993C141.303 4.30327 141.317 4.32662 141.313 4.34663L141.143 5.10046C141.14 5.12047 141.117 5.13382 141.097 5.13048L140.329 4.95703Z" fill="#5E5E5D" data-darkreader-inline-fill="" style="--darkreader-inline-fill: var(--darkreader-text-5e5e5d, #a49e93);"></path>
<path d="M141.857 4.29992L142.624 4.47337C142.711 4.49338 142.768 4.58011 142.748 4.67017L142.578 5.424C142.558 5.51072 142.471 5.56742 142.381 5.54741L141.614 5.37396C141.527 5.35395 141.47 5.26723 141.49 5.17717L141.66 4.42334C141.68 4.33662 141.767 4.27991 141.857 4.29992Z" fill="#585857" data-darkreader-inline-fill="" style="--darkreader-inline-fill: var(--darkreader-text-585857, #a8a298);"></path>
<path d="M141.64 5.25098C141.62 5.24764 141.607 5.22429 141.61 5.20428L141.78 4.45045C141.784 4.43044 141.807 4.4171 141.827 4.42043L142.594 4.59388C142.614 4.59722 142.628 4.62056 142.624 4.64058L142.454 5.39441C142.451 5.41442 142.428 5.42776 142.408 5.42443L141.64 5.25098Z" fill="#5E5E5D" data-darkreader-inline-fill="" style="--darkreader-inline-fill: var(--darkreader-text-5e5e5d, #a49e93);"></path>
<path d="M143.168 4.59697L143.935 4.77041C144.022 4.79042 144.078 4.87715 144.058 4.96721L143.888 5.72104C143.868 5.80776 143.782 5.86446 143.691 5.84445L142.924 5.671C142.838 5.65099 142.781 5.56427 142.801 5.47421L142.971 4.72038C142.991 4.63032 143.078 4.57695 143.168 4.59697Z" fill="#585857" data-darkreader-inline-fill="" style="--darkreader-inline-fill: var(--darkreader-text-585857, #a8a298);"></path>
<path d="M142.954 5.54785C142.934 5.54452 142.921 5.52117 142.924 5.50116L143.094 4.74733C143.098 4.72731 143.121 4.71397 143.141 4.71731L143.908 4.89076C143.928 4.89409 143.942 4.91744 143.938 4.93745L143.768 5.69128C143.765 5.71129 143.742 5.72464 143.722 5.7213L142.954 5.54785Z" fill="#5E5E5D" data-darkreader-inline-fill="" style="--darkreader-inline-fill: var(--darkreader-text-5e5e5d, #a49e93);"></path>
<path d="M144.479 4.89074L145.246 5.06419C145.333 5.08421 145.389 5.17093 145.369 5.26099L145.199 6.01482C145.179 6.10154 145.093 6.15824 145.003 6.13823L144.235 5.96478C144.149 5.94477 144.092 5.85805 144.112 5.76799L144.282 5.01416C144.302 4.92744 144.389 4.87073 144.479 4.89074Z" fill="#585857" data-darkreader-inline-fill="" style="--darkreader-inline-fill: var(--darkreader-text-585857, #a8a298);"></path>
<path d="M144.265 5.84082C144.245 5.83749 144.232 5.81414 144.235 5.79413L144.405 5.0403C144.408 5.02028 144.432 5.00694 144.452 5.01028L145.219 5.18372C145.239 5.18706 145.252 5.21041 145.249 5.23042L145.079 5.98425C145.075 6.00426 145.052 6.01761 145.032 6.01427L144.265 5.84082Z" fill="#5E5E5D" data-darkreader-inline-fill="" style="--darkreader-inline-fill: var(--darkreader-text-5e5e5d, #a49e93);"></path>
<path d="M145.79 5.18371L146.557 5.35715C146.644 5.37717 146.7 5.46389 146.68 5.55395L146.51 6.30778C146.49 6.3945 146.404 6.45121 146.314 6.43119L145.546 6.25775C145.46 6.23773 145.403 6.15101 145.423 6.06095L145.593 5.30712C145.613 5.2204 145.7 5.16703 145.79 5.18371Z" fill="#585857" data-darkreader-inline-fill="" style="--darkreader-inline-fill: var(--darkreader-text-585857, #a8a298);"></path>
<path d="M145.576 6.1377C145.556 6.13436 145.543 6.11101 145.546 6.091L145.716 5.33717C145.719 5.31716 145.743 5.30382 145.763 5.30715L146.53 5.4806C146.55 5.48393 146.563 5.50728 146.56 5.5273L146.39 6.28113C146.386 6.30114 146.363 6.31448 146.343 6.31115L145.576 6.1377Z" fill="#5E5E5D" data-darkreader-inline-fill="" style="--darkreader-inline-fill: var(--darkreader-text-5e5e5d, #a49e93);"></path>
<path d="M147.1 5.48075L147.868 5.6542C147.954 5.67421 148.011 5.76094 147.991 5.851L147.821 6.60483C147.801 6.69155 147.714 6.74825 147.624 6.72824L146.857 6.55479C146.77 6.53478 146.714 6.44806 146.734 6.358L146.904 5.60417C146.924 5.51411 147.014 5.46074 147.1 5.48075Z" fill="#585857" data-darkreader-inline-fill="" style="--darkreader-inline-fill: var(--darkreader-text-585857, #a8a298);"></path>
<path d="M146.887 6.43164C146.867 6.42831 146.854 6.40496 146.857 6.38494L147.027 5.63112C147.03 5.6111 147.054 5.59776 147.074 5.6011L147.841 5.77454C147.861 5.77788 147.874 5.80123 147.871 5.82124L147.701 6.57507C147.698 6.59508 147.674 6.60842 147.654 6.60509L146.887 6.43164Z" fill="#5E5E5D" data-darkreader-inline-fill="" style="--darkreader-inline-fill: var(--darkreader-text-5e5e5d, #a49e93);"></path>
<path d="M148.411 5.77453L149.178 5.94798C149.265 5.96799 149.322 6.05472 149.302 6.14478L149.131 6.89861C149.111 6.98533 149.025 7.04203 148.935 7.02202L148.167 6.84857C148.081 6.82856 148.024 6.74184 148.044 6.65178L148.214 5.89795C148.234 5.81122 148.324 5.75452 148.411 5.77453Z" fill="#585857" data-darkreader-inline-fill="" style="--darkreader-inline-fill: var(--darkreader-text-585857, #a8a298);"></path>
<path d="M148.198 6.72559C148.178 6.72225 148.164 6.6989 148.168 6.67889L148.338 5.92506C148.341 5.90505 148.364 5.89171 148.384 5.89504L149.151 6.06849C149.171 6.07183 149.185 6.09517 149.182 6.11519L149.008 6.86901C149.005 6.88903 148.981 6.90237 148.961 6.89903L148.198 6.72559Z" fill="#5E5E5D" data-darkreader-inline-fill="" style="--darkreader-inline-fill: var(--darkreader-text-5e5e5d, #a49e93);"></path>
<path d="M149.722 6.07157L150.489 6.24502C150.576 6.26504 150.633 6.35176 150.613 6.44182L150.442 7.19565C150.422 7.28237 150.336 7.33907 150.246 7.31906L149.479 7.14561C149.392 7.1256 149.335 7.03888 149.355 6.94882L149.525 6.19499C149.549 6.10493 149.635 6.05156 149.722 6.07157Z" fill="#585857" data-darkreader-inline-fill="" style="--darkreader-inline-fill: var(--darkreader-text-585857, #a8a298);"></path>
<path d="M149.508 7.02246C149.488 7.01913 149.475 6.99911 149.478 6.97576L149.648 6.22194C149.651 6.20192 149.675 6.18858 149.695 6.19192L150.462 6.36536C150.482 6.3687 150.495 6.39205 150.492 6.41206L150.322 7.16589C150.319 7.1859 150.295 7.19924 150.275 7.19591L149.508 7.02246Z" fill="#5E5E5D" data-darkreader-inline-fill="" style="--darkreader-inline-fill: var(--darkreader-text-5e5e5d, #a49e93);"></path>
<path d="M151.033 6.36535L151.8 6.5388C151.887 6.55881 151.944 6.64554 151.924 6.7356L151.754 7.48943C151.734 7.57615 151.647 7.63285 151.557 7.61284L150.79 7.43939C150.703 7.41938 150.646 7.33266 150.666 7.2426L150.836 6.48877C150.86 6.40204 150.946 6.34534 151.033 6.36535Z" fill="#585857" data-darkreader-inline-fill="" style="--darkreader-inline-fill: var(--darkreader-text-585857, #a8a298);"></path>
<path d="M150.819 7.31543C150.799 7.3121 150.786 7.28875 150.789 7.26873L150.959 6.51491C150.963 6.49489 150.986 6.48155 151.006 6.48489L151.773 6.65833C151.793 6.66167 151.806 6.68502 151.803 6.70503L151.633 7.45886C151.63 7.47887 151.606 7.49221 151.586 7.48888L150.819 7.31543Z" fill="#5E5E5D" data-darkreader-inline-fill="" style="--darkreader-inline-fill: var(--darkreader-text-5e5e5d, #a49e93);"></path>
<path d="M152.344 6.65832L153.111 6.83177C153.197 6.85178 153.254 6.93851 153.234 7.02857L153.064 7.7824C153.044 7.86912 152.957 7.92582 152.867 7.90581L152.1 7.73236C152.013 7.71235 151.957 7.62563 151.977 7.53557L152.147 6.78174C152.17 6.69501 152.257 6.63831 152.344 6.65832Z" fill="#585857" data-darkreader-inline-fill="" style="--darkreader-inline-fill: var(--darkreader-text-585857, #a8a298);"></path>
<path d="M152.13 7.61231C152.11 7.60897 152.097 7.58562 152.1 7.56561L152.27 6.81178C152.274 6.79177 152.297 6.77843 152.317 6.78176L153.084 6.95521C153.104 6.95854 153.117 6.98189 153.114 7.00191L152.944 7.7524C152.941 7.77241 152.917 7.78575 152.897 7.78242L152.13 7.61231Z" fill="#5E5E5D" data-darkreader-inline-fill="" style="--darkreader-inline-fill: var(--darkreader-text-5e5e5d, #a49e93);"></path>
<path d="M153.658 6.95536L154.425 7.12881C154.512 7.14882 154.569 7.23555 154.549 7.32561L154.379 8.07943C154.359 8.16616 154.272 8.22286 154.182 8.20285L153.415 8.0294C153.328 8.00939 153.271 7.92266 153.291 7.83261L153.461 7.07878C153.481 6.98872 153.568 6.93535 153.658 6.95536Z" fill="#585857" data-darkreader-inline-fill="" style="--darkreader-inline-fill: var(--darkreader-text-585857, #a8a298);"></path>
<path d="M153.441 7.90625C153.421 7.90292 153.408 7.87957 153.411 7.85956L153.581 7.10573C153.585 7.08571 153.608 7.07237 153.628 7.07571L154.395 7.24915C154.415 7.25249 154.428 7.27584 154.425 7.29585L154.255 8.04968C154.252 8.06969 154.228 8.08304 154.208 8.0797L153.441 7.90625Z" fill="#5E5E5D" data-darkreader-inline-fill="" style="--darkreader-inline-fill: var(--darkreader-text-5e5e5d, #a49e93);"></path>
<path d="M137.647 4.63684L138.414 4.81029C138.501 4.8303 138.558 4.91702 138.538 5.00708L138.368 5.76091C138.348 5.84763 138.261 5.90434 138.171 5.88432L137.404 5.71088C137.317 5.69086 137.26 5.60414 137.28 5.51408L137.451 4.76025C137.471 4.67353 137.561 4.61683 137.647 4.63684Z" fill="#585857" data-darkreader-inline-fill="" style="--darkreader-inline-fill: var(--darkreader-text-585857, #a8a298);"></path>
<path d="M137.434 5.58789C137.414 5.58456 137.4 5.56121 137.404 5.54119L137.574 4.78737C137.577 4.76735 137.601 4.75401 137.621 4.75735L138.388 4.93079C138.408 4.93413 138.421 4.95748 138.418 4.97749L138.248 5.73132C138.244 5.75133 138.221 5.76467 138.201 5.76134L137.434 5.58789Z" fill="#5E5E5D" data-darkreader-inline-fill="" style="--darkreader-inline-fill: var(--darkreader-text-5e5e5d, #a49e93);"></path>
<path d="M138.958 4.93078L139.726 5.10423C139.812 5.12424 139.869 5.21097 139.849 5.30103L139.679 6.05486C139.659 6.14158 139.572 6.19828 139.482 6.17827L138.715 6.00482C138.628 5.98481 138.571 5.89809 138.591 5.80803L138.762 5.0542C138.782 4.96747 138.872 4.91077 138.958 4.93078Z" fill="#585857" data-darkreader-inline-fill="" style="--darkreader-inline-fill: var(--darkreader-text-585857, #a8a298);"></path>
<path d="M138.745 5.88184C138.725 5.8785 138.712 5.85515 138.715 5.83514L138.885 5.08131C138.888 5.0613 138.912 5.04796 138.932 5.05129L139.699 5.22474C139.719 5.22808 139.732 5.25142 139.729 5.27144L139.559 6.02527C139.555 6.04528 139.532 6.05862 139.512 6.05529L138.745 5.88184Z" fill="#5E5E5D" data-darkreader-inline-fill="" style="--darkreader-inline-fill: var(--darkreader-text-5e5e5d, #a49e93);"></path>
<path d="M140.269 5.22782L141.037 5.40127C141.123 5.42129 141.18 5.50801 141.16 5.59807L140.99 6.3519C140.97 6.43862 140.883 6.49532 140.793 6.47531L140.026 6.30186C139.939 6.28185 139.882 6.19513 139.902 6.10507L140.076 5.35124C140.096 5.26118 140.183 5.20781 140.269 5.22782Z" fill="#585857" data-darkreader-inline-fill="" style="--darkreader-inline-fill: var(--darkreader-text-585857, #a8a298);"></path>
<path d="M140.056 6.17774C140.036 6.1744 140.023 6.15105 140.026 6.13104L140.196 5.37721C140.199 5.3572 140.223 5.34385 140.243 5.34719L141.01 5.52064C141.03 5.52397 141.043 5.54732 141.04 5.56734L140.87 6.32116C140.866 6.34118 140.843 6.35452 140.823 6.35118L140.056 6.17774Z" fill="#5E5E5D" data-darkreader-inline-fill="" style="--darkreader-inline-fill: var(--darkreader-text-5e5e5d, #a49e93);"></path>
<path d="M141.58 5.5216L142.347 5.69505C142.434 5.71506 142.491 5.80179 142.471 5.89185L142.3 6.64568C142.28 6.7324 142.194 6.7891 142.104 6.76909L141.336 6.59564C141.25 6.57563 141.193 6.48891 141.213 6.39885L141.383 5.64502C141.406 5.5583 141.493 5.50159 141.58 5.5216Z" fill="#585857" data-darkreader-inline-fill="" style="--darkreader-inline-fill: var(--darkreader-text-585857, #a8a298);"></path>
<path d="M141.367 6.47168C141.347 6.46835 141.334 6.445 141.337 6.42498L141.507 5.67116C141.51 5.65114 141.534 5.6378 141.554 5.64114L142.321 5.81458C142.341 5.81792 142.354 5.84127 142.351 5.86128L142.181 6.61511C142.177 6.63512 142.154 6.64847 142.134 6.64513L141.367 6.47168Z" fill="#5E5E5D" data-darkreader-inline-fill="" style="--darkreader-inline-fill: var(--darkreader-text-5e5e5d, #a49e93);"></path>
<path d="M147.591 6.87211L142.884 5.81475C142.797 5.79473 142.714 5.8481 142.694 5.93483L142.511 6.74536C142.497 6.8054 142.534 6.86544 142.594 6.87878L147.344 7.94615C147.43 7.96616 147.521 7.90946 147.541 7.82273L147.711 7.06891C147.734 6.98218 147.681 6.89212 147.591 6.87211Z" fill="#585857" data-darkreader-inline-fill="" style="--darkreader-inline-fill: var(--darkreader-text-585857, #a8a298);"></path>
<path d="M142.641 6.75882L142.821 5.96163C142.824 5.94495 142.844 5.93161 142.861 5.93828L147.567 6.99564C147.587 6.99898 147.601 7.02232 147.597 7.04234L147.427 7.79617C147.424 7.81618 147.4 7.82952 147.38 7.82618L142.641 6.75882Z" fill="#5E5E5D" data-darkreader-inline-fill="" style="--darkreader-inline-fill: var(--darkreader-text-5e5e5d, #a49e93);"></path>
<path d="M148.138 6.99524L148.905 7.16868C148.992 7.1887 149.049 7.27542 149.029 7.36548L148.858 8.11931C148.838 8.20603 148.752 8.26274 148.662 8.24272L147.895 8.06928C147.808 8.04926 147.751 7.96254 147.771 7.87248L147.941 7.11865C147.961 7.03193 148.048 6.97522 148.138 6.99524Z" fill="#585857" data-darkreader-inline-fill="" style="--darkreader-inline-fill: var(--darkreader-text-585857, #a8a298);"></path>
<path d="M147.924 7.94629C147.904 7.94295 147.891 7.91961 147.894 7.89959L148.064 7.14576C148.068 7.12575 148.091 7.11241 148.111 7.11575L148.878 7.28919C148.898 7.29253 148.911 7.31588 148.908 7.33589L148.738 8.08972C148.735 8.10973 148.711 8.12307 148.691 8.11974L147.924 7.94629Z" fill="#5E5E5D" data-darkreader-inline-fill="" style="--darkreader-inline-fill: var(--darkreader-text-5e5e5d, #a49e93);"></path>
<path d="M149.449 7.29228L150.216 7.46573C150.302 7.48574 150.359 7.57246 150.339 7.66252L150.169 8.41635C150.149 8.50307 150.062 8.55978 149.972 8.53976L149.205 8.36632C149.118 8.3463 149.062 8.25958 149.082 8.16952L149.252 7.41569C149.272 7.32563 149.362 7.27226 149.449 7.29228Z" fill="#585857" data-darkreader-inline-fill="" style="--darkreader-inline-fill: var(--darkreader-text-585857, #a8a298);"></path>
<path d="M149.235 8.24317C149.215 8.23983 149.202 8.21648 149.205 8.19647L149.375 7.44264C149.379 7.42263 149.402 7.40928 149.422 7.41262L150.189 7.58607C150.209 7.5894 150.222 7.61275 150.219 7.63276L150.049 8.38659C150.046 8.40661 150.022 8.41995 150.002 8.41661L149.235 8.24317Z" fill="#5E5E5D" data-darkreader-inline-fill="" style="--darkreader-inline-fill: var(--darkreader-text-5e5e5d, #a49e93);"></path>
<path d="M150.759 7.58606L151.526 7.7595C151.613 7.77952 151.67 7.86624 151.65 7.9563L151.48 8.71013C151.46 8.79685 151.373 8.85356 151.283 8.83354L150.516 8.6601C150.429 8.64008 150.372 8.55336 150.392 8.4633L150.562 7.70947C150.582 7.62275 150.672 7.56604 150.759 7.58606Z" fill="#585857" data-darkreader-inline-fill="" style="--darkreader-inline-fill: var(--darkreader-text-585857, #a8a298);"></path>
<path d="M150.546 8.53613C150.526 8.5328 150.512 8.50945 150.516 8.48944L150.686 7.73561C150.689 7.7156 150.712 7.70225 150.732 7.70559L151.5 7.87904C151.52 7.88237 151.533 7.90572 151.53 7.92573L151.36 8.67956C151.356 8.69957 151.336 8.71292 151.313 8.70958L150.546 8.53613Z" fill="#5E5E5D" data-darkreader-inline-fill="" style="--darkreader-inline-fill: var(--darkreader-text-5e5e5d, #a49e93);"></path>
<path d="M152.07 7.87903L152.837 8.05247C152.924 8.07249 152.981 8.15921 152.961 8.24927L152.791 9.0031C152.771 9.08982 152.684 9.14652 152.594 9.12651L151.827 8.95307C151.74 8.93305 151.683 8.84633 151.703 8.75627L151.873 8.00244C151.897 7.91572 151.983 7.85901 152.07 7.87903Z" fill="#585857" data-darkreader-inline-fill="" style="--darkreader-inline-fill: var(--darkreader-text-585857, #a8a298);"></path>
<path d="M151.857 8.83008C151.837 8.82674 151.823 8.8034 151.827 8.78338L151.997 8.02955C152 8.00954 152.023 7.9962 152.043 7.99953L152.811 8.17298C152.831 8.17632 152.844 8.19967 152.841 8.21968L152.671 8.97351C152.667 8.99352 152.644 9.00686 152.624 9.00353L151.857 8.83008Z" fill="#5E5E5D" data-darkreader-inline-fill="" style="--darkreader-inline-fill: var(--darkreader-text-5e5e5d, #a49e93);"></path>
<path d="M153.381 8.17607L154.148 8.34951C154.235 8.36953 154.292 8.45625 154.272 8.54631L154.102 9.30014C154.082 9.38686 153.995 9.44357 153.905 9.42355L153.138 9.25011C153.051 9.23009 152.994 9.14337 153.014 9.05331L153.184 8.29948C153.208 8.20942 153.294 8.15605 153.381 8.17607Z" fill="#585857" data-darkreader-inline-fill="" style="--darkreader-inline-fill: var(--darkreader-text-585857, #a8a298);"></path>
<path d="M153.168 9.12695C153.148 9.12362 153.134 9.10027 153.138 9.08026L153.308 8.32643C153.311 8.30641 153.335 8.29307 153.355 8.29641L154.122 8.46986C154.142 8.47319 154.155 8.49654 154.152 8.51655L153.982 9.27038C153.978 9.2904 153.955 9.30374 153.935 9.3004L153.168 9.12695Z" fill="#5E5E5D" data-darkreader-inline-fill="" style="--darkreader-inline-fill: var(--darkreader-text-5e5e5d, #a49e93);"></path>
<path d="M147.354 9.00006L143.504 8.13615C143.331 8.09613 143.157 8.2062 143.121 8.37965L142.657 10.4377C142.617 10.6111 142.727 10.7846 142.901 10.8213L146.75 11.6852C146.923 11.7252 147.097 11.6151 147.133 11.4417L147.597 9.38364C147.637 9.21019 147.527 9.04008 147.354 9.00006Z" fill="#EDEDED" data-darkreader-inline-fill="" style="--darkreader-inline-fill: var(--darkreader-text-ededed, #d2cfca);"></path>
<path d="M147.384 8.87662L143.534 8.01272C143.294 7.95935 143.054 8.10945 143.001 8.34961L142.537 10.4076C142.484 10.6478 142.634 10.8879 142.874 10.9413L146.723 11.8052C146.963 11.8586 147.204 11.7085 147.257 11.4683L147.721 9.41031C147.774 9.17015 147.624 8.93333 147.384 8.87662ZM147.137 11.4416C147.097 11.6151 146.927 11.7252 146.753 11.6851L142.904 10.8212C142.731 10.7812 142.621 10.6111 142.661 10.4376L143.124 8.37963C143.164 8.20618 143.334 8.09611 143.508 8.13614L147.357 9.00004C147.53 9.04007 147.64 9.21018 147.6 9.38362L147.137 11.4416Z" fill="#9D9B9B" data-darkreader-inline-fill="" style="--darkreader-inline-fill: var(--darkreader-text-9d9b9b, #a19a8f);"></path>
<path d="M142.888 9.42383L142.661 10.4378C142.621 10.6113 142.731 10.7847 142.905 10.8214L146.754 11.6853C146.927 11.7253 147.101 11.6153 147.137 11.4418L147.364 10.4278L142.888 9.42383Z" fill="#DFDFDE" data-darkreader-inline-fill="" style="--darkreader-inline-fill: var(--darkreader-text-dfdfde, #c8c6c0);"></path>
<path d="M145.109 9.92123L142.888 9.4209L142.661 10.4349C142.621 10.6083 142.731 10.7818 142.905 10.8185L144.812 11.2488L145.109 9.92123Z" fill="#D9D9DA" data-darkreader-inline-fill="" style="--darkreader-inline-fill: var(--darkreader-text-d9d9da, #c6c2bc);"></path>
<path d="M156.59 3.09289L137.691 -1.15657C137.581 -1.18325 137.504 -1.28665 137.514 -1.40006L139.492 -12.2138C139.519 -12.5107 139.799 -12.7142 140.089 -12.6474L159.338 -8.31794C159.629 -8.25123 159.795 -7.94769 159.692 -7.66751L156.853 2.94946C156.813 3.0562 156.703 3.11958 156.59 3.09289Z" fill="#E3E1E1" data-darkreader-inline-fill="" style="--darkreader-inline-fill: var(--darkreader-text-e3e1e1, #cbc7c3);"></path>
<path d="M138.338 -2.19442L140.163 -11.3238C140.189 -11.6039 140.453 -11.7974 140.726 -11.734L158.368 -7.76809C158.642 -7.70805 158.798 -7.41785 158.702 -7.15435L156.447 1.87492C156.367 2.09506 156.137 2.21848 155.906 2.16844L138.702 -1.70076C138.472 -1.7508 138.318 -1.96427 138.338 -2.19442Z" fill="#C7C7C6" data-darkreader-inline-fill="" style="--darkreader-inline-fill: var(--darkreader-text-c7c7c6, #bab5af);"></path>
<path d="M138.465 -2.18019L140.289 -11.3162C140.309 -11.5197 140.499 -11.6598 140.699 -11.6131L158.348 -7.64378C158.544 -7.60042 158.661 -7.39028 158.591 -7.20016L156.33 1.83578C156.273 1.99588 156.106 2.08594 155.939 2.04925L138.725 -1.82329C138.561 -1.85998 138.448 -2.01342 138.465 -2.18019Z" fill="#C6E6F2" data-darkreader-inline-fill="" style="--darkreader-inline-fill: var(--darkreader-text-c6e6f2, #a5d0e0);"></path>
<path d="M153.851 2.4787L140.402 -0.546622L140.409 -0.773438L153.968 2.27523L153.851 2.4787Z" fill="#585857" data-darkreader-inline-fill="" style="--darkreader-inline-fill: var(--darkreader-text-585857, #a8a298);"></path>
</g>
<path d="M29.8079 64.9769C28.911 61.1854 25.1195 58.847 21.3485 59.7476C17.5723 60.6481 15.2434 64.455 16.1403 68.2415C16.7723 70.9022 18.831 72.8466 21.3077 73.4555C21.4504 73.8341 21.7154 76.1316 22.1893 76.8684C22.4034 77.201 22.6735 77.2573 23.0862 77.1703C23.4175 78.3523 24.8036 79.437 25.9451 79.3296C26.7452 79.2528 27.3261 78.7002 27.586 77.9583C27.7899 77.3801 27.9529 76.7149 28.0549 76.0702C28.6052 76.0548 28.8702 75.9985 28.8447 75.4817C28.7989 74.5863 27.8306 72.12 27.795 71.7414C29.5531 70.0682 30.4092 67.52 29.8079 64.9769Z" fill="#FDFFFC" data-darkreader-inline-fill="" style="--darkreader-inline-fill: var(--darkreader-text-fdfffc, #d1f2c0);"></path>
<path d="M26.154 64.7213C26.047 64.3375 25.6699 64.0817 25.2724 64.1789C24.9004 64.2659 24.6201 64.6804 24.7322 65.0641C24.7985 65.2995 24.9717 65.4888 25.1807 65.5758C25.0278 66.5685 24.8342 67.5458 24.7526 68.5487C24.6762 69.4799 24.5997 70.3907 24.3959 71.2964C23.2901 69.6334 22.1893 67.9756 20.9714 66.3945C21.3077 66.0721 21.0529 65.3507 20.4872 65.4837C19.8197 65.6423 20.0643 66.6861 20.737 66.5275C20.742 66.5275 20.7471 66.5224 20.7522 66.5173C22.0161 68.3133 23.2544 70.1349 24.2838 72.0792C24.3959 72.289 24.7017 72.243 24.773 72.0281C25.1093 71.0252 25.2062 70.0018 25.2775 68.9529C25.359 67.8221 25.5782 66.7117 25.6699 65.586C26.0113 65.4735 26.2559 65.0846 26.154 64.7213Z" fill="#AEB4FC" data-darkreader-inline-fill="" style="--darkreader-inline-fill: var(--darkreader-text-aeb4fc, #8eb4ee);"></path>
<path d="M17.6685 58.5405C16.2467 57.8343 14.8198 57.1231 13.398 56.4119C13.1024 56.2686 12.8323 56.6933 13.1279 56.8519C14.514 57.6194 15.9052 58.3818 17.2914 59.1494C17.699 59.3745 18.0761 58.7451 17.6685 58.5405Z" fill="#808AFF" data-darkreader-inline-fill="" style="--darkreader-inline-fill: var(--darkreader-text-808aff, #6da2f2);"></path>
<path d="M20.344 53.1161C20.2268 52.8552 19.8904 53.0445 19.9159 53.2799C20.0892 54.7535 20.6345 56.2579 21.0625 57.6803C21.1695 58.0283 21.7046 57.9106 21.618 57.5473C21.2664 56.0839 20.9606 54.4926 20.344 53.1161Z" fill="#808AFF" data-darkreader-inline-fill="" style="--darkreader-inline-fill: var(--darkreader-text-808aff, #6da2f2);"></path>
<path d="M26.969 52.6868C26.6021 53.0092 26.3779 53.5208 26.1486 53.9507C25.9091 54.4009 25.695 54.8614 25.4912 55.3271C25.3281 55.7057 25.9549 55.9053 26.1129 55.5164C26.3015 55.0405 26.5053 54.58 26.7397 54.1246C26.9385 53.7306 27.2289 53.3469 27.3461 52.9222C27.4124 52.6919 27.1372 52.5333 26.969 52.6868Z" fill="#808AFF" data-darkreader-inline-fill="" style="--darkreader-inline-fill: var(--darkreader-text-808aff, #6da2f2);"></path>
<defs>
<clipPath id="clip0_1_2329">
<rect width="14" height="17" fill="white" transform="translate(147 24.3398)" data-darkreader-inline-fill="" style="--darkreader-inline-fill: var(--darkreader-text-ffffff, #dcdbd8);"></rect>
</clipPath>
<clipPath id="clip1_1_2329">
<rect width="69" height="12" fill="white" transform="translate(51 117.34)" data-darkreader-inline-fill="" style="--darkreader-inline-fill: var(--darkreader-text-ffffff, #dcdbd8);"></rect>
</clipPath>
<clipPath id="clip2_1_2329">
<rect width="32" height="26" fill="white" transform="translate(132 58.3398)" data-darkreader-inline-fill="" style="--darkreader-inline-fill: var(--darkreader-text-ffffff, #dcdbd8);"></rect>
</clipPath>
<clipPath id="clip3_1_2329">
<rect width="35" height="35" fill="white" transform="translate(34 -16.6602)" data-darkreader-inline-fill="" style="--darkreader-inline-fill: var(--darkreader-text-ffffff, #dcdbd8);"></rect>
</clipPath>
</defs>
</svg>