<svg width="140" height="123" viewBox="0 0 140 123" fill="none" xmlns="http://www.w3.org/2000/svg">
<path fill-rule="evenodd" clip-rule="evenodd" d="M43.5062 30.8265C45.5399 35.566 49.6788 37.2262 53.2483 36.4139C56.0531 35.7754 59.7043 29.8884 59.5754 27.1696C59.1898 19.0144 50.2239 3.47823 45.3446 2.44629C41.4023 5.48625 40.2852 23.3173 43.5062 30.8265Z" fill="#FEDEA6"/>
<path d="M51.497 36.8179C50.1872 36.8179 48.8837 36.5018 47.7041 35.8862C45.8032 34.8936 44.2852 33.1725 43.3137 30.908C41.8085 27.3984 41.1242 21.283 41.5302 14.9467C41.8494 9.95198 42.9856 4.00152 45.2159 2.28036L45.2925 2.2207L45.387 2.24101C50.3787 3.29707 59.3931 18.8992 59.7837 27.1585C59.9191 30.017 56.19 35.956 53.2945 36.6161C52.7034 36.7519 52.0996 36.8179 51.497 36.8179ZM45.3972 2.6713C43.6609 4.11449 42.3434 8.8058 41.949 14.9733C41.5481 21.2487 42.2183 27.2918 43.6992 30.7443C45.4202 34.7553 48.6335 36.3952 51.5366 36.3952C52.1085 36.3952 52.6677 36.3317 53.2026 36.2099C55.8899 35.5981 59.4939 29.8431 59.3675 27.1776C59.1914 23.4395 57.1206 17.7163 53.9648 12.2392C50.8702 6.86886 47.6007 3.22218 45.3972 2.6713Z" fill="#F5C371"/>
<path d="M45.4803 2.37689L45.0723 2.4707L52.9785 36.4392L53.3865 36.3454L45.4803 2.37689Z" fill="#F9CF88"/>
<path d="M48.4535 15.4813L48.1152 15.2351C48.1408 15.2008 50.6711 11.761 52.3728 9.49023L52.7086 9.73902C51.0081 12.0085 48.4791 15.447 48.4535 15.4813Z" fill="#F9CF88"/>
<path d="M53.5087 11.2815L48.5552 17.0674L48.874 17.3372L53.8276 11.5514L53.5087 11.2815Z" fill="#F9CF88"/>
<path d="M41.6732 19.5129L41.4683 19.876L50.3451 24.8288L50.55 24.4657L41.6732 19.5129Z" fill="#F9CF88"/>
<path d="M58.7207 23.1921L51.6558 30.3477L51.9546 30.6393L59.0195 23.4837L58.7207 23.1921Z" fill="#F9CF88"/>
<path d="M42.1117 25.2332L41.9648 25.623L51.3705 29.125L51.5173 28.7351L42.1117 25.2332Z" fill="#F9CF88"/>
<path d="M47.3416 12.0604C46.6139 11.4003 44.6964 9.65123 42.6167 7.65209L42.9078 7.35254C44.9836 9.3466 46.8986 11.0932 47.625 11.7519L47.3416 12.0604Z" fill="#F9CF88"/>
<path fill-rule="evenodd" clip-rule="evenodd" d="M43.9929 26.3266C43.2256 25.5536 42.3907 24.7781 41.5034 24.0089C33.2691 16.8704 20.5677 10.2967 15.8913 11.7792C13.4363 17.6688 23.4516 38.4217 31.8545 44.7669C37.159 48.7716 42.8426 48.0049 46.3075 44.8393C46.8883 44.3087 47.4067 43.7096 47.8509 43.0559C50.0557 39.8065 50.4221 35.1698 47.4526 30.5153C46.5947 29.1673 45.4087 27.752 43.9929 26.3266Z" fill="#FEDEA6"/>
<path d="M39.4073 47.7069C36.7851 47.7069 34.1386 46.7524 31.7283 44.9335C27.8205 41.9824 23.1773 35.5687 19.6129 28.1928C16.812 22.3984 14.3123 15.0238 15.6974 11.6996L15.7345 11.6107L15.8277 11.5815C18.0733 10.8694 22.2032 11.8976 27.4554 14.4755C32.3883 16.8973 37.5588 20.3155 41.6402 23.8531C42.5415 24.6349 43.3828 25.4181 44.1412 26.1809C45.617 27.666 46.7902 29.0864 47.6302 30.4026C50.3788 34.7119 50.5257 39.4844 48.0247 43.1717C47.5741 43.8368 47.043 44.4499 46.4493 44.9919C44.6314 46.6521 42.2632 47.6143 39.7776 47.7006C39.655 47.7044 39.5312 47.7069 39.4073 47.7069ZM16.0485 11.9496C15.003 14.671 16.5056 20.8042 19.9895 28.0125C23.5271 35.3313 28.1231 41.6879 31.9811 44.601C37.3813 48.6779 42.996 47.5813 46.1659 44.686C46.7366 44.1643 47.2447 43.5766 47.6775 42.9394C50.0827 39.3943 49.932 34.7918 47.2766 30.626C46.4532 29.3351 45.2978 27.9377 43.8437 26.4742C43.093 25.7189 42.2594 24.9421 41.3657 24.1678C33.5105 17.3568 20.8053 10.5839 16.0485 11.9496Z" fill="#F5C371"/>
<path d="M16.0463 11.6389L15.7373 11.9199L46.1557 44.9814L46.4647 44.7004L16.0463 11.6389Z" fill="#F5C371"/>
<path d="M18.2648 24.8738L18.2495 24.4575C21.9058 24.3191 27.412 24.1604 27.4669 24.1592L27.4784 24.5755C27.4235 24.578 21.9199 24.7367 18.2648 24.8738Z" fill="#F5C371"/>
<path d="M29.1037 25.9581L19.3345 26.96L19.3774 27.3741L29.1466 26.3722L29.1037 25.9581Z" fill="#F5C371"/>
<path d="M36.7768 20.4397L35.5864 33.3916L36.0035 33.4295L37.1938 20.4776L36.7768 20.4397Z" fill="#F5C371"/>
<path d="M40.9912 38.8974L28.2251 41.124L28.2975 41.5341L41.0636 39.3074L40.9912 38.8974Z" fill="#F5C371"/>
<path d="M42.5426 25.0727L39.4243 37.5254L39.8307 37.626L42.949 25.1732L42.5426 25.0727Z" fill="#F5C371"/>
<path d="M24.1756 21.0378C24.0033 19.7914 23.536 16.4988 22.9258 12.8674L23.3394 12.7988C23.9509 16.4354 24.4195 19.733 24.5918 20.982L24.1756 21.0378Z" fill="#F5C371"/>
<path fill-rule="evenodd" clip-rule="evenodd" d="M111.26 93.8853C106.176 92.8775 102.462 95.3387 101.122 98.7264C100.069 101.388 102.895 107.708 105.225 109.137C112.212 113.425 130.172 114.838 133.784 111.414C133.485 106.464 119.313 95.4808 111.26 93.8853Z" fill="#FEDEA6"/>
<path d="M124.675 113.539C117.924 113.539 109.456 111.979 105.115 109.315C102.667 107.812 99.8401 101.398 100.928 98.6503C101.635 96.8631 102.972 95.3793 104.69 94.4743C106.587 93.4741 108.872 93.2012 111.302 93.6823C115.065 94.4273 120.528 97.3201 125.559 101.229C129.526 104.311 133.824 108.603 133.994 111.405L134.001 111.502L133.93 111.569C132.499 112.92 128.927 113.539 124.675 113.539ZM109.032 93.8676C105.07 93.8676 102.354 96.1802 101.316 98.8026C100.307 101.354 103.05 107.559 105.333 108.961C108.537 110.926 114.456 112.458 120.786 112.96C126.993 113.453 131.866 112.828 133.567 111.331C133.348 109.09 130.197 105.361 125.3 101.556C120.317 97.6843 114.921 94.8234 111.219 94.0897C110.454 93.9374 109.724 93.8676 109.032 93.8676Z" fill="#F5C371"/>
<path d="M101.259 98.4941L101.106 98.8818L133.768 111.573L133.92 111.185L101.259 98.4941Z" fill="#F5C371"/>
<path d="M123.571 113.341C122.648 110.664 121.221 106.648 121.207 106.607L121.602 106.469C121.616 106.509 123.043 110.527 123.967 113.206L123.571 113.341Z" fill="#F5C371"/>
<path d="M119.83 105.791L119.426 105.9L121.432 113.232L121.836 113.122L119.83 105.791Z" fill="#F5C371"/>
<path d="M121.502 98.3994L112.378 102.888L112.564 103.261L121.687 98.7726L121.502 98.3994Z" fill="#F5C371"/>
<path d="M107.058 100.843L106.647 100.924L108.6 110.762L109.01 110.681L107.058 100.843Z" fill="#F5C371"/>
<path d="M116.453 95.5522L108.237 101.295L108.478 101.636L116.694 95.8928L116.453 95.5522Z" fill="#F5C371"/>
<path d="M124.771 108.03L124.675 107.625C125.636 107.399 128.177 106.813 131.002 106.235L131.086 106.643C128.267 107.219 125.731 107.805 124.771 108.03Z" fill="#F5C371"/>
<path fill-rule="evenodd" clip-rule="evenodd" d="M110.368 87.7535C105.993 90.5167 105.017 94.8463 106.403 98.2175C107.491 100.865 113.926 103.494 116.603 102.927C124.634 101.227 138.6 89.9113 138.833 84.9559C135.177 81.5809 117.299 83.3757 110.368 87.7535Z" fill="#FEDEA6"/>
<path d="M115.754 103.214C112.646 103.214 107.227 100.77 106.21 98.2964C105.479 96.5181 105.414 94.5278 106.027 92.6924C106.704 90.6666 108.165 88.8985 110.257 87.5784C113.495 85.5323 119.455 83.8708 125.809 83.2412C130.818 82.745 136.908 82.8947 138.977 84.8038L139.049 84.8698L139.044 84.9662C138.804 90.0345 124.781 101.409 116.647 103.13C116.379 103.187 116.079 103.214 115.754 103.214ZM130.606 83.405C129.145 83.405 127.546 83.4875 125.85 83.655C119.557 84.2783 113.668 85.9169 110.481 87.93C106.05 90.7288 105.338 95.0749 106.598 98.139C107.641 100.676 113.936 103.278 116.561 102.722C120.241 101.943 125.587 98.9843 130.512 95C135.341 91.0931 138.431 87.2941 138.62 85.0437C137.374 83.9774 134.469 83.405 130.606 83.405Z" fill="#F5C371"/>
<path d="M138.761 84.6905L106.332 97.9531L106.491 98.3382L138.921 85.0755L138.761 84.6905Z" fill="#F5C371"/>
<path d="M132.789 93.3623C130.261 92.0613 126.439 90.1383 126.401 90.118L126.59 89.7461C126.628 89.7651 130.452 91.6894 132.981 92.9917L132.789 93.3623Z" fill="#F5C371"/>
<path d="M124.842 90.4794L124.625 90.8359L131.17 94.7588L131.386 94.4022L124.842 90.4794Z" fill="#F5C371"/>
<path d="M120.902 83.9735L117.424 93.4844L117.817 93.6266L121.295 84.1158L120.902 83.9735Z" fill="#F5C371"/>
<path d="M112.161 95.6703L111.92 96.0107L120.167 101.783L120.408 101.442L112.161 95.6703Z" fill="#F5C371"/>
<path d="M115.279 85.3996L113.328 95.1943L113.738 95.2752L115.69 85.4804L115.279 85.3996Z" fill="#F5C371"/>
<path d="M129.965 88.6996L129.614 88.4724C130.152 87.6499 131.58 85.4807 133.223 83.1211L133.568 83.3585C131.929 85.7143 130.503 87.8784 129.965 88.6996Z" fill="#F5C371"/>
<path fill-rule="evenodd" clip-rule="evenodd" d="M58.6876 42.9999C22.6876 30 4.64886 38.0284 0.454337 64.4615C-3.74019 90.8946 21.5338 116.323 58.6877 121.5C88.4487 125.647 118.688 107 123.688 63C128.688 19 94.6876 55.9999 58.6876 42.9999Z" fill="#F5C371"/>
<path fill-rule="evenodd" clip-rule="evenodd" d="M54.1593 42.7312C53.83 42.7883 53.5019 42.8518 53.1738 42.9178C52.3325 43.0853 51.4937 43.2681 50.6588 43.4636C49.4881 43.7377 48.3238 44.0373 47.1684 44.3673C45.8509 44.743 44.5436 45.1581 43.2568 45.629C41.8806 46.1329 40.5107 46.7041 39.2124 47.3844C39.1856 47.3984 39.1536 47.3882 39.1396 47.3616C39.1256 47.3349 39.1358 47.3032 39.1626 47.2892C40.4648 46.6051 41.8384 46.0326 43.2198 45.5274C44.5079 45.0565 45.819 44.6402 47.1378 44.2632C48.2944 43.9332 49.4613 43.6324 50.6332 43.3582C51.4695 43.1627 52.3095 42.9787 53.1521 42.8124C53.4802 42.7477 53.8095 42.6829 54.1402 42.6258C54.1696 42.6207 54.1976 42.6398 54.2028 42.669C54.2091 42.6982 54.1887 42.7261 54.1593 42.7312Z" fill="white"/>
<path d="M39.1876 47.4181C39.1583 47.4181 39.1302 47.4029 39.1148 47.375C39.1046 47.3559 39.1021 47.3343 39.1085 47.3128C39.1148 47.2925 39.1289 47.2747 39.148 47.2645C40.3226 46.6477 41.6503 46.0714 43.209 45.5015C44.427 45.056 45.71 44.6422 47.1296 44.2373C48.2505 43.9174 49.4276 43.6128 50.6264 43.3323C51.4855 43.1317 52.3332 42.9477 53.1465 42.7865C53.4439 42.7268 53.7912 42.6595 54.1346 42.5999C54.1563 42.5961 54.178 42.6011 54.1959 42.6138C54.2137 42.6265 54.2252 42.6456 54.2291 42.6659C54.2329 42.6875 54.2278 42.709 54.215 42.7268C54.2023 42.7446 54.1831 42.756 54.1627 42.7598C53.8244 42.8182 53.4771 42.8867 53.1784 42.9451C52.3664 43.1063 51.5213 43.2891 50.6647 43.4909C49.4697 43.7702 48.2952 44.0748 47.1756 44.3947C45.7585 44.7996 44.4806 45.2121 43.2665 45.6551C41.7154 46.2224 40.394 46.7962 39.2259 47.4092C39.2144 47.4143 39.2004 47.4181 39.1876 47.4181ZM54.1499 42.6519C54.1486 42.6519 54.1474 42.6519 54.1448 42.6519C53.8014 42.7116 53.4554 42.7788 53.158 42.8385C52.346 42.9997 51.4996 43.1837 50.6404 43.3843C49.4429 43.6648 48.2671 43.9694 47.1462 44.2893C45.7279 44.6942 44.4461 45.108 43.2295 45.5523C41.6732 46.1222 40.3468 46.6972 39.1748 47.3128C39.1685 47.3153 39.1646 47.3217 39.1621 47.328C39.1595 47.3343 39.1608 47.342 39.1634 47.3483C39.1697 47.361 39.1863 47.3661 39.1991 47.3585C40.3698 46.7441 41.6937 46.1691 43.2473 45.6005C44.4627 45.1562 45.7419 44.7437 47.1603 44.3388C48.2812 44.0189 49.4557 43.7143 50.6519 43.4351C51.5098 43.2345 52.3562 43.0505 53.1682 42.8893C53.4669 42.8296 53.8141 42.7623 54.1537 42.7027C54.1601 42.7014 54.1665 42.6976 54.1703 42.6925C54.1742 42.6875 54.1754 42.6798 54.1742 42.6735C54.1729 42.6671 54.1691 42.6608 54.1639 42.657C54.1601 42.6532 54.155 42.6519 54.1499 42.6519Z" fill="white"/>
<path fill-rule="evenodd" clip-rule="evenodd" d="M86.564 30.9702C89.3866 26.0923 91.2888 20.9783 91.8748 19.3143C92.0638 17.4116 88.8632 11.3418 88.8632 11.3418C86.0623 11.4891 76.3316 11.927 72.1187 11.1857C72.1187 11.1857 69.4914 9.67145 67.436 11.3748C65.3806 13.0782 68.9207 15.4252 68.9207 15.4252L54.1499 42.6769C62.5247 52.3667 69.6816 47.0674 69.6816 47.0674L71.8136 40.7082C76.6942 42.7785 81.1012 39.0709 84.5494 34.1447C85.1584 33.1839 85.858 32.0656 86.564 30.9702Z" fill="#FDBCA0"/>
<path fill-rule="evenodd" clip-rule="evenodd" d="M76.4387 111.154L72.4224 116.598L90.5431 116.674C86.5089 113.42 76.4387 111.154 76.4387 111.154Z" fill="#FDBCA0"/>
<path fill-rule="evenodd" clip-rule="evenodd" d="M86.5641 30.9703C85.9373 32.0543 85.2645 33.1256 84.5508 34.1461C82.4903 37.4031 81.8647 39.6117 81.8647 40.5205C81.8647 41.4293 82.3256 44.3677 82.3256 44.3677L87.7271 44.2535C87.7271 44.2535 87.7271 41.3532 88.1829 39.9151C88.6399 38.4769 91.5328 26.1381 90.6187 25.9858C90.4068 25.9503 90.0774 26.1965 89.6702 26.6344C89.6842 26.6433 89.3408 27.0127 89.1378 27.2589C88.3846 28.2045 87.468 29.569 86.5641 30.9703Z" fill="#FDBCA0"/>
<path fill-rule="evenodd" clip-rule="evenodd" d="M68.3117 2.06479C58.4138 7.66619 39.1875 47.3355 39.1875 47.3355C45.0728 44.246 54.1498 42.6771 54.1498 42.6771L68.9206 15.4254C68.9206 15.4254 65.3805 13.0785 67.4359 11.3751C69.4913 9.67167 72.1186 11.1859 72.1186 11.1859C76.3316 11.9272 86.0622 11.488 88.8631 11.3421C88.8631 11.3421 92.0637 17.4118 91.8747 19.3145C91.2875 20.9786 89.3866 26.0938 86.5639 30.9704C88.2491 28.357 89.9764 25.8793 90.6198 25.9859C91.5339 26.137 88.6397 38.4771 88.184 39.9152C87.7269 41.3533 87.7282 44.2536 87.7282 44.2536L88.8695 44.2295C88.8695 44.2295 89.4312 49.4158 90.104 56.8323C90.4194 60.3 90.7577 64.2564 91.0756 68.3969C92.1607 67.0019 94.5391 63.7056 94.6565 61.4894C94.8085 58.6131 97.5494 34.9941 96.3315 18.9464C95.1123 2.89745 88.184 4.03346 88.184 4.03346C88.184 4.03346 78.2095 -3.53661 68.3117 2.06479Z" fill="#3F4553"/>
<path fill-rule="evenodd" clip-rule="evenodd" d="M84.5505 34.1465C81.1023 39.0726 76.6953 42.7802 71.8146 40.71L69.6826 47.0692C69.6826 47.0692 78.4494 50.2881 80.4243 54.5263C81.1074 48.4045 81.7125 44.3821 81.7125 44.3821L82.3266 44.3694C82.3266 44.3694 81.8657 41.4297 81.8657 40.5222C81.8644 39.6121 82.4887 37.4035 84.5505 34.1465Z" fill="#3F4553"/>
<path fill-rule="evenodd" clip-rule="evenodd" d="M35.5326 97.0982C34.0133 96.9636 32.4546 96.8545 30.8587 96.7719C31.8762 95.6765 33.3163 92.8841 34.8457 89.4722C35.0487 91.79 35.364 95.2551 35.5326 97.0982ZM36.4862 49.0744C31.3081 53.3138 7.85739 89.6499 16.0803 107.515C16.0803 107.515 22.4763 113.874 72.4226 116.6L76.4389 111.156L77.4487 109.787C77.4487 109.787 74.0771 107.44 67.6007 104.728C67.6007 104.728 69.2514 101.123 71.174 96.8024C71.174 96.8024 78.059 109.485 84.3018 112.967C76.0087 104.945 78.5198 71.5866 80.4246 54.5273C78.4509 50.2891 69.6829 47.0702 69.6829 47.0702C69.6829 47.0702 62.526 52.3695 54.1512 42.6797C54.1512 42.6797 45.0742 44.2485 39.1889 47.338C38.1701 47.8698 37.2484 48.4499 36.4862 49.0744Z" fill="#63A6DC"/>
<path fill-rule="evenodd" clip-rule="evenodd" d="M80.4232 54.5257C78.5185 71.585 76.0073 104.943 84.3004 112.965C84.3004 112.965 90.5432 118.112 92.0662 102.973C92.8182 95.496 92.0471 81.0781 91.0743 68.3978C90.7564 64.2574 90.4181 60.301 90.1028 56.8333C89.43 49.4168 88.8682 44.2305 88.8682 44.2305L87.7269 44.2546L82.3254 44.3688L81.7114 44.3815C81.7114 44.3815 81.1062 48.4039 80.4232 54.5257Z" fill="#63A6DC"/>
<path fill-rule="evenodd" clip-rule="evenodd" d="M72.6271 65.109C72.8875 66.0153 73.1454 66.9215 73.402 67.8291C73.9599 69.8028 74.5114 71.7791 75.0489 73.7592C75.5443 75.5781 76.0319 77.4021 76.4826 79.2324C76.646 79.8988 76.8069 80.5703 76.946 81.243C76.9933 81.474 77.0392 81.7063 77.075 81.9385C77.0967 82.0807 77.1209 82.2394 77.1209 82.3841C77.1209 82.5377 77.0609 82.7509 77.0201 82.8994C76.9384 83.1913 76.8388 83.4807 76.7379 83.7663C76.4277 84.6434 76.0792 85.5129 75.7294 86.3747C75.2621 87.5234 74.7808 88.6658 74.2931 89.8056C73.7454 91.0876 73.1888 92.3658 72.6296 93.6414C72.1637 94.7038 71.6938 95.765 71.2215 96.8248C71.21 96.8515 71.1781 96.8642 71.15 96.8528C71.1232 96.8413 71.1104 96.8096 71.1219 96.7817C71.593 95.7218 72.0628 94.6607 72.5288 93.5983C73.0892 92.3226 73.6446 91.0445 74.1923 89.7625C74.6787 88.6227 75.1613 87.4816 75.6272 86.3328C75.977 85.4723 76.3243 84.6041 76.6345 83.7295C76.7354 83.4465 76.8337 83.1583 76.9141 82.8702C76.9524 82.7344 77.0111 82.5262 77.0111 82.3841C77.0111 82.2457 76.9882 82.0921 76.9664 81.955C76.9307 81.724 76.8847 81.493 76.8375 81.2646C76.6996 80.5931 76.5388 79.9242 76.3754 79.2578C75.926 77.4287 75.437 75.6048 74.9429 73.7871C74.4042 71.8083 73.854 69.832 73.2961 67.8583C73.0394 66.9507 72.7828 66.0445 72.5211 65.1382C72.5135 65.1103 72.5301 65.0798 72.5581 65.0722C72.5901 65.0646 72.6194 65.0811 72.6271 65.109Z" fill="#A7D1F3"/>
<path d="M71.1728 96.8828C71.1614 96.8828 71.1511 96.8802 71.1397 96.8751C71.0988 96.8574 71.0797 96.8091 71.0975 96.7673C71.598 95.6439 72.0576 94.6031 72.5044 93.5839C73.1248 92.1686 73.67 90.9145 74.1678 89.7493C74.7411 88.4077 75.1981 87.3173 75.6028 86.3209C75.922 85.5353 76.2896 84.6214 76.6088 83.7189C76.7045 83.4473 76.8054 83.1553 76.8884 82.8608C76.9267 82.7238 76.9841 82.5194 76.9841 82.3823C76.9841 82.244 76.9599 82.0853 76.9394 81.9571C76.9011 81.7121 76.8539 81.471 76.8118 81.2679C76.6713 80.5901 76.5067 79.9034 76.3496 79.2624C75.8951 77.413 75.3921 75.5395 74.9172 73.7917C74.4245 71.9779 73.8857 70.0384 73.2704 67.8628C73.0278 67.0048 72.7661 66.0807 72.4954 65.144C72.4891 65.1237 72.4916 65.1008 72.5031 65.0818C72.5133 65.0628 72.5312 65.0488 72.5516 65.0425C72.572 65.0361 72.595 65.0387 72.6142 65.0501C72.6333 65.0602 72.6474 65.078 72.6538 65.0983C72.9295 66.0541 73.2002 67.0099 73.4287 67.8184C74.0427 69.9914 74.5815 71.9309 75.0755 73.7486C75.5517 75.4977 76.0547 77.3724 76.5092 79.223C76.6675 79.8653 76.8322 80.5545 76.9726 81.2336C77.0148 81.4392 77.0633 81.6829 77.1016 81.9304C77.1207 82.0561 77.1475 82.2287 77.1475 82.3798C77.1475 82.5384 77.0863 82.7568 77.0454 82.9015C76.9611 83.201 76.8603 83.4955 76.7633 83.7697C76.4428 84.6759 76.0739 85.5924 75.7547 86.3793C75.35 87.377 74.893 88.4673 74.3185 89.8102C73.818 90.9793 73.2742 92.2346 72.6538 93.6473C72.2069 94.664 71.7473 95.7061 71.2456 96.8307C71.2341 96.865 71.2048 96.8828 71.1728 96.8828ZM72.5759 65.097C72.5733 65.097 72.5708 65.097 72.5682 65.0983C72.5618 65.1009 72.5554 65.1047 72.5529 65.111C72.5491 65.1173 72.5491 65.1237 72.5503 65.13C72.821 66.0681 73.0827 66.9908 73.3253 67.8501C73.9406 70.0257 74.4793 71.9652 74.9721 73.779C75.447 75.5269 75.95 77.4003 76.4045 79.251C76.5616 79.892 76.7275 80.5787 76.8667 81.2577C76.9088 81.4621 76.9573 81.7032 76.9956 81.9495C77.016 82.079 77.0403 82.2389 77.0403 82.3823C77.0403 82.527 76.9816 82.7352 76.9433 82.8735C76.859 83.1718 76.7582 83.465 76.6624 83.7379C76.342 84.6417 75.9743 85.5568 75.6551 86.3425C75.2504 87.3402 74.7934 88.4293 74.2202 89.7722C73.721 90.9386 73.1772 92.1927 72.5567 93.608C72.1099 94.6272 71.649 95.668 71.1499 96.7914C71.1435 96.8041 71.1499 96.8193 71.1626 96.8256C71.1754 96.8307 71.1907 96.8256 71.1971 96.8129C71.6975 95.6884 72.1584 94.6463 72.604 93.6296C73.2231 92.2181 73.7683 90.9628 74.2674 89.7937C74.8419 88.4508 75.2977 87.3605 75.7036 86.3628C76.0228 85.5759 76.3918 84.6607 76.7122 83.7557C76.8092 83.4828 76.9101 83.1883 76.9943 82.8913C77.0339 82.7491 77.0939 82.5359 77.0939 82.3836C77.0939 82.2364 77.0671 82.0663 77.0479 81.9431C77.0096 81.6969 76.9611 81.4532 76.919 81.2488C76.7786 80.5698 76.6139 79.8818 76.4556 79.2395C76.0011 77.3889 75.4981 75.5154 75.0219 73.7663C74.5279 71.95 73.9891 70.0105 73.3751 67.8375C73.1465 67.0289 72.8759 66.0731 72.6001 65.1174C72.5989 65.111 72.5937 65.1059 72.5874 65.1021C72.5848 65.0983 72.5797 65.097 72.5759 65.097Z" fill="#A7D1F3"/>
<path fill-rule="evenodd" clip-rule="evenodd" d="M30.976 96.7241C36.6941 97.0198 42.3943 97.6951 48.0116 98.7943C53.4808 99.8643 58.8912 101.339 64.1152 103.275C66.057 103.995 67.9771 104.779 69.8614 105.636C71.2708 106.277 72.6624 106.96 74.0258 107.693C74.8889 108.158 75.7429 108.643 76.5766 109.158C76.8792 109.346 77.1868 109.539 77.4792 109.742C77.4919 109.751 77.4996 109.762 77.5009 109.777C77.5034 109.793 77.4996 109.805 77.4907 109.818L72.4658 116.632C72.4479 116.656 72.4147 116.661 72.3905 116.643C72.3662 116.625 72.3611 116.592 72.379 116.568L77.3719 109.799C77.0949 109.609 76.8051 109.426 76.5191 109.249C75.688 108.735 74.8352 108.251 73.9748 107.787C72.6139 107.055 71.2236 106.373 69.8167 105.734C67.935 104.877 66.0174 104.094 64.0782 103.375C58.8593 101.442 53.4539 99.9696 47.9912 98.8996C42.3446 97.7941 36.615 97.1175 30.8662 96.8256C30.8598 96.8269 30.8535 96.8256 30.8471 96.8243C29.2245 96.7418 27.6018 96.6898 25.9779 96.6682C25.9486 96.6682 25.9243 96.6428 25.9243 96.6136C25.9243 96.5844 25.9498 96.5603 25.9792 96.5603C27.5993 96.5819 29.2181 96.6339 30.8369 96.7164C31.0603 96.4727 31.262 96.1973 31.4484 95.9257C31.7011 95.555 31.936 95.1692 32.1607 94.7808C32.7416 93.7742 33.2676 92.7245 33.7693 91.6773C34.3821 90.3979 34.963 89.1019 35.526 87.7996C36.14 86.3806 36.735 84.9526 37.3171 83.5196C38.6487 80.2435 39.9202 76.9396 41.1547 73.6254C41.7216 72.101 42.2858 70.5741 42.831 69.042C42.8412 69.0141 42.8718 68.9989 42.8999 69.009C42.928 69.0192 42.9433 69.0496 42.9331 69.0776C42.388 70.6096 41.825 72.1378 41.2569 73.6623C40.0223 76.9776 38.7508 80.2816 37.4193 83.5602C36.8371 84.9932 36.2422 86.4225 35.6268 87.8415C35.0626 89.1438 34.4817 90.441 33.8689 91.7218C33.3659 92.7715 32.8386 93.8237 32.2565 94.8328C32.0305 95.2237 31.7956 95.6122 31.5403 95.9853C31.3654 96.2379 31.179 96.493 30.976 96.7241Z" fill="#A7D1F3"/>
<path fill-rule="evenodd" clip-rule="evenodd" d="M72.1074 11.239C72.1023 11.2377 72.0972 11.2364 72.0921 11.2326C71.9542 11.1526 71.7947 11.0828 71.6491 11.0219C71.2917 10.8734 70.9138 10.7604 70.5333 10.6919C69.4226 10.4913 68.3541 10.6868 67.4719 11.4179C67.1004 11.7264 66.8413 12.116 66.8476 12.6111C66.854 13.1086 67.1272 13.5922 67.4247 13.9768C67.7094 14.3462 68.0579 14.6825 68.4179 14.9783C68.5864 15.1179 68.769 15.2601 68.9516 15.3807C68.9758 15.3972 68.9835 15.4302 68.9669 15.4555C68.9503 15.4797 68.9171 15.4873 68.8916 15.4708C68.7052 15.3477 68.5201 15.203 68.349 15.0608C67.9826 14.7587 67.629 14.4173 67.3392 14.0416C66.6396 13.1365 66.4225 12.1478 67.403 11.3341C68.3094 10.5827 69.4112 10.3796 70.5525 10.5853C70.9406 10.6551 71.3261 10.7706 71.6912 10.9216C71.8393 10.9826 71.9989 11.0536 72.1393 11.1336C72.6602 11.225 73.1875 11.2872 73.7135 11.3367C74.3416 11.3963 74.9722 11.437 75.6016 11.4674C77.0276 11.536 78.4588 11.555 79.886 11.5512C82.11 11.5461 84.3377 11.4865 86.5603 11.3951C87.3238 11.3633 88.0885 11.3303 88.8519 11.2897C88.8596 11.2885 88.866 11.2872 88.8736 11.2885C89.1264 11.2745 89.3779 11.2605 89.6294 11.2453C89.6588 11.244 89.6843 11.2656 89.6869 11.2961C89.6881 11.3253 89.6664 11.3506 89.6358 11.3532C89.4086 11.3671 89.18 11.3798 88.9528 11.3925C89.157 11.7822 89.3537 12.177 89.5477 12.5717C89.9958 13.4843 90.4248 14.4084 90.818 15.3451C91.1256 16.0788 91.4205 16.834 91.6478 17.5956C91.7652 17.9903 91.9095 18.5222 91.9363 18.9842C91.9644 18.903 91.9925 18.8204 92.0193 18.7392C92.0282 18.7113 92.0589 18.6961 92.0869 18.7049C92.115 18.7138 92.1304 18.7443 92.1214 18.7722C92.0601 18.9588 91.995 19.1454 91.9286 19.3307C91.9286 19.332 91.9286 19.332 91.9274 19.3332C91.9235 19.3434 91.9159 19.3523 91.9069 19.3586C91.8967 19.365 91.8852 19.3688 91.8725 19.3675C91.8674 19.3675 91.8623 19.3662 91.8584 19.3637C91.8482 19.3599 91.8393 19.3523 91.8329 19.3434C91.8265 19.3332 91.8227 19.3218 91.824 19.3091C91.8469 19.073 91.8163 18.8116 91.7767 18.578C91.7218 18.2582 91.6376 17.9383 91.5444 17.6273C91.3171 16.8695 91.0248 16.1169 90.7184 15.387C90.3265 14.4515 89.8975 13.5288 89.4507 12.6187C89.2502 12.21 89.046 11.8012 88.8353 11.3989C88.0796 11.4395 87.3212 11.4725 86.5655 11.503C84.3415 11.5944 82.1125 11.654 79.8873 11.6591C78.4587 11.6629 77.0251 11.6439 75.5978 11.5753C74.9658 11.5449 74.3339 11.5042 73.7045 11.4446C73.1722 11.3938 72.6385 11.3316 72.1125 11.239C72.1087 11.239 72.1087 11.239 72.1074 11.239Z" fill="white"/>
<path d="M91.8749 19.3956C91.8723 19.3956 91.8698 19.3956 91.8659 19.3956C91.8583 19.3944 91.8506 19.3931 91.8442 19.3906C91.8289 19.3842 91.8149 19.3741 91.8059 19.3588C91.7957 19.3436 91.7906 19.3245 91.7932 19.3068C91.8123 19.1126 91.797 18.8816 91.7459 18.5833C91.6974 18.304 91.6247 18.0032 91.5149 17.6364C91.3208 16.9865 91.0668 16.2973 90.6901 15.3999C90.3301 14.5431 89.9165 13.6381 89.4237 12.6328C89.2603 12.3003 89.0445 11.8649 88.816 11.4295C88.1649 11.4638 87.4692 11.4955 86.564 11.5336C84.1129 11.6339 81.9272 11.6847 79.8846 11.6897C78.2237 11.6935 76.8602 11.6669 75.5938 11.606C74.8916 11.5717 74.2725 11.5298 73.6993 11.4752C73.0775 11.4168 72.5707 11.3508 72.1047 11.2696H72.1009C72.0932 11.2683 72.0843 11.2645 72.0779 11.2607C71.9285 11.1744 71.7549 11.0995 71.6375 11.0513C71.2736 10.9002 70.8996 10.7898 70.5268 10.7225C69.3612 10.5118 68.3105 10.7606 67.4884 11.4422C67.0747 11.7849 66.8679 12.1784 66.8743 12.6138C66.8794 13.0263 67.0722 13.4794 67.445 13.963C67.7016 14.2956 68.0348 14.6307 68.4344 14.9607C68.6399 15.1295 68.8084 15.2577 68.9654 15.3618C68.9833 15.3732 68.9961 15.3923 68.9999 15.4138C69.0038 15.4354 68.9999 15.457 68.9884 15.4748C68.9629 15.5116 68.9118 15.5217 68.8748 15.4976C68.7127 15.3897 68.5391 15.259 68.3297 15.0864C67.9199 14.7487 67.579 14.4048 67.3147 14.0621C66.4862 12.9895 66.5092 12.0401 67.3824 11.3166C68.2429 10.6032 69.3395 10.343 70.5549 10.5613C70.9391 10.6311 71.3247 10.7441 71.6988 10.9002C71.8851 10.9777 72.0281 11.0449 72.1456 11.1122C72.6026 11.1922 73.1018 11.2569 73.7133 11.314C74.2814 11.3673 74.8993 11.4105 75.6002 11.4435C76.8628 11.5044 78.2237 11.5298 79.8821 11.5273C81.9221 11.5222 84.1052 11.4714 86.5551 11.3711C87.4743 11.3331 88.1803 11.3013 88.8467 11.2658C88.8518 11.2633 88.8633 11.2633 88.8735 11.2645C89.1199 11.2506 89.3714 11.2366 89.6241 11.2214C89.6459 11.2201 89.6676 11.2277 89.6829 11.2417C89.6995 11.2556 89.7097 11.2759 89.711 11.2975C89.7135 11.342 89.679 11.3813 89.6344 11.3838C89.4212 11.3965 89.208 11.4092 88.9935 11.4206C89.1633 11.7456 89.342 12.101 89.568 12.563C90.062 13.5696 90.4769 14.4771 90.8382 15.339C91.2174 16.2427 91.474 16.9383 91.6693 17.592C91.7702 17.9283 91.903 18.4107 91.9476 18.8524C91.9604 18.813 91.9745 18.7737 91.9872 18.7343C91.9936 18.714 92.0089 18.6975 92.0281 18.6874C92.0472 18.6772 92.0702 18.6759 92.0906 18.6823C92.1111 18.6886 92.1277 18.7039 92.1379 18.7229C92.1481 18.7419 92.1494 18.7648 92.143 18.7851C92.0804 18.9742 92.014 19.1646 91.9502 19.3436C91.9425 19.3626 91.9323 19.3753 91.917 19.3855C91.9068 19.3906 91.8915 19.3956 91.8749 19.3956ZM88.8492 11.3699L88.8582 11.3864C89.0905 11.8281 89.3088 12.2711 89.4748 12.6074C89.9676 13.6127 90.3825 14.519 90.7425 15.377C91.1204 16.277 91.3744 16.9687 91.5698 17.6199C91.6795 17.9893 91.7536 18.2926 91.8021 18.5744C91.8545 18.879 91.8698 19.1126 91.8506 19.3131C91.8506 19.3195 91.8519 19.3245 91.8545 19.3296C91.857 19.3347 91.8621 19.3372 91.8672 19.3398L91.8749 19.341C91.8825 19.341 91.8876 19.3398 91.8915 19.3372C91.8966 19.3347 91.8991 19.3296 91.9017 19.3245C91.9655 19.1443 92.0319 18.9552 92.0945 18.7648C92.097 18.7584 92.0957 18.7508 92.0932 18.7445C92.0906 18.7381 92.0843 18.7331 92.0779 18.7318C92.0715 18.7292 92.0638 18.7305 92.0574 18.7331C92.0511 18.7356 92.0459 18.7419 92.0447 18.7483C92.0179 18.8308 91.9898 18.912 91.9617 18.9945L91.9157 19.1278L91.9081 18.9869C91.8813 18.5173 91.7306 17.9727 91.6208 17.6047C91.4255 16.9522 91.1702 16.2592 90.7923 15.3567C90.431 14.4961 90.0161 13.5899 89.5233 12.5846C89.2884 12.1048 89.1046 11.7405 88.9297 11.4054L88.9092 11.3673L88.9526 11.3648C89.1799 11.3521 89.4084 11.3394 89.6356 11.3255C89.6497 11.3242 89.6612 11.3128 89.6599 11.2975C89.6599 11.2912 89.6561 11.2848 89.651 11.2798C89.6459 11.2747 89.6395 11.2721 89.6318 11.2734C89.3803 11.2886 89.1275 11.3026 88.876 11.3166C88.8671 11.3153 88.8633 11.3153 88.8607 11.3166C88.1892 11.3534 87.4832 11.3851 86.5628 11.4232C84.1116 11.5235 81.9285 11.5742 79.8872 11.5793C78.2275 11.5831 76.8653 11.5565 75.6015 11.4955C74.8993 11.4613 74.2814 11.4194 73.712 11.3648C73.0967 11.3064 72.5962 11.2417 72.1354 11.1617L72.1264 11.1579C72.0103 11.0919 71.8685 11.0246 71.6822 10.9472C71.3106 10.7936 70.9302 10.6806 70.5498 10.6121C69.351 10.3951 68.2697 10.6527 67.4233 11.3546C66.3547 12.2406 66.8015 13.2941 67.3633 14.0227C67.625 14.3616 67.9633 14.703 68.3693 15.0381C68.5774 15.2095 68.7497 15.3402 68.9093 15.4456C68.9208 15.4532 68.9374 15.4507 68.945 15.438C68.9489 15.4316 68.9501 15.4253 68.9489 15.4189C68.9476 15.4126 68.9437 15.4062 68.9374 15.4024C68.7791 15.2971 68.608 15.1689 68.4012 14.9975C67.9978 14.665 67.662 14.3261 67.4028 13.991C67.0211 13.4972 66.8258 13.0327 66.8207 12.6087C66.8143 12.1568 67.0288 11.7481 67.4552 11.394C68.2901 10.7022 69.3561 10.4496 70.5396 10.6629C70.9162 10.7302 71.2941 10.8431 71.6617 10.9954C71.7805 11.0449 71.9566 11.1198 72.1086 11.2087C72.1111 11.2099 72.1137 11.2112 72.1162 11.2112C72.5822 11.2937 73.0865 11.3585 73.7069 11.4168C74.2789 11.4702 74.898 11.5133 75.5989 11.5476C76.8641 11.6085 78.2275 11.6352 79.8872 11.6314C81.9298 11.6263 84.1141 11.5755 86.564 11.4752C87.4768 11.4384 88.1764 11.4054 88.8326 11.3711L88.8492 11.3699Z" fill="#F0A38B"/>
<path fill-rule="evenodd" clip-rule="evenodd" d="M80.3866 54.3286C80.6445 52.0338 80.9241 49.7414 81.2292 47.4529C81.3658 46.426 81.505 45.3979 81.6594 44.3736C81.6633 44.3469 81.685 44.3279 81.7118 44.3279L82.2633 44.3164C82.1599 43.6564 82.0654 42.9926 81.9799 42.33C81.9365 41.9873 81.8943 41.6433 81.8611 41.3006C81.8356 41.0455 81.8101 40.7776 81.8101 40.5212C81.8101 40.2153 81.8714 39.8841 81.9416 39.5883C82.0526 39.1161 82.2097 38.649 82.3833 38.1959C82.6246 37.5714 82.9067 36.9609 83.2118 36.3656C83.6063 35.5977 84.0417 34.8488 84.5038 34.1189C84.5191 34.0935 84.5536 34.0859 84.5779 34.1024C84.6034 34.1177 84.611 34.1519 84.5944 34.176C84.1348 34.9033 83.7008 35.6484 83.3076 36.4138C83.0037 37.0066 82.7229 37.6133 82.4829 38.234C82.3105 38.682 82.1548 39.1453 82.045 39.6124C81.9773 39.9006 81.916 40.2242 81.916 40.5212C81.916 40.7738 81.9416 41.0379 81.9658 41.2892C81.999 41.6319 82.0412 41.9746 82.0846 42.316C82.1701 42.9824 82.2646 43.6501 82.3692 44.3139L88.8648 44.1768C88.8929 44.1768 88.9172 44.1971 88.9197 44.2251C89.0474 45.4042 89.1674 46.5847 89.2861 47.7651C89.5912 50.7848 89.8798 53.807 90.1542 56.8292C90.504 60.6815 90.8296 64.5376 91.1258 68.3937C91.1283 68.4229 91.1053 68.4496 91.076 68.4508C91.0466 68.4534 91.0198 68.4305 91.0185 68.4013C90.7224 64.5452 90.3968 60.6903 90.047 56.838C89.7725 53.8158 89.484 50.7937 89.1789 47.774C89.0614 46.6101 88.9427 45.4461 88.8176 44.2834L81.7552 44.4332C81.6033 45.4423 81.4667 46.4552 81.3326 47.4656C81.0211 49.81 80.7351 52.1581 80.4721 54.5089C80.4773 54.5241 80.4747 54.5393 80.467 54.552C80.4351 54.8338 80.4045 55.1169 80.3738 55.3987C79.9666 59.1177 79.6142 62.8443 79.327 66.5748C78.9989 70.8371 78.7563 75.1095 78.6363 79.3832C78.538 82.9119 78.524 86.4481 78.6465 89.9768C78.7053 91.6523 78.7959 93.329 78.93 95.0007C79.0563 96.5695 79.2198 98.1358 79.4393 99.6932C79.6398 101.119 79.8875 102.54 80.2053 103.944C80.4875 105.192 80.8271 106.434 81.2573 107.642C81.9224 109.51 82.8888 111.528 84.3353 112.928C84.357 112.948 84.357 112.983 84.3366 113.004C84.3161 113.026 84.2817 113.026 84.26 113.006C82.8008 111.594 81.8267 109.563 81.1552 107.678C80.7236 106.467 80.3828 105.221 80.0994 103.968C79.7815 102.561 79.5338 101.136 79.3321 99.7085C79.1125 98.1485 78.9478 96.5797 78.8227 95.0095C78.6887 93.3366 78.598 91.6586 78.5393 89.9819C78.4155 86.452 78.4308 82.9132 78.5291 79.382C78.6478 75.107 78.8917 70.8333 79.2198 66.5685C79.507 62.8367 79.8581 59.1088 80.2666 55.3885C80.2985 55.1016 80.3304 54.8148 80.3624 54.5279C79.5925 52.8943 77.855 51.4956 76.3779 50.5119C74.9609 49.5675 73.4212 48.7552 71.8727 48.0469C71.3505 47.8083 70.822 47.5798 70.2896 47.364C70.0815 47.2802 69.8721 47.1965 69.6615 47.119C69.6334 47.1089 69.6194 47.0784 69.6296 47.0505L71.7514 40.7218C71.5637 40.4984 71.385 40.2534 71.2165 40.0173C70.7556 39.3713 70.333 38.6922 69.9462 37.9979C68.69 35.7424 67.7899 33.2672 67.3431 30.7261C67.338 30.6969 67.3572 30.669 67.3865 30.6639C67.4159 30.6588 67.444 30.6779 67.4491 30.7071C67.8946 33.2355 68.7908 35.7005 70.0407 37.9446C70.4249 38.6338 70.845 39.3103 71.3045 39.9539C71.4769 40.195 71.6607 40.4476 71.8535 40.6736C71.8599 40.6812 71.8637 40.6888 71.865 40.6977C71.8663 40.7066 71.8663 40.7155 71.8637 40.7256L69.7483 47.0353C69.9436 47.1076 70.1377 47.185 70.3305 47.2637C70.8641 47.4795 71.3939 47.7093 71.9186 47.9479C73.4736 48.6587 75.0183 49.4736 76.4392 50.4205C77.8895 51.3877 79.5747 52.7407 80.3866 54.3286Z" fill="#F0A38B"/>
<path d="M84.3003 113.047C84.2786 113.047 84.2581 113.039 84.2428 113.024C83.0007 111.822 81.9832 110.076 81.1316 107.686C80.7333 106.567 80.3874 105.352 80.0759 103.974C79.7784 102.657 79.5269 101.262 79.3086 99.7113C79.1005 98.2338 78.9333 96.6967 78.7979 95.0098C78.669 93.4092 78.5771 91.7642 78.5145 89.9809C78.3996 86.7074 78.3958 83.2397 78.5043 79.3797C78.6167 75.3396 78.8426 71.1483 79.195 66.5649C79.4733 62.9449 79.8256 59.1827 80.2418 55.385C80.2725 55.1007 80.3044 54.8163 80.3363 54.532C79.7158 53.2221 78.3805 51.8779 76.3659 50.5337C75.0663 49.6668 73.593 48.8621 71.8645 48.0713C71.3296 47.8263 70.7972 47.5966 70.2827 47.3897C70.0938 47.3135 69.8729 47.2247 69.6559 47.1447C69.6137 47.1295 69.592 47.0825 69.6074 47.0406L71.724 40.7259C71.5389 40.505 71.3615 40.2613 71.1968 40.0316C70.7563 39.4147 70.3287 38.7344 69.9252 38.0096C68.6397 35.702 67.7639 33.2523 67.3196 30.7289C67.3158 30.7073 67.3209 30.6858 67.3336 30.668C67.3464 30.6502 67.3656 30.6388 67.386 30.635C67.4307 30.6274 67.4728 30.6566 67.4805 30.701C67.9209 33.2053 68.7916 35.6386 70.0682 37.9296C70.4691 38.6493 70.8929 39.3233 71.3308 39.9364C71.5019 40.1763 71.687 40.4289 71.8785 40.6548C71.8874 40.665 71.8938 40.6777 71.8964 40.6916C71.8989 40.7056 71.8989 40.7208 71.8938 40.7335L69.7874 47.0178C69.9635 47.0838 70.1384 47.1536 70.3453 47.2361C70.861 47.4443 71.3959 47.6753 71.9334 47.9215C73.6696 48.7148 75.1506 49.5246 76.4578 50.3966C78.3817 51.6786 79.698 52.9682 80.3708 54.2325C80.6312 51.9173 80.9121 49.6351 81.2031 47.4481C81.327 46.5164 81.4725 45.435 81.6334 44.3688C81.6397 44.3294 81.6729 44.3002 81.7125 44.299L82.2321 44.2875C82.1313 43.6427 82.0381 42.9852 81.9538 42.3315C81.9002 41.919 81.8644 41.6017 81.8351 41.3009C81.8121 41.0711 81.784 40.7843 81.784 40.519C81.784 40.2601 81.8261 39.9618 81.9155 39.5797C82.0151 39.1545 82.1606 38.6988 82.3585 38.1835C82.5832 37.6009 82.8551 37.0005 83.1883 36.3506C83.5624 35.6195 83.9862 34.8846 84.4816 34.1014C84.4931 34.0837 84.5109 34.071 84.5326 34.0659C84.5543 34.0608 84.576 34.0646 84.5939 34.0761C84.6131 34.0875 84.6258 34.1052 84.6297 34.1268C84.6348 34.1484 84.6309 34.17 84.6194 34.1878C84.1267 34.9658 83.7066 35.6969 83.3339 36.4242C83.0032 37.0703 82.7338 37.6644 82.5104 38.2419C82.3151 38.7496 82.1721 39.1989 82.0738 39.6165C81.987 39.9872 81.9461 40.274 81.9461 40.519C81.9461 40.7767 81.973 41.047 81.9959 41.2844C82.0253 41.5814 82.0623 41.8974 82.1147 42.31C82.1989 42.9687 82.2934 43.6326 82.3955 44.2837L88.8668 44.1466C88.909 44.1454 88.946 44.1771 88.9498 44.219C89.0826 45.4502 89.209 46.6916 89.3162 47.7591C89.6124 50.6962 89.9048 53.7463 90.1843 56.8244C90.5456 60.8087 90.8725 64.6991 91.1559 68.3902C91.1572 68.4117 91.1508 68.4333 91.1367 68.4498C91.1227 68.4663 91.1023 68.4765 91.0805 68.4777C91.0588 68.479 91.0371 68.4727 91.0205 68.4587C91.004 68.4447 90.9937 68.4244 90.9925 68.4029C90.7091 64.7105 90.3822 60.8201 90.0209 56.8396C89.7413 53.759 89.449 50.7102 89.1528 47.7768C89.0481 46.7335 88.9243 45.52 88.7941 44.3129L81.7815 44.4614C81.6257 45.5022 81.4827 46.5596 81.3627 47.4709C81.0614 49.7353 80.7716 52.1026 80.5023 54.5079C80.5061 54.5257 80.5048 54.5447 80.4959 54.5612C80.464 54.8417 80.4333 55.1222 80.4027 55.4027C79.9865 59.2005 79.6341 62.9601 79.3558 66.5776C79.0035 71.1585 78.7788 75.3472 78.6664 79.3848C78.5592 83.2409 78.563 86.7061 78.6767 89.9758C78.7392 91.7566 78.8311 93.4004 78.9601 94.9984C79.0954 96.6815 79.2614 98.2161 79.4695 99.6897C79.6878 101.236 79.938 102.626 80.2342 103.938C80.5444 105.31 80.8891 106.519 81.2848 107.632C82.1159 109.965 83.1487 111.739 84.3565 112.907C84.3718 112.922 84.3807 112.942 84.3807 112.964C84.3807 112.986 84.373 113.006 84.3577 113.022C84.3437 113.038 84.3233 113.047 84.3003 113.047C84.3016 113.047 84.3016 113.047 84.3003 113.047ZM67.3975 30.6908C67.3962 30.6908 67.3949 30.6908 67.3924 30.6908C67.386 30.6921 67.3796 30.6959 67.3758 30.701C67.3719 30.7073 67.3707 30.7137 67.3719 30.72C67.8149 33.237 68.6894 35.6804 69.9725 37.9829C70.3746 38.7052 70.8023 39.3842 71.2415 39.9999C71.4074 40.2334 71.5874 40.4796 71.7751 40.703L71.7853 40.7145L71.7802 40.7297L69.6584 47.0584C69.6533 47.0724 69.661 47.0863 69.6737 47.0914C69.892 47.1714 70.1129 47.2602 70.3018 47.3364C70.8163 47.5445 71.35 47.7743 71.8862 48.0193C73.6186 48.81 75.0931 49.6173 76.3966 50.4855C78.4239 51.8373 79.7669 53.1916 80.3899 54.513L80.3937 54.5206L80.3925 54.5282C80.3605 54.8151 80.3286 55.1019 80.2967 55.3888C79.8805 59.1865 79.5282 62.9474 79.2499 66.5675C78.8975 71.1496 78.6715 75.3408 78.5592 79.3797C78.452 83.2384 78.4558 86.7048 78.5694 89.9771C78.632 91.7604 78.7252 93.4042 78.8528 95.0047C78.9882 96.6891 79.1541 98.2262 79.3622 99.7024C79.5805 101.252 79.8307 102.645 80.1295 103.96C80.441 105.336 80.7857 106.549 81.184 107.666C82.0317 110.047 83.0453 111.786 84.2811 112.982C84.2862 112.987 84.2913 112.992 84.3003 112.989C84.3067 112.989 84.3143 112.987 84.3182 112.982C84.3233 112.977 84.3258 112.97 84.3258 112.963C84.3258 112.956 84.3233 112.949 84.3182 112.945C83.0875 111.754 82.0789 110.022 81.2338 107.648C80.8367 106.532 80.492 105.322 80.1805 103.948C79.8831 102.634 79.6329 101.243 79.4146 99.6948C79.2065 98.2199 79.0405 96.684 78.9052 94.9997C78.7775 93.4004 78.6843 91.7566 78.6218 89.9745C78.5069 86.7036 78.503 83.2371 78.6115 79.3797C78.7239 75.3421 78.9499 71.1521 79.3022 66.57C79.5805 62.9512 79.9329 59.1916 80.3491 55.3926C80.3797 55.1108 80.4116 54.8278 80.4423 54.546L80.4461 54.5345C80.4499 54.5282 80.4512 54.5206 80.4486 54.5142L80.4474 54.5092L80.4486 54.5028C80.718 52.095 81.0078 49.7252 81.3091 47.4595C81.4317 46.5418 81.5746 45.4743 81.7317 44.4259L81.7355 44.403H81.7585L88.8464 44.2533L88.849 44.2786C88.9805 45.4959 89.1043 46.7182 89.2103 47.7692C89.5064 50.7025 89.7988 53.7527 90.0784 56.8332C90.4397 60.8137 90.7665 64.7054 91.0499 68.3978C91.0499 68.4041 91.0537 68.4105 91.0588 68.4156C91.064 68.4206 91.0703 68.4219 91.078 68.4219C91.0844 68.4219 91.0908 68.4181 91.0959 68.413C91.101 68.4079 91.1023 68.4016 91.1023 68.394C90.8188 64.7041 90.492 60.8125 90.1307 56.8294C89.8511 53.7514 89.5588 50.7025 89.2626 47.7654C89.1554 46.6979 89.029 45.4565 88.8962 44.2253C88.8949 44.2114 88.8834 44.2038 88.8694 44.2025L82.3483 44.3408L82.3445 44.3167C82.241 43.658 82.1453 42.9852 82.0598 42.3176C82.0061 41.9051 81.9704 41.5877 81.941 41.2907C81.9181 41.0508 81.8912 40.7792 81.8912 40.519C81.8912 40.2689 81.9321 39.9783 82.0202 39.6038C82.1185 39.1837 82.2628 38.7318 82.4594 38.2216C82.6828 37.6428 82.9534 37.0462 83.2853 36.3989C83.6581 35.6716 84.0794 34.9379 84.5735 34.1586C84.5773 34.1522 84.5786 34.1459 84.5773 34.1395C84.576 34.1332 84.5722 34.1268 84.5658 34.123C84.5594 34.1192 84.5531 34.1179 84.5467 34.1192C84.5403 34.1205 84.5339 34.1243 84.5301 34.1306C84.036 34.9125 83.6134 35.6462 83.2394 36.3747C82.9062 37.0234 82.6355 37.6212 82.4121 38.2025C82.2142 38.7141 82.07 39.1685 81.9704 39.5911C81.881 39.9694 81.8402 40.2639 81.8402 40.5177C81.8402 40.7805 81.8683 41.0648 81.8912 41.2945C81.9206 41.5941 81.9576 41.9114 82.01 42.3239C82.0955 42.9878 82.19 43.6554 82.2921 44.3104L82.2972 44.3421L81.7138 44.3548C81.701 44.3548 81.6908 44.3637 81.6883 44.3764C81.5274 45.4426 81.3819 46.524 81.258 47.4557C80.9631 49.6706 80.6797 51.9833 80.4154 54.3302L80.4052 54.4228L80.3631 54.3403C79.7069 53.0596 78.383 51.7484 76.4259 50.4449C75.1212 49.5741 73.6428 48.7669 71.9091 47.9748C71.3717 47.7299 70.838 47.4988 70.3223 47.2907C70.1065 47.2031 69.9252 47.1308 69.7414 47.0635L69.7159 47.0546L69.7248 47.0292L71.8389 40.717C71.8402 40.7132 71.8402 40.7081 71.8402 40.7043C71.8389 40.7005 71.8377 40.6967 71.8351 40.6929C71.6423 40.4657 71.4559 40.2118 71.2849 39.9707C70.847 39.3563 70.4206 38.6798 70.0197 37.9588C68.7405 35.6614 67.8673 33.2231 67.4256 30.7124C67.4217 30.6997 67.4102 30.6908 67.3975 30.6908Z" fill="#A7D1F3"/>
<path fill-rule="evenodd" clip-rule="evenodd" d="M86.902 18.662C86.9774 18.86 87.068 19.0593 87.1574 19.2509C87.3514 19.6647 87.5723 20.0773 87.8276 20.458C87.9795 20.6852 88.1468 20.9074 88.337 21.1041C88.3574 21.1257 88.3561 21.16 88.3357 21.1803C88.314 21.2006 88.2795 21.2006 88.2591 21.179C88.0651 20.9772 87.8927 20.75 87.7382 20.5177C87.4804 20.1318 87.257 19.7155 87.0603 19.2966C86.9697 19.1024 86.8791 18.9006 86.8012 18.7001C86.791 18.6721 86.805 18.6417 86.8318 18.6303C86.8599 18.6201 86.8906 18.6341 86.902 18.662Z" fill="#3F4553"/>
<path d="M88.2975 21.2988C88.2962 21.2988 88.295 21.2988 88.2937 21.2988C88.2516 21.2975 88.212 21.281 88.1826 21.2506C88.0039 21.064 87.829 20.8444 87.6503 20.5753C87.4102 20.2161 87.1856 19.8125 86.9647 19.3403C86.8498 19.0966 86.7694 18.91 86.703 18.7361C86.6877 18.6967 86.6889 18.6536 86.7068 18.6155C86.7247 18.5774 86.7553 18.5482 86.7949 18.533C86.8345 18.5178 86.8779 18.519 86.9162 18.5368C86.9545 18.5546 86.9839 18.585 86.9992 18.6244C87.063 18.7907 87.1409 18.9709 87.2519 19.207C87.4664 19.6652 87.6835 20.0549 87.9145 20.4001C88.0843 20.6527 88.2465 20.8596 88.4124 21.0323C88.4724 21.0957 88.4711 21.196 88.4073 21.2557C88.378 21.2836 88.3396 21.2988 88.2975 21.2988Z" fill="#3F4553"/>
<path fill-rule="evenodd" clip-rule="evenodd" d="M80.1616 16.4329C80.3531 16.4722 80.5458 16.5077 80.7386 16.542C81.1561 16.6169 81.5774 16.6842 81.9974 16.7375C82.2719 16.7718 82.5489 16.801 82.8259 16.8175C83.0429 16.8301 83.2778 16.8365 83.4936 16.8111C83.523 16.8073 83.5498 16.8289 83.5536 16.8581C83.5574 16.8873 83.5357 16.9139 83.5064 16.9177C83.2842 16.9444 83.0429 16.9368 82.8195 16.9241C82.5399 16.9088 82.2604 16.8784 81.9833 16.8441C81.5608 16.7908 81.1382 16.7235 80.7182 16.6486C80.5254 16.6144 80.3313 16.5788 80.1386 16.5395C80.1092 16.5331 80.0901 16.5052 80.0964 16.476C80.1041 16.4456 80.1335 16.4265 80.1616 16.4329Z" fill="#3F4553"/>
<path d="M83.1655 17.0395C83.0443 17.0395 82.9242 17.0345 82.8157 17.0281C82.5655 17.0142 82.2974 16.9875 81.9719 16.9469C81.5825 16.8974 81.1676 16.8339 80.7016 16.7501C80.5408 16.7209 80.3301 16.6829 80.1195 16.6397C80.0339 16.6219 79.979 16.5382 79.9956 16.4531C80.0046 16.4112 80.0288 16.3757 80.0646 16.3529C80.1003 16.33 80.1424 16.3224 80.1833 16.33C80.3825 16.3706 80.5854 16.4074 80.7578 16.4392C81.2174 16.5217 81.6272 16.5851 82.0115 16.6334C82.3306 16.674 82.591 16.6994 82.8336 16.7121C83.0353 16.7235 83.2702 16.7324 83.4834 16.707C83.5256 16.7019 83.5664 16.7133 83.6009 16.74C83.6341 16.7666 83.6558 16.8035 83.6609 16.8453C83.6711 16.9317 83.6085 17.0103 83.5217 17.0205C83.403 17.0345 83.283 17.0395 83.1655 17.0395Z" fill="#3F4553"/>
<path fill-rule="evenodd" clip-rule="evenodd" d="M86.1437 24.0912C86.1475 24.2435 86.1641 24.4034 86.1833 24.5532C86.2241 24.8756 86.2931 25.2043 86.4042 25.5102C86.5012 25.7755 86.6416 26.0535 86.8497 26.249C86.8714 26.2693 86.8727 26.3035 86.8523 26.3251C86.8318 26.3467 86.7974 26.348 86.7757 26.3276C86.5535 26.1195 86.4054 25.8301 86.302 25.547C86.1884 25.2348 86.1182 24.8972 86.0761 24.5671C86.0556 24.4136 86.039 24.2498 86.0352 24.0937C86.0339 24.0645 86.0582 24.0391 86.0875 24.0391C86.1182 24.0378 86.1424 24.062 86.1437 24.0912Z" fill="#3F4553"/>
<path d="M86.8129 26.4462C86.7733 26.4462 86.735 26.4322 86.7044 26.403C86.5014 26.2126 86.3329 25.9359 86.2039 25.5831C86.098 25.2924 86.0201 24.9548 85.9716 24.5816C85.9473 24.3899 85.9333 24.2363 85.9307 24.098C85.9295 24.0561 85.9448 24.0155 85.9741 23.985C86.0035 23.9545 86.0431 23.9368 86.0852 23.9368C86.1273 23.9342 86.1682 23.9507 86.1988 23.9799C86.2295 24.0091 86.2473 24.0485 86.2486 24.0904C86.2512 24.2173 86.2639 24.3607 86.2869 24.5422C86.3316 24.8938 86.4044 25.2073 86.5027 25.4764C86.6137 25.7836 86.7554 26.0184 86.9214 26.1745C86.9852 26.2342 86.9878 26.3345 86.9278 26.3979C86.8971 26.4297 86.855 26.4462 86.8129 26.4462Z" fill="#3F4553"/>
<path fill-rule="evenodd" clip-rule="evenodd" d="M77.3669 20.4173C77.4716 20.496 77.5903 20.5709 77.7027 20.6394C77.9912 20.8146 78.2963 20.9695 78.6078 21.1002C79.5449 21.4962 80.5739 21.6942 81.5927 21.58C81.622 21.5762 81.6488 21.5978 81.6527 21.6269C81.6565 21.6561 81.6348 21.6828 81.6054 21.6866C80.5688 21.8034 79.5219 21.6028 78.567 21.1992C78.2504 21.0659 77.9414 20.9085 77.6478 20.7308C77.5329 20.661 77.4103 20.5836 77.3031 20.5024C77.2788 20.4846 77.275 20.4503 77.2929 20.4275C77.3095 20.4034 77.3427 20.3995 77.3669 20.4173Z" fill="#3F4553"/>
<path d="M81.0171 21.8228C80.2 21.8228 79.3498 21.6438 78.5251 21.2948C78.1982 21.1564 77.8855 20.9965 77.5931 20.8188C77.4833 20.7515 77.3544 20.6716 77.2395 20.5853C77.1693 20.532 77.1565 20.4329 77.2088 20.3644C77.2344 20.3314 77.2714 20.3098 77.3135 20.3035C77.3556 20.2971 77.3978 20.3086 77.431 20.3339C77.5344 20.4126 77.6544 20.4875 77.7578 20.5497C78.0361 20.7185 78.3361 20.8721 78.6489 21.0041C79.6281 21.4179 80.6417 21.5817 81.5801 21.4763C81.6222 21.4712 81.663 21.4839 81.6962 21.5093C81.7294 21.536 81.7499 21.5728 81.755 21.6147C81.7652 21.701 81.7026 21.7797 81.6158 21.7898C81.4192 21.8127 81.2188 21.8228 81.0171 21.8228Z" fill="#3F4553"/>
<path fill-rule="evenodd" clip-rule="evenodd" d="M75.987 32.637C76.2105 32.7411 76.4709 32.9873 76.6279 33.1688C77.122 33.7387 77.4016 34.4813 77.5394 35.2124C77.5445 35.2416 77.5254 35.2695 77.496 35.2746C77.4667 35.2797 77.4386 35.2606 77.4335 35.2314C77.2981 34.5194 77.0275 33.7933 76.5462 33.2386C76.4211 33.0939 76.2781 32.9581 76.1224 32.8464C76.0688 32.8083 76.0024 32.7627 75.9424 32.7347C75.9156 32.722 75.9041 32.6903 75.9168 32.6636C75.927 32.6357 75.9602 32.6243 75.987 32.637Z" fill="#3F4553"/>
<path d="M77.4868 35.3788C77.4115 35.3788 77.3451 35.3255 77.3311 35.2506C77.1804 34.4573 76.8817 33.7845 76.4668 33.306C76.3366 33.1562 76.2 33.0293 76.0608 32.929C76.0174 32.8973 75.9523 32.8529 75.8974 32.8275C75.8591 32.8097 75.8297 32.778 75.8157 32.7386C75.8016 32.6993 75.8029 32.6561 75.8208 32.6181C75.8387 32.58 75.8706 32.5508 75.9102 32.5368C75.9497 32.5229 75.9931 32.5241 76.0314 32.5419C76.2689 32.6523 76.5357 32.9024 76.7068 33.0991C77.1638 33.6271 77.4791 34.3303 77.6426 35.1909C77.6502 35.2328 77.6413 35.2747 77.6183 35.309C77.594 35.3432 77.5583 35.3674 77.5162 35.375C77.506 35.3788 77.4957 35.3788 77.4868 35.3788ZM75.9842 32.6396C75.9842 32.6396 75.9855 32.6396 75.9842 32.6396C75.9842 32.6396 75.9855 32.6396 75.9842 32.6396Z" fill="#3F4553"/>
<path fill-rule="evenodd" clip-rule="evenodd" d="M83.7808 26.2285C83.5255 27.0459 83.2574 27.8633 82.9766 28.6731C82.7889 29.2151 82.5936 29.7635 82.374 30.2928C82.2987 30.4743 82.2182 30.6621 82.1238 30.8335C82.0855 30.9033 81.9987 31.062 81.908 31.0721C81.6501 31.1 81.3859 30.9972 81.1701 30.8652C80.7539 30.6114 80.3901 30.1887 80.108 29.8003C80.0901 29.7762 80.0965 29.7432 80.1194 29.7254C80.1437 29.7076 80.1769 29.714 80.1948 29.7368C80.468 30.1125 80.8242 30.5276 81.2263 30.7726C81.4216 30.8906 81.6629 30.9896 81.8953 30.9642C81.9336 30.9515 82.0216 30.7941 82.0408 30.7586C82.1327 30.5885 82.2106 30.4045 82.2846 30.2255C82.5004 29.7051 82.6906 29.1669 82.8757 28.6351C83.1566 27.8265 83.4234 27.0104 83.6787 26.1942C83.6877 26.1663 83.7183 26.1498 83.7464 26.1587C83.7745 26.1701 83.7898 26.2006 83.7808 26.2285Z" fill="#3F4553"/>
<path d="M81.8227 31.1821C81.6031 31.1821 81.3605 31.1046 81.1154 30.9561C80.7567 30.7378 80.3992 30.3799 80.0226 29.8633C79.9984 29.829 79.9882 29.7871 79.9945 29.7465C80.0009 29.7046 80.0239 29.6678 80.0584 29.6437C80.1299 29.5929 80.2282 29.6081 80.2805 29.6792C80.6265 30.1539 80.9635 30.4928 81.2814 30.687C81.4282 30.7759 81.644 30.8774 81.852 30.866C81.875 30.8368 81.9159 30.7734 81.9478 30.7124C82.0397 30.5423 82.1189 30.3532 82.1878 30.1895C82.4099 29.6513 82.6078 29.089 82.7763 28.6054C83.0495 27.8172 83.3202 26.9972 83.5781 26.1671C83.5908 26.1265 83.6176 26.0934 83.6559 26.0744C83.693 26.0541 83.7364 26.0503 83.7772 26.063C83.8168 26.0757 83.85 26.1023 83.8704 26.1404C83.8908 26.1772 83.8947 26.2204 83.8819 26.261C83.6228 27.0937 83.3508 27.9174 83.0764 28.7082C82.904 29.207 82.6997 29.7846 82.4712 30.3342C82.3959 30.5144 82.3142 30.7061 82.2159 30.885C82.1355 31.0297 82.0461 31.163 81.921 31.177C81.8878 31.1795 81.8559 31.1821 81.8227 31.1821Z" fill="#3F4553"/>
</svg>
