<svg width="29" height="23" viewBox="0 0 29 23" fill="none" xmlns="http://www.w3.org/2000/svg">
<path d="M19.3078 0C27.5578 4.125 27.5578 18.5625 19.3078 22.6875C31.6828 18.5625 31.6828 4.125 19.3078 0ZM16.2141 1.03125C20.3391 4.30824 20.3391 18.4476 16.2141 21.7246C24.4641 18.4476 24.4641 4.30824 16.2141 1.03125ZM11.3717 4.24888C9.0857 4.26274 6.84273 4.67543 5.61909 5.20685C4.71133 7.9871 4.56657 13.4516 5.18493 16.8418C4.64017 16.5669 4.00306 16.4201 3.35156 16.4193C1.50053 16.4193 0 17.5736 0 18.9974C0 20.4213 1.50053 21.5756 3.35156 21.5756C5.20259 21.5756 6.70312 20.4213 6.70312 18.9974C6.30571 15.8272 5.81754 11.5776 6.173 8.3345C8.60649 7.83679 11.1675 7.2116 13.565 7.64388C13.2974 10.1121 13.3698 12.9564 13.7828 15.2205C13.238 14.9456 12.6009 14.7988 11.9494 14.798C10.0983 14.798 8.59779 15.9523 8.59779 17.3762C8.59779 18.8 10.0983 19.9543 11.9494 19.9543C13.8004 19.9543 15.3009 18.8 15.3009 17.3762C15.0033 12.7043 14.0905 8.81893 15.3222 4.71526C14.1304 4.37579 12.7433 4.24056 11.3717 4.24888ZM11.7234 5.2566C12.4773 5.2519 13.226 5.30211 13.926 5.42147C13.8496 5.75657 13.7821 6.10919 13.7226 6.47438C11.279 6.11087 8.65799 6.56365 6.35353 7.09674C6.41319 6.77469 6.48363 6.45474 6.56474 6.13742C7.83589 5.63997 9.79675 5.26859 11.7234 5.2566Z" fill="black"/>
</svg>
