<svg width="24" height="25" viewBox="0 0 24 25" fill="none" xmlns="http://www.w3.org/2000/svg"><path d="M23.583 12.3c0-.99-.08-1.712-.254-2.46H12.032v4.465h6.631c-.133 1.11-.855 2.781-2.46 3.904l-.022.15 3.572 2.767.247.024c2.273-2.099 3.583-5.187 3.583-8.85" fill="#4285f4"/><path d="M12.032 24.065c3.249 0 5.976-1.07 7.968-2.915l-3.797-2.941c-1.016.709-2.38 1.203-4.17 1.203-3.183 0-5.883-2.099-6.846-5l-.141.012L1.332 17.3l-.049.134c1.979 3.931 6.043 6.632 10.75 6.632" fill="#34a853"/><path d="M5.187 14.412a7.4 7.4 0 0 1-.4-2.38c0-.829.146-1.631.387-2.38l-.007-.16-3.76-2.92-.124.059A12.04 12.04 0 0 0 0 12.032c0 1.939.468 3.77 1.283 5.401z" fill="#fbbc05"/><path d="M12.033 4.653c2.26 0 3.783.975 4.652 1.791l3.396-3.316C17.996 1.19 15.281 0 12.033 0c-4.706 0-8.77 2.7-10.75 6.631l3.891 3.022c.976-2.901 3.677-5 6.859-5" fill="#eb4335"/></svg>