<svg width="414" height="351" viewBox="0 0 414 351" fill="none" xmlns="http://www.w3.org/2000/svg">
  <path d="M109.01 103C94.04 43.18 38.11 2.182-23.463 5.887c-6.814.41-12.814-4.448-13.85-11.192l-4.236-27.522c-1.177-7.635 4.417-14.62 12.123-15.205a181.4 181.4 0 0 1 58.356 5.021c22.933 5.793 44.268 15.849 63.415 29.883S127.5 18.227 139.92 38.35a181.2 181.2 0 0 1 22.331 54.128c1.759 7.523-3.228 14.953-10.866 16.129l-27.536 4.235c-6.746 1.04-13.183-3.223-14.838-9.843m168.275-44.106c61.01-9.1 107.251-60.776 109.524-122.395.253-6.82 5.67-12.316 12.484-12.697l27.813-1.55c7.714-.43 14.131 5.813 13.966 13.532A181.1 181.1 0 0 1 430.42-6.643c-7.987 22.255-20.067 42.511-35.896 60.202s-34.628 31.938-55.866 42.347a181.4 181.4 0 0 1-56.055 16.976c-7.658 1.02-14.577-4.66-15.007-12.372l-1.55-27.803c-.373-6.812 4.49-12.805 11.24-13.813m39.878 120.311c31.442 53.045 96.753 76.354 154.698 55.206 6.412-2.34 13.549.598 16.47 6.767l11.924 25.164c3.305 6.98-.055 15.272-7.271 18.036a181.3 181.3 0 0 1-57.357 11.864c-23.632 1.002-46.95-2.534-69.311-10.513s-42.648-20.005-60.298-35.739a181.2 181.2 0 0 1-36.867-45.489c-3.832-6.705-1.178-15.252 5.803-18.562l25.174-11.927c6.171-2.922 13.559-.677 17.035 5.193" fill="#faf8f5"/>
</svg>
